<svg width="375" height="368" viewBox="0 0 375 368" fill="none" xmlns="http://www.w3.org/2000/svg">
<g clip-path="url(#clip0_799_27651)">
<path d="M262.979 186.515L265.65 204.494C265.65 204.494 272.893 200.368 280.138 200.958C287.381 201.548 291.077 204.494 293.887 200.368C297.238 195.445 283.668 178.853 262.982 186.515H262.979Z" fill="#B5EA24"/>
<g opacity="0.6">
<path d="M262.979 186.516L263.361 189.082C280.657 183.399 292.694 194.639 293.49 200.891C293.625 200.731 293.758 200.56 293.887 200.369C297.238 195.449 283.668 178.854 262.982 186.516H262.979Z" fill="white"/>
</g>
<path d="M265.652 206.096C265.411 206.096 265.172 206.042 264.949 205.936C264.471 205.703 264.139 205.253 264.061 204.73L261.391 186.752C261.279 186.004 261.71 185.28 262.421 185.016C275.999 179.984 287.672 184.842 293.215 191.886C295.99 195.412 296.758 199.008 295.219 201.269C292.678 205.002 289.411 204.296 285.63 203.478C284.005 203.126 282.165 202.731 280.011 202.555C273.368 202.012 266.519 205.848 266.449 205.887C266.202 206.026 265.927 206.096 265.652 206.096ZM264.765 187.592L266.919 202.081C269.708 200.827 274.945 198.931 280.271 199.363C282.638 199.554 284.675 199.994 286.31 200.348C290.052 201.158 291.298 201.323 292.559 199.471C293.13 198.633 292.668 196.382 290.688 193.863C287.197 189.426 277.901 183.295 264.767 187.592H264.765Z" fill="#525B2E"/>
<path d="M172.147 126.542C185.574 121.679 199.339 132.068 201.487 172.961L181.461 181.361C181.461 181.361 149.216 134.846 172.147 126.542Z" fill="#B5EA24"/>
<g opacity="0.6">
<path d="M169.414 129.514C182.571 124.749 196.048 134.63 198.607 173.498L200.924 172.526C198.775 131.632 185.013 121.243 171.584 126.107C167.924 127.431 165.674 129.733 164.47 132.662C165.708 131.34 167.33 130.269 169.411 129.514H169.414Z" fill="white"/>
</g>
<g opacity="0.2">
<path d="M172.147 126.542C185.574 121.679 199.339 132.068 201.487 172.961L181.461 181.361C181.461 181.361 149.216 134.846 172.147 126.542Z" fill="#525B2E"/>
</g>
<path d="M181.461 182.961C180.944 182.961 180.446 182.713 180.137 182.271C179.226 180.957 157.91 149.93 163.139 133.586C164.457 129.467 167.302 126.591 171.597 125.036C177.15 123.024 182.491 123.549 187.035 126.547C196.266 132.642 201.817 148.662 203.089 172.875C203.125 173.55 202.731 174.174 202.108 174.435L182.081 182.835C181.879 182.92 181.668 182.959 181.458 182.959L181.461 182.961ZM178.113 127.028C176.377 127.028 174.568 127.367 172.694 128.045C169.339 129.26 167.216 131.389 166.201 134.556C161.953 147.824 178.362 173.773 182.058 179.368L199.819 171.918C198.158 143.504 191.008 133.009 185.263 129.214C183.054 127.755 180.661 127.025 178.116 127.025L178.113 127.028Z" fill="#525B2E"/>
<path d="M230.467 184.012C231.576 184.012 247.541 188.433 247.541 188.433C247.541 188.433 270.983 142.873 247.541 138.478C226.326 134.499 230.467 184.012 230.467 184.012Z" fill="#B5EA24"/>
<g opacity="0.6">
<path d="M250.123 142.316C253.196 142.893 255.456 144.181 257.075 145.977C255.765 141.747 252.864 138.62 247.541 137.621C226.326 133.642 230.467 183.155 230.467 183.155C230.698 183.155 231.578 183.347 232.821 183.652C232.383 171.789 232.72 139.052 250.126 142.316H250.123Z" fill="white"/>
</g>
<g opacity="0.2">
<path d="M230.467 184.012C231.576 184.012 247.541 188.433 247.541 188.433C247.541 188.433 270.983 142.873 247.541 138.478C226.326 134.499 230.467 184.012 230.467 184.012Z" fill="#525B2E"/>
</g>
<path d="M247.541 190.034C247.398 190.034 247.253 190.016 247.11 189.975C239.789 187.947 231.48 185.738 230.403 185.611C229.595 185.58 228.931 184.954 228.864 184.144C228.747 182.745 226.131 149.78 237.378 139.665C240.264 137.071 243.783 136.142 247.837 136.903C252.482 137.774 255.804 140.183 257.711 144.063C264.697 158.278 249.617 187.911 248.971 189.165C248.691 189.711 248.133 190.037 247.541 190.037V190.034ZM231.986 182.677C234.866 183.314 241.079 184.987 246.687 186.534C249.383 180.947 260.387 156.785 254.825 145.47C253.37 142.508 250.889 140.736 247.245 140.051C244.183 139.477 241.663 140.128 239.535 142.045C230.566 150.111 231.627 176.691 231.988 182.677H231.986ZM230.423 185.613C230.439 185.613 230.457 185.613 230.467 185.613C230.452 185.613 230.439 185.613 230.423 185.613Z" fill="#525B2E"/>
<path d="M274.284 202.596C274.183 202.658 274.087 202.72 273.988 202.782C274.149 203.869 274.263 204.968 274.325 206.08C274.359 206.717 274.377 207.353 274.377 207.995C274.377 235.281 243.028 257.399 204.36 257.399C178.785 257.399 156.417 247.724 144.202 233.279C142.671 231.473 141.301 229.59 140.104 227.642C139.507 227.466 138.934 227.267 138.389 227.047C138.179 226.962 137.971 226.876 137.771 226.786C133.422 224.851 130.796 221.659 129.482 218.844C128.372 216.474 128.193 214.371 128.686 213.497C129.366 212.299 132.114 212.325 134.649 212.633C134.45 211.107 134.343 209.56 134.343 207.995C134.343 180.711 165.687 158.596 204.36 158.596C232.876 158.596 257.41 170.625 268.325 187.884C271.068 187.354 275.262 187.424 277.255 191.972C279.593 197.301 277.151 200.746 274.286 202.596H274.284Z" fill="#19B5FE"/>
<g opacity="0.6">
<path d="M274.323 206.078C270.778 208.791 266.096 210.049 261.674 209.316C260.888 209.184 260.01 209.014 259.349 209.456C258.884 209.769 258.645 210.32 258.43 210.838C256.058 216.562 253.684 222.292 251.312 228.017C253.154 222.618 253.896 216.849 253.481 211.166C253.406 210.113 253.273 209.024 252.726 208.124C251.864 206.714 250.177 206.07 248.61 205.524C242.688 203.455 232.302 197.536 230.138 198.177C227.802 198.868 223.235 205.082 220.04 207.182C216.98 209.195 212.717 210.4 208.826 210.923C208.876 212.167 206.382 213.699 203.083 214.415C200.325 215.018 197.836 214.865 196.819 214.125C195.275 215.031 193.777 216.128 192.264 217.375C187.959 220.939 185.19 226.573 185.914 232.104C184.954 229.416 183.993 226.716 183.5 223.906C170.924 231.496 151.967 233.964 142.884 230.529C141.353 228.723 141.298 229.582 140.099 227.637C139.502 227.461 138.929 227.262 138.384 227.042C153.973 213.021 201.025 179.391 274.279 202.591C274.177 202.653 274.081 202.715 273.983 202.777C274.144 203.863 274.258 204.963 274.32 206.075L274.323 206.078Z" fill="white"/>
</g>
<path d="M268.478 187.881C268.478 187.881 266.768 191.087 257.008 189.759C247.253 188.432 239.934 178.069 229.512 178.607C219.088 179.148 216.648 189.979 207.781 192.633C198.908 195.285 194.252 192.411 187.601 196.612C180.947 200.811 165.384 219.369 134.8 212.633C134.6 211.106 134.494 209.559 134.494 207.994C134.494 201.788 136.116 195.849 139.074 190.375C149.133 171.794 174.635 158.593 204.511 158.593C223.899 158.593 241.445 164.152 254.119 173.136C260.091 177.366 264.983 182.356 268.476 187.881H268.478Z" fill="#FFD54F"/>
<g opacity="0.6">
<path d="M204.882 162.639C231.422 162.639 254.851 173.923 268.045 187.784C268.611 187.378 268.79 187.046 268.79 187.046C257.872 169.784 233.34 157.758 204.825 157.758C173.252 157.758 146.569 172.5 137.834 192.758C149.847 176.171 175.279 162.639 204.885 162.639H204.882Z" fill="white"/>
</g>
<path d="M204.358 259C176.159 259 150.612 247.241 139.053 228.993C131.556 226.538 128.626 221.067 127.702 218.787C126.695 216.299 126.54 214.025 127.287 212.706C128.066 211.335 129.851 210.737 132.851 210.869C132.776 209.904 132.737 208.942 132.737 207.995C132.737 194.264 140.26 181.394 153.924 171.755C167.418 162.233 185.33 156.992 204.36 156.992C232.043 156.992 257.309 168.403 269.112 186.144C273.573 185.631 277.045 187.486 278.732 191.33C280.857 196.176 279.723 200.674 275.714 203.566C275.893 205.043 275.984 206.531 275.984 208C275.984 221.731 268.46 234.601 254.797 244.24C241.302 253.762 223.39 259.003 204.36 259.003L204.358 259ZM130.066 214.335C129.965 214.716 129.989 216.157 130.954 218.205C131.784 219.97 134.385 224.272 140.561 226.106C140.94 226.22 141.264 226.468 141.472 226.804C152.304 244.416 176.987 255.795 204.358 255.795C242.078 255.795 272.768 234.353 272.768 207.995C272.768 206.347 272.644 204.671 272.397 203.015C272.301 202.376 272.602 201.743 273.158 201.409C275.501 199.999 277.857 197.329 275.786 192.611C274.567 189.835 272.158 188.772 268.632 189.455C267.983 189.579 267.321 189.295 266.968 188.736C256.001 171.396 231.425 160.192 204.36 160.192C166.64 160.192 135.95 181.635 135.95 207.992C135.95 209.444 136.048 210.934 136.245 212.421C136.31 212.913 136.144 213.407 135.794 213.759C135.444 214.11 134.95 214.281 134.457 214.222C131.263 213.831 130.274 214.224 130.069 214.335H130.066Z" fill="#525B2E"/>
<g opacity="0.6">
<path d="M187.515 254.251C191.942 252.523 195.939 249.706 199.045 246.118C208.23 247.346 218.153 245.913 227.14 243.655C234.165 241.888 240.62 239.239 246.913 235.662C247.512 235.32 248.135 234.955 248.823 234.919C249.401 234.888 249.962 235.095 250.51 235.284C253.587 236.337 256.844 236.87 260.096 236.849C257.031 238.132 253.585 238.499 250.315 237.894C249.843 237.806 249.357 237.697 248.885 237.788C248.41 237.876 247.998 238.155 247.595 238.422C244.022 240.791 240.176 242.752 236.156 244.253C225.251 248.324 213.394 248.924 201.755 249.281C201.168 249.3 200.574 249.318 200.013 249.491C198.599 249.926 197.675 251.229 196.637 252.28C193.45 255.505 188.301 256.633 184.051 255.035" fill="white"/>
</g>
<g opacity="0.2">
<path d="M268.478 187.882C268.478 187.882 266.768 191.087 257.008 189.76C247.253 188.433 239.934 178.07 229.512 178.608C219.088 179.148 216.648 189.98 207.781 192.634C198.908 195.285 194.252 192.411 187.601 196.612C180.947 200.811 165.384 219.369 134.8 212.633C134.6 211.107 134.494 209.56 134.494 207.995C134.494 201.789 136.116 195.849 139.074 190.376C141.568 189.416 144.132 188.64 146.68 188.024C156.14 185.735 165.983 185.034 175.673 185.96C181.585 186.526 187.536 187.693 193.416 186.87C200.989 185.812 207.687 181.575 213.986 177.25C217.419 174.89 221.024 172.394 225.176 171.998C229.043 171.626 232.806 173.134 236.566 174.109C241.678 175.434 247.203 175.77 252.171 173.988C252.871 173.737 253.515 173.455 254.119 173.134C260.091 177.364 264.983 182.354 268.476 187.879L268.478 187.882Z" fill="#525B2E"/>
</g>
<path d="M159.506 125.564C165.698 134.416 172.424 128.847 182.699 139.14C191.548 148.002 194.543 173.403 176.579 194.711C155.847 219.307 118.702 217.869 100.074 201.235C81.4516 184.602 69.4776 154.92 91.4299 128.174C113.382 101.428 147.976 109.078 159.506 125.564Z" fill="#B5EA24"/>
<g opacity="0.6">
<path d="M189.615 162.641C189.077 154.627 186.391 148.005 182.686 144.285C172.409 133.994 165.685 139.564 159.493 130.709C154.713 123.882 145.977 118.566 135.822 116.59C135.765 118.17 132.207 119.448 127.819 119.448C123.431 119.448 119.813 118.15 119.813 116.548C119.813 116.481 119.821 116.411 119.836 116.349C109.842 118.002 99.7214 123.197 91.4143 133.322C83.8417 142.546 80.3045 152.12 79.6869 161.392C78.9602 150.304 82.1938 138.555 91.4143 127.317C113.364 100.569 147.957 108.224 159.49 124.71C165.68 133.56 172.406 127.993 182.683 138.286C187.287 142.896 190.305 151.981 189.612 162.641H189.615Z" fill="white"/>
</g>
<g opacity="0.2">
<path d="M185.774 143.212C186.796 154.473 183.552 168.682 172.806 181.433C152.073 206.029 114.929 204.591 96.301 187.957C89.4628 181.849 83.5251 173.983 79.8296 165.151C81.7811 179.118 89.8572 191.799 99.8511 200.723C118.479 217.357 155.623 218.798 176.356 194.199C191.828 175.843 191.75 154.454 185.776 143.212H185.774Z" fill="#525B2E"/>
</g>
<path d="M134.886 215.096C121.209 215.096 108.041 210.496 99.0051 202.428C88.557 193.097 81.4386 181.158 78.9602 168.811C76.0095 154.105 79.8893 139.704 90.1868 127.16C100.248 114.898 114.01 108.462 128.95 109.036C142.03 109.538 154.541 115.667 160.824 124.651C163.549 128.544 166.331 129.289 169.855 130.231C173.634 131.242 178.336 132.499 183.838 138.012C188.826 143.01 191.686 152.323 191.299 162.321C190.845 174.091 186.054 185.962 177.812 195.743C168.29 207.04 154.567 213.859 139.173 214.946C137.743 215.047 136.31 215.096 134.886 215.096ZM127.131 112.203C113.88 112.203 101.699 118.189 92.6729 129.188C71.9689 154.413 82.0121 182.951 101.151 200.043C110.494 208.385 124.619 212.765 138.947 211.751C153.467 210.726 166.396 204.308 175.354 193.682C192.238 173.649 190.349 149.073 181.564 140.27C176.67 135.368 172.785 134.328 169.027 133.325C165.202 132.3 161.587 131.335 158.193 126.482C152.465 118.292 140.94 112.702 128.831 112.239C128.265 112.218 127.697 112.205 127.134 112.205L127.131 112.203Z" fill="#525B2E"/>
<path d="M114.096 182.509C115.567 182.817 117.031 182.917 118.419 182.726C119.805 182.54 121.09 182.077 122.162 181.345C123.233 180.61 124.082 179.601 124.738 178.375L124.873 178.15L124.98 177.907C125.05 177.744 125.12 177.581 125.198 177.418C125.268 177.252 125.361 177.094 125.418 176.919L125.597 176.391C125.886 175.695 126.015 174.932 126.293 174.163L126.347 174.016C126.529 173.509 127.09 173.245 127.598 173.426C127.949 173.55 128.182 173.856 128.234 174.2C128.366 175.084 128.494 175.992 128.395 176.919L128.346 177.614C128.335 177.85 128.263 178.077 128.219 178.31C128.169 178.543 128.117 178.776 128.06 179.006L127.975 179.355L127.845 179.694C127.658 180.144 127.515 180.615 127.258 181.039C127.136 181.254 127.007 181.469 126.877 181.681C126.745 181.893 126.625 182.113 126.454 182.302C125.834 183.096 125.097 183.813 124.256 184.379C122.577 185.528 120.573 186.089 118.642 186.117C116.707 186.146 114.804 185.685 113.182 184.765C112.591 184.428 112.383 183.678 112.72 183.088C112.993 182.612 113.535 182.385 114.044 182.493L114.096 182.504V182.509Z" fill="#525B2E"/>
<path d="M156.078 138.86C156.962 140.498 157.38 142.404 157.308 144.331C157.235 146.256 156.625 148.237 155.434 149.885C154.847 150.711 154.113 151.43 153.301 152.027C153.109 152.193 152.885 152.307 152.67 152.433C152.455 152.558 152.237 152.682 152.019 152.801C151.585 153.046 151.11 153.178 150.656 153.354L150.311 153.476L149.958 153.553C149.725 153.605 149.488 153.652 149.255 153.696C149.021 153.735 148.79 153.799 148.554 153.804L147.853 153.838C146.922 153.916 146.014 153.766 145.131 153.613C144.599 153.52 144.244 153.015 144.334 152.485C144.397 152.12 144.659 151.838 144.988 151.727L145.139 151.678C145.915 151.419 146.683 151.308 147.389 151.036L147.921 150.871C148.097 150.819 148.258 150.726 148.427 150.661C148.593 150.589 148.759 150.522 148.923 150.454L149.169 150.356L149.398 150.227C150.643 149.601 151.674 148.778 152.434 147.728C153.192 146.678 153.687 145.407 153.905 144.031C154.129 142.652 154.064 141.191 153.789 139.719L153.778 139.667C153.654 139 154.095 138.358 154.764 138.234C155.304 138.133 155.828 138.402 156.078 138.86Z" fill="#525B2E"/>
<path d="M222.485 188.653L205.853 199.484C186.69 186.539 173.338 161.641 176.488 146.075C176.559 145.718 176.639 145.364 176.73 145.012C177.545 141.869 179.076 139.153 181.427 137.05C183.389 135.293 185.922 133.966 189.077 133.175C189.529 133.061 189.978 132.968 190.419 132.895C190.437 132.893 190.453 132.893 190.471 132.887C194.068 132.313 197.302 133.087 200.198 134.838C209.304 140.33 215.086 155.411 218.473 168.214C221.333 179.032 222.485 188.226 222.485 188.653Z" fill="#B5EA24"/>
<g opacity="0.6">
<path d="M222.072 188.33L219.82 189.794C219.282 186.19 218.125 179.576 216.176 172.203C212.789 159.398 207.007 144.316 197.901 138.827C195.002 137.076 191.771 136.302 188.174 136.877C188.156 136.879 188.141 136.879 188.123 136.884C187.681 136.957 187.232 137.05 186.781 137.164C183.625 137.955 181.092 139.282 179.13 141.039C178.069 141.988 177.174 143.064 176.439 144.247C177.277 141.29 178.772 138.731 181.014 136.727C182.976 134.97 185.509 133.643 188.665 132.851C189.116 132.738 189.565 132.644 190.007 132.572C190.025 132.569 190.04 132.569 190.059 132.564C193.655 131.99 196.889 132.763 199.785 134.515C208.891 140.007 214.673 155.088 218.06 167.891C220.92 178.709 222.072 187.903 222.072 188.33Z" fill="white"/>
</g>
<path d="M205.852 201.088C205.538 201.088 205.222 200.995 204.952 200.811C185.686 187.794 171.879 162.833 174.807 146.303C176.164 138.633 180.965 133.555 188.686 131.62C193.801 130.339 198.609 131.413 202.985 134.812C219.189 147.407 224.094 188.28 224.094 188.655C224.094 189.196 223.819 189.7 223.365 189.995L206.732 200.826C206.465 201 206.159 201.088 205.852 201.088ZM192.804 134.297C191.719 134.297 190.609 134.439 189.469 134.726C182.976 136.354 179.107 140.436 177.97 146.859C175.331 161.767 188.304 185.209 205.878 197.557L220.782 187.851C220.419 185.021 219.033 176.016 216.262 166.217C212.115 151.562 206.683 141.458 200.553 136.995C198.075 135.192 195.519 134.297 192.807 134.297H192.804Z" fill="#525B2E"/>
<path d="M200.198 134.838C200.198 134.838 198.98 141.719 194.841 140.1C192.84 139.316 191.737 137.559 191.133 135.953C191.361 138.116 191.063 140.726 188.631 141.665C186.524 142.48 184.793 141.478 183.557 140.203C184.323 141.789 184.723 143.657 183.456 145.015C180.794 147.865 176.727 145.015 176.727 145.015C177.542 141.872 179.073 139.155 181.424 137.052C183.386 135.296 185.919 133.969 189.075 133.177C189.526 133.063 189.975 132.97 190.416 132.898C190.406 132.771 190.403 132.701 190.403 132.701C190.403 132.701 190.427 132.766 190.468 132.89C194.065 132.316 197.299 133.089 200.195 134.841L200.198 134.838Z" fill="white"/>
<path d="M180.545 146.484C178.492 146.484 176.634 145.206 176.605 145.188L176.483 145.102L176.519 144.957C177.373 141.667 178.974 138.953 181.282 136.889C183.324 135.06 185.929 133.741 189.023 132.965C189.412 132.866 189.801 132.784 190.188 132.716V132.711L190.115 131.319L190.603 132.626L190.614 132.652C194.011 132.15 197.273 132.825 200.307 134.656L200.431 134.731L200.405 134.876C200.377 135.042 199.66 138.956 197.447 140.192C196.637 140.645 195.731 140.681 194.758 140.298C193.357 139.75 192.212 138.656 191.408 137.106C191.408 139.543 190.484 141.178 188.706 141.863C187.141 142.466 185.577 142.174 184.128 141.018C184.731 142.725 184.557 144.142 183.612 145.159C182.683 146.155 181.585 146.486 180.542 146.486L180.545 146.484ZM176.976 144.916C177.661 145.348 181.051 147.275 183.303 144.864C184.297 143.798 184.318 142.262 183.368 140.293L182.789 139.093L183.716 140.05C185.25 141.636 186.879 142.109 188.558 141.46C190.897 140.557 191.135 137.978 190.923 135.971L190.746 134.305L191.335 135.875C192.101 137.911 193.307 139.266 194.922 139.897C195.77 140.231 196.551 140.203 197.244 139.817C199.056 138.806 199.811 135.655 199.961 134.944C197 133.192 193.819 132.571 190.507 133.099L190.328 133.128C189.934 133.195 189.532 133.28 189.134 133.381C186.109 134.139 183.563 135.427 181.575 137.207C179.366 139.183 177.82 141.775 176.981 144.916H176.976Z" fill="#525B2E"/>
<path d="M180.724 147.914C178.847 147.914 176.966 147.019 175.855 146.23C175.349 145.87 175.118 145.237 175.271 144.636C176.187 141.105 177.913 138.18 180.407 135.944C180.415 135.937 180.425 135.929 180.433 135.921C182.631 133.958 185.416 132.545 188.709 131.72C188.953 131.658 189.197 131.604 189.441 131.552C189.625 131.399 189.848 131.288 190.097 131.236C190.393 131.174 190.689 131.205 190.954 131.309C194.468 130.905 197.833 131.658 200.974 133.557C201.503 133.878 201.783 134.488 201.674 135.099C201.589 135.577 200.771 139.807 198.077 141.312C196.93 141.954 195.62 142.016 194.289 141.493C193.461 141.17 192.721 140.482 192.052 139.571C191.665 141.028 190.845 142.316 189.244 143.03C187.824 143.661 186.555 143.568 185.442 143.097C185.488 144.078 185.286 145.035 184.676 145.883C183.594 147.389 182.159 147.914 180.721 147.914H180.724ZM178.5 144.308C179.566 144.836 181.321 145.415 182.237 144.137C182.901 143.211 181.886 141.048 181.084 139.558C179.961 140.911 179.097 142.5 178.5 144.308ZM183.526 137.279C185.307 139.664 186.615 140.922 188.019 140.296C189.534 139.62 189.475 137.147 189.184 134.692C187.007 135.267 185.109 136.133 183.529 137.279H183.526ZM192.599 134.198C194.122 137.843 195.039 138.568 195.389 138.705C196.017 138.95 196.37 138.831 196.609 138.7C197.465 138.224 198.114 136.749 198.464 135.59C196.572 134.625 194.631 134.162 192.599 134.198Z" fill="#525B2E"/>
<g opacity="0.2">
<path d="M222.485 188.653L205.853 199.484C186.69 186.539 173.338 161.64 176.488 146.075C187.993 162.259 214.362 195.681 218.475 168.216C221.335 179.035 222.487 188.228 222.487 188.655L222.485 188.653Z" fill="#525B2E"/>
</g>
<path d="M279.985 170.841C277.081 180.86 271.772 190.478 265.107 196.335C265.107 196.335 255.303 198.529 239.151 189.576C239.151 189.576 242.252 186.914 244.222 169.45C245.426 158.766 246.83 146.178 252.225 138.759C252.788 137.985 253.395 137.266 254.047 136.614C257.366 133.293 261.918 131.632 268.276 132.69C274.813 133.774 278.849 138.079 280.86 144.052C283.341 151.417 282.749 161.314 279.988 170.844L279.985 170.841Z" fill="#B5EA24"/>
<g opacity="0.6">
<path d="M280.818 144.093C278.807 138.117 274.771 133.813 268.234 132.729C261.938 131.681 257.413 133.301 254.104 136.56C256.886 135.205 260.283 134.718 264.466 135.414C271.003 136.498 275.039 140.803 277.05 146.776C279.531 154.141 278.939 164.038 276.178 173.568C273.658 182.257 269.332 190.641 263.882 196.534C264.661 196.464 265.071 196.374 265.071 196.374C271.735 190.517 277.045 180.902 279.949 170.88C282.713 161.348 283.302 151.453 280.821 144.091L280.818 144.093Z" fill="white"/>
</g>
<path d="M262.019 198.177C257.701 198.177 249.453 197.127 238.331 190.937C237.843 190.665 237.456 190.217 237.433 189.661C237.409 189.121 237.591 188.66 238.027 188.35C238.344 187.946 240.897 184.286 242.615 169.243L242.631 169.111C244.084 156.389 245.893 140.555 254.714 133.935C258.427 131.146 263.096 130.199 268.587 131.12C275.664 132.308 280.572 137.018 282.775 144.748C284.932 152.307 284.311 162.525 281.073 172.782C277.836 183.031 272.387 192.059 266.117 197.546C265.914 197.725 265.67 197.849 265.406 197.906C265.268 197.937 264.098 198.18 262.016 198.18L262.019 198.177ZM241.408 188.958C254.241 195.712 262.523 195.086 264.334 194.838C276.399 183.965 283.847 160.207 279.687 145.622C277.821 139.075 273.907 135.259 268.055 134.279C263.405 133.5 259.673 134.225 256.65 136.493C248.932 142.285 247.211 157.359 245.825 169.473L245.81 169.605C244.481 181.223 242.646 186.56 241.408 188.958Z" fill="#525B2E"/>
<path d="M280.86 144.05C280.86 144.05 276.897 146.521 274.452 143.54C272.231 140.832 274.496 136.377 274.927 135.594C274.429 136.439 271.265 141.437 266.797 140.134C263.174 139.081 262.229 135.425 261.985 133.617C262.081 135.498 261.949 139.355 259.367 140.027C255.933 140.917 254.047 136.61 254.047 136.61C257.366 133.291 261.92 131.63 268.276 132.686C274.813 133.77 278.848 138.074 280.86 144.047V144.05Z" fill="white"/>
<path d="M277.554 145.216C276.443 145.216 275.249 144.852 274.286 143.675C272.771 141.825 273.24 139.236 273.876 137.438C272.439 139.153 269.924 141.269 266.737 140.34C264.012 139.549 262.761 137.311 262.188 135.5C262.045 137.497 261.417 139.719 259.421 140.237C255.856 141.163 253.87 136.744 253.849 136.698L253.79 136.563L253.894 136.46C257.524 132.828 262.375 131.488 268.312 132.476C274.465 133.495 278.874 137.474 281.065 143.98L281.075 144.052V144.171L280.974 144.233C280.948 144.249 279.362 145.216 277.556 145.216H277.554ZM275.057 135.8C274.504 136.84 272.571 140.907 274.618 143.403C276.687 145.925 279.876 144.358 280.6 143.954C279.391 140.449 277.517 137.704 275.057 135.8ZM262.198 133.588C262.46 135.526 263.413 138.925 266.856 139.926C271.058 141.152 274.066 136.61 274.709 135.536C272.859 134.191 270.692 133.301 268.24 132.895C262.426 131.93 257.864 133.159 254.304 136.654C254.651 137.35 256.424 140.568 259.312 139.818C261.783 139.176 261.856 135.272 261.77 133.627L262.198 133.588Z" fill="#525B2E"/>
<path d="M277.572 146.507C276.087 146.507 274.525 145.997 273.287 144.489C272.366 143.366 272.023 142.06 271.995 140.774C270.459 141.695 268.561 142.21 266.374 141.571C264.69 141.082 263.48 140.148 262.613 139.069C261.978 140.327 261.012 141.147 259.746 141.475C256.045 142.435 253.499 139.103 252.669 137.209C252.422 136.646 252.547 135.988 252.983 135.551C256.925 131.609 262.154 130.147 268.525 131.208C275.177 132.31 279.936 136.586 282.287 143.571C282.339 143.723 282.365 143.886 282.365 144.047C282.365 144.567 282.098 145.048 281.659 145.319C280.738 145.891 279.204 146.504 277.577 146.504L277.572 146.507ZM275.532 137.903C274.964 139.481 274.655 141.421 275.615 142.593C276.578 143.767 277.995 143.596 278.971 143.273C278.096 141.113 276.946 139.32 275.532 137.903ZM263.55 133.901C263.854 135.559 264.726 137.973 267.217 138.694C269.737 139.429 271.852 137.277 272.919 135.88C271.476 135.037 269.843 134.465 268.029 134.165C266.436 133.901 264.944 133.81 263.553 133.901H263.55ZM255.936 136.904C256.53 137.781 257.607 138.932 258.988 138.578C260.109 138.286 260.498 136.296 260.501 134.426C258.814 134.92 257.299 135.745 255.936 136.902V136.904Z" fill="#525B2E"/>
<g opacity="0.2">
<path d="M279.985 170.842C277.081 180.861 271.772 190.479 265.107 196.336C265.107 196.336 255.303 198.53 239.151 189.576C239.151 189.576 242.252 186.914 244.222 169.45C245.426 158.767 246.83 146.179 252.225 138.76C251.459 155.657 252.015 198.405 279.985 170.845V170.842Z" fill="#525B2E"/>
</g>
<path d="M184.097 256.899C183.285 256.899 182.589 256.289 182.501 255.466C182.408 254.589 183.046 253.8 183.926 253.705C184.014 253.694 192.713 252.652 197.914 244.801C198.241 244.307 198.82 244.032 199.406 244.089C199.702 244.118 229.338 246.725 247.673 232.697C248.184 232.306 248.882 232.257 249.446 232.575C249.513 232.611 256.408 236.409 262.281 233.568C263.081 233.186 264.041 233.514 264.427 234.311C264.814 235.108 264.482 236.065 263.683 236.45C257.67 239.355 251.221 236.952 248.82 235.842C231.16 248.725 205.39 247.716 200.052 247.351C193.964 255.777 184.673 256.845 184.269 256.889C184.211 256.894 184.154 256.897 184.097 256.897V256.899Z" fill="#525B2E"/>
<path d="M248.649 235.571C248.377 235.571 248.099 235.501 247.845 235.354C247.076 234.909 246.814 233.928 247.261 233.165C253.372 222.66 252.446 203.737 252.435 203.545C252.389 202.663 253.069 201.908 253.956 201.861C254.854 201.817 255.599 202.493 255.646 203.375C255.69 204.19 256.637 223.436 250.04 234.772C249.742 235.284 249.202 235.571 248.649 235.571Z" fill="#525B2E"/>
<path d="M199.253 247.285C199.019 247.285 198.783 247.233 198.557 247.127C182.652 239.516 181.152 220.622 181.097 219.82C181.035 218.938 181.702 218.172 182.59 218.11C183.485 218.045 184.243 218.713 184.305 219.595C184.323 219.846 185.782 237.46 199.951 244.237C200.75 244.62 201.088 245.577 200.704 246.374C200.429 246.948 199.852 247.282 199.253 247.282V247.285Z" fill="#525B2E"/>
<path d="M273.985 202.78C262.733 212.043 241.777 196.61 233.13 194.621C224.478 192.634 226.032 199.481 216.498 204.787C206.963 210.093 204.744 206.334 197.205 209.653C189.669 212.967 190.331 217.39 172.149 224.683C153.968 231.975 140.104 227.64 140.104 227.64C136.214 226.483 133.437 224.38 131.572 222.122C129.716 219.876 128.761 217.484 128.501 215.719C128.356 214.736 128.431 213.947 128.688 213.495C129.368 212.297 132.117 212.323 134.652 212.631C165.236 219.367 180.799 200.809 187.453 196.61C194.104 192.409 198.76 195.283 207.633 192.631C216.5 189.977 218.94 179.146 229.364 178.605C239.784 178.065 247.105 188.428 256.86 189.757C266.618 191.084 268.33 187.879 268.33 187.879C270.139 187.533 272.576 187.442 274.598 188.725C275.584 189.349 276.474 190.301 277.141 191.705C277.183 191.791 277.224 191.876 277.263 191.967C279.684 197.482 276.983 200.979 273.993 202.777L273.985 202.78Z" fill="#7FDCFF"/>
<g opacity="0.2">
<path d="M273.985 202.78C262.733 212.043 241.777 196.61 233.13 194.621C224.478 192.634 226.032 199.482 216.498 204.787C206.963 210.093 204.744 206.334 197.205 209.653C189.669 212.967 190.331 217.391 172.149 224.683C153.968 231.975 140.104 227.64 140.104 227.64C136.214 226.483 133.437 224.38 131.572 222.122C139.108 224.204 146.475 224.742 154.261 224.129C164.449 223.325 175.121 220.19 183.311 214.09C188.833 209.977 192.145 204.648 198.98 203.755C200.94 203.496 204.856 203.517 206.815 203.279C211.471 202.713 215.849 200.315 219.381 197.236C222.365 194.636 225.124 190.901 229.004 190.102C234.09 189.056 244.523 195.286 249.539 197.456C255.583 200.066 262.829 202.154 269.117 200.203C272.766 199.073 275.563 196.026 276.881 192.507C276.983 192.238 277.068 191.972 277.136 191.705C277.177 191.791 277.219 191.876 277.258 191.967C279.679 197.482 276.978 200.979 273.988 202.777L273.985 202.78Z" fill="#525B2E"/>
</g>
<g opacity="0.6">
<path d="M275.024 188.301C271.556 192.238 266.221 194.435 261.025 194.631C253.767 194.905 246.762 191.886 240.599 188.06C236.922 185.774 232.928 183.057 228.651 183.777C224.626 184.457 221.807 187.952 218.704 190.596C213.978 194.618 207.848 196.977 201.635 197.156C200.013 197.205 198.376 197.112 196.777 197.397C192.295 198.198 188.94 201.761 185.52 204.751C176.403 212.721 164.655 217.649 152.561 218.562C144.573 219.168 136.464 218.019 128.932 215.293C128.787 214.31 128.862 213.521 129.119 213.068C129.799 211.87 132.547 211.896 135.083 212.204C165.667 218.94 181.23 200.382 187.884 196.183C194.535 191.982 199.191 194.856 208.064 192.205C216.931 189.551 219.371 178.719 229.795 178.179C240.215 177.638 247.536 188.001 257.291 189.331C267.049 190.658 268.761 187.453 268.761 187.453C270.57 187.106 273.007 187.015 275.029 188.298L275.024 188.301Z" fill="white"/>
</g>
<path d="M150.841 230.539C144.143 230.539 139.938 229.269 139.622 229.168C131.712 226.819 128.652 221.125 127.705 218.789C126.695 216.301 126.54 214.027 127.287 212.708C128.226 211.055 130.627 210.527 134.847 211.042C134.899 211.05 134.948 211.057 134.997 211.068C159.895 216.552 174.602 204.712 182.504 198.351C184.079 197.083 185.442 195.986 186.594 195.259C190.723 192.649 194.208 192.525 197.896 192.393C200.66 192.295 203.517 192.191 207.171 191.1C210.703 190.044 213.153 187.48 215.745 184.769C219.238 181.117 222.848 177.343 229.281 177.009C235.515 176.696 240.581 179.854 245.488 182.917C249.36 185.336 253.019 187.62 257.078 188.171C264.599 189.196 266.652 187.374 266.932 187.074C266.981 186.955 266.999 186.966 267.108 186.839C268.172 185.6 269.815 185.044 271.616 185.313C274.525 185.745 277.32 188.107 278.732 191.33C280.992 196.478 279.568 201.24 274.92 204.091C265.969 211.337 252.069 204.766 241.909 199.965C238.191 198.208 234.978 196.69 232.769 196.18C228.659 195.236 227.631 196.47 225.376 199.176C223.64 201.258 221.483 203.848 217.281 206.186C211.598 209.35 208.196 209.487 205.193 209.609C202.881 209.702 200.885 209.785 197.854 211.117C195.197 212.286 193.658 213.59 191.706 215.24C188.382 218.055 184.245 221.555 172.746 226.167C164.195 229.597 156.597 230.536 150.841 230.536V230.539ZM130.066 214.335C129.968 214.715 129.989 216.156 130.954 218.207C131.784 219.972 134.385 224.271 140.561 226.105C140.714 226.154 154.17 230.167 171.547 223.197C182.561 218.779 186.48 215.465 189.625 212.801C191.688 211.055 193.471 209.547 196.554 208.188C200.143 206.61 202.642 206.507 205.061 206.409C207.96 206.29 210.7 206.178 215.714 203.39C219.394 201.344 221.257 199.103 222.903 197.13C225.342 194.201 227.452 191.674 233.491 193.06C236.039 193.648 239.395 195.233 243.285 197.07C249.866 200.179 258.15 204.093 265.055 204.096C268.027 204.096 270.744 203.372 272.963 201.545C273.025 201.496 273.087 201.45 273.155 201.408C275.498 199.998 277.855 197.329 275.784 192.61C274.676 190.08 272.6 188.696 271.139 188.479C270.466 188.378 269.955 188.505 269.61 188.852C268.93 189.853 266.145 192.636 256.639 191.345C251.896 190.699 247.769 188.122 243.778 185.631C239.088 182.703 234.656 179.937 229.445 180.206C224.291 180.473 221.268 183.631 218.07 186.979C215.301 189.873 212.439 192.866 208.092 194.168C204.041 195.378 200.836 195.492 198.007 195.593C194.486 195.72 191.706 195.818 188.309 197.963C187.313 198.591 186.02 199.634 184.52 200.839C177.7 206.328 166.064 215.696 147.553 215.696C143.499 215.696 139.113 215.245 134.377 214.208C131.245 213.833 130.266 214.224 130.064 214.332L130.066 214.335Z" fill="#525B2E"/>
<g opacity="0.2">
<path d="M274.515 186.933C274.515 186.933 279.29 188.518 281.439 193.607C282.529 196.186 284.483 198.323 287.068 199.417C289.367 200.392 292.203 200.907 294.908 199.559L291.902 201.699L285.892 202.555L279.882 201.272L277.305 200.415C277.305 200.415 277.733 196.99 277.733 196.564C277.733 196.137 276.993 191.354 276.721 191.178C276.446 191.002 274.515 186.935 274.515 186.935V186.933Z" fill="#525B2E"/>
</g>
<g opacity="0.2">
<path d="M274.022 203.755C274.183 205.123 274.271 206.51 274.271 207.909C274.271 235.196 242.921 257.314 204.254 257.314C176.112 257.314 151.858 245.603 140.732 228.708C154.152 240.721 176.366 247.861 201.506 246.516C237.062 244.615 266.784 226.377 274.024 203.755H274.022Z" fill="#525B2E"/>
</g>
<path d="M162.08 168.946C163.819 170.128 165.015 171.812 165.602 173.675C166.406 176.215 166.077 179.089 164.452 181.464C162.965 183.637 160.694 184.956 158.273 185.305C156.116 185.613 153.835 185.15 151.894 183.828C147.773 181.024 157.961 166.142 162.083 168.946H162.08Z" fill="#6F8421"/>
<path d="M165.602 173.674C166.406 176.214 166.077 179.088 164.452 181.463C162.965 183.636 160.694 184.955 158.273 185.304C157.466 182.759 157.798 179.885 159.423 177.51C160.91 175.337 163.181 174.018 165.604 173.674H165.602Z" fill="#FF7EA0"/>
<path d="M166.175 181.352C166.007 181.66 165.822 181.963 165.62 182.26C162.373 187.004 155.857 188.231 151.097 184.992C147.952 182.852 150.01 177.456 152.727 173.491C155.444 169.522 159.734 165.647 162.877 167.784C167.34 170.818 168.7 176.719 166.175 181.352ZM153.879 177.004C152.263 179.971 152.024 182.211 152.691 182.664C156.163 185.025 160.915 184.13 163.284 180.669C165.654 177.208 164.756 172.471 161.286 170.11C160.481 169.564 157.728 171.188 155.065 175.076C154.609 175.741 154.217 176.388 153.882 177.001L153.879 177.004Z" fill="#525B2E"/>
</g>
<defs>
<clipPath id="clip0_799_27651">
<rect width="218" height="150" fill="white" transform="translate(78 109)"/>
</clipPath>
</defs>
</svg>
