<svg width="375" height="414" viewBox="0 0 375 414" fill="none" xmlns="http://www.w3.org/2000/svg">
<g clip-path="url(#clip0_799_27653)">
<path d="M236.548 208.769L218.939 214.589H151.967L134.354 208.769C125.512 202.298 125.158 193.745 127.626 184.175H127.628C129.623 176.437 133.463 168.033 136.152 159.535L142.954 138.726C143.054 138.439 143.153 138.156 143.257 137.876C144.502 134.45 146.083 131.447 147.896 128.816C160.788 110.108 185.449 110.115 185.449 110.115C185.477 110.115 195.38 110.118 205.913 114.882H205.916C214.529 118.777 223.561 125.858 227.944 138.729L228.15 139.36L234.747 159.538C236.545 165.224 238.86 170.87 240.795 176.298C245.322 189.018 247.753 200.571 236.548 208.772V208.769Z" fill="#F1F2F2"/>
<g opacity="0.3">
<path d="M132.975 168.563C132.975 168.563 140.32 162.701 141.362 167.958L140.6 158.006L136.009 159.993" fill="#525B2E"/>
</g>
<g opacity="0.3">
<path d="M229.366 166.539C230.956 163.462 232.921 161.889 236.434 166.539L233.253 156.795H229.703" fill="#525B2E"/>
</g>
<g opacity="0.3">
<path d="M236.548 208.769L218.939 214.589H151.967L134.354 208.769C125.512 202.297 125.158 193.745 127.626 184.174H127.628C130.518 223.473 243.003 215.23 240.117 175.929L240.795 176.293C245.322 189.013 247.753 200.566 236.548 208.766V208.769Z" fill="#525B2E"/>
</g>
<g opacity="0.3">
<path d="M228.15 139.357C221.703 138.844 197.841 136.976 191.259 136.805C183.629 136.607 166.596 141.433 156.658 142.496C146.72 143.559 143.257 137.876 143.257 137.876L147.75 129.103C143.203 138.498 183.284 130.418 201.019 127.787C218.763 125.153 206.169 115.08 205.916 114.879C214.529 118.774 223.561 125.855 227.944 138.725L228.15 139.357Z" fill="#525B2E"/>
</g>
<path d="M218.937 215.706H151.965C151.845 215.706 151.726 215.686 151.615 215.649L134.004 209.827C133.892 209.79 133.788 209.738 133.694 209.668C120.072 199.699 125.51 185.24 131.265 169.931C132.585 166.425 133.947 162.798 135.086 159.198L141.893 138.379C147.077 123.172 158.66 115.992 167.464 112.644C176.938 109.045 185.085 109 185.449 109C185.449 109 185.449 109 185.452 109C185.814 109 193.963 109.042 203.437 112.644C212.241 115.992 223.824 123.172 229.001 138.367L235.808 159.188C236.952 162.798 238.314 166.425 239.634 169.931C245.392 185.24 250.827 199.699 237.205 209.666C237.111 209.735 237.007 209.79 236.895 209.824L219.284 215.647C219.17 215.684 219.054 215.704 218.934 215.704L218.937 215.706ZM152.146 213.476H218.756L236.027 207.768C248.105 198.802 243.208 185.782 237.545 170.716C236.215 167.183 234.841 163.529 233.685 159.872L226.885 139.073C222.956 127.545 214.799 119.349 202.643 114.728C193.537 111.267 185.531 111.23 185.452 111.23C185.37 111.23 177.303 111.277 168.189 114.755C156.07 119.381 147.938 127.567 144.014 139.088L137.214 159.884C136.061 163.531 134.686 167.186 133.357 170.719C127.691 185.785 122.796 198.804 134.872 207.771L152.143 213.479L152.146 213.476Z" fill="#525B2E"/>
<path d="M246.964 243.611C246.964 276.084 223.258 296.834 187.719 296.834C152.18 296.834 131.875 276.082 131.875 243.611C131.875 203.197 152.183 180.653 187.719 180.653C223.256 180.653 246.964 205.922 246.964 243.611Z" fill="#19B5FF"/>
<g opacity="0.3">
<path d="M246.962 243.611C246.962 276.085 223.256 296.837 187.717 296.837C152.178 296.837 131.873 276.085 131.873 243.611C131.873 242.311 131.895 241.032 131.938 239.769C133.193 270.458 153.324 289.9 187.719 289.9C222.115 289.9 245.372 270.508 246.885 239.883C246.937 241.111 246.962 242.353 246.962 243.611Z" fill="#3D73C8"/>
</g>
<path d="M187.719 297.949C170.158 297.949 155.626 292.847 145.693 283.197C135.924 273.706 130.759 260.017 130.759 243.608C130.759 223.258 135.765 207.317 145.636 196.232C155.505 185.153 169.662 179.536 187.719 179.536C223.824 179.536 248.081 205.285 248.081 243.608C248.081 259.804 242.318 273.505 231.413 283.23C220.617 292.857 205.506 297.949 187.719 297.949ZM187.719 181.768C152.429 181.768 132.992 203.732 132.992 243.611C132.992 276.24 153.451 295.719 187.719 295.719C221.988 295.719 245.848 275.264 245.848 243.611C245.848 206.621 222.487 181.768 187.719 181.768Z" fill="#008EF0"/>
<path d="M242.253 231.56C232.37 229.774 225.516 227.544 223.66 226.909C223.325 226.793 223.152 226.729 223.152 226.729C225.938 236.007 231.832 260.448 227.85 290.888C227.85 290.888 231.584 293.878 231.586 298.137C231.586 298.917 231.462 299.735 231.167 300.587C230.475 302.587 228.587 303.897 226.508 303.897H202.748C200.029 303.897 197.821 301.653 197.821 298.878V284.201C192.522 284.941 187.181 284.949 181.79 284.201V298.878C181.79 301.653 179.583 303.897 176.864 303.897H152.116C150.037 303.897 148.144 302.587 147.457 300.587C147.105 299.566 146.996 298.593 147.053 297.681C147.306 293.67 150.776 290.89 150.776 290.89C147.231 263.79 151.518 241.44 154.463 230.319H154.465C154.681 229.494 154.894 228.73 155.093 228.032C132.173 231.562 124.183 222.646 122.451 217.254C121.958 215.731 122.005 214.128 122.486 212.659C123.711 208.927 127.745 206.009 132.989 207.166C140.308 208.774 155.16 212.428 155.16 212.428C155.16 212.428 197.106 208.774 212.981 208.281C228.857 207.78 235.928 211.127 245.473 216.578C249.577 218.917 251.71 222.405 251.884 225.45C252.122 229.494 248.902 232.766 242.251 231.565L242.253 231.56Z" fill="#B5EA24"/>
<g opacity="0.6">
<path d="M251.549 227.935C251.378 224.888 249.247 221.4 245.139 219.056C235.593 213.605 228.523 210.258 212.646 210.758C196.772 211.251 154.825 214.906 154.825 214.906C154.825 214.906 139.973 211.251 132.655 209.644C127.346 208.474 123.275 211.477 122.107 215.273C121.948 210.451 126.557 205.746 132.992 207.163C140.31 208.771 155.162 212.426 155.162 212.426C155.162 212.426 197.109 208.771 212.983 208.278C228.86 207.778 235.93 211.125 245.476 216.576C250.765 219.591 252.779 224.509 251.549 227.935Z" fill="#F1F2F2"/>
</g>
<path d="M222.122 227.131C221.524 224.601 220.82 222.064 220.053 219.547C221.49 221.757 222.874 224.004 224.184 226.328C224.486 226.866 224.295 227.544 223.757 227.847C223.219 228.149 222.539 227.958 222.236 227.421C222.184 227.329 222.147 227.227 222.122 227.128V227.131Z" fill="#525B2E"/>
<path d="M157.67 221.9C157.244 224.107 156.698 226.305 156.098 228.493C155.934 229.09 155.319 229.439 154.721 229.276C154.123 229.112 153.773 228.498 153.937 227.901C153.969 227.779 154.024 227.665 154.091 227.566C155.341 225.725 156.554 223.847 157.67 221.897V221.9Z" fill="#525B2E"/>
<path d="M189.141 278.532C203.61 278.532 215.34 266.431 215.34 251.504C215.34 236.577 203.61 224.477 189.141 224.477C174.672 224.477 162.942 236.577 162.942 251.504C162.942 266.431 174.672 278.532 189.141 278.532Z" fill="#FED650"/>
<g opacity="0.3">
<path d="M215.34 251.504C215.34 266.434 203.611 278.534 189.143 278.534C174.676 278.534 162.942 266.434 162.942 251.504C162.942 250.991 162.957 250.481 162.984 249.976C163.751 264.192 175.172 275.475 189.143 275.475C203.115 275.475 214.531 264.194 215.298 249.976C215.325 250.479 215.34 250.989 215.34 251.504Z" fill="#525B2E"/>
</g>
<g opacity="0.6">
<path d="M215.34 251.505C215.34 251.842 215.333 252.179 215.318 252.511C214.809 238.047 203.284 226.484 189.141 226.484C174.998 226.484 163.468 238.047 162.962 252.511C162.947 252.179 162.939 251.842 162.939 251.505C162.939 236.58 174.671 224.479 189.141 224.479C203.611 224.479 215.338 236.58 215.338 251.505H215.34Z" fill="#F1F2F2"/>
</g>
<path d="M189.141 279.461C174.182 279.461 162.011 266.92 162.011 251.505C162.011 236.089 174.182 223.548 189.141 223.548C204.1 223.548 216.27 236.089 216.27 251.505C216.27 266.92 204.1 279.461 189.141 279.461ZM189.141 225.409C175.207 225.409 163.872 237.115 163.872 251.507C163.872 265.899 175.207 277.606 189.141 277.606C203.075 277.606 214.41 265.899 214.41 251.507C214.41 237.115 203.075 225.409 189.141 225.409Z" fill="#525B2E"/>
<path d="M197.546 283.133C199.049 282.813 200.607 282.397 202.123 281.946C203.646 281.495 205.154 280.985 206.648 280.43C208.143 279.88 209.617 279.266 211.071 278.597C212.532 277.942 213.941 277.182 215.343 276.396C214.043 277.335 212.718 278.26 211.331 279.085C209.952 279.922 208.54 280.712 207.094 281.441C205.65 282.174 204.184 282.865 202.688 283.502C201.187 284.141 199.694 284.733 198.109 285.266C197.528 285.462 196.901 285.15 196.705 284.57C196.509 283.99 196.821 283.363 197.402 283.168C197.442 283.155 197.484 283.143 197.523 283.133L197.548 283.128L197.546 283.133Z" fill="#525B2E"/>
<path d="M181.587 285.286C179.779 284.833 178.047 284.308 176.306 283.738C174.572 283.163 172.855 282.546 171.17 281.84C169.491 281.129 167.824 280.388 166.236 279.489C164.651 278.595 163.113 277.604 161.761 276.399C163.227 277.46 164.837 278.277 166.479 278.993C168.122 279.714 169.831 280.274 171.543 280.802C173.257 281.325 174.998 281.753 176.745 282.142C178.489 282.524 180.265 282.866 181.999 283.119H182.016C182.622 283.208 183.041 283.77 182.954 284.375C182.867 284.979 182.304 285.398 181.699 285.311C181.661 285.306 181.624 285.299 181.587 285.289V285.286Z" fill="#525B2E"/>
<path d="M226.511 305H202.75C199.423 305 196.719 302.255 196.719 298.88V285.457C192.143 285.995 187.504 285.995 182.899 285.457V298.88C182.899 302.255 180.193 305 176.869 305H152.113C149.538 305 147.246 303.37 146.41 300.944C144.622 295.766 148.243 291.735 149.603 290.454C146.147 263.293 150.382 241.101 153.574 229.365C150.511 229.771 147.732 229.952 145.214 229.952C126.458 229.952 122.139 219.893 121.399 217.594C120.454 214.658 121.223 211.348 123.406 208.952C125.832 206.289 129.412 205.246 133.232 206.086C140.047 207.585 153.545 210.89 155.251 211.311C158.288 211.048 197.761 207.649 212.951 207.176C229.123 206.668 236.233 210.028 246.027 215.619C252.109 219.09 253.93 224.65 252.583 228.344C251.254 231.991 247.319 233.599 242.06 232.65C233.856 231.171 227.778 229.405 224.804 228.453C227.709 238.856 232.636 262.051 229.026 290.457C230.386 291.74 234.005 295.771 232.219 300.949C231.378 303.375 229.088 305.005 226.516 305.005L226.511 305ZM197.826 283.098C198.091 283.098 198.349 283.192 198.55 283.368C198.791 283.579 198.93 283.881 198.93 284.201V298.878C198.93 301.036 200.644 302.79 202.75 302.79H226.511C228.14 302.79 229.592 301.757 230.125 300.223C231.752 295.498 227.205 291.787 227.161 291.75C226.86 291.51 226.707 291.128 226.756 290.747C230.72 260.461 224.816 236.109 222.095 227.046C221.976 226.645 222.092 226.211 222.395 225.926C222.7 225.639 223.139 225.549 223.534 225.693C223.608 225.72 231.036 228.414 242.452 230.475C246.565 231.218 249.574 230.138 250.504 227.586C251.509 224.828 249.897 220.369 244.928 217.532C235.471 212.133 228.609 208.89 213.018 209.378C197.355 209.866 155.676 213.486 155.256 213.521C155.135 213.531 155.013 213.521 154.897 213.494C154.748 213.456 139.973 209.827 132.754 208.239C129.73 207.572 126.919 208.373 125.039 210.434C123.386 212.247 122.798 214.73 123.503 216.915C125.607 223.448 135.098 229.992 154.926 226.939C155.299 226.88 155.676 227.019 155.924 227.301C156.172 227.584 156.261 227.973 156.157 228.334C152.964 239.473 148.159 262.393 151.87 290.747C151.92 291.128 151.766 291.51 151.466 291.752C151.28 291.904 146.879 295.528 148.501 300.226C149.03 301.762 150.481 302.792 152.113 302.792H176.866C178.972 302.792 180.686 301.038 180.686 298.88V284.203C180.686 283.884 180.825 283.581 181.066 283.371C181.307 283.16 181.627 283.066 181.944 283.111C187.181 283.837 192.472 283.837 197.672 283.111C197.724 283.103 197.774 283.101 197.826 283.101V283.098Z" fill="#525B2E"/>
<path d="M183.964 231.808C184.822 231.536 185.67 231.399 186.519 231.303C187.365 231.211 188.208 231.171 189.052 231.174C189.895 231.174 190.736 231.219 191.58 231.313C192.425 231.409 193.269 231.541 194.132 231.806C193.301 232.158 192.453 232.348 191.602 232.48C190.751 232.603 189.898 232.663 189.044 232.658C188.191 232.653 187.34 232.591 186.492 232.465C185.643 232.331 184.797 232.148 183.961 231.806L183.964 231.808Z" fill="#525B2E"/>
<path d="M179.498 235.834C181.193 235.656 182.867 235.594 184.542 235.542C186.214 235.502 187.881 235.482 189.543 235.48L194.524 235.468C196.186 235.453 197.836 235.443 199.528 235.279C197.992 236.047 196.285 236.384 194.613 236.632C192.929 236.865 191.235 236.969 189.548 236.967C187.858 236.967 186.174 236.885 184.497 236.706C182.82 236.518 181.148 236.273 179.501 235.834H179.498Z" fill="#525B2E"/>
<g opacity="0.3">
<path d="M158.256 221.065L156.383 224.479L154.468 230.316C154.683 229.491 154.897 228.728 155.095 228.03C132.176 231.56 124.185 222.643 122.454 217.252C121.96 215.728 122.007 214.125 122.488 212.656C130.26 226.451 158.258 221.068 158.258 221.068L158.256 221.065Z" fill="#525B2E"/>
</g>
<g opacity="0.3">
<path d="M242.253 231.56C232.37 229.774 225.516 227.544 223.66 226.91L222.631 225.428L219.649 218.612C219.649 218.612 248.153 230.802 251.884 225.445C252.122 229.489 248.902 232.762 242.251 231.56H242.253Z" fill="#525B2E"/>
</g>
<g opacity="0.3">
<path d="M231.589 298.139C231.589 298.915 231.465 299.735 231.169 300.585C230.477 302.584 228.59 303.895 226.511 303.895H202.75C200.031 303.895 197.823 301.65 197.823 298.875V284.198C192.525 284.939 187.184 284.946 181.793 284.198V298.875C181.793 301.65 179.585 303.895 176.866 303.895H152.116C150.037 303.895 148.144 302.584 147.457 300.585C147.105 299.564 146.996 298.59 147.053 297.678C147.236 297.396 147.455 297.111 147.698 296.836C153.376 303.233 176.117 301.283 176.958 296.147C178.662 288.345 172.803 283.564 162.939 277.281C180.629 282.588 197.828 282.845 214.427 276.983C214.427 276.983 204.628 285.216 205.457 295.374C206.275 305.465 230.902 300.406 231.591 298.139H231.589Z" fill="#525B2E"/>
</g>
<path d="M246.964 246.467C246.964 249.956 246.106 253.114 244.382 255.924V255.929C237.957 266.434 219.525 272.053 189.173 271.941C149.449 272.083 129.487 263.022 129.487 246.47C129.487 237.263 135.53 231.929 146.013 228.829C148.762 228.815 151.833 228.51 155.095 228.032L153.106 235.933C165.619 240.251 209.81 241.584 223.685 233.641C224.089 233.41 224.469 233.17 224.824 232.92L223.154 226.733L230.941 229.075C241.095 232.174 246.967 237.266 246.967 246.472L246.964 246.467Z" fill="#F1F2F2"/>
<path d="M167.323 270.891C162.21 264.618 163.004 247.909 169.6 238.705L187 239.384C190.701 250.726 191.071 261.627 187 271.937L167.32 270.891" fill="#0096F0"/>
<path d="M202.691 238.706C202.691 238.706 213.824 247.937 206.583 271.271C214.479 270.505 222.043 269.331 228.652 266.985C230.435 255.506 228.5 244.753 220.051 235.279C215.166 237.026 209.16 238.022 202.688 238.706H202.691Z" fill="#FF1B40"/>
<path d="M246.964 246.467C246.964 249.956 246.106 253.115 244.382 255.924C244.151 235.702 223.685 233.636 223.685 233.636C224.09 233.406 224.469 233.165 224.824 232.915L223.154 226.729L230.941 229.07C241.095 232.169 246.967 237.261 246.967 246.467H246.964Z" fill="#FF8D06"/>
<path d="M157.67 237.112L151.716 234.409C151.716 234.409 134.19 231.315 130.117 251.316C130.117 251.316 132.908 261.494 145.971 266.097C143.153 251.648 147.127 241.346 157.67 237.112Z" fill="#FF67A0"/>
<path d="M188.24 273.056C160.95 273.056 142.734 268.696 134.086 260.089C130.293 256.315 128.37 251.732 128.37 246.467C128.37 237.322 134.039 231.203 145.696 227.759C145.798 227.729 145.902 227.714 146.008 227.714C148.507 227.702 151.424 227.444 154.934 226.929C155.301 226.875 155.673 227.008 155.924 227.283C156.174 227.558 156.269 227.942 156.179 228.304L154.445 235.189C161.257 237.211 175.212 238.462 189.129 238.257C205.472 238.016 217.91 235.903 223.536 232.434L222.075 227.023C221.969 226.632 222.085 226.216 222.375 225.933C222.666 225.651 223.087 225.549 223.474 225.666L231.264 228.004C242.74 231.508 248.083 237.374 248.083 246.47C248.083 251.851 246.136 256.516 242.293 260.339C233.712 268.877 215.854 273.158 189.168 273.056C188.858 273.056 188.548 273.056 188.24 273.056ZM146.18 229.939C135.555 233.116 130.603 238.368 130.603 246.465C130.603 251.115 132.305 255.166 135.661 258.508C143.875 266.682 161.563 270.824 188.236 270.824C188.548 270.824 188.856 270.824 189.168 270.824C189.468 270.824 189.774 270.824 190.071 270.824C215.635 270.824 232.668 266.766 240.718 258.753C244.124 255.364 245.851 251.229 245.851 246.465C245.851 238.385 241.152 233.348 230.616 230.133L224.754 228.371L225.903 232.623C226.025 233.073 225.851 233.554 225.469 233.824C217.464 239.468 197.412 240.357 189.161 240.479C174.314 240.699 159.34 239.257 152.741 236.981C152.193 236.792 151.883 236.215 152.024 235.655L153.609 229.36C150.781 229.729 148.338 229.92 146.18 229.939Z" fill="#525B2E"/>
<g opacity="0.3">
<path d="M246.962 246.468C246.962 249.956 246.104 253.113 244.382 255.925C237.954 266.434 219.522 272.051 189.173 271.942C149.447 272.081 129.484 263.02 129.484 246.47C129.484 242.011 130.903 238.46 133.557 235.631C133.431 236.53 133.362 237.474 133.362 238.46C133.362 255.015 152.26 264.076 189.87 263.932C218.61 264.046 236.062 258.424 242.144 247.922C243.777 245.108 244.59 241.949 244.59 238.458C244.59 238.217 244.588 237.982 244.575 237.749C246.136 240.155 246.959 243.024 246.959 246.468H246.962Z" fill="#525B2E"/>
</g>
<g opacity="0.2">
<path d="M234.769 247.347C235.114 253.231 217.525 259.046 195.482 260.337C173.438 261.628 155.289 257.904 154.944 252.02C154.599 246.135 173.435 249.208 195.477 247.917C217.52 246.626 234.424 241.465 234.769 247.347Z" fill="#F1F2F2"/>
</g>
<path d="M186.665 217.13C141.176 219.36 124.758 190.516 141.364 167.956C141.193 166.152 141.149 164.051 141.159 162.111C141.176 158.722 141.364 155.816 141.364 155.816C155.316 143.928 227.124 144.112 228.614 151.296C229.073 153.516 229.297 156.333 229.383 159.173C229.582 165.528 229.106 171.982 229.106 171.982C238.527 196.832 229.726 215.644 186.665 217.13Z" fill="#B5EA24"/>
<g opacity="0.3">
<path d="M229.381 159.176C212.514 151.111 168.127 150.663 141.156 162.114C141.173 158.725 141.362 155.818 141.362 155.818C155.314 143.931 227.121 144.114 228.612 151.299C229.071 153.519 229.294 156.336 229.381 159.176Z" fill="#525B2E"/>
</g>
<g opacity="0.3">
<path d="M186.665 217.13C152.173 218.82 134.393 202.644 135.058 184.892C139.037 199.381 156.308 210.993 185.792 209.546C218.937 208.402 231.785 196.993 231.643 180.465C235.99 201.011 224.672 215.82 186.665 217.13Z" fill="#525B2E"/>
</g>
<g opacity="0.6">
<path d="M197.789 187.249C197.724 190.631 197.399 194.521 195.799 197.586C194.296 200.469 191.661 202.617 187.062 202.915C184.011 203.115 181.659 202.157 179.9 200.469C176.603 197.315 175.383 191.6 175.532 186.137C175.561 185.042 176.531 184.212 177.623 184.345C184.614 185.188 191.135 185.173 195.673 181.548C196.457 180.921 197.615 181.4 197.697 182.403C197.781 183.468 197.833 185.014 197.789 187.249Z" fill="#F1F2F2"/>
</g>
<g opacity="0.6">
<path d="M205.913 179.259C210.16 179.259 213.603 174.851 213.603 169.413C213.603 163.976 210.16 159.567 205.913 159.567C201.666 159.567 198.223 163.976 198.223 169.413C198.223 174.851 201.666 179.259 205.913 179.259Z" fill="#F1F2F2"/>
</g>
<g opacity="0.6">
<path d="M165.184 179.259C169.432 179.259 172.875 174.851 172.875 169.413C172.875 163.976 169.432 159.567 165.184 159.567C160.937 159.567 157.494 163.976 157.494 169.413C157.494 174.851 160.937 179.259 165.184 179.259Z" fill="#F1F2F2"/>
</g>
<path d="M197.789 185.299C197.724 188.681 197.399 192.571 195.799 195.635C194.296 198.519 191.661 200.667 187.062 200.965C184.011 201.165 181.659 200.206 179.9 198.519C176.603 195.365 175.383 189.65 175.532 184.187C175.561 183.091 176.531 182.261 177.623 182.395C184.614 183.238 191.135 183.223 195.673 179.598C196.457 178.971 197.615 179.449 197.697 180.453C197.781 181.518 197.833 183.064 197.789 185.299Z" fill="#6F8421"/>
<path d="M195.799 195.638C194.296 198.522 191.661 200.67 187.062 200.967C184.011 201.168 181.659 200.209 179.9 198.522C184.457 192.484 191.029 192.598 195.794 195.636L195.799 195.641V195.638Z" fill="#FF7EA0"/>
<path d="M186.266 201.879C183.514 201.879 181.17 200.967 179.287 199.161C176.159 196.168 174.47 190.703 174.646 184.167C174.666 183.396 175.013 182.668 175.598 182.165C176.186 181.659 176.963 181.427 177.732 181.521C183.797 182.254 190.609 182.514 195.117 178.909C195.742 178.409 196.58 178.295 197.31 178.607C198.029 178.917 198.515 179.598 198.58 180.384C198.684 181.672 198.716 183.332 198.677 185.319C198.617 188.564 198.324 192.719 196.585 196.049C194.727 199.614 191.542 201.567 187.119 201.852C186.831 201.871 186.546 201.881 186.266 201.881V201.879ZM177.392 183.27C177.159 183.27 176.936 183.352 176.757 183.508C176.549 183.689 176.427 183.939 176.42 184.214C176.256 190.252 177.747 195.234 180.515 197.883C182.217 199.515 184.403 200.254 187.005 200.083C190.82 199.835 193.437 198.249 195.013 195.229C196.58 192.226 196.846 188.336 196.903 185.284C196.943 183.354 196.91 181.754 196.814 180.527C196.799 180.354 196.695 180.272 196.61 180.235C196.551 180.21 196.392 180.163 196.231 180.292C191.21 184.308 183.956 184.055 177.521 183.277C177.479 183.272 177.437 183.27 177.397 183.27H177.392Z" fill="#525B2E"/>
<path d="M181.706 218.369C171.374 218.369 162.292 216.709 154.659 213.421C146.604 209.95 140.526 204.73 137.083 198.331C131.92 188.733 133.066 177.571 140.213 167.641C139.806 162.691 140.228 156.036 140.248 155.749C140.268 155.449 140.407 155.169 140.638 154.973C153.379 144.117 211.492 143.133 225.826 148.039C228.212 148.856 229.443 149.82 229.703 151.074C231.112 157.875 230.368 169.891 230.237 171.818C234.96 184.409 234.764 194.684 229.649 202.362C223.132 212.141 208.684 217.485 186.702 218.243C185.008 218.327 183.341 218.367 181.706 218.367V218.369ZM142.448 156.373C142.357 158.053 142.091 163.774 142.473 167.854C142.498 168.127 142.424 168.399 142.262 168.617C135.423 177.911 134.252 188.353 139.05 197.273C145.966 210.129 163.743 217.14 186.608 216.015C207.843 215.282 221.693 210.272 227.788 201.125C232.514 194.035 232.606 184.36 228.061 172.376C228.004 172.225 227.979 172.061 227.992 171.9C228.002 171.766 228.954 158.469 227.515 151.522C227.515 151.517 227.329 150.908 225.099 150.145C211.577 145.516 155.185 146.428 142.446 156.371L142.448 156.373Z" fill="#525B2E"/>
<path d="M231.661 149.258C231.869 149.392 235.236 151.533 234.243 154.862C233.792 156.386 231.996 157.07 230.659 156.21C215.474 146.434 163.904 145.626 136.152 159.538C132.441 160.033 129.737 154.516 135.034 151.176C135.034 151.176 129.64 146.592 136.214 141.702C139.085 139.561 143.664 138.357 147.909 137.683C147.909 137.683 147.911 137.683 147.911 137.68C153.376 136.808 158.288 136.808 158.288 136.808C158.288 136.808 169.449 131.296 202.006 133.714C210.701 134.358 217.186 135.104 222.026 135.944C235.312 138.248 236.218 141.278 236.419 144.952C236.692 149.828 231.921 149.29 231.656 149.258H231.661Z" fill="#F1F2F2"/>
<g opacity="0.3">
<path d="M231.661 149.258C231.869 149.392 235.236 151.532 234.243 154.862C233.792 156.386 231.996 157.07 230.659 156.21C215.474 146.433 163.904 145.626 136.152 159.537C132.441 160.033 129.737 154.515 135.034 151.175C135.034 151.175 129.64 146.592 136.214 141.701C139.085 139.561 143.664 138.357 147.909 137.683C135.907 143.849 142.726 150.155 142.726 150.155L139.291 150.665C135.056 153.693 142.282 152.424 142.282 152.424C170.851 144.273 204.298 145.955 216.898 148.078C229.498 150.204 221.068 146.334 221.068 146.334C237.394 146.386 222.026 135.943 222.026 135.943C235.312 138.247 236.218 141.278 236.419 144.952C236.692 149.828 231.921 149.29 231.656 149.258H231.661Z" fill="#525B2E"/>
</g>
<path d="M135.691 160.682C133.738 160.682 131.97 159.431 131.26 157.476C130.595 155.648 130.868 153.093 133.366 151.007C132.642 150.076 131.776 148.567 131.836 146.709C131.905 144.57 133.153 142.586 135.544 140.805C141.952 136.035 155.934 135.713 158.04 135.693C159.893 134.881 171.803 130.352 202.085 132.599C234.642 135.015 237.198 138.855 237.533 144.89C237.634 146.706 237.146 148.123 236.079 149.099C235.518 149.615 234.866 149.932 234.233 150.123C235.243 151.428 235.95 153.242 235.255 155.345C234.923 156.356 234.146 157.142 233.129 157.501C232.092 157.868 230.968 157.739 230.048 157.144C222.804 152.479 206.747 149.783 188.134 150.103C167.938 150.45 149.171 154.253 136.646 160.531C136.534 160.585 136.415 160.623 136.294 160.64C136.09 160.667 135.887 160.68 135.683 160.68L135.691 160.682ZM186.581 134.219C166.452 134.219 158.871 137.765 158.782 137.809C158.63 137.884 158.459 137.923 158.29 137.923C158.139 137.923 143.081 137.98 136.882 142.593C135.068 143.944 134.123 145.346 134.071 146.766C133.996 148.777 135.745 150.313 135.763 150.328C136.031 150.559 136.175 150.906 136.147 151.257C136.12 151.609 135.931 151.929 135.631 152.117C133.267 153.606 132.907 155.469 133.361 156.715C133.761 157.818 134.768 158.507 135.837 158.447C148.65 152.077 167.682 148.227 188.101 147.876C207.134 147.551 223.67 150.383 231.264 155.274C231.599 155.489 232.01 155.536 232.39 155.4C232.601 155.326 232.98 155.127 233.139 154.649C234 152.04 231.187 150.284 231.065 150.209C230.614 149.934 230.418 149.377 230.596 148.881C230.775 148.383 231.276 148.079 231.802 148.153C231.814 148.153 233.583 148.376 234.578 147.452C235.121 146.946 235.367 146.126 235.305 145.014C235.094 141.206 234.873 137.269 201.922 134.824C196.151 134.395 191.053 134.219 186.578 134.219H186.581Z" fill="#525B2E"/>
<path d="M158.323 135.693C160.94 135.879 163.517 136.131 166.102 136.421C168.685 136.716 171.26 137.058 173.827 137.449C176.395 137.841 178.95 138.302 181.493 138.815C184.033 139.34 186.556 139.949 189.047 140.648C186.509 140.13 183.959 139.704 181.399 139.365C178.836 139.038 176.268 138.763 173.696 138.559C171.123 138.356 168.548 138.2 165.971 138.091C163.398 137.987 160.808 137.92 158.256 137.923H158.243C157.626 137.923 157.125 137.425 157.125 136.808C157.125 136.191 157.623 135.69 158.241 135.69C158.266 135.69 158.295 135.69 158.32 135.693H158.323Z" fill="#525B2E"/>
<path d="M135.001 150.061C135.495 150.132 136.056 150.179 136.591 150.217C137.135 150.251 137.68 150.274 138.231 150.281C139.33 150.298 140.434 150.256 141.548 150.152C140.533 150.616 139.481 151.027 138.405 151.381C137.866 151.562 137.321 151.725 136.77 151.877C136.212 152.028 135.676 152.169 135.068 152.288H135.053C134.438 152.412 133.843 152.01 133.724 151.396C133.605 150.782 134.004 150.187 134.619 150.068C134.748 150.043 134.88 150.041 135.001 150.058V150.061Z" fill="#525B2E"/>
<path d="M231.475 150.355L224.144 148.078L231.819 148.152C232.442 148.157 232.943 148.668 232.936 149.29C232.931 149.912 232.42 150.412 231.797 150.405C231.685 150.405 231.574 150.385 231.472 150.353L231.475 150.355Z" fill="#525B2E"/>
<g opacity="0.3">
<path d="M220.425 209.421C201.934 226.781 177.558 229.264 156.896 213.13C175.519 220.83 201.473 218.87 220.425 209.421Z" fill="#525B2E"/>
</g>
<path d="M166.383 156.859C162.535 156.205 158.948 160.506 158.37 166.462C157.792 172.418 160.441 177.777 164.286 178.431C168.134 179.085 171.721 174.784 172.299 168.828C172.877 162.872 170.228 157.513 166.383 156.859Z" fill="#525B2E"/>
<path d="M166.095 159.351C164.864 159.827 164.321 161.831 164.882 163.833C165.442 165.835 166.896 167.071 168.127 166.595C169.357 166.122 169.9 164.115 169.34 162.113C168.779 160.111 167.325 158.875 166.095 159.351Z" fill="white"/>
<path d="M161.873 171.977C161.29 172.403 161.21 173.523 161.697 174.477C162.183 175.433 163.051 175.862 163.636 175.438C164.219 175.012 164.299 173.892 163.813 172.938C163.326 171.982 162.458 171.553 161.873 171.977Z" fill="#525B2E"/>
<path d="M204.576 156.859C208.424 156.205 212.011 160.506 212.589 166.462C213.167 172.418 210.517 177.777 206.672 178.431C202.825 179.085 199.237 174.784 198.659 168.828C198.081 162.872 200.731 157.513 204.576 156.859Z" fill="#525B2E"/>
<path d="M204.866 159.351C206.097 159.827 206.64 161.831 206.079 163.833C205.519 165.835 204.065 167.071 202.835 166.595C201.604 166.122 201.061 164.115 201.622 162.113C202.182 160.111 203.636 158.875 204.866 159.351Z" fill="white"/>
<path d="M209.089 171.977C209.672 172.403 209.751 173.523 209.265 174.477C208.779 175.433 207.91 175.862 207.325 175.438C206.742 175.012 206.662 173.892 207.149 172.938C207.635 171.982 208.503 171.553 209.089 171.977Z" fill="#525B2E"/>
</g>
<defs>
<clipPath id="clip0_799_27653">
<rect width="132" height="196" fill="white" transform="translate(121 109)"/>
</clipPath>
</defs>
</svg>
