<svg width="375" height="386" viewBox="0 0 375 386" fill="none" xmlns="http://www.w3.org/2000/svg">
<g clip-path="url(#clip0_799_27652)">
<path d="M234.602 260.991C232.424 263.325 229.492 264.333 226.387 264.667C225.489 264.767 224.577 264.806 223.661 264.806C221.17 264.806 218.655 264.597 216.412 263.759C214.258 262.954 212.355 261.568 210.971 259.223C209.263 256.345 208.339 252.019 208.691 245.551C208.751 244.368 208.858 243.115 209.01 241.78C211.362 221.11 214.765 215.614 222.564 216.141C224.87 216.298 229.708 219.39 233.453 227.098C235.322 230.944 236.918 235.944 237.79 242.303C239.135 252.128 237.573 257.8 234.599 260.991H234.602Z" fill="#B5EA24"/>
<g opacity="0.6">
<path d="M213.676 261.623C211.968 258.746 211.044 254.419 211.396 247.951C211.456 246.768 211.563 245.515 211.715 244.18C214.067 223.51 217.47 218.014 225.269 218.541C226.551 218.628 228.622 219.625 230.849 221.821C227.88 217.93 224.852 216.254 223.17 216.139C215.37 215.614 211.968 221.108 209.615 241.778C209.467 243.11 209.357 244.366 209.297 245.549C208.947 252.017 209.871 256.343 211.576 259.221C212.24 260.344 213.02 261.242 213.89 261.968C213.817 261.855 213.746 261.741 213.676 261.623Z" fill="white"/>
</g>
<g opacity="0.2">
<path d="M234.732 260.09C232.554 262.425 229.622 263.433 226.517 263.767C225.619 263.866 224.708 263.905 223.791 263.905C221.3 263.905 218.786 263.696 216.543 262.858C214.389 262.054 212.485 260.667 211.101 258.322C209.393 255.445 209.688 254.395 208.788 250.194C224.483 256.064 235.497 245.092 233.581 226.197C235.45 230.044 237.046 235.044 237.918 241.402C239.263 251.228 237.701 256.899 234.727 260.09H234.732Z" fill="#525B2E"/>
</g>
<path d="M223.794 265.37C219.768 265.37 214.702 264.876 211.258 261.014C207.746 257.079 206.579 250.439 207.686 240.712C209.782 222.314 212.694 213.099 222.794 213.778C224.799 213.914 228.361 215.721 231.8 220.374C234.442 223.949 237.902 230.466 239.372 241.203C240.631 250.395 239.55 256.802 236.066 260.795C233.382 263.873 229.366 265.37 223.791 265.37H223.794ZM221.71 216.671C216.065 216.671 212.898 220.854 210.597 241.047C209.602 249.773 210.561 255.834 213.443 259.066C216.099 262.04 220.164 262.442 223.794 262.442C228.538 262.442 231.737 261.309 233.86 258.873C236.714 255.601 237.591 249.791 236.471 241.605C233.972 223.372 225.303 216.888 222.598 216.705C222.295 216.684 222 216.674 221.71 216.674V216.671Z" fill="#525B2E"/>
<path d="M234.732 260.09C232.554 262.427 229.622 263.435 226.52 263.767C225.622 263.866 224.71 263.905 223.796 263.905C221.305 263.905 218.791 263.696 216.548 262.858C214.391 262.051 212.49 260.665 211.106 258.323C211.106 258.323 211.762 254.745 214.639 255.531C217.156 256.218 216.733 261.302 216.587 262.571C216.78 261.276 217.804 255.988 221.705 255.531C224.961 255.15 226.029 259.733 226.371 262.221C226.264 260.054 226.465 256.213 229.032 254.745C232.651 252.677 234.685 259.913 234.735 260.088L234.732 260.09Z" fill="white"/>
<path d="M223.794 264.098C220.739 264.098 218.412 263.761 216.477 263.041C214.049 262.132 212.237 260.623 210.936 258.424L210.9 258.361L210.913 258.291C210.926 258.215 211.273 256.398 212.548 255.596C213.161 255.21 213.882 255.126 214.689 255.346C216.483 255.834 216.882 258.322 216.9 260.338C217.553 258.26 218.916 255.667 221.679 255.34C224.327 255.032 225.585 257.724 226.191 260.221C226.342 258.134 226.972 255.701 228.933 254.581C229.711 254.137 230.481 254.063 231.225 254.369C233.528 255.312 234.784 259.557 234.92 260.04L234.928 260.095V260.171L234.876 260.226C232.894 262.351 230.168 263.571 226.541 263.96C225.692 264.054 224.797 264.101 223.796 264.101L223.794 264.098ZM211.31 258.288C212.561 260.372 214.297 261.808 216.613 262.675C218.504 263.38 220.783 263.709 223.794 263.709C224.778 263.709 225.661 263.665 226.496 263.571C229.98 263.197 232.604 262.041 234.513 260.038C234.306 259.346 233.087 255.547 231.076 254.724C230.442 254.466 229.802 254.526 229.123 254.915C226.648 256.33 226.455 260.093 226.559 262.21L226.173 262.247C225.818 259.657 224.763 255.359 221.723 255.724C217.924 256.171 216.934 261.531 216.775 262.599L216.389 262.547C216.506 261.521 216.976 256.369 214.584 255.716C213.887 255.528 213.271 255.594 212.756 255.92C211.756 256.549 211.386 257.959 211.31 258.286V258.288Z" fill="#525B2E"/>
<path d="M223.794 265.268C221.781 265.268 218.788 265.15 216.07 264.134C213.417 263.142 211.354 261.421 209.931 259.016C209.764 258.734 209.704 258.4 209.764 258.079C209.809 257.834 210.25 255.661 211.926 254.606C212.814 254.047 213.877 253.914 214.997 254.217C216.242 254.557 217.005 255.473 217.459 256.614C218.397 255.379 219.71 254.395 221.543 254.178C223.314 253.972 224.791 254.758 225.883 256.416C226.392 255.264 227.173 254.238 228.353 253.564C229.445 252.94 230.591 252.844 231.667 253.285C234.421 254.413 235.795 258.842 236.043 259.719C236.077 259.839 236.095 259.964 236.095 260.09C236.095 260.437 235.965 260.769 235.73 261.022C233.549 263.361 230.583 264.701 226.666 265.121C225.781 265.221 224.841 265.268 223.797 265.268H223.794ZM218.089 261.925C219.637 262.346 221.483 262.544 223.794 262.544C224.227 262.544 224.64 262.536 225.037 262.518C225.029 262.481 225.021 262.445 225.019 262.408C224.833 261.048 224.047 256.622 221.862 256.886C219.459 257.168 218.457 260.278 218.091 261.925H218.089ZM230.309 255.739C230.15 255.739 229.954 255.786 229.703 255.93C227.698 257.076 227.653 260.667 227.726 262.155C227.726 262.176 227.726 262.197 227.726 262.215C229.985 261.797 231.782 260.97 233.179 259.708C232.643 258.189 231.664 256.228 230.633 255.805C230.541 255.768 230.437 255.737 230.309 255.737V255.739ZM212.576 258.11C213.318 259.218 214.232 260.1 215.342 260.774C215.381 258.651 214.973 257.037 214.279 256.847C213.783 256.711 213.529 256.818 213.381 256.909C212.992 257.149 212.725 257.69 212.576 258.108V258.11Z" fill="#525B2E"/>
<path d="M127.982 253.583C121.258 253.886 113.584 250.641 108.284 245.316C107.913 244.94 107.547 244.559 107.203 244.16C103.019 239.428 100.696 233.295 102.228 226.657C102.852 223.957 105.785 221.931 109.926 220.516C121.883 216.416 143.942 217.395 149.765 221.962C150.457 222.503 150.916 223.095 151.109 223.735C154.687 235.812 140.863 253.001 127.987 253.586L127.982 253.583Z" fill="#B5EA24"/>
<g opacity="0.6">
<path d="M110.582 247.538C106.398 242.807 104.074 236.673 105.607 230.036C106.231 227.336 109.164 225.309 113.302 223.894C124.149 220.176 143.31 220.635 151.12 224.163C151.115 224.145 151.109 224.127 151.104 224.108C150.914 223.471 150.451 222.876 149.759 222.335C143.937 217.771 121.88 216.789 109.921 220.889C105.78 222.304 102.847 224.33 102.223 227.03C100.69 233.668 103.014 239.801 107.197 244.533C107.542 244.93 107.908 245.314 108.278 245.69C109.2 246.614 110.195 247.473 111.242 248.264C111.015 248.027 110.79 247.784 110.576 247.536L110.582 247.538Z" fill="white"/>
</g>
<path d="M108.284 245.316C103.435 240.448 100.568 233.85 102.228 226.659C102.85 223.959 105.782 221.933 109.923 220.515C109.923 220.515 110.148 226.108 106.221 227.419C106.221 227.419 108.84 227.419 109.822 230.038C110.803 232.657 106.876 235.602 106.876 235.602C106.876 235.602 109.495 235.602 110.803 238.221C111.72 240.051 110.393 243.164 108.284 245.318V245.316Z" fill="white"/>
<path d="M108.284 245.593L108.145 245.454C102.672 239.958 100.502 233.268 102.038 226.615C102.636 224.017 105.268 221.902 109.861 220.33L110.109 220.246L110.119 220.507C110.119 220.562 110.284 225.612 106.949 227.322C107.84 227.523 109.315 228.132 110.004 229.967C110.85 232.221 108.346 234.626 107.364 235.456C108.216 235.597 109.978 236.13 110.978 238.133C111.994 240.159 110.42 243.415 108.422 245.452L108.284 245.593ZM109.728 220.787C105.49 222.283 102.962 224.325 102.416 226.701C100.925 233.161 103.006 239.665 108.281 245.037C110.425 242.775 111.433 239.908 110.628 238.305C109.391 235.83 106.975 235.793 106.874 235.793H106.294L106.759 235.443C106.798 235.414 110.558 232.555 109.639 230.103C108.717 227.646 106.323 227.612 106.221 227.61H105.033L106.158 227.231C109.419 226.145 109.709 221.894 109.728 220.787Z" fill="#525B2E"/>
<path d="M127.128 255.068C120.292 255.068 112.587 251.71 107.244 246.35C101.45 240.532 99.1628 233.422 100.8 226.327C101.502 223.272 104.414 220.852 109.448 219.126C120.64 215.292 140.991 215.627 149.039 219.778C150.937 220.758 152.104 221.946 152.509 223.311C154.196 229.009 152.496 236.025 147.845 242.561C142.589 249.945 135.004 254.729 128.05 255.045C127.745 255.058 127.439 255.066 127.131 255.066L127.128 255.068ZM128.802 219.371C122.295 219.371 115.517 220.149 110.399 221.901C107.639 222.847 104.231 224.494 103.657 226.988C101.764 235.187 106.393 241.344 109.323 244.284C114.349 249.329 121.653 252.405 127.917 252.123C133.899 251.851 140.785 247.433 145.459 240.866C149.524 235.156 151.109 228.907 149.702 224.15C149.605 223.828 149.219 223.173 147.699 222.387C144.02 220.489 136.61 219.371 128.805 219.371H128.802Z" fill="#525B2E"/>
<path d="M108.284 246.679C107.921 246.679 107.573 246.535 107.317 246.277C101.549 240.485 99.2699 233.409 100.899 226.351C101.594 223.335 104.482 220.935 109.48 219.225C109.858 219.097 110.271 219.139 110.615 219.343C110.957 219.546 111.195 219.888 111.263 220.283C111.289 220.434 111.879 224.022 109.571 226.654C109.391 226.858 109.2 227.051 108.999 227.231C110.135 227.748 110.997 228.568 111.169 229.853C111.493 232.229 110.328 234.124 108.827 235.537C110.182 235.767 111.396 236.36 112.02 237.61C113.289 240.146 111.589 243.885 109.255 246.269C108.999 246.53 108.652 246.676 108.289 246.676H108.284V246.679ZM104.928 238.386C105.897 240.363 107.116 242.008 108.239 243.279C109.545 241.517 110.012 239.681 109.587 238.832C109.182 238.026 106.926 238.031 104.928 238.386ZM103.187 229.228C102.965 231.56 103.252 233.701 103.834 235.618C105.594 234.759 108.824 232.814 108.472 230.221C108.391 229.623 106.581 229.187 104.419 229.134C104.022 229.181 103.612 229.213 103.187 229.226V229.228ZM108.555 222.502C106.479 223.403 104.448 224.685 103.735 226.406C103.915 226.403 104.106 226.403 104.302 226.406C105.719 226.197 106.795 225.685 107.513 224.876C108.153 224.152 108.438 223.27 108.555 222.505V222.502Z" fill="#525B2E"/>
<g opacity="0.2">
<path d="M127.982 253.583C121.259 253.886 113.584 250.64 108.284 245.316C107.913 244.94 107.547 244.559 107.203 244.159C129.964 245.856 143.195 232.077 149.762 221.959C150.454 222.499 150.914 223.092 151.107 223.732C154.684 235.809 140.861 252.998 127.985 253.583H127.982Z" fill="#525B2E"/>
</g>
<path d="M267.434 200.033C267.103 199.793 258.692 193.8 250.668 198.612C242.485 203.521 236.265 223.489 226.447 222.833C216.626 222.178 203.86 196.975 178.657 210.394C178.657 210.394 143.861 205.331 129.364 213.264C126.264 201.409 130.539 191.408 130.539 191.408C130.539 191.408 143.305 148.527 199.139 146.956C254.974 145.381 260.815 191.408 260.815 191.408C265.776 194.103 267.299 197.286 267.434 200.03V200.033Z" fill="#19B5FE"/>
<g opacity="0.6">
<path d="M232.126 172.031L209.976 179.165L206.597 201.692L208.474 203.193L211.981 185.541C212.845 182.946 214.882 180.907 217.477 180.04L231.092 175.486C232.513 175.011 233.056 173.285 232.165 172.081L232.129 172.031H232.126Z" fill="white"/>
</g>
<g opacity="0.6">
<path d="M266.685 200.033C266.46 199.871 262.627 197.147 257.716 196.792C256.909 192.097 250.456 162.202 215.924 154.658C215.357 156.698 211.921 158.27 207.766 158.27C203.213 158.27 199.526 156.384 199.526 154.058C199.526 153.669 199.627 153.293 199.823 152.938C198.622 152.922 197.392 152.935 196.139 152.972C150.744 154.246 133.818 182.825 129.071 193.468C129.471 192.157 129.787 191.413 129.787 191.413C129.787 191.413 142.555 148.535 198.392 146.963C254.224 145.389 260.068 191.413 260.068 191.413C265.027 194.108 266.552 197.291 266.688 200.035L266.685 200.033Z" fill="white"/>
</g>
<path d="M264.648 206.47C264.648 206.47 264.64 206.527 264.617 206.632C263.993 209.935 252.814 262.706 178.234 247.71C150.569 242.151 137.51 231.537 131.706 221.009C130.264 218.395 129.272 215.789 128.612 213.267C143.111 205.329 177.905 210.394 177.905 210.394C203.108 196.973 215.874 222.178 225.695 222.831C235.515 223.484 241.733 203.519 249.919 198.607C257.943 193.798 266.351 199.79 266.685 200.031C266.857 203.624 264.646 206.464 264.646 206.464L264.648 206.47Z" fill="#FFD54F"/>
<g opacity="0.2">
<path d="M264.617 206.632C263.993 209.935 252.814 262.706 178.234 247.71C150.569 242.151 137.51 231.537 131.706 221.009C149.906 235.853 164.549 238.483 200.837 239.094C250.535 239.932 254.762 218.588 264.617 206.629V206.632Z" fill="#525B2E"/>
</g>
<path d="M203.202 251.862C195.374 251.862 186.948 250.959 177.944 249.149C162.011 245.948 149.514 240.78 140.803 233.79C133.803 228.174 129.223 221.392 127.196 213.64C124.118 201.858 127.975 191.967 128.408 190.915C128.745 189.826 132.137 179.449 142.077 168.777C151.548 158.612 168.999 146.321 198.348 145.496C211.315 145.133 222.721 147.293 232.223 151.925C239.866 155.651 246.297 160.965 251.339 167.72C258.781 177.692 260.927 187.701 261.403 190.487C266.724 193.599 268.017 197.333 268.145 199.965C268.309 203.368 266.651 206.143 266.027 207.057C265.479 209.89 261.306 228.286 243.289 240.712C232.52 248.141 219.096 251.867 203.2 251.867L203.202 251.862ZM201.213 148.384C200.293 148.384 199.366 148.397 198.429 148.423C170.166 149.217 153.402 160.96 144.318 170.668C134.45 181.212 131.22 191.724 131.189 191.829C131.173 191.881 131.155 191.933 131.131 191.985C131.092 192.079 127.1 201.699 130.027 212.896C134.296 229.216 151.062 240.757 178.519 246.274C204.975 251.593 226.194 248.917 241.584 238.323C259.711 225.847 263.168 206.42 263.202 206.224C263.241 205.987 263.34 205.762 263.486 205.571C263.505 205.548 265.364 203.083 265.218 200.101C265.077 197.221 263.108 194.727 259.363 192.696C258.948 192.471 258.669 192.061 258.609 191.591C258.593 191.482 257.068 180.235 248.911 169.362C238.461 155.432 222.42 148.382 201.21 148.382L201.213 148.384Z" fill="#525B2E"/>
<path d="M264.648 206.47C264.648 206.47 261.374 201.558 251.23 204.506C241.083 207.449 243.699 225.782 227.658 229.383C219.616 231.19 214.566 227.088 206.056 219.236C197.544 211.379 177.905 210.071 177.905 210.071L184.065 205.232L184.697 204.736L187.07 202.869C210.968 195.012 218.167 214.651 225.042 214.651C231.917 214.651 231.586 205.812 241.08 196.976C250.571 188.137 260.066 191.411 260.066 191.411C260.917 191.874 261.666 192.349 262.327 192.837C264.667 194.561 265.86 196.407 266.372 198.172C267.664 202.595 264.648 206.47 264.648 206.47Z" fill="#7FDCFF"/>
<g opacity="0.6">
<path d="M262.327 192.839C257.3 193.147 251.95 193.643 247.519 196.061C244.712 197.594 241.612 200.297 239.636 202.819C236.97 206.213 236.189 209.48 233.63 212.956C231.074 216.428 227.755 218.891 223.494 218.212C218.702 217.449 215.015 211.809 209.978 208.451C202.095 203.195 196.087 203.947 185.154 204.723C185.005 204.733 184.851 204.73 184.699 204.738L187.073 202.871C210.97 195.014 218.169 214.653 225.045 214.653C231.92 214.653 231.588 205.814 241.082 196.978C250.574 188.139 260.068 191.413 260.068 191.413C260.919 191.876 261.669 192.351 262.33 192.839H262.327Z" fill="white"/>
</g>
<g opacity="0.2">
<path d="M264.648 206.47C264.648 206.47 261.374 201.558 251.23 204.506C241.083 207.449 243.699 225.782 227.658 229.383C219.616 231.19 214.566 227.088 206.056 219.236C197.544 211.379 177.905 210.071 177.905 210.071L182.193 206.572C201.341 206.196 208.098 212.953 216.796 221.072C219.102 223.223 222.561 224.174 225.682 223.714C229.157 223.2 232.876 221.965 235.129 217.834C236.811 214.75 241.589 201.54 252.399 197.937C255.778 196.811 261.41 196.811 266.369 198.174C267.662 202.598 264.646 206.473 264.646 206.473L264.648 206.47Z" fill="#525B2E"/>
</g>
<path d="M224.073 231.268C217.329 231.268 212.203 226.904 205.061 220.311C197.035 212.901 177.999 211.543 177.806 211.532C177.2 211.493 176.683 211.083 176.503 210.504C176.323 209.924 176.521 209.295 176.997 208.919L186.162 201.717C186.295 201.613 186.446 201.532 186.608 201.477C203.798 195.826 212.9 203.877 218.924 209.203C221.342 211.342 223.431 213.188 225.034 213.188C227.899 213.188 229.084 211.358 231.492 207.219C233.372 203.989 235.711 199.968 240.075 195.905C250.096 186.575 260.113 189.881 260.536 190.027C260.611 190.053 260.684 190.087 260.758 190.124C264.834 192.335 267.254 195.145 267.949 198.469C268.949 203.247 265.925 207.201 265.797 207.368C265.507 207.738 265.058 207.953 264.588 207.932C264.123 207.916 263.698 207.678 263.434 207.297C263.29 207.099 260.431 203.354 251.629 205.911C247.814 207.018 246.004 210.877 243.91 215.342C241.135 221.264 237.677 228.63 227.974 230.811C226.604 231.119 225.308 231.268 224.068 231.268H224.073ZM181.66 208.984C187.888 209.778 200.46 212.076 207.051 218.16C215.937 226.361 220.258 229.544 227.34 227.954C235.643 226.09 238.5 219.995 241.265 214.102C243.563 209.203 245.733 204.576 250.819 203.101C258.149 200.973 262.306 202.688 264.319 204.153C264.904 202.931 265.51 201.054 265.082 199.048C264.57 196.644 262.687 194.531 259.483 192.766C258.436 192.45 250.355 190.343 242.077 198.051C238.03 201.819 235.813 205.631 234.03 208.694C231.617 212.843 229.711 216.12 225.039 216.12C222.326 216.12 219.969 214.037 216.987 211.402C211.164 206.253 203.202 199.21 187.768 204.185L181.655 208.987L181.66 208.984Z" fill="#525B2E"/>
<path d="M208.876 179.609C208.456 179.609 208.035 179.585 207.612 179.535L187.851 177.285C185.222 176.984 182.783 175.752 180.981 173.814L163.787 155.314C163.236 154.721 163.27 153.795 163.862 153.244C164.455 152.693 165.382 152.727 165.933 153.319L183.127 171.819C184.454 173.245 186.248 174.151 188.183 174.373L207.944 176.624C209.022 176.747 210.093 176.655 211.135 176.355L228.635 171.3C230.572 170.741 232.228 169.49 233.296 167.78L239.401 157.999C239.829 157.312 240.732 157.103 241.419 157.531C242.106 157.959 242.315 158.863 241.887 159.55L235.782 169.331C234.33 171.655 232.082 173.355 229.45 174.115L211.95 179.17C210.944 179.46 209.915 179.606 208.879 179.606L208.876 179.609Z" fill="#525B2E"/>
<path d="M245.417 195.176C244.918 195.176 244.43 194.92 244.159 194.461L230.766 172.002C230.351 171.307 230.578 170.407 231.275 169.994C231.97 169.579 232.87 169.809 233.283 170.503L246.676 192.962C247.091 193.656 246.864 194.557 246.167 194.97C245.932 195.111 245.673 195.176 245.417 195.176Z" fill="#525B2E"/>
<path d="M205.61 203.759C205.539 203.759 205.466 203.754 205.393 203.744C204.591 203.626 204.04 202.88 204.158 202.081L207.74 177.922C207.858 177.12 208.605 176.564 209.404 176.687C210.205 176.804 210.756 177.551 210.639 178.35L207.056 202.509C206.949 203.237 206.323 203.759 205.61 203.759Z" fill="#525B2E"/>
<path d="M152.927 229.495C154.627 231.393 156.462 233.166 158.379 234.811C160.285 236.47 162.298 237.989 164.379 239.373C165.398 240.099 166.497 240.694 167.549 241.358L169.184 242.251C169.458 242.394 169.719 242.564 169.999 242.697L170.832 243.107C173.022 244.269 175.328 245.139 177.618 246.097L177.696 246.131C178.443 246.444 178.793 247.301 178.482 248.047C178.192 248.737 177.438 249.089 176.735 248.891C174.184 248.173 171.678 247.222 169.364 245.927C168.176 245.337 167.085 244.577 165.964 243.877C165.424 243.499 164.894 243.105 164.361 242.713C163.823 242.332 163.317 241.911 162.807 241.493C160.766 239.835 158.87 238.013 157.152 236.047C155.439 234.078 153.862 231.999 152.582 229.725C152.525 229.623 152.561 229.495 152.663 229.44C152.749 229.391 152.859 229.412 152.922 229.482L152.929 229.49L152.927 229.495Z" fill="#525B2E"/>
<path d="M148.53 236.736C150.096 236.864 151.7 236.95 153.277 237C154.862 237.034 156.442 237.042 158.016 237C159.591 236.979 161.165 236.88 162.732 236.783C163.515 236.71 164.299 236.655 165.082 236.593L167.424 236.316C170.539 235.89 173.649 235.36 176.712 234.574L177.866 234.292C178.255 234.214 178.634 234.096 179.012 233.984C179.775 233.765 180.532 233.532 181.302 233.329C182.081 233.143 182.814 232.84 183.582 232.608C184.342 232.36 185.104 232.117 185.88 231.89L185.911 231.882C186.17 231.806 186.444 231.955 186.52 232.214C186.585 232.436 186.486 232.665 186.295 232.775C185.59 233.182 184.875 233.577 184.156 233.963C183.436 234.35 182.718 234.752 181.963 235.065C180.462 235.707 178.968 236.407 177.396 236.888C174.305 238.013 171.069 238.708 167.816 239.204L165.364 239.507C164.541 239.561 163.719 239.622 162.896 239.666C161.251 239.731 159.601 239.723 157.956 239.611C154.669 239.379 151.405 238.87 148.279 237.684C148.026 237.587 147.898 237.305 147.994 237.052C148.073 236.843 148.282 236.721 148.493 236.736H148.53Z" fill="#525B2E"/>
<path d="M190.282 251.092C189.509 251.092 188.862 250.486 188.82 249.706C188.775 248.899 189.397 248.207 190.204 248.165C190.374 248.155 207.145 247.155 215.148 238.843C215.71 238.261 216.637 238.243 217.219 238.804C217.801 239.366 217.82 240.292 217.258 240.875C208.448 250.024 191.094 251.05 190.36 251.092C190.334 251.092 190.308 251.092 190.282 251.092Z" fill="#525B2E"/>
<path d="M200.095 174.801C195.51 206.514 168.445 228.234 137.769 223.476C91.6087 216.316 77.8818 174.472 96.5673 155.797C105.936 146.436 103.223 139.537 111.861 127.696C120.433 115.948 139.283 108.383 157.159 110.966C187.883 115.408 204.68 143.086 200.098 174.799L200.095 174.801Z" fill="#B5EA24"/>
<g opacity="0.2">
<path d="M199.826 154.283C199.711 155.557 199.568 156.84 199.38 158.132C194.614 191.106 164.361 218.246 130.009 214.458C116.203 212.935 106.733 210.327 96.5151 199.42C104.479 210.306 118.102 219.359 137.396 222.351C168.072 227.109 195.136 205.389 199.722 173.676C200.69 166.971 200.701 160.448 199.829 154.286L199.826 154.283Z" fill="#525B2E"/>
</g>
<g opacity="0.6">
<path d="M200.372 166.691C198.92 141.3 183.856 120.358 159.319 115.528C158.65 115.397 157.982 115.28 157.311 115.183C156.736 116.922 153.175 118.426 148.793 118.685C144.13 118.959 140.234 117.724 139.813 115.888C129.899 118.152 121.172 123.437 116.12 130.474C107.819 142.031 110.349 149.081 101.372 158.111C89.4937 170.057 91.1152 192.85 106.351 209.504C86.0887 193.635 82.6968 168.114 96.1809 154.643C105.547 145.284 102.834 138.383 111.472 126.542C120.042 114.796 138.894 107.229 156.77 109.814C185.222 113.924 201.73 137.973 200.369 166.693L200.372 166.691Z" fill="white"/>
</g>
<path d="M146.127 225.588C143.284 225.588 140.417 225.369 137.545 224.923C124.852 222.954 113.981 218.384 105.234 211.339C97.4631 205.08 91.8543 197.179 89.016 188.489C84.8224 175.639 87.256 163.033 95.5335 154.76C100.346 149.951 101.795 145.877 103.474 141.162C104.926 137.085 106.568 132.466 110.678 126.831C119.88 114.219 139.519 106.937 157.369 109.517C172.425 111.692 185.112 119.627 193.095 131.855C200.85 143.736 203.85 159.061 201.547 175.01C199.171 191.455 190.909 205.655 178.284 214.99C168.879 221.943 157.7 225.588 146.13 225.588H146.127ZM150.008 111.924C135.262 111.924 120.475 118.376 113.047 128.56C109.187 133.85 107.686 138.067 106.234 142.146C104.511 146.987 102.884 151.557 97.6041 156.834C90.1257 164.307 87.9558 175.801 91.8021 187.58C97.6772 205.576 114.947 218.452 137.996 222.027C151.773 224.165 165.461 220.828 176.542 212.632C188.533 203.767 196.382 190.257 198.646 174.59C200.85 159.348 198.006 144.739 190.64 133.456C183.015 121.774 171.364 114.499 156.948 112.415C154.656 112.084 152.332 111.924 150.005 111.924H150.008Z" fill="#525B2E"/>
<path d="M213.354 271.89C210.628 274.812 206.96 276.073 203.079 276.489C201.957 276.611 200.816 276.661 199.669 276.661C196.554 276.661 193.408 276.397 190.603 275.35C187.909 274.345 185.527 272.608 183.796 269.676C181.66 266.075 180.503 260.662 180.942 252.57C181.018 251.09 181.153 249.52 181.339 247.854C184.282 221.993 188.54 215.121 198.298 215.776C201.181 215.972 207.236 219.839 211.918 229.482C214.258 234.295 216.255 240.551 217.344 248.505C219.026 260.795 217.073 267.893 213.354 271.882V271.89Z" fill="#B5EA24"/>
<g opacity="0.6">
<path d="M187.177 272.681C185.041 269.08 183.885 263.667 184.323 255.575C184.399 254.095 184.535 252.526 184.72 250.86C187.663 224.999 191.922 218.126 201.68 218.781C203.286 218.891 205.873 220.139 208.659 222.886C204.946 218.019 201.155 215.92 199.05 215.779C189.292 215.121 185.036 221.996 182.091 247.857C181.903 249.523 181.767 251.092 181.694 252.573C181.255 260.662 182.412 266.077 184.548 269.678C185.376 271.08 186.355 272.208 187.444 273.115C187.352 272.974 187.264 272.83 187.175 272.681H187.177Z" fill="white"/>
</g>
<g opacity="0.2">
<path d="M213.522 270.765C210.796 273.687 207.127 274.948 203.247 275.363C202.124 275.486 200.983 275.535 199.836 275.535C196.721 275.535 193.575 275.272 190.77 274.225C188.076 273.219 185.694 271.483 183.963 268.55C181.827 264.95 182.195 263.636 181.067 258.38C200.703 265.723 214.48 251.998 212.085 228.359C214.425 233.172 216.423 239.428 217.511 247.382C219.193 259.673 217.24 266.77 213.522 270.76V270.765Z" fill="#525B2E"/>
</g>
<path d="M199.836 277C194.875 277 188.64 276.394 184.428 271.676C180.109 266.837 178.675 258.622 180.051 246.564C183.015 220.557 187.506 212.444 198.565 213.193C203.542 213.528 215.592 222.552 218.966 247.188C220.525 258.575 219.201 266.495 214.918 271.407C211.634 275.172 206.701 277.002 199.839 277.002L199.836 277ZM197.204 216.073C189.94 216.073 185.869 221.374 182.963 246.896C181.707 257.92 182.937 265.602 186.616 269.725C190.034 273.553 195.217 274.07 199.839 274.07C205.805 274.07 210.015 272.569 212.709 269.48C216.352 265.304 217.48 257.936 216.062 247.585C214.318 234.843 210.281 227.205 207.205 223.04C203.312 217.773 199.721 216.209 198.369 216.118C197.972 216.092 197.585 216.076 197.207 216.076L197.204 216.073Z" fill="#525B2E"/>
<path d="M213.519 270.765C210.796 273.687 207.127 274.948 203.244 275.363C202.121 275.488 200.98 275.535 199.837 275.535C196.722 275.535 193.575 275.274 190.771 274.227C188.073 273.219 185.695 271.485 183.963 268.556C183.963 268.556 184.781 264.08 188.381 265.062C191.531 265.918 191 272.282 190.818 273.869C191.061 272.248 192.34 265.634 197.22 265.062C201.291 264.584 202.631 270.318 203.056 273.431C202.923 270.72 203.174 265.916 206.385 264.08C210.913 261.495 213.459 270.545 213.522 270.765H213.519Z" fill="white"/>
<path d="M199.837 275.731C196.019 275.731 193.116 275.31 190.703 274.41C187.674 273.279 185.415 271.394 183.794 268.655L183.757 268.592L183.77 268.521C183.788 268.425 184.217 266.177 185.794 265.182C186.548 264.706 187.436 264.605 188.434 264.876C190.75 265.506 191.186 268.843 191.165 271.399C191.938 268.764 193.627 265.289 197.197 264.868C200.583 264.477 202.142 268.07 202.863 271.258C203.009 268.592 203.751 265.362 206.289 263.91C207.25 263.362 208.2 263.273 209.114 263.646C211.971 264.814 213.537 270.109 213.707 270.707L213.715 270.764V270.84L213.663 270.895C211.193 273.545 207.79 275.068 203.265 275.551C202.208 275.668 201.085 275.726 199.837 275.726V275.731ZM184.167 268.519C185.739 271.146 187.922 272.953 190.839 274.044C193.21 274.929 196.069 275.342 199.837 275.342C201.069 275.342 202.176 275.284 203.223 275.169C207.605 274.699 210.905 273.242 213.302 270.715C213.067 269.924 211.527 265.056 208.965 264.009C208.169 263.683 207.331 263.764 206.479 264.25C203.362 266.033 203.116 270.762 203.247 273.423L202.86 273.459C202.414 270.203 201.095 264.803 197.239 265.257C192.572 265.806 191.288 272.013 191.006 273.9L190.619 273.848C190.768 272.558 191.361 266.075 188.327 265.25C187.441 265.007 186.658 265.096 186 265.511C184.713 266.32 184.251 268.143 184.167 268.521V268.519Z" fill="#525B2E"/>
<path d="M199.837 276.898C197.343 276.898 193.643 276.754 190.293 275.504C187.05 274.292 184.525 272.187 182.788 269.247C182.621 268.965 182.561 268.631 182.621 268.31C182.673 268.02 183.198 265.435 185.17 264.192C186.198 263.544 187.431 263.39 188.736 263.748C190.384 264.197 191.311 265.534 191.81 267.148C192.956 265.427 194.63 263.996 197.058 263.711C199.351 263.448 201.207 264.547 202.521 266.894C203.121 265.278 204.108 263.813 205.704 262.899C206.973 262.174 208.305 262.059 209.55 262.57C212.848 263.92 214.522 269.325 214.825 270.396C214.859 270.516 214.877 270.642 214.877 270.767C214.877 271.114 214.746 271.446 214.511 271.699C211.84 274.564 208.2 276.206 203.385 276.72C202.288 276.843 201.124 276.901 199.834 276.901L199.837 276.898ZM192.301 273.3C194.332 273.892 196.763 274.174 199.837 274.174C200.557 274.174 201.231 274.154 201.876 274.114C201.79 273.966 201.73 273.796 201.706 273.616C201.393 271.333 200.359 266.054 197.379 266.414C193.998 266.811 192.713 271.281 192.303 273.3H192.301ZM207.989 264.975C207.738 264.975 207.435 265.046 207.059 265.26C204.385 266.787 204.32 271.435 204.414 273.362C204.422 273.527 204.401 273.689 204.354 273.838C207.555 273.318 210.062 272.182 211.976 270.383C211.292 268.349 209.976 265.68 208.524 265.085C208.378 265.025 208.203 264.973 207.989 264.973V264.975ZM185.426 268.331C186.504 269.991 187.877 271.268 189.585 272.195C189.713 269.357 189.261 266.712 188.024 266.372C187.274 266.169 186.867 266.341 186.629 266.49C186.008 266.876 185.619 267.73 185.428 268.328L185.426 268.331Z" fill="#525B2E"/>
<path d="M284.274 233.37C283.227 236.483 281.456 239.567 278.628 242.342C278.318 242.651 277.996 242.951 277.66 243.249C274.978 245.619 271.427 246.643 267.964 246.139C267.173 246.027 266.387 245.834 265.617 245.557C255.24 241.841 235.476 232.235 242.641 214.614C244.822 209.254 257.125 202.42 280.229 210.674C282.065 211.33 283.477 212.826 284.039 214.693C284.642 216.693 285.316 219.555 285.527 222.827C285.744 226.083 285.501 229.744 284.274 233.37Z" fill="#B5EA24"/>
<g opacity="0.6">
<path d="M242.641 219.87C244.822 214.509 257.126 207.676 280.229 215.93C282.065 216.585 283.477 218.081 284.039 219.948C284.632 221.912 285.29 224.711 285.514 227.91C285.629 226.416 285.621 224.959 285.527 223.575C285.316 220.301 284.639 217.442 284.039 215.442C283.475 213.572 282.065 212.076 280.229 211.423C257.126 203.172 244.822 210.003 242.641 215.363C241.226 218.844 240.866 222.011 241.271 224.884C241.487 223.288 241.929 221.617 242.641 219.868V219.87Z" fill="white"/>
</g>
<g opacity="0.2">
<path d="M285.53 222.826C285.318 219.551 284.642 216.692 284.042 214.692C283.932 214.326 283.78 213.982 283.608 213.647C283.624 213.83 283.642 214.008 283.652 214.191C283.869 217.447 283.626 221.108 282.399 224.734C281.352 227.847 279.582 230.931 276.754 233.706C276.443 234.015 276.122 234.315 275.785 234.613C273.103 236.983 269.552 238.007 266.09 237.503C265.299 237.391 264.513 237.198 263.742 236.921C256.781 234.427 245.595 229.283 241.148 220.846C240.271 234.542 256.538 242.305 265.62 245.556C266.39 245.835 267.173 246.029 267.967 246.138C271.43 246.642 274.981 245.619 277.662 243.248C277.999 242.95 278.32 242.65 278.631 242.342C281.459 239.566 283.229 236.482 284.277 233.37C285.504 229.743 285.747 226.084 285.53 222.826Z" fill="#525B2E"/>
</g>
<path d="M269.706 247.729C269.059 247.729 268.406 247.682 267.753 247.588C266.86 247.462 265.972 247.24 265.118 246.932C258.034 244.397 245.498 238.696 241.184 229.051C239.101 224.39 239.135 219.345 241.284 214.06C242.44 211.217 246.198 207.634 253.279 206.104C258.543 204.968 267.578 204.597 280.72 209.292C282.979 210.096 284.744 211.958 285.438 214.269C286.021 216.199 286.76 219.23 286.987 222.732C287.251 226.716 286.804 230.453 285.66 233.837C284.444 237.456 282.42 240.671 279.652 243.389C279.31 243.726 278.976 244.042 278.626 244.347C276.14 246.546 272.967 247.731 269.701 247.731L269.706 247.729ZM260.692 208.318C250.6 208.318 245.169 212.284 243.999 215.165C242.161 219.682 242.116 223.951 243.861 227.858C247.728 236.511 259.46 241.796 266.111 244.177C266.779 244.418 267.468 244.59 268.168 244.689C271.252 245.141 274.357 244.214 276.688 242.154C276.994 241.882 277.292 241.605 277.597 241.302C280.038 238.908 281.814 236.083 282.885 232.905C283.906 229.884 284.303 226.526 284.065 222.925C283.856 219.7 283.172 216.898 282.634 215.118C282.206 213.695 281.122 212.551 279.736 212.055C272.15 209.344 265.818 208.321 260.69 208.321L260.692 208.318Z" fill="#525B2E"/>
<path d="M284.274 233.37C283.227 236.482 281.457 239.566 278.629 242.342C278.318 242.65 277.997 242.95 277.66 243.248C274.978 245.619 271.427 246.642 267.965 246.138C267.865 245.987 265.68 242.099 268.576 239.203C270.615 237.164 276.239 240.352 278.723 242.149C276.506 240.227 273.007 235.785 274.795 232.657C276.54 229.607 281.577 231.986 284.287 233.312C282.154 231.96 277.412 229.056 278.067 226.111C278.945 222.163 284.673 222.716 285.527 222.829C285.744 226.085 285.501 229.746 284.274 233.372V233.37Z" fill="white"/>
<path d="M269.704 246.459C269.116 246.459 268.526 246.417 267.936 246.331L267.85 246.318L267.803 246.245C267.777 246.206 265.411 242.096 268.44 239.064C270.176 237.328 274.281 239.119 277.172 240.884C275.043 238.506 273.184 235.085 274.628 232.557C276.028 230.108 279.357 230.946 282.015 232.048C279.827 230.505 277.38 228.312 277.879 226.066C278.811 221.878 284.867 222.543 285.553 222.632L285.713 222.653L285.723 222.812C285.976 226.633 285.551 230.205 284.459 233.432C283.305 236.861 281.391 239.905 278.764 242.48C278.438 242.804 278.117 243.101 277.788 243.394C275.537 245.383 272.665 246.459 269.704 246.459ZM268.085 245.958C271.505 246.43 274.942 245.389 277.529 243.101C277.85 242.819 278.161 242.527 278.48 242.213C275.464 240.064 270.471 237.581 268.711 239.339C266.077 241.973 267.784 245.415 268.082 245.958H268.085ZM277.681 231.359C276.534 231.359 275.547 231.73 274.962 232.751C273.333 235.605 276.315 239.767 278.764 241.926C281.177 239.48 282.955 236.615 284.052 233.411C282.43 232.62 279.791 231.359 277.681 231.359ZM283.989 222.927C282.034 222.927 278.874 223.371 278.258 226.149C277.652 228.87 282.044 231.662 284.185 233.014C285.175 229.959 285.564 226.591 285.342 222.998C285.076 222.969 284.59 222.927 283.987 222.927H283.989Z" fill="#525B2E"/>
<path d="M269.706 247.627C269.061 247.627 268.416 247.579 267.769 247.485C267.382 247.428 267.037 247.209 266.823 246.88C266.019 245.647 264.439 241.412 267.615 238.237C269.111 236.741 271.49 237.025 273.748 237.861C272.863 235.936 272.552 233.84 273.615 231.978C274.576 230.299 276.143 229.766 277.835 229.816C276.931 228.612 276.419 227.265 276.743 225.81C277.621 221.859 282.122 221.006 285.707 221.473C286.352 221.557 286.848 222.084 286.89 222.734C287.154 226.708 286.71 230.432 285.569 233.803C284.357 237.406 282.344 240.605 279.587 243.31C279.247 243.647 278.91 243.96 278.566 244.266C276.098 246.446 272.952 247.624 269.709 247.624L269.706 247.627ZM268.865 244.869C271.672 245.088 274.448 244.195 276.605 242.36C273.492 240.401 270.333 239.373 269.539 240.164C267.92 241.783 268.468 243.882 268.865 244.869ZM277.696 232.539C276.931 232.539 276.307 232.759 275.978 233.333C274.918 235.19 276.751 238.229 278.722 240.271C280.383 238.401 281.681 236.304 282.592 234.009C281.167 233.349 279.169 232.539 277.699 232.539H277.696ZM283.994 224.1C282.375 224.1 279.84 224.426 279.399 226.406C279.062 227.92 281.61 229.904 283.498 231.179C284.052 228.967 284.295 226.596 284.224 224.102C284.148 224.102 284.073 224.102 283.992 224.102L283.994 224.1Z" fill="#525B2E"/>
<path d="M131.39 193.968C126.528 192.957 124.802 189.777 124.429 186.447C123.919 181.904 125.925 177.073 125.925 177.073C133.805 184.324 142.31 180.893 142.31 180.893C142.31 180.893 141.503 187.124 138.516 191.035C136.876 193.182 134.576 194.631 131.387 193.97L131.39 193.968Z" fill="#6F8421"/>
<path d="M131.39 193.967C126.528 192.956 124.802 189.776 124.428 186.447C126.52 185.204 129.51 184.916 132.468 185.901C135.372 186.87 137.563 188.831 138.516 191.032C136.876 193.178 134.575 194.627 131.387 193.967H131.39Z" fill="#FF7EA0"/>
<path d="M132.917 195.581C132.325 195.581 131.716 195.516 131.095 195.388C127.823 194.709 125.483 193.077 124.144 190.544C121.162 184.901 124.444 176.856 124.585 176.517C124.768 176.078 125.152 175.759 125.614 175.655C126.076 175.553 126.559 175.684 126.909 176.005C133.98 182.515 141.461 179.671 141.775 179.546C142.252 179.358 142.796 179.433 143.2 179.749C143.605 180.065 143.816 180.569 143.751 181.078C143.702 181.462 142.48 190.523 137.443 194.111C136.067 195.09 134.552 195.581 132.915 195.581H132.917ZM126.627 179.54C125.933 181.964 125.121 186.186 126.713 189.194C127.643 190.949 129.27 192.045 131.685 192.547C133.223 192.865 134.557 192.604 135.761 191.748C138.31 189.933 139.78 185.76 140.461 182.885C137.453 183.436 132.04 183.588 126.627 179.54Z" fill="#525B2E"/>
<path d="M122.334 165.317C121.979 164.014 121.465 162.805 120.752 161.774C120.044 160.745 119.159 159.907 118.151 159.348C117.138 158.79 116 158.515 114.754 158.474L114.522 158.453L114.284 158.466C114.125 158.476 113.966 158.481 113.804 158.484C113.642 158.494 113.477 158.479 113.313 158.502L112.817 158.568C112.138 158.609 111.469 158.808 110.733 158.884L110.582 158.899C110.07 158.954 109.61 158.583 109.558 158.071C109.521 157.727 109.678 157.406 109.939 157.218C110.6 156.742 111.284 156.265 112.078 155.962L112.665 155.714C112.861 155.625 113.075 155.591 113.284 155.528C113.493 155.473 113.705 155.418 113.916 155.369L114.235 155.296L114.564 155.262C115.008 155.23 115.449 155.152 115.903 155.186C116.13 155.197 116.357 155.215 116.585 155.236C116.812 155.257 117.039 155.264 117.264 155.327C118.164 155.507 119.052 155.815 119.859 156.27C121.483 157.168 122.757 158.573 123.564 160.134C124.371 161.701 124.763 163.435 124.661 165.129C124.622 165.777 124.066 166.271 123.418 166.231C122.904 166.2 122.486 165.842 122.355 165.37L122.34 165.315L122.334 165.317Z" fill="#525B2E"/>
<path d="M150.741 170.72C151.707 169.326 153.089 168.205 154.692 167.474C156.293 166.746 158.16 166.43 159.993 166.728C160.907 166.869 161.794 167.174 162.614 167.592C162.828 167.681 163.014 167.816 163.204 167.942C163.395 168.067 163.583 168.192 163.768 168.326C164.144 168.579 164.445 168.913 164.774 169.213L165.011 169.446L165.218 169.702C165.353 169.871 165.486 170.044 165.617 170.216C165.742 170.391 165.889 170.553 165.988 170.744L166.296 171.3C166.732 172.028 166.975 172.827 167.199 173.608C167.343 174.102 167.056 174.619 166.562 174.762C166.231 174.859 165.886 174.762 165.656 174.535L165.547 174.428C165.016 173.911 164.612 173.342 164.105 172.89L163.755 172.532C163.64 172.412 163.502 172.323 163.382 172.214C163.257 172.112 163.134 172.007 163.016 171.9L162.836 171.744L162.64 171.616C161.635 170.879 160.57 170.388 159.429 170.203C158.29 170.018 157.076 170.127 155.885 170.501C154.689 170.869 153.538 171.501 152.452 172.308L152.407 172.339C151.885 172.725 151.151 172.616 150.765 172.096C150.457 171.681 150.464 171.13 150.744 170.728L150.741 170.72Z" fill="#525B2E"/>
<g opacity="0.2">
<path d="M232.163 172.081C232.163 172.081 239.145 210.544 207.398 202.334L213.566 206.632L217.955 210.296L221.838 213.463L224.94 214.63L230.779 212.685L232.335 210.35L236.364 202.298C236.364 202.298 238.56 196.73 239.338 196.73C240.116 196.73 244.203 194.2 244.203 194.2L232.163 172.084V172.081Z" fill="#525B2E"/>
</g>
</g>
<defs>
<clipPath id="clip0_799_27652">
<rect width="200.065" height="168" fill="white" transform="translate(87 109)"/>
</clipPath>
</defs>
</svg>
