<svg width="338" height="443" viewBox="0 0 338 443" fill="none" xmlns="http://www.w3.org/2000/svg">
<g clip-path="url(#clip0_799_25213)">
<path d="M224.961 282.351C224.927 283.333 224.851 284.311 224.737 285.276C224.415 287.986 223.784 290.636 222.863 293.171C219.669 301.974 213.019 309.435 203.986 313.471L203.481 313.696C193.243 318.277 182.323 320.692 171.359 320.951C169.91 320.986 168.465 320.983 167.013 320.942C156.049 320.632 145.126 318.163 134.91 313.525C125.865 309.426 119.234 301.883 116.1 293.013C115.794 292.149 115.519 291.269 115.289 290.382C114.831 288.701 114.503 286.983 114.304 285.235C114.184 284.197 114.108 283.152 114.086 282.101C114.08 281.813 114.077 281.528 114.077 281.24C114.077 278.607 114.37 275.945 114.986 273.286C117.157 263.89 119.976 255.429 122.522 248.775C123.987 244.951 125.36 241.719 126.458 239.253C126.546 239.057 126.632 238.87 126.714 238.684C127.607 236.708 128.298 235.284 128.683 234.508C128.901 234.065 129.021 233.834 129.021 233.834H210.065C210.065 233.834 210.201 234.094 210.447 234.594C210.87 235.448 211.624 237.012 212.586 239.162C212.669 239.345 212.754 239.535 212.842 239.731C214.098 242.568 215.67 246.319 217.314 250.766C219.64 257.043 222.115 264.707 224.068 273.121C224.785 276.204 225.072 279.3 224.961 282.342V282.351Z" fill="#ECC18E"/>
<g opacity="0.35">
<path d="M224.308 282.351C224.179 286.08 223.459 289.727 222.209 293.171C219.015 301.974 212.366 309.435 203.333 313.471L202.828 313.696C192.59 318.276 181.67 320.692 170.706 320.951C169.895 319.91 169.153 318.663 168.531 317.292C167.91 318.663 167.171 319.903 166.36 320.942C155.396 320.632 144.473 318.162 134.257 313.525C125.211 309.426 118.581 301.882 115.447 293.013C114.216 289.537 113.525 285.859 113.433 282.104C113.648 282.032 113.865 281.965 114.086 281.899C114.083 281.68 114.08 281.465 114.08 281.243C114.08 278.61 114.374 275.947 114.989 273.288C117.16 263.893 119.979 255.432 122.526 248.778C123.99 244.954 125.363 241.722 126.461 239.256C126.55 239.06 126.635 238.873 126.717 238.686C127.61 236.711 128.301 235.287 128.686 234.511C128.904 234.068 129.024 233.837 129.024 233.837H132.174L132.18 234.141L132.543 250.066C132.543 250.066 133.029 268.05 124.501 281.167C124.385 281.348 124.265 281.531 124.142 281.709C133.799 283.209 130.911 285.995 160.966 295.346C164.612 296.479 167.042 298.492 168.531 300.952C170.018 298.492 172.448 296.479 176.093 295.346C207.003 285.732 203.068 283.054 213.776 281.585C213.682 281.449 213.593 281.307 213.499 281.167C204.971 268.05 205.457 250.066 205.457 250.066L205.82 234.141L205.826 233.837H208.976C208.976 233.837 209.096 234.071 209.314 234.511C209.699 235.284 210.39 236.708 211.283 238.686C211.365 238.87 211.45 239.06 211.539 239.256C212.637 241.722 214.01 244.954 215.474 248.778C218.021 255.432 220.84 263.893 223.011 273.288C223.626 275.944 223.92 278.61 223.92 281.243C223.92 281.531 223.917 281.816 223.91 282.104C223.91 282.139 223.91 282.171 223.907 282.202C224.04 282.25 224.172 282.297 224.308 282.351Z" fill="#613331"/>
</g>
<path d="M169.387 322.341C157.428 322.341 145.476 319.818 134.348 314.776C130.438 313.003 126.903 310.591 123.839 307.603C120.856 304.694 118.404 301.322 116.548 297.581C114.689 293.836 113.49 289.841 112.982 285.707C112.458 281.456 112.685 277.173 113.654 272.982C115.526 264.878 118.082 256.572 121.247 248.291C124.754 239.13 127.689 233.445 127.812 233.207L128.194 232.47H210.892L211.274 233.207C211.308 233.274 214.777 239.985 218.592 250.298C221.392 257.86 223.683 265.435 225.397 272.817C226.375 277.027 226.602 281.326 226.075 285.596C225.564 289.746 224.352 293.757 222.481 297.514C220.609 301.269 218.135 304.646 215.13 307.558C212.044 310.55 208.48 312.959 204.545 314.719L204.037 314.947C193.019 319.875 181.203 322.338 169.387 322.338V322.341ZM129.863 235.211C128.964 237.034 126.531 242.124 123.798 249.272C120.676 257.433 118.161 265.619 116.315 273.599C115.418 277.477 115.21 281.437 115.693 285.368C116.163 289.192 117.274 292.889 118.994 296.356C120.711 299.819 122.983 302.943 125.745 305.634C128.579 308.4 131.852 310.632 135.475 312.275C146.243 317.156 157.817 319.597 169.387 319.597C180.824 319.597 192.258 317.213 202.926 312.443L203.434 312.215C210.623 308.999 216.519 303.342 220.038 296.286C221.774 292.807 222.891 289.097 223.368 285.254C223.857 281.304 223.645 277.325 222.739 273.431C221.051 266.163 218.798 258.696 216.036 251.244C213.006 243.052 210.207 237.189 209.225 235.205H129.863V235.211Z" fill="#613331"/>
<path d="M166.505 320.262C172.401 321.886 178.331 323.006 178.829 323.908C180.24 326.463 164.93 332.895 156.106 329.344" fill="white"/>
<path d="M162.226 331.755C160.023 331.755 157.706 331.461 155.595 330.612C153.338 329.704 152.117 328.374 151.959 326.659C151.807 325 152.745 323.17 154.746 321.22C156.358 319.647 158.252 318.39 158.991 317.922C160.827 316.76 162.57 317.415 164.416 318.109C165.132 318.378 165.943 318.682 166.865 318.938C168.676 319.438 170.532 319.897 172.167 320.302C178.022 321.759 179.448 322.202 180.022 323.243C180.717 324.503 179.868 325.69 179.47 326.14C177.943 327.877 173.922 329.767 169.466 330.84C167.717 331.261 165.069 331.752 162.226 331.752V331.755ZM160.449 320.239C156.98 322.436 154.553 325.032 154.679 326.412C154.749 327.168 155.768 327.732 156.611 328.071C159.843 329.372 164.608 329.33 169.686 327.96C171.757 327.399 173.739 326.646 175.269 325.833C176.286 325.294 176.889 324.842 177.223 324.531C176.046 324.095 173.572 323.477 171.507 322.965C169.857 322.553 167.985 322.091 166.139 321.581C165.098 321.293 164.223 320.967 163.453 320.676C161.702 320.018 161.083 319.837 160.446 320.239H160.449Z" fill="#613331"/>
<path d="M170.153 311.898C176.058 313.488 181.995 314.576 182.497 315.475C183.923 318.024 168.651 324.541 159.805 321.04" fill="white"/>
<path d="M165.798 323.421C163.639 323.421 161.373 323.133 159.303 322.316C157.04 321.42 155.812 320.097 155.645 318.385C155.484 316.726 156.412 314.893 158.4 312.93C160.004 311.348 161.891 310.078 162.626 309.607C164.457 308.432 166.202 309.078 168.051 309.762C168.768 310.028 169.582 310.328 170.504 310.575C172.318 311.063 174.174 311.512 175.812 311.911C181.676 313.332 183.106 313.769 183.683 314.804C184.387 316.058 183.541 317.251 183.147 317.704C181.629 319.448 177.617 321.363 173.167 322.462C171.391 322.902 168.689 323.418 165.792 323.418L165.798 323.421ZM164.097 311.914C160.641 314.13 158.23 316.739 158.362 318.119C158.435 318.875 159.458 319.432 160.303 319.765C163.541 321.047 168.307 320.98 173.379 319.578C175.446 319.008 177.425 318.239 178.949 317.419C179.962 316.875 180.565 316.419 180.897 316.105C179.719 315.675 177.239 315.074 175.171 314.573C173.518 314.171 171.646 313.719 169.797 313.222C168.752 312.94 167.878 312.617 167.105 312.332C165.35 311.683 164.728 311.509 164.094 311.914H164.097Z" fill="#613331"/>
<path d="M161.383 302.247C163.153 301.054 164.889 302.421 168.197 303.231C174.136 304.684 180.095 305.637 180.619 306.527C182.102 309.04 166.982 315.906 158.059 312.608C151.021 310.006 158.776 304.007 161.383 302.247Z" fill="white"/>
<path d="M163.564 314.855C161.569 314.855 159.502 314.598 157.589 313.893C155.307 313.051 154.048 311.756 153.843 310.047C153.644 308.394 154.531 306.536 156.472 304.532C158.041 302.915 159.896 301.601 160.622 301.113C162.424 299.898 164.185 300.503 166.051 301.145C166.773 301.395 167.594 301.677 168.522 301.902C170.349 302.348 172.214 302.756 173.859 303.114C179.754 304.402 181.193 304.804 181.796 305.827C182.528 307.065 181.711 308.277 181.326 308.739C179.846 310.518 175.882 312.522 171.457 313.725C169.582 314.234 166.663 314.855 163.564 314.855ZM162.917 303.149C162.62 303.149 162.383 303.225 162.147 303.383C158.741 305.678 156.39 308.34 156.554 309.717C156.646 310.471 157.681 311.006 158.533 311.319C161.799 312.525 166.565 312.351 171.602 310.835C173.657 310.217 175.617 309.404 177.122 308.549C178.122 307.979 178.713 307.511 179.038 307.191C177.851 306.786 175.358 306.245 173.278 305.789C171.618 305.425 169.734 305.013 167.875 304.561C166.824 304.304 165.943 304 165.164 303.731C164.062 303.351 163.406 303.146 162.917 303.146V303.149Z" fill="#613331"/>
<path d="M162.834 327.922C151.328 335.43 122.279 334.227 110.435 322.369C90.6684 302.582 104.896 284.412 119.54 285.871C133.742 287.286 126.676 289.604 159.925 299.945C174.682 304.535 169.506 323.566 162.834 327.922Z" fill="#D3A17F"/>
<path d="M176.355 327.922C187.862 335.43 216.91 334.227 228.755 322.369C248.521 302.582 234.294 284.412 219.65 285.871C205.447 287.286 212.514 289.604 179.265 299.945C164.507 304.535 169.683 323.566 176.355 327.922Z" fill="#D3A17F"/>
<path d="M162.834 327.922C151.328 335.43 122.279 334.227 110.435 322.369C90.6684 302.582 104.896 284.412 119.54 285.871C133.742 287.286 126.676 289.604 159.925 299.945C174.682 304.535 169.506 323.566 162.834 327.922Z" fill="#D3A17F"/>
<path d="M176.355 327.922C187.862 335.43 216.91 334.227 228.755 322.369C248.521 302.582 234.294 284.412 219.65 285.871C205.447 287.286 212.514 289.604 179.265 299.945C164.507 304.535 169.683 323.566 176.355 327.922Z" fill="#D3A17F"/>
<path d="M162.831 327.922C151.325 335.43 122.279 334.228 110.432 322.37C97.0027 308.923 99.2656 296.226 106.689 289.927C110.192 286.954 114.844 285.403 119.537 285.872C131.179 287.033 128.525 288.8 145.508 295.093C149.242 296.479 153.922 298.081 159.918 299.948C174.679 304.535 169.5 323.566 162.828 327.922H162.831Z" fill="#ECC18E"/>
<g opacity="0.35">
<path d="M162.831 327.922C151.324 335.431 122.279 334.228 110.432 322.37C101.494 313.424 99.5084 304.808 101.367 298.186C102.526 302.747 105.363 307.717 110.432 312.791C122.276 324.649 151.321 325.852 162.831 318.34C165.385 316.675 167.72 312.861 168.799 308.53C170.977 315.814 167.228 325.051 162.831 327.922Z" fill="#613331"/>
</g>
<path d="M142.106 334C140.3 334 138.473 333.924 136.649 333.772C125.038 332.809 115.131 329.005 109.469 323.338C104.527 318.391 101.352 313.256 100.039 308.081C98.8711 303.481 99.2372 298.958 101.102 295.004C102.725 291.563 105.369 288.736 108.749 286.834C112.117 284.938 115.895 284.134 119.676 284.51C126.884 285.229 128.913 286.226 132.953 288.217C137.148 290.281 143.485 293.402 160.329 298.641C163.425 299.603 165.896 301.218 167.673 303.437C169.254 305.412 170.248 307.808 170.63 310.566C171.103 313.994 170.583 317.856 169.162 321.439C167.809 324.858 165.77 327.64 163.576 329.071C160.638 330.989 156.523 332.43 151.681 333.243C148.667 333.746 145.426 334.003 142.106 334.003V334ZM117.861 287.157C115.163 287.157 112.505 287.86 110.088 289.221C107.203 290.845 104.95 293.25 103.57 296.175C101.98 299.546 101.674 303.427 102.684 307.403C103.877 312.095 106.809 316.802 111.397 321.398C114.083 324.089 117.807 326.311 122.466 328.007C126.748 329.568 131.732 330.616 136.873 331.043C147.092 331.892 156.753 330.255 162.09 326.773C165.568 324.503 168.803 317.251 167.928 310.939C167.461 307.568 165.625 303.152 159.521 301.253C142.475 295.951 136.021 292.772 131.751 290.674C127.771 288.714 126.127 287.904 119.407 287.236C118.893 287.185 118.375 287.16 117.861 287.16V287.157Z" fill="#613331"/>
<path d="M172.684 320.262C166.789 321.886 160.859 323.006 160.36 323.908C158.949 326.463 174.259 332.895 183.084 329.344" fill="white"/>
<path d="M176.964 331.756C174.121 331.756 171.476 331.265 169.724 330.844C165.268 329.768 161.247 327.878 159.72 326.143C159.322 325.691 158.473 324.504 159.167 323.247C159.742 322.209 161.168 321.762 167.023 320.306C168.657 319.901 170.51 319.439 172.325 318.942C173.246 318.689 174.057 318.382 174.774 318.113C176.62 317.419 178.362 316.764 180.199 317.926C180.938 318.394 182.831 319.651 184.444 321.224C186.442 323.174 187.379 325.004 187.231 326.663C187.076 328.378 185.852 329.708 183.595 330.616C181.487 331.465 179.167 331.759 176.964 331.759V331.756ZM161.964 324.529C162.298 324.839 162.901 325.292 163.917 325.83C165.448 326.644 167.43 327.397 169.5 327.957C174.578 329.328 179.344 329.369 182.576 328.068C183.418 327.729 184.438 327.166 184.507 326.409C184.633 325.029 182.206 322.434 178.738 320.237C178.1 319.835 177.482 320.012 175.73 320.674C174.96 320.965 174.089 321.291 173.044 321.579C171.198 322.085 169.327 322.551 167.676 322.962C165.609 323.475 163.134 324.089 161.96 324.529H161.964Z" fill="#613331"/>
<path d="M169.033 311.898C163.128 313.488 157.192 314.576 156.69 315.475C155.263 318.024 170.535 324.541 179.382 321.04" fill="white"/>
<path d="M173.388 323.421C170.491 323.421 167.79 322.905 166.013 322.465C161.563 321.363 157.551 319.451 156.033 317.707C155.639 317.251 154.796 316.061 155.497 314.807C156.078 313.772 157.507 313.335 163.368 311.914C165.006 311.518 166.862 311.066 168.676 310.578C169.601 310.328 170.412 310.031 171.129 309.765C172.978 309.081 174.723 308.435 176.554 309.61C177.289 310.081 179.177 311.351 180.78 312.933C182.768 314.896 183.696 316.729 183.535 318.388C183.371 320.1 182.14 321.423 179.877 322.319C177.807 323.139 175.541 323.424 173.382 323.424L173.388 323.421ZM158.287 316.108C158.618 316.422 159.221 316.878 160.234 317.422C161.758 318.245 163.737 319.011 165.804 319.581C170.876 320.98 175.642 321.05 178.88 319.768C179.726 319.432 180.748 318.875 180.821 318.122C180.953 316.741 178.542 314.133 175.086 311.917C174.452 311.512 173.83 311.686 172.076 312.335C171.305 312.62 170.428 312.943 169.383 313.225C167.534 313.722 165.662 314.177 164.009 314.576C161.938 315.076 159.461 315.678 158.284 316.108H158.287Z" fill="#613331"/>
<path d="M177.804 302.247C176.033 301.054 174.297 302.421 170.99 303.231C165.05 304.684 159.091 305.637 158.568 306.527C157.084 309.04 172.205 315.906 181.127 312.608C188.165 310.006 180.411 304.007 177.804 302.247Z" fill="white"/>
<path d="M175.626 314.855C172.527 314.855 169.607 314.234 167.733 313.725C163.308 312.522 159.344 310.518 157.864 308.739C157.479 308.277 156.665 307.065 157.394 305.827C157.996 304.804 159.436 304.399 165.331 303.114C166.978 302.753 168.844 302.348 170.668 301.902C171.599 301.674 172.416 301.392 173.139 301.145C175.004 300.503 176.765 299.898 178.567 301.113C179.293 301.601 181.149 302.915 182.718 304.532C184.662 306.539 185.545 308.394 185.347 310.047C185.142 311.756 183.882 313.051 181.6 313.893C179.688 314.598 177.618 314.855 175.626 314.855ZM160.152 307.191C160.477 307.511 161.067 307.979 162.068 308.549C163.573 309.404 165.536 310.217 167.588 310.835C172.625 312.351 177.387 312.528 180.657 311.319C181.509 311.002 182.544 310.471 182.636 309.717C182.8 308.34 180.448 305.678 177.043 303.383C176.418 302.962 175.793 303.124 174.023 303.731C173.246 304 172.363 304.301 171.312 304.561C169.453 305.017 167.569 305.428 165.909 305.789C163.829 306.245 161.335 306.786 160.149 307.191H160.152Z" fill="#613331"/>
<path d="M176.355 327.922C187.862 335.43 216.91 334.227 228.755 322.369C248.521 302.582 234.294 284.412 219.65 285.871C205.447 287.286 212.514 289.604 179.265 299.945C164.507 304.535 169.683 323.566 176.355 327.922Z" fill="#ECC18E"/>
<g opacity="0.35">
<path d="M228.755 322.366C216.91 334.227 187.865 335.43 176.355 327.918C171.936 325.035 168.174 315.728 170.418 308.432C171.51 312.711 173.827 316.472 176.355 318.121C187.862 325.63 216.907 324.424 228.755 312.569C233.782 307.533 236.613 302.601 237.79 298.074C239.7 304.709 237.74 313.37 228.755 322.363V322.366Z" fill="#613331"/>
</g>
<path d="M197.081 334C193.761 334 190.516 333.744 187.505 333.24C182.661 332.43 178.549 330.986 175.61 329.068C173.414 327.634 171.378 324.852 170.024 321.436C168.604 317.853 168.083 313.991 168.557 310.563C168.938 307.809 169.933 305.409 171.514 303.434C173.291 301.215 175.762 299.601 178.858 298.638C195.702 293.399 202.039 290.278 206.233 288.214C210.273 286.226 212.303 285.229 219.511 284.507C223.289 284.131 227.07 284.935 230.437 286.831C233.817 288.737 236.462 291.56 238.084 295.001C239.949 298.955 240.316 303.478 239.148 308.078C237.832 313.253 234.66 318.388 229.718 323.335C224.056 329.005 214.149 332.807 202.538 333.769C200.714 333.921 198.883 333.997 197.081 333.997V334ZM177.097 326.773C182.431 330.255 192.094 331.892 202.314 331.043C207.455 330.616 212.438 329.568 216.721 328.008C221.379 326.311 225.103 324.089 227.789 321.398C232.378 316.802 235.31 312.095 236.503 307.403C237.513 303.428 237.207 299.547 235.616 296.175C234.237 293.251 231.984 290.845 229.099 289.221C226.221 287.6 222.998 286.913 219.779 287.233C213.06 287.904 211.413 288.714 207.433 290.671C203.163 292.773 196.709 295.948 179.663 301.25C173.559 303.149 171.722 307.565 171.255 310.936C170.535 316.143 172.877 324.019 177.094 326.77L177.097 326.773Z" fill="#613331"/>
<path d="M141.115 228.94L139.578 233.844L136.652 243.185L131.89 258.386C131.89 258.386 126.584 275.568 114.304 285.242C110.328 288.379 105.616 290.724 100.118 291.443C62.8197 296.312 75.0809 268.243 75.0809 268.243C75.0809 268.243 93.3765 265.837 99.5245 263.729C107.875 260.868 111.593 247.93 123.873 237.959C125.347 236.762 126.947 235.61 128.686 234.521C129.052 234.293 129.425 234.069 129.8 233.847C133.045 231.944 136.772 230.267 141.118 228.944L141.115 228.94Z" fill="#ECC18E"/>
<g opacity="0.35">
<path d="M131.441 259.709C131.659 259.098 131.798 258.68 131.858 258.493L131.757 258.838C131.757 258.838 131.662 259.145 131.441 259.709Z" fill="#613331"/>
</g>
<g opacity="0.35">
<path d="M131.883 258.404L131.855 258.492C131.867 258.451 131.874 258.42 131.883 258.404Z" fill="#613331"/>
</g>
<g opacity="0.35">
<path d="M131.426 259.74C129.933 263.878 124.773 276.552 115.055 284.631C114.983 284.691 114.913 284.751 114.841 284.808C114.664 284.957 114.487 285.099 114.304 285.238C110.328 288.375 105.616 290.721 100.118 291.439C62.8197 296.308 75.0809 268.24 75.0809 268.24C75.0809 268.24 89.8101 265.742 96.2201 264.64C99.0037 270.107 90.5487 272.272 90.5487 276.923C90.5487 281.573 92.6569 283.136 96.5641 283.972C103.365 285.425 110.492 283.728 115.974 279.439C116.012 279.411 116.046 279.382 116.084 279.354C126.253 271.345 130.327 262.535 131.429 259.743L131.426 259.74Z" fill="#613331"/>
</g>
<path d="M141.247 229.377C138.271 230.976 135.33 232.372 132.489 233.955C129.661 235.553 126.96 237.348 124.422 239.374C123.778 239.868 123.182 240.422 122.557 240.944C121.967 241.508 121.358 242.043 120.787 242.628C119.616 243.765 118.533 244.993 117.466 246.237C115.352 248.75 113.411 251.425 111.448 254.144C110.463 255.502 109.466 256.87 108.393 258.209C107.32 259.548 106.171 260.865 104.826 262.058C103.491 263.245 101.926 264.299 100.149 264.945C98.4418 265.54 96.8006 265.907 95.1406 266.287C88.5223 267.689 81.9136 268.677 75.2575 269.592L76.3305 268.785C76.1759 269.152 76.0086 269.611 75.8634 270.038C75.7151 270.472 75.5794 270.915 75.4563 271.358C75.2007 272.245 75.005 273.15 74.8472 274.052C74.5442 275.86 74.4148 277.696 74.62 279.462C74.8156 281.228 75.3174 282.925 76.1948 284.391C77.0754 285.856 78.3472 287.053 79.8369 287.964C81.3265 288.886 83.0592 289.458 84.8234 289.886L86.1679 290.168C86.6224 290.24 87.0832 290.288 87.5408 290.351C88.4529 290.5 89.3902 290.519 90.3213 290.579C90.5548 290.592 90.7852 290.614 91.0219 290.614H91.7257L93.1333 290.608C93.6036 290.617 94.0738 290.582 94.5441 290.554L95.958 290.471L96.6649 290.43L97.3719 290.354L98.7858 290.202C99.2529 290.145 99.7389 290.117 100.19 290.035L101.547 289.804C103.34 289.421 105.117 288.93 106.796 288.167C108.481 287.433 110.116 286.553 111.637 285.486C113.168 284.438 114.626 283.27 115.977 281.972C117.334 280.684 118.618 279.31 119.802 277.841C122.182 274.919 124.287 271.738 125.985 268.338L128.56 263.255C129.002 262.409 129.44 261.561 129.926 260.728C130.4 259.893 130.899 259.054 131.457 258.244L131.467 258.228C131.615 258.013 131.908 257.959 132.123 258.107C132.259 258.202 132.328 258.358 132.325 258.513C132.293 259.548 132.117 260.529 131.893 261.498C131.669 262.466 131.378 263.416 131.031 264.343C130.343 266.198 129.5 267.993 128.522 269.712C126.546 273.134 124.441 276.502 121.91 279.576C120.663 281.124 119.297 282.586 117.845 283.963C116.403 285.35 114.831 286.613 113.171 287.749C109.857 290.035 106.06 291.703 102.071 292.491L100.569 292.747C100.067 292.836 99.5874 292.865 99.0951 292.925L97.6275 293.083L96.8922 293.162L96.1505 293.206L94.6703 293.292C94.178 293.32 93.6856 293.358 93.187 293.349L91.6973 293.355H90.9525C90.7032 293.355 90.4538 293.333 90.2045 293.32C89.204 293.254 88.2067 293.232 87.2063 293.073C86.7076 293.004 86.2058 292.95 85.7071 292.871L84.2112 292.558C82.2323 292.08 80.2409 291.427 78.423 290.31C76.6146 289.208 74.9797 287.683 73.8625 285.815C72.7421 283.951 72.1361 281.842 71.9089 279.759C71.6691 277.67 71.8237 275.597 72.1614 273.587C72.3381 272.583 72.5559 271.589 72.8336 270.611C72.9725 270.124 73.1208 269.636 73.2849 269.155C73.4522 268.664 73.6132 268.212 73.8373 267.686L74.1339 266.983L74.9103 266.876C81.4907 265.971 88.1089 264.98 94.5662 263.609C96.16 263.245 97.7853 262.875 99.2339 262.365C100.604 261.868 101.869 261.032 103.028 260C104.189 258.972 105.253 257.762 106.269 256.49C107.288 255.217 108.263 253.882 109.245 252.53C111.199 249.823 113.19 247.076 115.387 244.464C117.599 241.872 119.966 239.368 122.601 237.152C125.221 234.92 128.109 232.977 131.198 231.464C134.279 229.938 137.577 228.855 140.988 228.497C141.244 228.472 141.471 228.656 141.497 228.912C141.515 229.105 141.414 229.282 141.254 229.371L141.247 229.377Z" fill="#613331"/>
<path d="M89.3019 271.785C88.5413 272.574 87.2946 272.605 86.4867 271.865C84.5804 270.114 80.8058 267.395 75.7056 267.309C71.6533 267.24 78.6408 260.564 85.0444 261.096C89.2987 261.45 92.3285 263.324 94.1432 264.859C95.2005 265.755 95.0553 267.427 93.8687 268.145C93.1238 268.598 92.2244 269.199 91.2144 269.991C90.659 270.424 89.9331 271.137 89.3019 271.789V271.785Z" fill="white"/>
<g opacity="0.35">
<path d="M93.8686 268.139C93.1238 268.591 92.2274 269.193 91.2112 269.984C90.6557 270.418 89.9298 271.13 89.2986 271.785C88.538 272.574 87.2914 272.605 86.4866 271.864C84.5772 270.111 80.8057 267.392 75.7056 267.306C73.5184 267.268 74.5441 265.306 76.9585 263.59C81.8062 263.84 85.3946 266.439 87.2409 268.129C88.0457 268.873 89.2923 268.841 90.0529 268.05C90.6841 267.398 91.4069 266.686 91.9655 266.252C92.7293 265.657 93.4267 265.166 94.0422 264.771C94.0769 264.796 94.1116 264.824 94.1432 264.853C95.1973 265.749 95.0521 267.417 93.8654 268.135L93.8686 268.139Z" fill="#613331"/>
</g>
<path d="M87.8564 273.849C87.08 273.849 86.3036 273.568 85.7008 273.001C84.0187 271.421 80.4776 268.759 75.6835 268.677C74.2696 268.652 73.6447 268.022 73.3702 267.496C73.0893 266.961 72.922 266.069 73.7268 264.85C74.5537 263.596 76.2295 262.251 78.2115 261.254C79.8495 260.431 82.387 259.497 85.1611 259.728C89.9646 260.127 93.3353 262.305 95.3173 264.062C96.0811 264.739 96.4629 265.711 96.3651 266.73C96.2673 267.746 95.6834 268.661 94.806 269.177C93.9129 269.706 92.985 270.339 92.0571 271.067C91.6153 271.412 90.9588 272.036 90.1572 272.871C89.5354 273.52 88.6959 273.849 87.8596 273.849H87.8564ZM76.3148 265.958C81.7211 266.249 85.663 269.215 87.5661 271C87.7396 271.162 88.0174 271.149 88.1878 270.975C89.0904 270.032 89.8258 269.339 90.3781 268.908C91.4006 268.107 92.4264 267.404 93.4237 266.819C93.5973 266.714 93.6383 266.556 93.6478 266.471C93.6572 266.372 93.6414 266.233 93.5089 266.116C91.8362 264.635 88.9926 262.799 84.9371 262.46C83.0845 262.305 80.8626 262.878 78.8364 264.027C77.574 264.745 76.7692 265.454 76.3179 265.961L76.3148 265.958Z" fill="#613331"/>
<path d="M80.9669 283.555C80.9669 283.555 74.8126 285.302 72.5687 277.993C69.4852 267.958 77.0345 262.963 78.6788 263.505C80.3231 264.046 78.0412 269.737 83.4318 274.54C85.4232 276.312 84.205 280.946 80.9669 283.552V283.555Z" fill="white"/>
<g opacity="0.35">
<path d="M80.9669 283.551C80.9669 283.551 74.8126 285.302 72.5655 277.989C71.6061 274.871 71.6787 272.238 72.2783 270.107C72.3604 270.452 72.4551 270.804 72.5655 271.162C74.8126 278.471 80.9669 276.723 80.9669 276.723C81.8443 276.017 82.5702 275.166 83.1288 274.261C83.2266 274.352 83.3276 274.444 83.4286 274.539C85.4232 276.312 84.205 280.946 80.9669 283.551Z" fill="#613331"/>
</g>
<path d="M79.3792 285.109C78.7606 285.109 78.0347 285.042 77.2615 284.84C75.2669 284.317 72.6063 282.776 71.2587 278.398C68.8664 270.62 72.4517 265.996 74.1023 264.372C75.4405 263.055 77.5519 261.697 79.1015 262.206C80.5469 262.684 80.6921 264.223 80.8278 265.711C81.0267 267.866 81.3012 270.817 84.3373 273.52C85.2936 274.371 85.7986 275.688 85.7607 277.23C85.6944 279.848 84.1511 282.75 81.822 284.628L81.6074 284.802L81.3391 284.878C81.216 284.912 80.4586 285.115 79.3824 285.115L79.3792 285.109ZM77.9969 264.945C77.3593 265.198 76.1506 265.929 75.0428 267.461C73.6699 269.357 72.3538 272.656 73.8687 277.591C74.6388 280.095 75.977 281.633 77.8517 282.162C78.9216 282.466 79.8999 282.361 80.3449 282.285C81.8946 280.927 82.9834 278.86 83.0244 277.157C83.0339 276.739 82.9834 275.979 82.5195 275.565C78.6786 272.143 78.3188 268.275 78.1042 265.961C78.0758 265.638 78.0379 265.242 77.9937 264.945H77.9969Z" fill="#613331"/>
<path d="M86.6951 288.515C85.4642 289.759 83.6874 290.345 79.2973 289.544C70.3184 287.907 63.6118 281.652 65.7768 279.338C67.2381 277.778 70.2553 279.073 74.0583 279.224C80.7807 279.494 82.5575 278.243 84.1261 278.243C87.604 278.243 90.3719 284.793 86.6951 288.515Z" fill="white"/>
<g opacity="0.35">
<path d="M86.6918 288.512C85.4641 289.759 83.6873 290.345 79.2941 289.544C70.5329 287.948 63.9431 281.959 65.6347 279.519C68.0112 281.921 72.4865 284.463 77.7413 285.422C82.1314 286.223 83.9114 285.637 85.1391 284.39C86.4615 283.051 86.9506 281.345 86.8686 279.712C88.6738 281.861 89.283 285.888 86.6918 288.512Z" fill="#613331"/>
</g>
<path d="M82.7058 291.278C81.6548 291.278 80.446 291.149 79.0511 290.892C75.6078 290.265 72.1551 288.911 69.3273 287.084C66.6478 285.353 64.7826 283.352 64.205 281.598C63.8011 280.367 64.0062 279.234 64.7826 278.401C66.2596 276.822 68.4846 277.151 70.839 277.496C71.8805 277.648 72.9567 277.806 74.115 277.854C78.5745 278.034 80.7332 277.521 82.1598 277.183C82.8699 277.015 83.4821 276.869 84.126 276.869C86.1932 276.869 88.1152 278.398 89.1378 280.858C89.7122 282.241 89.9205 283.735 89.7406 285.179C89.5323 286.828 88.8159 288.312 87.6671 289.474C86.4646 290.693 84.9276 291.272 82.7089 291.272L82.7058 291.278ZM67.9828 279.946C67.4242 279.946 66.9981 280.035 66.7677 280.278C66.6825 280.37 66.7583 280.633 66.793 280.741C67.2411 282.099 69.2326 283.767 70.8012 284.78C73.3355 286.416 76.4379 287.632 79.5339 288.195C83.8703 288.987 85.0002 288.278 85.7166 287.55C87.3956 285.85 87.2757 283.523 86.6066 281.915C86.0322 280.538 85.0318 279.61 84.1165 279.61C83.7914 279.61 83.3654 279.712 82.7783 279.851C81.2066 280.225 78.827 280.785 73.9951 280.592C72.6916 280.538 71.4923 280.364 70.4319 280.206C69.504 280.069 68.6456 279.943 67.9765 279.943L67.9828 279.946Z" fill="#613331"/>
<path d="M196.885 228.94L198.422 233.844L201.348 243.185L206.11 258.386C206.11 258.386 211.416 275.568 223.696 285.242C227.672 288.379 232.384 290.724 237.882 291.443C275.18 296.312 262.919 268.243 262.919 268.243C262.919 268.243 244.624 265.837 238.476 263.729C230.125 260.868 226.407 247.93 214.127 237.959C212.653 236.762 211.053 235.61 209.314 234.521C208.948 234.293 208.575 234.069 208.2 233.847C204.955 231.944 201.228 230.267 196.882 228.944L196.885 228.94Z" fill="#ECC18E"/>
<g opacity="0.35">
<path d="M206.571 259.74C208.064 263.878 213.224 276.552 222.941 284.631C223.014 284.691 223.083 284.751 223.156 284.808C223.333 284.957 223.51 285.099 223.693 285.238C227.669 288.375 232.381 290.721 237.879 291.439C275.177 296.308 262.916 268.24 262.916 268.24C262.916 268.24 248.187 265.742 241.777 264.64C238.993 270.107 247.448 272.272 247.448 276.923C247.448 281.573 245.34 283.136 241.433 283.972C234.631 285.425 227.505 283.728 222.023 279.439C221.985 279.411 221.95 279.382 221.913 279.354C211.744 271.345 207.669 262.535 206.568 259.743L206.571 259.74Z" fill="#613331"/>
</g>
<path d="M197.018 228.503C200.429 228.861 203.727 229.946 206.808 231.469C209.897 232.982 212.785 234.923 215.405 237.157C218.04 239.373 220.407 241.877 222.619 244.47C224.816 247.081 226.807 249.829 228.761 252.535C229.739 253.887 230.718 255.223 231.737 256.495C232.757 257.765 233.817 258.974 234.978 260.006C236.14 261.035 237.402 261.87 238.772 262.371C240.221 262.88 241.846 263.251 243.44 263.615C249.894 264.985 256.515 265.976 263.096 266.881L263.872 266.989L264.169 267.692C264.393 268.217 264.551 268.67 264.721 269.161C264.885 269.645 265.033 270.129 265.172 270.617C265.453 271.592 265.671 272.586 265.845 273.592C266.182 275.602 266.334 277.676 266.097 279.765C265.87 281.845 265.261 283.953 264.143 285.821C263.026 287.685 261.391 289.214 259.583 290.315C257.765 291.43 255.777 292.082 253.795 292.563L252.299 292.876C251.8 292.959 251.298 293.012 250.8 293.079C249.799 293.237 248.802 293.259 247.801 293.326C247.552 293.339 247.303 293.361 247.054 293.364H246.309L244.819 293.358C244.32 293.367 243.828 293.329 243.336 293.301L241.855 293.215L241.114 293.171L240.378 293.092L238.911 292.933C238.419 292.873 237.939 292.845 237.437 292.756L235.935 292.5C231.946 291.715 228.149 290.046 224.835 287.758C223.172 286.621 221.6 285.358 220.161 283.972C218.709 282.595 217.346 281.132 216.096 279.584C213.565 276.511 211.463 273.143 209.484 269.721C208.506 268.002 207.66 266.207 206.975 264.352C206.628 263.425 206.341 262.475 206.113 261.506C205.886 260.535 205.712 259.556 205.681 258.521C205.671 258.259 205.877 258.04 206.139 258.034C206.303 258.027 206.451 258.11 206.539 258.233L206.552 258.249C207.114 259.059 207.609 259.898 208.083 260.734C208.569 261.566 209.007 262.415 209.449 263.26L212.025 268.344C213.723 271.744 215.828 274.925 218.207 277.847C219.391 279.315 220.675 280.689 222.032 281.978C223.38 283.275 224.841 284.444 226.372 285.491C227.893 286.558 229.525 287.435 231.213 288.172C232.892 288.935 234.669 289.429 236.462 289.809L237.819 290.04C238.27 290.119 238.756 290.151 239.223 290.208L240.637 290.36L241.344 290.436L242.051 290.477L243.465 290.559C243.935 290.588 244.409 290.623 244.876 290.613H246.283L246.987 290.619C247.221 290.619 247.454 290.594 247.688 290.585C248.616 290.521 249.556 290.505 250.468 290.357C250.926 290.293 251.387 290.246 251.841 290.173L253.186 289.891C254.95 289.464 256.683 288.891 258.172 287.97C259.662 287.058 260.934 285.862 261.814 284.396C262.692 282.93 263.194 281.234 263.389 279.467C263.594 277.701 263.465 275.865 263.162 274.058C263.004 273.152 262.808 272.25 262.553 271.364C262.427 270.921 262.291 270.477 262.146 270.044C262.001 269.616 261.833 269.157 261.679 268.79L262.752 269.597C256.099 268.679 249.49 267.695 242.869 266.293C241.209 265.913 239.567 265.546 237.86 264.95C236.083 264.305 234.521 263.251 233.183 262.063C231.841 260.873 230.693 259.553 229.616 258.214C228.543 256.875 227.546 255.508 226.561 254.15C224.598 251.431 222.657 248.756 220.543 246.242C219.476 244.998 218.39 243.77 217.223 242.634C216.654 242.048 216.042 241.51 215.452 240.95C214.83 240.427 214.234 239.873 213.587 239.38C211.049 237.354 208.348 235.559 205.52 233.96C202.68 232.377 199.738 230.982 196.762 229.383C196.535 229.259 196.453 228.978 196.573 228.753C196.664 228.582 196.847 228.49 197.03 228.509L197.018 228.503Z" fill="#613331"/>
<path d="M248.698 271.785C249.459 272.574 250.705 272.605 251.513 271.865C253.419 270.114 257.194 267.395 262.294 267.309C266.347 267.24 259.359 260.564 252.955 261.096C248.701 261.45 245.671 263.324 243.857 264.859C242.799 265.755 242.944 267.427 244.131 268.145C244.876 268.598 245.775 269.199 246.785 269.991C247.341 270.424 248.067 271.137 248.698 271.789V271.785Z" fill="white"/>
<g opacity="0.35">
<path d="M244.131 268.139C244.876 268.591 245.772 269.193 246.789 269.984C247.344 270.418 248.07 271.13 248.701 271.785C249.462 272.574 250.708 272.605 251.513 271.864C253.423 270.111 257.194 267.392 262.294 267.306C264.481 267.268 263.456 265.306 261.041 263.59C256.194 263.84 252.605 266.439 250.759 268.129C249.954 268.873 248.707 268.841 247.947 268.05C247.316 267.398 246.593 266.686 246.034 266.252C245.271 265.657 244.573 265.166 243.958 264.771C243.923 264.796 243.888 264.824 243.857 264.853C242.802 265.749 242.948 267.417 244.134 268.135L244.131 268.139Z" fill="#613331"/>
</g>
<path d="M250.143 273.849C249.307 273.849 248.468 273.52 247.846 272.871C247.044 272.036 246.388 271.412 245.946 271.067C245.015 270.339 244.09 269.703 243.197 269.177C242.32 268.661 241.736 267.746 241.638 266.73C241.54 265.711 241.922 264.739 242.686 264.062C244.668 262.305 248.038 260.127 252.842 259.728C255.616 259.497 258.15 260.431 259.791 261.254C261.773 262.251 263.449 263.593 264.276 264.85C265.078 266.069 264.914 266.961 264.633 267.496C264.358 268.022 263.73 268.655 262.319 268.677C257.525 268.759 253.984 271.421 252.302 273.001C251.696 273.568 250.92 273.849 250.147 273.849H250.143ZM253.675 262.435C253.47 262.435 253.265 262.444 253.066 262.46C249.01 262.799 246.167 264.635 244.494 266.116C244.362 266.233 244.346 266.372 244.355 266.471C244.365 266.556 244.403 266.714 244.579 266.819C245.577 267.408 246.602 268.11 247.625 268.908C248.174 269.339 248.913 270.032 249.815 270.975C249.986 271.152 250.263 271.162 250.434 271C252.337 269.215 256.279 266.249 261.685 265.958C261.237 265.451 260.432 264.742 259.167 264.024C257.358 262.998 255.392 262.431 253.675 262.431V262.435Z" fill="#613331"/>
<path d="M257.033 283.555C257.033 283.555 263.187 285.302 265.431 277.993C268.515 267.958 260.966 262.963 259.321 263.505C257.677 264.046 259.959 269.737 254.568 274.54C252.577 276.312 253.795 280.946 257.033 283.552V283.555Z" fill="white"/>
<g opacity="0.35">
<path d="M257.033 283.551C257.033 283.551 263.187 285.302 265.435 277.989C266.394 274.871 266.321 272.238 265.722 270.107C265.64 270.452 265.545 270.804 265.435 271.162C263.187 278.471 257.033 276.723 257.033 276.723C256.156 276.017 255.43 275.166 254.871 274.261C254.773 274.352 254.672 274.444 254.571 274.539C252.577 276.312 253.795 280.946 257.033 283.551Z" fill="#613331"/>
</g>
<path d="M258.621 285.108C257.541 285.108 256.787 284.906 256.664 284.871L256.396 284.795L256.178 284.621C253.849 282.747 252.305 279.844 252.239 277.223C252.201 275.681 252.706 274.365 253.662 273.513C256.699 270.81 256.97 267.859 257.172 265.704C257.311 264.216 257.453 262.678 258.898 262.2C260.448 261.69 262.559 263.048 263.897 264.365C265.548 265.992 269.13 270.613 266.741 278.391C265.397 282.769 262.736 284.311 260.738 284.833C259.965 285.035 259.239 285.102 258.621 285.102V285.108ZM257.652 282.285C258.097 282.361 259.075 282.465 260.145 282.161C262.02 281.629 263.361 280.091 264.128 277.59C265.643 272.655 264.327 269.357 262.954 267.461C261.846 265.929 260.637 265.197 260 264.944C259.956 265.245 259.918 265.64 259.889 265.96C259.675 268.274 259.318 272.142 255.474 275.564C255.01 275.979 254.96 276.739 254.969 277.157C255.01 278.86 256.102 280.927 257.649 282.285H257.652Z" fill="#613331"/>
<path d="M251.305 288.515C252.536 289.759 254.312 290.345 258.703 289.544C267.681 287.907 274.388 281.652 272.223 279.338C270.762 277.778 267.745 279.073 263.942 279.224C257.219 279.494 255.442 278.243 253.874 278.243C250.396 278.243 247.628 284.793 251.305 288.515Z" fill="white"/>
<g opacity="0.35">
<path d="M251.308 288.512C252.536 289.759 254.312 290.345 258.706 289.544C267.467 287.948 274.057 281.959 272.365 279.519C269.988 281.921 265.513 284.463 260.258 285.422C255.868 286.223 254.088 285.637 252.861 284.39C251.538 283.051 251.049 281.345 251.131 279.712C249.326 281.861 248.717 285.888 251.308 288.512Z" fill="#613331"/>
</g>
<path d="M255.294 291.278C253.075 291.278 251.542 290.699 250.336 289.48C249.187 288.315 248.471 286.83 248.262 285.184C248.079 283.741 248.288 282.247 248.865 280.864C249.888 278.404 251.81 276.875 253.877 276.875C254.521 276.875 255.133 277.021 255.843 277.188C257.273 277.527 259.432 278.04 263.891 277.859C265.049 277.812 266.126 277.654 267.167 277.502C269.522 277.157 271.747 276.828 273.224 278.407C274 279.236 274.205 280.373 273.801 281.604C273.224 283.358 271.358 285.359 268.679 287.09C265.851 288.92 262.398 290.271 258.955 290.898C257.557 291.155 256.351 291.284 255.3 291.284L255.294 291.278ZM252.277 287.552C252.997 288.28 254.123 288.989 258.46 288.198C261.559 287.631 264.658 286.419 267.192 284.782C268.761 283.766 270.756 282.101 271.201 280.743C271.235 280.636 271.311 280.37 271.226 280.281C270.727 279.746 269.256 279.961 267.559 280.211C266.498 280.367 265.299 280.544 263.995 280.598C259.163 280.791 256.784 280.23 255.212 279.857C254.625 279.718 254.199 279.616 253.874 279.616C252.959 279.616 251.955 280.541 251.384 281.921C250.715 283.532 250.598 285.855 252.274 287.555L252.277 287.552Z" fill="#613331"/>
<g opacity="0.35">
<path d="M215.654 238.393C214.739 238.858 213.801 239.311 212.845 239.741C209.597 241.21 206.12 242.473 202.452 243.53C192.874 246.297 181.985 247.674 170.437 247.705C158.182 247.74 146.663 246.249 136.655 243.185C133.051 242.087 129.639 240.779 126.461 239.26C125.58 238.842 124.716 238.405 123.873 237.956C125.347 236.759 126.947 235.607 128.686 234.518C128.904 234.075 129.024 233.844 129.024 233.844H129.8C133.045 231.941 139.581 233.844 139.581 233.844H199.419L197.882 228.94C202.228 230.264 205.955 231.941 209.2 233.844H210.068C210.068 233.844 210.203 234.103 210.45 234.603C212.346 235.8 214.076 237.073 215.657 238.389L215.654 238.393Z" fill="#613331"/>
</g>
<path d="M239.933 193.81C240.019 225.388 208.887 240.412 170.437 240.513C131.987 240.615 100.774 225.759 100.692 194.18C100.613 163.915 120.111 129.297 164.261 126.362C169.591 123.615 176.816 118.863 180.868 111.849C182.137 109.655 185.369 109.962 186.176 112.374C187.25 115.578 188.234 119.785 186.107 125.223C192.009 122.33 197.87 119.041 199.798 117.293C201.862 115.426 205.154 116.939 205.065 119.724C204.977 122.418 204.024 128.135 202.913 132.928C228.262 144.858 239.87 170.587 239.93 193.813L239.933 193.81Z" fill="#D6AF81"/>
<g opacity="0.35">
<path d="M239.934 193.81C240.016 225.389 208.888 240.412 170.434 240.514C131.984 240.615 100.774 225.759 100.689 194.183C100.686 192.908 100.717 191.622 100.784 190.331C102.674 219.966 133.149 233.932 170.431 233.834C207.578 233.736 237.885 219.713 239.833 190.293C239.899 191.471 239.927 192.642 239.93 193.81H239.934Z" fill="#613331"/>
</g>
<g opacity="0.51">
<path d="M237.421 208.386C238.09 205.405 238.431 202.239 238.425 198.89C238.368 177.048 226.432 151.715 203.926 138.853C201.367 137.391 200.032 134.447 200.666 131.563C201.379 128.309 201.966 125.248 202.026 123.466C202.115 120.68 200.357 120.506 198.293 122.374C196.784 123.738 192.874 126.046 188.418 128.372C187.051 129.084 185.426 127.951 185.662 126.425C186.224 122.81 185.47 119.851 184.668 117.454C183.86 115.046 182.484 114.444 180.575 117.774C177.886 122.459 173.231 125.754 168.844 128.242C165.337 130.234 161.455 131.443 157.46 131.962C127.727 135.817 110.163 154.712 102.983 175.988C109.292 151.458 128.844 128.72 164.261 126.365C169.592 123.618 176.816 118.866 180.868 111.852C182.137 109.658 185.369 109.965 186.177 112.377C187.25 115.581 188.234 119.787 186.107 125.226C192.009 122.332 197.87 119.044 199.798 117.296C201.862 115.429 205.154 116.942 205.066 119.727C204.977 122.421 204.024 128.138 202.913 132.931C228.263 144.861 239.87 170.59 239.93 193.816C239.943 199.143 239.072 203.999 237.421 208.393V208.386Z" fill="white"/>
</g>
<path d="M226.17 189.577C226.195 198.779 223.44 208.69 215.13 216.366C206.637 224.217 192.34 229.738 169.266 229.801H169.263C146.432 229.861 132.164 224.53 123.598 216.86C115.036 209.193 112.167 199.184 112.145 189.881C112.139 187.991 112.29 186.133 112.587 184.329C115.184 168.359 128.98 156.153 145.64 156.108C154.752 156.083 163.033 159.704 169.096 165.598C175.13 159.669 183.39 156.007 192.501 155.982C208.957 155.937 222.676 167.767 225.596 183.426C225.971 185.421 226.167 187.478 226.173 189.577H226.17Z" fill="#FFD8B5"/>
<path d="M177.665 191.777C177.671 194.645 173.874 198.099 169.178 198.111C164.482 198.124 160.666 194.69 160.657 191.822C160.647 188.954 164.453 187.741 169.15 187.729C173.846 187.716 177.655 188.909 177.665 191.777Z" fill="#613331"/>
<g opacity="0.5">
<path d="M172.861 190.207C172.861 190.878 171.315 191.689 169.402 191.692C167.49 191.695 165.937 190.894 165.937 190.226C165.937 189.555 167.483 189.27 169.396 189.264C171.309 189.257 172.858 189.536 172.861 190.207Z" fill="#FEFAFB"/>
</g>
<path d="M129.175 234.664C128.999 234.664 128.819 234.629 128.645 234.556C119.518 230.691 112.373 225.43 107.408 218.922C102.071 211.926 99.3538 203.604 99.3286 194.187C99.3097 186.523 100.49 178.913 102.838 171.566C105.325 163.791 109.008 156.698 113.79 150.477C118.969 143.741 125.312 138.208 132.65 134.03C140.638 129.481 149.762 126.575 159.767 125.397C160.515 125.309 161.193 125.847 161.282 126.597C161.37 127.347 160.834 128.028 160.086 128.116C150.447 129.253 141.67 132.042 134.001 136.41C126.982 140.405 120.913 145.701 115.955 152.146C111.366 158.113 107.828 164.928 105.442 172.398C103.182 179.47 102.043 186.795 102.065 194.174C102.122 215.804 117.132 226.696 129.715 232.027C130.409 232.321 130.734 233.125 130.441 233.822C130.22 234.344 129.715 234.657 129.182 234.657L129.175 234.664Z" fill="#613331"/>
<path d="M138.088 236.613C137.296 236.642 136.52 236.591 135.749 236.518C134.979 236.436 134.216 236.325 133.458 236.173C132.704 236.024 131.946 235.86 131.221 235.616C130.495 235.372 129.781 235.081 129.125 234.663C128.519 234.28 128.336 233.473 128.718 232.865C129.018 232.387 129.576 232.172 130.094 232.286H130.103C130.835 232.45 131.524 232.713 132.202 233.004C132.884 233.292 133.543 233.641 134.209 233.986C134.875 234.328 135.538 234.688 136.204 235.059C136.867 235.439 137.533 235.822 138.186 236.262C138.274 236.322 138.296 236.442 138.24 236.531C138.205 236.585 138.145 236.613 138.085 236.616L138.088 236.613Z" fill="#613331"/>
<path d="M157.441 190.232C156.039 200.207 148.042 202.574 137.599 206.816C131.047 209.475 126.54 213.403 123.598 216.857C115.036 209.19 112.167 199.181 112.145 189.878C112.139 187.988 112.29 186.13 112.587 184.325C118.729 177.89 128.443 171.698 142.456 173.354C152.713 174.566 158.451 183.075 157.444 190.232H157.441Z" fill="#8A4946"/>
<path d="M226.17 189.577C226.195 198.779 223.44 208.69 215.13 216.367C212.163 212.992 207.695 209.21 201.285 206.649C190.819 202.461 182.809 200.137 181.354 190.172C180.31 183.018 186.003 174.481 196.254 173.215C209.822 171.537 219.394 177.248 225.592 183.43C225.968 185.424 226.164 187.482 226.17 189.58V189.577Z" fill="#8A4946"/>
<path d="M184.646 128.676C184.314 128.676 183.98 128.556 183.718 128.309C183.166 127.793 183.134 126.929 183.649 126.375C187.158 122.586 186.255 116.907 184.883 112.811C184.681 112.21 184.191 111.814 183.57 111.751C182.942 111.687 182.374 111.982 182.052 112.539C180.385 115.422 178.198 118.034 175.547 120.307C173.439 122.114 171.034 123.71 168.402 125.049C163.923 127.328 160.344 128.075 160.193 128.107C159.454 128.259 158.732 127.781 158.583 127.037C158.432 126.296 158.908 125.571 159.65 125.422C159.682 125.416 163.077 124.701 167.243 122.57C171.037 120.63 176.279 117.075 179.691 111.168C180.552 109.677 182.146 108.857 183.847 109.028C185.539 109.199 186.931 110.313 187.474 111.94C189.784 118.829 189.156 124.466 185.653 128.246C185.384 128.537 185.018 128.683 184.652 128.683L184.646 128.676Z" fill="#613331"/>
<path d="M210.046 235.113C209.503 235.113 208.992 234.787 208.777 234.252C208.496 233.549 208.837 232.752 209.538 232.473C218.681 228.804 225.81 223.774 230.724 217.516C235.951 210.862 238.589 202.889 238.567 193.816C238.551 188.001 237.806 182.164 236.351 176.466C234.836 170.537 232.586 164.899 229.664 159.714C226.571 154.225 222.755 149.303 218.321 145.087C213.581 140.576 208.13 136.869 202.115 134.064C201.783 133.909 201.528 133.631 201.405 133.286C201.281 132.941 201.3 132.564 201.455 132.232L201.572 131.985C202.787 129.341 203.522 125.09 203.693 119.684C203.715 118.949 203.333 118.322 202.67 118.015C201.995 117.702 201.259 117.813 200.707 118.316C196.936 121.728 191.362 125.961 186.246 126.752C185.501 126.866 184.804 126.353 184.69 125.606C184.576 124.859 185.088 124.16 185.833 124.046C188.288 123.666 192.546 122.013 198.88 116.284C200.253 115.043 202.146 114.755 203.822 115.534C205.488 116.309 206.486 117.933 206.426 119.775C206.259 125.024 205.599 129.183 204.463 132.159C210.273 135.014 215.559 138.689 220.199 143.102C224.829 147.508 228.812 152.646 232.037 158.369C235.08 163.766 237.418 169.626 238.993 175.789C240.505 181.705 241.278 187.77 241.294 193.81C241.319 203.512 238.485 212.059 232.867 219.21C227.65 225.851 220.142 231.166 210.548 235.015C210.38 235.082 210.21 235.113 210.039 235.113H210.046Z" fill="#613331"/>
<path d="M200.196 236.772C200.922 236.329 201.657 235.946 202.389 235.563C203.122 235.189 203.854 234.825 204.589 234.477C205.321 234.129 206.047 233.774 206.795 233.48C207.54 233.182 208.291 232.913 209.086 232.742H209.093C209.793 232.59 210.481 233.04 210.633 233.743C210.753 234.306 210.488 234.86 210.021 235.136C209.295 235.563 208.518 235.86 207.726 236.114C206.934 236.367 206.117 236.532 205.296 236.687C204.475 236.839 203.649 236.953 202.815 237.035C201.979 237.108 201.143 237.158 200.291 237.127C200.186 237.123 200.101 237.035 200.108 236.927C200.108 236.861 200.145 236.804 200.199 236.769L200.196 236.772Z" fill="#613331"/>
<path d="M129.595 190.097C129.778 189.872 129.911 189.723 130.068 189.546C130.223 189.378 130.381 189.223 130.542 189.065C130.861 188.751 131.205 188.47 131.549 188.191C132.246 187.64 132.994 187.159 133.78 186.735C135.358 185.896 137.103 185.32 138.918 185.054C139.827 184.928 140.748 184.89 141.67 184.924C142.592 184.978 143.504 185.111 144.394 185.336C146.164 185.798 147.827 186.599 149.191 187.732C149.825 188.261 149.914 189.204 149.387 189.84C149.027 190.277 148.471 190.455 147.954 190.356L147.884 190.344C146.388 190.049 145.003 189.799 143.63 189.692C142.942 189.65 142.266 189.625 141.588 189.644C140.913 189.666 140.237 189.717 139.562 189.799C138.214 189.983 136.863 190.296 135.513 190.736C134.834 190.951 134.162 191.202 133.483 191.467C133.139 191.594 132.811 191.746 132.47 191.885L131.968 192.104C131.807 192.167 131.624 192.262 131.501 192.297L131.097 192.411C130.327 192.626 129.532 192.177 129.314 191.407C129.182 190.936 129.305 190.448 129.589 190.097H129.595Z" fill="#613331"/>
<path d="M208.291 192.094C208.168 192.059 207.985 191.964 207.824 191.904L207.322 191.689C206.981 191.552 206.65 191.4 206.306 191.277C205.627 191.014 204.952 190.767 204.273 190.555C202.919 190.122 201.569 189.818 200.221 189.64C199.546 189.561 198.87 189.514 198.195 189.495C197.519 189.482 196.841 189.511 196.153 189.555C194.78 189.669 193.394 189.925 191.902 190.229L191.832 190.242C191.024 190.406 190.238 189.881 190.074 189.071C189.964 188.514 190.175 187.969 190.579 187.627C191.936 186.488 193.593 185.677 195.364 185.206C196.251 184.978 197.163 184.838 198.084 184.778C199.003 184.737 199.927 184.772 200.836 184.892C202.654 185.145 204.403 185.715 205.984 186.545C206.773 186.966 207.524 187.444 208.225 187.988C208.572 188.267 208.916 188.545 209.235 188.859C209.396 189.014 209.553 189.169 209.711 189.337C209.869 189.511 210.002 189.659 210.188 189.884C210.696 190.501 210.611 191.413 209.998 191.926C209.623 192.236 209.137 192.328 208.701 192.211L208.291 192.097V192.094Z" fill="#613331"/>
<path d="M178.892 205.256C178.523 205.601 178.208 205.851 177.851 206.117C177.501 206.373 177.135 206.604 176.768 206.835C176.024 207.282 175.238 207.655 174.417 207.966C172.779 208.592 170.993 208.947 169.147 208.925C167.269 208.89 165.482 208.444 163.873 207.738C163.068 207.38 162.301 206.968 161.582 206.487C161.225 206.24 160.871 205.997 160.534 205.718C160.19 205.439 159.887 205.17 159.536 204.813C159.003 204.271 159.006 203.395 159.549 202.86C159.921 202.489 160.452 202.378 160.919 202.521L161.127 202.584C161.427 202.676 161.793 202.825 162.134 202.939C162.481 203.059 162.822 203.186 163.169 203.293C163.86 203.518 164.545 203.721 165.227 203.895C166.587 204.246 167.925 204.455 169.203 204.471C169.857 204.471 170.526 204.446 171.201 204.36C171.877 204.297 172.561 204.173 173.253 204.037C173.944 203.901 174.641 203.73 175.342 203.54C175.695 203.452 176.043 203.347 176.396 203.246C176.74 203.148 177.116 203.024 177.419 202.951L177.636 202.898C178.375 202.717 179.12 203.173 179.3 203.914C179.42 204.417 179.249 204.92 178.899 205.25L178.892 205.256Z" fill="#613331"/>
<path d="M166.439 206.167L166.253 205.256C167.976 204.512 168.607 199.827 168.708 198.086L169.655 198.108C169.705 204.569 171.561 205.227 171.58 205.234L171.46 206.167H166.442H166.439Z" fill="#613331"/>
<path d="M169.178 198.111C169.235 205.212 171.457 205.693 171.457 205.693H166.439C168.812 204.67 169.178 198.111 169.178 198.111ZM168.231 198.058C168.096 200.467 167.31 204.281 166.063 204.819L166.436 206.642H171.454L171.653 204.765C171.713 204.778 171.741 204.791 171.741 204.791C171.725 204.784 170.169 204.012 170.122 198.105L168.241 198.061H168.228L168.231 198.058Z" fill="#613331"/>
</g>
<defs>
<clipPath id="clip0_799_25213">
<rect width="210" height="225" fill="white" transform="translate(64 109)"/>
</clipPath>
</defs>
</svg>
