<svg width="374" height="375" viewBox="0 0 374 375" fill="none" xmlns="http://www.w3.org/2000/svg">
<g clip-path="url(#clip0_799_25211)">
<path d="M296.678 198.745C296.678 198.745 275.989 249.8 216.038 256.772C216.038 256.772 209.949 269.739 197.064 261.904C197.064 261.904 115.875 272.651 80.8445 212.952C80.8445 212.952 66.239 210.134 65.6262 203.775C65.341 200.824 66.5758 199.097 68.6541 197.933C71.7335 196.206 76.6637 195.715 81.242 194.304C81.242 194.304 82.7832 184.745 98.2383 178.312C98.6782 178.128 99.1151 177.952 99.5459 177.773C114.424 171.78 126.982 169.89 143.302 160.155C143.302 160.155 181.36 151.902 207.537 159.264C233.714 166.627 246.211 179.655 269.994 181.766C282.26 182.854 291.745 183.739 298.222 185.142C303.316 186.238 306.556 187.659 307.822 189.747C308.067 190.153 308.24 190.583 308.337 191.044C309.569 196.864 296.678 198.742 296.678 198.742V198.745Z" fill="white"/>
<g opacity="0.2">
<path d="M298.022 187.974C290.188 195.6 280.483 201.293 269.424 204.262C269.77 207.879 270.097 211.606 269.048 215.084C267.995 218.562 265.201 221.777 261.584 222.186C259.114 222.465 256.711 221.438 254.303 220.856C246.657 219.002 238.696 221.556 230.832 221.692C224.212 221.813 217.698 220.22 211.15 219.208C204.603 218.196 197.71 217.802 191.539 220.207C185.316 222.637 180.523 227.621 175.077 231.484C169.631 235.347 162.48 238.159 154.233 234.463C140.037 221.925 120.887 215.139 102.122 215.563C97.0521 213.933 92.8045 209.934 90.8749 204.977C88.9484 200.017 89.3792 194.203 92.0187 189.582C94.0302 186.062 97.1795 183.305 99.7523 180.187C114.631 174.194 127.188 172.304 143.508 162.569C143.508 162.569 181.566 154.316 207.743 161.678C233.92 169.041 246.417 182.069 270.201 184.18C282.467 185.268 291.951 186.153 298.429 187.556C298.292 187.695 298.152 187.834 298.016 187.968L298.022 187.974Z" fill="#613331"/>
</g>
<path d="M204.931 266C202.303 266 199.555 265.176 196.712 263.53C193.256 263.912 174.178 265.694 151.785 261.361C137.279 258.555 124.221 253.771 112.974 247.142C99.0787 238.956 87.9349 227.927 79.8343 214.354C76.1207 213.548 64.6857 210.534 64.0516 203.926C63.372 196.869 69.625 195.451 75.6717 194.082C77.0764 193.764 78.5206 193.437 79.9283 193.037C80.7839 190.255 84.3063 182.393 97.6254 176.852C103.172 174.543 108.423 172.825 113.502 171.162C122.917 168.08 131.806 165.169 142.486 158.794C142.634 158.706 142.795 158.643 142.962 158.606C144.531 158.267 181.709 150.359 207.962 157.74C219.309 160.93 227.943 165.093 236.293 169.116C247.309 174.425 256.824 179.009 270.131 180.19C282.764 181.311 291.526 182.148 297.937 183.466C303.319 184.571 308.947 186.298 309.882 190.716C310.185 192.149 309.891 193.561 309.026 194.8C306.626 198.236 300.234 199.708 297.785 200.157C296.411 203.235 291.029 214.336 279.994 226.213C272.527 234.251 264.014 240.956 254.694 246.139C243.274 252.49 230.607 256.559 217.036 258.24C216.029 259.979 213.235 264.042 208.444 265.485C207.3 265.83 206.129 266 204.931 266ZM197.061 260.322C197.349 260.322 197.634 260.401 197.883 260.552C201.396 262.688 204.643 263.33 207.534 262.461C212.233 261.046 214.579 256.15 214.603 256.101C214.837 255.608 215.307 255.265 215.853 255.202C246.287 251.663 266.226 236.368 277.591 224.158C289.952 210.885 295.158 198.272 295.209 198.148C295.422 197.63 295.892 197.26 296.447 197.178C299.49 196.733 304.894 195.2 306.432 192.994C306.796 192.47 306.908 191.955 306.787 191.373C305.762 186.532 289.915 185.126 269.852 183.341C255.971 182.108 245.744 177.182 234.921 171.964C226.693 168.002 218.186 163.902 207.106 160.785C182.692 153.919 147.197 160.96 143.884 161.645C133.001 168.105 123.593 171.186 114.491 174.167C109.47 175.812 104.276 177.512 98.8451 179.772C84.5157 185.732 82.8136 194.476 82.7984 194.564C82.6953 195.145 82.2736 195.633 81.7062 195.809C79.9192 196.36 78.117 196.769 76.3725 197.166C69.5613 198.708 66.8246 199.723 67.2008 203.626C67.5588 207.358 75.9447 210.376 81.1449 211.403C81.6061 211.494 81.9823 211.779 82.2068 212.154C99.9859 242.452 130.134 253.941 152.297 258.243C176.451 262.934 196.654 260.361 196.854 260.334C196.924 260.325 196.994 260.322 197.061 260.322Z" fill="#613331"/>
<path d="M287.743 192.04C287.743 192.04 287.667 192.167 287.449 192.395C286.283 193.582 281.089 197.418 261.936 198.554C261.936 198.554 262.009 198.621 262.133 198.757H262.136C263.189 199.854 267.879 205.477 265.671 216.648C265.392 218.051 263.771 218.723 262.573 217.945C259.855 216.172 255.1 213.515 249.809 212.579C249.736 212.561 249.66 212.552 249.582 212.537C249.582 212.537 249.23 213.9 236.162 213.9C223.095 213.9 193.796 225.122 150.547 216.551C131.345 212.743 125.435 203.214 125.641 192.846C125.896 179.86 135.741 165.563 141.066 159.54C142.753 157.631 144.676 155.631 146.827 153.626C159.233 142.055 179.236 130.348 205.832 135.601C237.039 141.77 238.787 164.069 245.677 169.208C252.503 174.304 273.608 168.874 284.278 176.485C284.369 176.543 284.46 176.61 284.545 176.676C284.545 176.676 297.279 177.291 298.911 180.557C298.953 180.63 298.984 180.706 299.008 180.785C299.066 180.96 299.108 181.142 299.129 181.324C299.721 186.153 287.737 192.04 287.737 192.04H287.743Z" fill="#ECC18E"/>
<g opacity="0.59">
<path d="M298.917 180.56C294.751 178.942 290.112 178.533 285.671 179.585C279.044 175.749 270.243 175.222 262.585 175.134C254.927 175.046 246.666 175.561 241.56 170.026C237.873 166.033 235.965 160.697 232.904 156.21C228.92 150.369 223.863 146.163 218.086 143.273C218.089 143.409 218.071 143.539 218.031 143.667C217.591 145.039 214.718 145.348 211.611 144.358C208.505 143.367 206.341 141.455 206.778 140.083C206.854 139.846 207.006 139.637 207.212 139.467C202.513 138.419 197.537 137.953 192.422 137.953C172.925 137.953 157.749 147.015 145.016 157.27C145.574 156.025 146.178 154.81 146.836 153.626C159.242 142.055 179.245 130.348 205.841 135.601C237.048 141.77 238.796 164.069 245.686 169.208C252.512 174.304 273.617 168.874 284.287 176.485C284.378 176.543 284.469 176.61 284.554 176.676C284.554 176.676 297.288 177.291 298.92 180.557L298.917 180.56Z" fill="white"/>
</g>
<path d="M183.174 221.362C173.314 221.362 162.328 220.496 150.243 218.099C136.606 215.397 128.19 209.585 125.228 200.826C122.956 194.103 123.966 185.938 128.229 176.552C131.591 169.153 136.454 162.372 139.882 158.494C150.441 146.563 173.089 127.527 206.141 134.053C229.454 138.661 236.884 152.083 241.802 160.964C243.517 164.057 244.994 166.729 246.623 167.944C249.296 169.941 255.161 170.098 261.372 170.265C269.56 170.486 278.835 170.735 285.094 175.128C286.15 175.194 288.82 175.397 291.617 175.876C296.996 176.794 299.821 178.2 300.513 180.291C302.397 185.977 291.708 191.813 288.762 193.297C288.708 193.358 288.647 193.425 288.58 193.494C287.075 195.027 281.833 198.587 264.973 199.93C266.748 202.853 268.908 208.443 267.224 216.957C266.99 218.129 266.196 219.105 265.091 219.569C263.984 220.035 262.722 219.923 261.714 219.269C259.433 217.781 254.924 215.185 249.949 214.212C249.415 214.473 248.759 214.636 248.089 214.769C245.704 215.242 241.693 215.481 236.171 215.481C232.731 215.481 228.05 216.302 222.118 217.342C212.221 219.078 199.187 221.362 183.18 221.362H183.174ZM192.907 135.892C168.198 135.892 150.95 150.759 142.252 160.588C135.423 168.311 123.702 186.447 128.223 199.817C130.796 207.425 138.411 212.533 150.856 215.003C181.982 221.171 205.801 216.993 221.563 214.23C227.646 213.164 232.449 212.321 236.165 212.321C245.625 212.321 248.004 211.603 248.486 211.403C248.841 211.061 249.351 210.888 249.87 210.985L249.921 210.994C249.988 211.006 250.058 211.019 250.125 211.031C255.516 211.991 260.343 214.6 263.444 216.624C263.617 216.736 263.781 216.693 263.865 216.657C263.963 216.615 264.09 216.527 264.126 216.342C266.153 206.089 262.042 200.963 261.053 199.905C261.026 199.881 261.001 199.854 260.977 199.827C260.923 199.766 260.883 199.73 260.868 199.714C260.41 199.281 260.246 198.612 260.458 198.021C260.674 197.427 261.214 197.015 261.845 196.979C280.941 195.845 285.583 192.04 286.32 191.289C286.359 191.249 286.387 191.219 286.402 191.198C286.55 190.898 286.736 190.777 287.045 190.622C291.933 188.216 298.292 183.632 297.512 181.281C297.506 181.266 296.93 179.988 291.086 178.991C287.746 178.421 284.506 178.258 284.475 178.258C284.157 178.242 283.85 178.13 283.595 177.936C283.538 177.894 283.48 177.849 283.419 177.812C283.401 177.8 283.383 177.788 283.365 177.776C277.892 173.874 269.072 173.637 261.29 173.428C254.272 173.24 248.21 173.077 244.733 170.48C242.558 168.859 241.005 166.051 239.035 162.497C234.124 153.626 227.397 141.479 205.528 137.156C201.129 136.286 196.918 135.895 192.907 135.895V135.892Z" fill="#613331"/>
<g opacity="0.35">
<path d="M287.955 194.458C287.955 194.458 287.879 194.585 287.661 194.812C286.496 196 281.302 199.835 262.148 200.972C262.148 200.972 262.221 201.038 262.346 201.175H262.349C263.098 201.956 265.689 205.028 266.326 210.761C265.989 208.391 265.273 206.104 264.075 203.995C260.826 198.26 254.588 194.797 248.25 192.955C241.954 191.131 235.352 190.634 228.799 190.573C222.479 190.516 215.95 190.91 210.289 193.715C209.227 194.242 208.201 194.876 207.237 195.594C202.655 199.017 206.105 206.307 211.669 204.956C222.989 202.205 234.882 201.787 246.357 203.801C249.573 204.368 252.785 205.128 255.716 206.568C258.647 208.007 261.293 210.173 262.852 213.036C264.108 215.345 264.585 217.926 264.624 220.547C264.048 220.768 263.368 220.735 262.785 220.356C260.067 218.584 255.313 215.927 250.022 214.99C249.949 214.972 249.873 214.963 249.794 214.948C249.794 214.948 249.442 216.311 236.375 216.311C223.307 216.311 194.008 227.534 150.759 218.962C131.557 215.154 125.647 205.625 125.853 195.257C129.743 186.904 136.709 179.56 143.572 173.119C151.794 165.402 160.732 157.755 171.648 154.901C185.459 151.286 201.187 156.619 209.94 167.877C212.406 171.049 214.621 174.84 218.405 176.203C221.991 177.491 225.962 176.197 229.764 176.473C236.39 176.964 241.596 182.035 247.388 185.277C255.546 189.846 265.325 190.852 274.618 189.819C283.074 188.883 291.25 186.371 299.345 183.732C299.936 188.562 287.952 194.448 287.952 194.448L287.955 194.458Z" fill="#613331"/>
</g>
<path d="M180.911 223.677C166.782 229.588 132.628 232.284 108.599 217.76C94.3153 209.125 91.2055 198.142 99.5095 184.059C100.122 183.017 100.796 181.957 101.539 180.881C101.618 180.763 101.7 180.645 101.779 180.524C103.891 177.355 105.966 173.007 107.037 169.435C110.857 156.725 121.557 146.102 134.773 142.879C133.581 140.055 133.966 136.625 135.753 134.138C137.786 137.11 140.923 139.31 144.716 140.494C144.106 136.725 145.31 132.702 147.892 129.878C151.597 136.292 159.476 138.749 166.59 140.837C179.816 144.718 188.854 153.689 194.06 164.417C195.859 168.114 197.203 172.019 198.107 175.994C202.604 195.754 196.244 217.263 180.908 223.68L180.911 223.677Z" fill="#ECC18E"/>
<g opacity="0.61">
<path d="M101.782 180.524C101.782 180.524 101.803 180.497 101.809 180.479C101.03 181.969 100.286 183.193 99.5126 184.06C100.125 183.017 100.799 181.957 101.542 180.881C101.621 180.763 101.703 180.645 101.782 180.524Z" fill="white"/>
</g>
<g opacity="0.61">
<path d="M101.809 180.478C103.166 177.897 104.637 174.519 106.579 170.847C105.441 174.089 103.642 177.724 101.809 180.478Z" fill="white"/>
</g>
<g opacity="0.61">
<path d="M198.11 175.991C193.11 164.311 184.233 153.395 173.086 147.26C173.056 147.242 173.019 147.227 172.989 147.208C172.992 147.354 172.971 147.493 172.925 147.629C172.482 148.89 169.885 149.135 167.115 148.169C164.348 147.205 162.464 145.403 162.904 144.142C162.992 143.888 163.168 143.676 163.411 143.512C158.438 141.973 153.399 140.403 148.347 136.019C148.414 138.722 148.35 140.546 148.978 142.864C149.16 143.536 148.617 144.185 147.916 144.145C143.887 143.912 140.422 143.215 137.197 140.567C137.677 141.921 137.859 142.918 138.095 143.976C138.372 145.224 137.495 146.436 136.223 146.557C130.055 147.142 125.074 149.799 120.884 153.044C113.957 158.406 109.67 164.999 106.579 170.844C106.745 170.365 106.9 169.892 107.037 169.432C110.857 156.722 121.557 146.099 134.773 142.876C133.581 140.052 133.966 136.622 135.753 134.135C137.786 137.107 140.923 139.307 144.716 140.491C144.106 136.722 145.31 132.699 147.892 129.875C151.597 136.289 159.476 138.746 166.59 140.834C179.816 144.715 188.854 153.686 194.06 164.414C195.859 168.111 197.203 172.016 198.107 175.991H198.11Z" fill="white"/>
</g>
<path d="M186.12 194.961C185.914 198.258 185.407 201.569 184.597 204.787C182.719 212.258 178.55 219.012 171.16 223.329C162.85 228.183 150.471 229.958 132.689 226.21C114.901 222.463 108.323 216.903 103.032 211.937C102.531 211.467 102.07 210.995 101.648 210.522C93.2201 201.148 99.0089 190.992 104.203 184.945C107.094 181.579 109.394 177.767 111.099 173.683C111.436 172.874 111.749 172.056 112.043 171.226C114.276 164.857 118.317 156.889 124.837 155.329C137.874 152.208 143.077 166.242 143.077 166.242C143.077 166.242 158.905 154.002 174.503 163.897C183.065 169.332 186.933 182.003 186.12 194.961Z" fill="#FFD8B5"/>
<path d="M134.561 180.033C133.347 184.402 129.804 187.896 125.647 189.716C118.991 192.625 110.662 191.777 105.15 196.506C102.622 198.678 101.023 201.887 100.811 205.208C100.696 207.01 100.996 208.834 101.648 210.522C93.2201 201.148 99.0089 190.992 104.203 184.945C107.094 181.578 109.394 177.767 111.099 173.683C112.386 172.041 113.827 170.535 115.502 169.278C119.813 166.036 126.157 164.836 130.58 167.92C134.306 170.508 135.771 175.664 134.561 180.036V180.033Z" fill="#8A4946"/>
<path d="M127.386 181.185C127.458 182.006 127.173 182.866 126.664 183.593C126.154 184.32 125.42 184.905 124.604 185.299C122.956 186.09 120.987 186.114 119.285 185.511C117.58 184.905 116.072 183.642 115.295 181.988C114.91 181.166 114.713 180.248 114.78 179.364C114.846 178.479 115.171 177.631 115.75 177.043C115.893 178.676 116.567 179.782 117.392 180.654C118.226 181.524 119.243 182.13 120.344 182.536C121.454 182.921 122.625 183.093 123.824 182.948C125.019 182.797 126.242 182.36 127.383 181.185H127.386Z" fill="#613331"/>
<path d="M186.12 194.961C185.914 198.257 185.407 201.569 184.597 204.786C182.719 212.258 178.55 219.011 171.16 223.329C172.947 221.453 174.093 218.929 173.981 216.351C173.842 213.076 171.769 210.167 169.33 207.971C165.249 204.302 160.083 202.117 155.401 199.254C150.717 196.388 146.226 192.419 144.979 187.077C143.751 181.821 146.263 175.91 150.899 173.137C155.853 170.174 162.264 170.871 167.595 173.092C175.362 176.325 181.833 182.696 184.84 190.54C185.389 191.977 185.817 193.452 186.123 194.961H186.12Z" fill="#8A4946"/>
<path d="M171.069 187.023C171.275 188.071 171.129 189.207 170.708 190.259C170.286 191.313 169.576 192.274 168.687 193.04C166.906 194.588 164.382 195.294 162.003 194.967C159.625 194.658 157.373 193.31 156.066 191.343C155.41 190.368 154.983 189.253 154.855 188.126C154.728 186.999 154.889 185.866 155.368 184.908C155.762 186.996 156.715 188.605 157.983 189.759C159.248 190.919 160.799 191.607 162.425 191.834C164.054 192.049 165.732 191.795 167.261 191.01C168.793 190.232 170.137 188.929 171.066 187.02L171.069 187.023Z" fill="#613331"/>
<path d="M151.545 229.985C150.498 229.985 149.455 229.97 148.411 229.94C137.513 229.616 121.618 227.474 107.783 219.115C99.8858 214.34 95.1862 208.71 93.8179 202.387C92.3737 195.703 94.4732 188.377 100.235 179.991C102.343 176.922 104.467 172.498 105.523 168.984C109.415 156.032 120.007 145.518 132.768 141.783C132.113 138.862 132.719 135.653 134.467 133.217C134.767 132.799 135.238 132.545 135.772 132.557C136.287 132.563 136.77 132.82 137.061 133.245C138.481 135.32 140.501 136.983 142.98 138.132C143.068 134.711 144.391 131.357 146.727 128.812C147.067 128.442 147.568 128.255 148.065 128.309C148.566 128.364 149.012 128.654 149.264 129.091C152.671 134.987 160.31 137.292 167.049 139.322C177.255 142.401 185.856 148.878 191.927 158.052C197.297 166.172 200.535 176.267 201.044 186.478C201.948 204.687 194.282 219.863 181.515 225.138C174.142 228.186 162.886 229.985 151.545 229.985ZM109.422 216.409C133.799 231.146 167.619 227.465 180.304 222.217C191.821 217.457 198.72 203.49 197.883 186.632C197.076 170.378 188.277 149.024 166.132 142.346C159.546 140.359 152.164 138.135 147.819 132.59C146.436 134.853 145.85 137.632 146.275 140.237C146.363 140.777 146.163 141.325 145.75 141.683C145.338 142.04 144.764 142.161 144.242 141.998C140.963 140.974 138.171 139.271 136.048 137.014C135.489 138.713 135.532 140.613 136.23 142.264C136.409 142.691 136.393 143.173 136.184 143.588C135.975 144 135.596 144.303 135.147 144.412C122.732 147.442 112.292 157.44 108.551 169.89C107.392 173.744 105.153 178.409 102.844 181.776C97.6012 189.408 95.6595 195.931 96.9125 201.718C98.1049 207.238 102.198 212.043 109.422 216.412V216.409Z" fill="#613331"/>
<path d="M132.513 199.142C132.513 199.142 127.185 195.389 128.915 192.81C130.644 190.232 140.207 192.837 140.207 195.997C140.207 199.158 132.513 199.142 132.513 199.142Z" fill="#613331"/>
<path d="M131.554 204.059C130.756 204.059 130.071 203.456 129.983 202.647C129.722 200.193 130.911 198.448 131.048 198.257C131.554 197.548 132.543 197.385 133.253 197.891C133.96 198.393 134.127 199.372 133.63 200.081C133.599 200.126 132.992 201.069 133.126 202.314C133.217 203.18 132.589 203.959 131.721 204.053C131.664 204.059 131.609 204.062 131.551 204.062L131.554 204.059Z" fill="#613331"/>
<path d="M137.14 207.625C136.09 207.625 135.013 207.392 134.018 206.937C132.98 206.462 132.022 205.75 131.193 204.85C130.289 205.289 129.352 205.547 128.429 205.601C126.739 205.698 125.137 205.123 124.033 204.026C122.747 202.741 122.283 200.793 122.874 199.175C123.171 198.354 124.082 197.933 124.901 198.23C125.723 198.53 126.145 199.436 125.847 200.254C125.674 200.726 125.854 201.369 126.269 201.787C126.727 202.241 127.468 202.487 128.244 202.444C129.018 202.399 129.852 202.072 130.65 201.502C130.996 201.257 131.427 201.16 131.846 201.232C132.264 201.305 132.634 201.544 132.874 201.896C133.554 202.887 134.403 203.635 135.338 204.062C136.299 204.505 137.361 204.586 138.247 204.292C139.124 204.002 139.843 203.302 140.08 202.505C140.329 201.669 141.208 201.193 142.046 201.438C142.883 201.687 143.359 202.565 143.111 203.402C142.58 205.183 141.099 206.674 139.245 207.286C138.578 207.507 137.865 207.619 137.14 207.619V207.625Z" fill="#613331"/>
<path d="M287.743 192.04C287.743 192.04 287.667 192.167 287.448 192.395L287.145 192.325C290.328 181.999 284.281 176.488 284.281 176.488C284.372 176.546 284.463 176.613 284.548 176.679C284.548 176.679 297.867 177.321 299.011 180.788C300.64 185.705 287.74 192.043 287.74 192.043L287.743 192.04Z" fill="white"/>
<path d="M261.936 200.136C261.532 200.136 261.126 199.982 260.819 199.676C260.774 199.63 256.284 195.237 247.84 192.274C240.052 189.541 227.191 187.502 210.152 193.298C209.327 193.58 208.426 193.137 208.144 192.313C207.861 191.486 208.304 190.589 209.13 190.308C227.118 184.187 240.774 186.411 249.063 189.356C258.122 192.574 262.858 197.246 263.055 197.443C263.671 198.061 263.671 199.061 263.055 199.676C262.746 199.985 262.342 200.136 261.939 200.136H261.936Z" fill="#613331"/>
<path d="M287.449 193.976C287.33 193.976 287.212 193.964 287.097 193.937L286.793 193.867C286.365 193.77 285.995 193.498 285.777 193.116C285.558 192.737 285.507 192.283 285.634 191.861C288.462 182.69 283.426 177.852 283.21 177.649C282.612 177.088 282.537 176.161 283.043 175.516C283.535 174.889 284.409 174.725 285.088 175.128C286.138 175.195 288.817 175.398 291.62 175.876C296.999 176.794 299.824 178.2 300.516 180.291C302.4 185.978 291.711 191.813 288.765 193.298C288.711 193.358 288.65 193.425 288.583 193.495C288.283 193.804 287.87 193.973 287.449 193.973V193.976ZM287.709 178.527C288.981 180.885 290.155 184.511 289.448 189.332C293.771 186.82 298.168 183.26 297.512 181.282C297.506 181.266 296.933 179.994 291.111 178.994C289.921 178.791 288.738 178.637 287.709 178.527Z" fill="#613331"/>
<path d="M287.239 183.1C286.581 183.1 285.965 182.685 285.743 182.027C285.461 181.2 285.904 180.303 286.733 180.021C286.927 179.955 291.554 178.416 298.908 178.81C299.782 178.855 300.449 179.6 300.404 180.47C300.358 181.342 299.609 182.015 298.741 181.964C291.99 181.603 287.797 182.997 287.755 183.012C287.585 183.069 287.415 183.097 287.245 183.097L287.239 183.1Z" fill="#613331"/>
<path d="M265.674 216.648C265.395 218.05 263.775 218.723 262.576 217.944C259.858 216.172 255.103 213.515 249.812 212.579C249.84 212.376 249.861 212.264 249.861 212.264C255.14 200.057 262.133 198.757 262.133 198.757H262.136C263.189 199.854 267.88 205.477 265.671 216.648H265.674Z" fill="white"/>
<path d="M288.614 187.82C287.922 187.82 287.288 187.365 287.094 186.668C286.857 185.829 287.345 184.957 288.186 184.72C288.246 184.702 294.314 182.963 297.989 179.9C298.659 179.339 299.657 179.43 300.215 180.1C300.777 180.77 300.686 181.766 300.015 182.324C295.816 185.826 289.321 187.683 289.044 187.759C288.902 187.799 288.756 187.82 288.614 187.82Z" fill="#613331"/>
<path d="M263.684 219.854C262.995 219.854 262.309 219.657 261.714 219.269C258.853 217.403 254.418 214.997 249.539 214.136C248.702 213.988 248.131 213.206 248.247 212.364C248.28 212.122 248.304 211.982 248.304 211.982C248.326 211.864 248.362 211.746 248.408 211.637C253.957 198.806 261.523 197.264 261.842 197.203C262.364 197.106 262.91 197.282 263.277 197.664C264.351 198.782 269.591 204.971 267.221 216.954C266.988 218.127 266.193 219.102 265.088 219.566C264.636 219.757 264.157 219.851 263.681 219.851L263.684 219.854ZM251.982 211.431C256.617 212.591 260.701 214.836 263.444 216.624C263.617 216.736 263.781 216.694 263.866 216.657C263.963 216.615 264.087 216.527 264.126 216.342C265.871 207.522 263.074 202.496 261.627 200.59C259.888 201.327 255.637 203.817 251.985 211.428L251.982 211.431Z" fill="#613331"/>
<path d="M264.657 219.605C264.624 219.605 264.588 219.605 264.554 219.602C263.684 219.544 263.022 218.793 263.08 217.923C263.483 211.706 260.119 205.186 256.633 202.474C255.944 201.938 255.82 200.944 256.357 200.257C256.894 199.569 257.886 199.445 258.577 199.981C263.374 203.714 266.666 211.512 266.238 218.126C266.184 218.962 265.489 219.605 264.66 219.605H264.657Z" fill="#613331"/>
<path d="M263.993 219.821C263.322 219.821 262.703 219.393 262.488 218.724C260.962 213.973 257.288 210.01 252.658 208.126C251.848 207.795 251.46 206.874 251.79 206.065C252.121 205.256 253.043 204.869 253.853 205.199C259.339 207.432 263.693 212.128 265.501 217.757C265.768 218.587 265.31 219.478 264.478 219.745C264.318 219.796 264.154 219.821 263.996 219.821H263.993Z" fill="#613331"/>
<path d="M216.035 258.35C215.847 258.35 215.659 258.317 215.474 258.247C214.658 257.938 214.248 257.029 214.558 256.214C214.676 255.905 217.522 248.582 225.692 244.295C226.466 243.889 227.422 244.186 227.828 244.959C228.235 245.731 227.937 246.686 227.164 247.092C220.095 250.803 217.54 257.272 217.516 257.335C217.273 257.962 216.672 258.35 216.038 258.35H216.035Z" fill="#613331"/>
<g opacity="0.2">
<path d="M180.917 224.28C166.788 230.191 132.634 232.888 108.605 218.363C93.2657 209.089 90.8112 197.106 101.545 181.482C101.624 181.363 101.706 181.245 101.785 181.124C99.7189 185.96 100.122 191.837 102.468 196.624C105.359 202.514 110.793 206.865 116.758 209.619C122.722 212.373 129.236 213.688 135.708 214.824C144.066 216.294 152.571 217.512 161.017 216.688C169.461 215.867 177.944 212.831 183.93 206.826C189.594 201.145 192.601 193.258 193.76 185.326C194.737 178.612 194.497 171.798 194.069 165.012C204.803 187.087 199.342 216.569 180.917 224.277V224.28Z" fill="#613331"/>
</g>
<path d="M197.061 263.483C196.718 263.483 196.369 263.37 196.081 263.14C195.99 263.067 186.97 255.969 181.806 254.705C180.956 254.496 180.438 253.642 180.647 252.796C180.856 251.948 181.712 251.43 182.558 251.639C188.393 253.066 197.655 260.359 198.047 260.668C198.732 261.21 198.848 262.204 198.305 262.886C197.992 263.28 197.531 263.486 197.064 263.486L197.061 263.483Z" fill="#613331"/>
<path d="M100.523 214.554C100.523 214.554 130.477 208.112 157.971 235.562C157.971 235.562 138.733 239.816 123.062 233.432C107.395 227.051 100.526 214.554 100.526 214.554H100.523Z" fill="white"/>
<path d="M157.968 237.141C157.564 237.141 157.158 236.987 156.848 236.678C142.995 222.844 128.523 217.987 118.821 216.345C108.284 214.563 100.923 216.081 100.851 216.096C99.995 216.278 99.1576 215.736 98.9725 214.881C98.7905 214.03 99.3305 213.191 100.186 213.006C100.505 212.936 108.099 211.355 119.194 213.203C129.391 214.903 144.588 219.965 159.084 234.442C159.703 235.06 159.703 236.059 159.084 236.675C158.775 236.984 158.372 237.138 157.965 237.138L157.968 237.141Z" fill="#613331"/>
<path d="M169.306 235.056C169.306 235.056 191.73 201.093 232.167 223.483L169.306 235.056Z" fill="white"/>
<path d="M169.303 236.635C169.002 236.635 168.702 236.55 168.432 236.374C167.704 235.893 167.504 234.917 167.983 234.187C168.22 233.826 173.936 225.294 184.825 219.48C194.897 214.103 211.42 210.191 232.931 222.101C233.696 222.525 233.972 223.486 233.547 224.249C233.122 225.013 232.161 225.285 231.396 224.864C215.173 215.881 200.046 214.987 186.43 222.204C176.205 227.624 170.677 235.844 170.623 235.926C170.319 236.383 169.816 236.635 169.303 236.635Z" fill="#613331"/>
<path d="M97.1946 185.902C97.1946 185.902 97.1916 185.911 97.1886 185.92C97.1461 185.865 97.1582 185.871 97.1946 185.902Z" fill="white"/>
<g opacity="0.2">
<path d="M295.901 199.324C295.901 199.324 275.213 250.378 215.261 257.35C215.261 257.35 209.172 270.317 196.287 262.482C196.287 262.482 115.098 273.229 80.0679 213.53C80.0679 213.53 65.4624 210.713 64.8495 204.353C64.5644 201.402 65.7992 199.675 67.8774 198.512C68.3477 200.448 69.8253 202.269 71.6608 203.171C73.1535 203.905 74.7736 204.205 76.4423 204.28C79.6007 204.426 82.5163 205.989 84.2791 208.613C93.8209 222.85 108.208 233.218 123.897 239.535C141.211 246.506 160.08 248.857 178.748 249.124C187.273 249.179 194.081 258.853 202.513 257.386C206.311 256.726 209.294 253.908 212.434 251.681C218.854 247.121 226.527 244.758 233.832 241.819C247.691 236.244 260.616 228.373 271.924 218.617C278.156 213.239 284.108 206.877 287.127 199.372C288.571 195.782 291.899 193.319 295.756 192.922C299.612 192.525 303.413 191.652 307.054 190.325C307.3 190.731 307.473 191.161 307.57 191.622C308.802 197.439 295.91 199.318 295.91 199.318L295.901 199.324Z" fill="#613331"/>
</g>
<path d="M91.2905 150.92C90.9841 150.92 90.6898 150.778 90.4987 150.523C90.2408 150.178 90.2378 149.708 90.4865 149.36L97.407 139.673L88.5782 142.964C88.0654 143.155 87.4981 142.894 87.3069 142.385C87.1158 141.873 87.3767 141.306 87.8864 141.116L99.7432 136.698C100.15 136.547 100.608 136.677 100.872 137.022C101.136 137.368 101.145 137.843 100.893 138.198L93.8907 147.996L102.892 144.9C103.408 144.721 103.973 144.997 104.148 145.512C104.327 146.027 104.051 146.59 103.536 146.766L91.6152 150.865C91.509 150.902 91.3998 150.92 91.2936 150.92H91.2905Z" fill="#613331"/>
<path d="M110.932 130.603C110.908 130.603 110.881 130.603 110.857 130.6L101.682 129.636C101.369 129.603 101.115 129.373 101.051 129.064C100.987 128.758 101.13 128.443 101.403 128.288L108.991 124.004L102.119 123.459C101.721 123.428 101.424 123.08 101.454 122.68C101.488 122.283 101.834 121.989 102.234 122.016L111.463 122.75C111.779 122.774 112.043 123.004 112.113 123.313C112.182 123.622 112.04 123.94 111.764 124.098L104.088 128.433L111.014 129.161C111.412 129.203 111.7 129.558 111.658 129.954C111.618 130.324 111.306 130.6 110.939 130.6L110.932 130.603Z" fill="#613331"/>
<path d="M94.1849 114.914C93.9635 114.914 93.7632 114.775 93.6904 114.566C93.6146 114.351 93.6843 114.111 93.8664 113.972L98.9088 110.145L93.9089 110.427C93.6237 110.442 93.3718 110.221 93.3536 109.933C93.3385 109.645 93.5599 109.397 93.8482 109.379L100.565 109C100.793 108.985 101.008 109.127 101.087 109.342C101.166 109.558 101.096 109.803 100.911 109.942L95.8112 113.814L100.869 113.66C101.16 113.651 101.4 113.878 101.409 114.169C101.418 114.46 101.19 114.699 100.899 114.708L94.2001 114.914C94.2001 114.914 94.188 114.914 94.1849 114.914Z" fill="#613331"/>
</g>
<defs>
<clipPath id="clip0_799_25211">
<rect width="246" height="157" fill="white" transform="translate(64 109)"/>
</clipPath>
</defs>
</svg>
