<svg width="369" height="423" viewBox="0 0 369 423" fill="none" xmlns="http://www.w3.org/2000/svg">
<g clip-path="url(#clip0_799_25212)">
<path d="M239.862 236.715C239.862 236.715 238.129 240.956 235.106 245.169C232.058 249.416 227.696 253.632 222.476 253.428C218.593 253.273 217.334 249.196 216.465 242.743C216.048 239.643 215.722 235.995 215.237 231.968C214.507 225.897 239.865 236.715 239.865 236.715H239.862Z" fill="white"/>
<path d="M221.401 254.591C221.33 254.591 221.258 254.585 221.184 254.573C220.463 254.455 219.972 253.772 220.093 253.052C222.029 241.341 218.692 234.432 218.658 234.363C218.335 233.709 218.599 232.914 219.255 232.592C219.91 232.266 220.702 232.53 221.029 233.181C221.184 233.488 224.794 240.857 222.709 253.487C222.604 254.135 222.041 254.594 221.404 254.594L221.401 254.591Z" fill="#613331"/>
<path d="M225.22 254.452C224.884 254.452 224.546 254.324 224.288 254.067C223.769 253.552 223.763 252.714 224.278 252.196C226.91 249.543 229.607 239.222 229.951 235.067C230.01 234.338 230.647 233.802 231.381 233.858C232.111 233.916 232.651 234.559 232.592 235.285C232.269 239.178 229.613 250.577 226.161 254.058C225.903 254.318 225.561 254.448 225.22 254.448V254.452Z" fill="#613331"/>
<path d="M222.843 254.759C222.703 254.759 222.563 254.759 222.42 254.75C216.346 254.511 215.564 247.226 214.479 237.143C214.305 235.536 214.128 233.873 213.92 232.13C213.793 231.075 214.159 230.166 214.952 229.573C216.25 228.602 219.087 227.932 229.563 231.416C235.134 233.268 240.331 235.48 240.384 235.502C241.049 235.784 241.363 236.551 241.089 237.218C240.794 237.944 233.794 254.762 222.843 254.762V254.759ZM216.539 231.689C216.539 231.689 216.539 231.742 216.548 231.813C216.76 233.575 216.94 235.245 217.114 236.861C218.18 246.779 218.903 251.964 222.526 252.106C230.365 252.404 236.33 241.17 238.097 237.416C236.202 236.641 232.39 235.133 228.435 233.83C218.45 230.541 216.688 231.578 216.539 231.689Z" fill="#613331"/>
<g opacity="0.4">
<path d="M239.862 236.716C239.862 236.716 238.129 240.957 235.106 245.17C228.824 249.808 220.519 248.741 216.465 242.747C216.048 239.647 215.722 235.999 215.237 231.972C214.507 225.9 239.865 236.719 239.865 236.719L239.862 236.716Z" fill="#613331"/>
</g>
<path d="M210.456 179.764C221.404 180.381 234.59 185.339 239.657 196.93C243.885 206.597 246.719 233.138 236.395 241.18C229.001 246.938 218.577 244.586 215.738 235.434C211.733 222.534 217.03 212.634 206.535 205.65" fill="#D6AF81"/>
<g opacity="0.4">
<path d="M242.925 227.321C242.043 233.206 240.036 238.341 236.398 241.177C229.004 246.935 218.583 244.586 215.738 235.434C211.733 222.534 217.033 212.631 206.535 205.65L206.631 205.018C217.906 205.201 213.967 217.52 218.875 231.723C222.01 240.779 233.593 239.393 238.691 234.463C240.543 232.676 241.925 230.209 242.922 227.321H242.925Z" fill="#613331"/>
</g>
<path d="M227.575 245.629C226.158 245.629 224.747 245.421 223.387 244.996C219.115 243.659 215.868 240.317 214.473 235.828C212.963 230.966 212.733 226.514 212.528 222.587C212.174 215.755 211.916 210.822 205.802 206.752C205.193 206.345 205.028 205.526 205.435 204.918C205.842 204.31 206.663 204.146 207.271 204.552C214.495 209.358 214.809 215.426 215.175 222.45C215.38 226.406 215.595 230.498 217.005 235.043C218.155 238.744 220.702 241.381 224.182 242.47C227.935 243.646 232.198 242.774 235.584 240.137C245.411 232.487 242.363 206.417 238.445 197.46C233.555 186.279 220.743 181.672 210.381 181.088C209.651 181.048 209.092 180.421 209.132 179.692C209.173 178.963 209.8 178.408 210.531 178.445C221.678 179.075 235.5 184.123 240.872 196.402C245.153 206.193 248.213 233.659 237.212 242.225C234.348 244.456 230.939 245.632 227.575 245.632V245.629Z" fill="#613331"/>
<path d="M202.509 250.305H180.112C178.675 250.305 177.511 251.467 177.511 252.901V254.76C177.511 256.194 178.675 257.357 180.112 257.357H202.509C203.945 257.357 205.109 256.194 205.109 254.76V252.901C205.109 251.467 203.945 250.305 202.509 250.305Z" fill="#878787"/>
<g opacity="0.4">
<path d="M205.109 253.832C205.109 254.809 204.767 255.687 204.211 256.326C203.658 256.965 202.894 257.359 202.046 257.359H180.571C178.881 257.359 177.508 255.78 177.508 253.832C177.508 253.189 177.654 252.587 177.918 252.069C178.446 253.124 179.437 253.832 180.568 253.832H202.043C202.891 253.832 203.655 253.438 204.208 252.798C204.398 252.581 204.562 252.333 204.693 252.069C204.957 252.584 205.103 253.189 205.103 253.832H205.109Z" fill="#613331"/>
</g>
<path d="M202.509 258.681H180.115C177.949 258.681 176.188 256.922 176.188 254.759V252.904C176.188 250.742 177.949 248.982 180.115 248.982H202.509C204.674 248.982 206.436 250.742 206.436 252.904V254.759C206.436 256.922 204.674 258.681 202.509 258.681ZM180.115 251.629C179.413 251.629 178.838 252.2 178.838 252.904V254.759C178.838 255.46 179.41 256.034 180.115 256.034H202.509C203.211 256.034 203.786 255.463 203.786 254.759V252.904C203.786 252.203 203.214 251.629 202.509 251.629H180.115Z" fill="#613331"/>
<path d="M248.406 306.12C247.673 306.12 247.079 305.528 247.079 304.795V239.802C247.079 239.07 247.673 238.478 248.406 238.478C249.139 238.478 249.733 239.07 249.733 239.802V304.795C249.733 305.528 249.139 306.12 248.406 306.12Z" fill="#613331"/>
<path d="M280.947 273.625H215.862C215.129 273.625 214.535 273.032 214.535 272.3C214.535 271.568 215.129 270.976 215.862 270.976H280.947C281.68 270.976 282.274 271.568 282.274 272.3C282.274 273.032 281.68 273.625 280.947 273.625Z" fill="#613331"/>
<path d="M225.394 296.606C225.055 296.606 224.716 296.475 224.455 296.218C223.936 295.7 223.936 294.862 224.455 294.347L270.477 248.391C270.996 247.872 271.834 247.872 272.35 248.391C272.869 248.909 272.869 249.746 272.35 250.261L226.329 296.218C226.071 296.475 225.732 296.606 225.39 296.606H225.394Z" fill="#613331"/>
<path d="M271.415 296.606C271.076 296.606 270.738 296.475 270.477 296.218L224.455 250.261C223.936 249.743 223.936 248.906 224.455 248.391C224.974 247.872 225.813 247.872 226.329 248.391L272.35 294.347C272.869 294.865 272.869 295.703 272.35 296.218C272.092 296.475 271.754 296.606 271.412 296.606H271.415Z" fill="#613331"/>
<path d="M104.65 306.12C103.917 306.12 103.323 305.528 103.323 304.795V239.802C103.323 239.07 103.917 238.478 104.65 238.478C105.383 238.478 105.976 239.07 105.976 239.802V304.795C105.976 305.528 105.383 306.12 104.65 306.12Z" fill="#613331"/>
<path d="M137.191 273.625H72.1057C71.3725 273.625 70.7791 273.032 70.7791 272.3C70.7791 271.568 71.3725 270.976 72.1057 270.976H137.191C137.924 270.976 138.517 271.568 138.517 272.3C138.517 273.032 137.924 273.625 137.191 273.625Z" fill="#613331"/>
<path d="M81.6375 296.606C81.2988 296.606 80.9602 296.475 80.6992 296.218C80.1803 295.7 80.1803 294.862 80.6992 294.347L126.721 248.391C127.24 247.872 128.078 247.872 128.594 248.391C129.113 248.909 129.113 249.746 128.594 250.261L82.5757 296.218C82.3178 296.475 81.9792 296.606 81.6375 296.606Z" fill="#613331"/>
<path d="M127.659 296.606C127.32 296.606 126.982 296.475 126.721 296.218L80.7024 250.261C80.1835 249.743 80.1835 248.906 80.7024 248.391C81.2212 247.872 82.06 247.872 82.5758 248.391L128.597 294.347C129.116 294.865 129.116 295.703 128.597 296.218C128.339 296.475 128.001 296.606 127.659 296.606Z" fill="#613331"/>
<path d="M248.406 234.175C227.32 234.175 210.226 251.244 210.226 272.301C210.226 293.357 227.32 310.427 248.406 310.427C269.492 310.427 286.583 293.357 286.583 272.301C286.583 251.244 269.489 234.175 248.406 234.175ZM248.406 304.799C230.433 304.799 215.862 290.248 215.862 272.301C215.862 254.353 230.433 239.803 248.406 239.803C266.379 239.803 280.95 254.353 280.95 272.301C280.95 290.248 266.379 304.799 248.406 304.799Z" fill="#878787"/>
<path d="M248.406 234.175C227.32 234.175 210.226 251.244 210.226 272.301C210.226 293.357 227.32 310.427 248.406 310.427C269.492 310.427 286.583 293.357 286.583 272.301C286.583 251.244 269.489 234.175 248.406 234.175ZM248.406 304.799C230.433 304.799 215.862 290.248 215.862 272.301C215.862 254.353 230.433 239.803 248.406 239.803C266.379 239.803 280.95 254.353 280.95 272.301C280.95 290.248 266.379 304.799 248.406 304.799Z" fill="#5B3737"/>
<g opacity="0.3">
<path d="M248.406 237.101C228.935 237.101 213.156 252.858 213.156 272.301C213.156 291.744 228.935 307.501 248.406 307.501C267.876 307.501 283.656 291.741 283.656 272.301C283.656 252.861 267.873 237.101 248.406 237.101ZM248.406 304.799C230.433 304.799 215.862 290.249 215.862 272.301C215.862 254.353 230.433 239.803 248.406 239.803C266.379 239.803 280.95 254.353 280.95 272.301C280.95 290.249 266.379 304.799 248.406 304.799Z" fill="#613331"/>
</g>
<path d="M248.406 234.175C269.492 234.175 286.586 251.244 286.586 272.304C286.586 293.363 269.492 310.427 248.406 310.427C227.32 310.427 210.223 293.357 210.223 272.304C210.223 251.251 227.317 234.175 248.406 234.175ZM248.406 304.799C266.376 304.799 280.947 290.248 280.947 272.304C280.947 254.359 266.376 239.809 248.406 239.809C230.436 239.809 215.865 254.356 215.865 272.304C215.865 290.251 230.433 304.799 248.406 304.799ZM248.406 231.528C225.891 231.528 207.573 249.82 207.573 272.304C207.573 294.787 225.891 313.073 248.406 313.073C270.921 313.073 289.236 294.784 289.236 272.304C289.236 249.823 270.921 231.528 248.406 231.528ZM248.406 304.799C231.924 304.799 218.512 291.409 218.512 274.95C218.512 258.492 231.921 245.098 248.406 245.098C264.891 245.098 278.3 258.489 278.3 274.95C278.3 291.412 264.891 304.799 248.406 304.799Z" fill="#613331"/>
<path d="M104.833 234.175C83.7471 234.175 66.6533 251.244 66.6533 272.301C66.6533 293.357 83.7471 310.427 104.833 310.427C125.919 310.427 143.01 293.357 143.01 272.301C143.01 251.244 125.916 234.175 104.833 234.175ZM104.833 304.799C86.8601 304.799 72.2891 290.248 72.2891 272.301C72.2891 254.353 86.8601 239.803 104.833 239.803C122.806 239.803 137.377 254.353 137.377 272.301C137.377 290.248 122.806 304.799 104.833 304.799Z" fill="#878787"/>
<path d="M104.833 234.175C83.7471 234.175 66.6533 251.244 66.6533 272.301C66.6533 293.357 83.7471 310.427 104.833 310.427C125.919 310.427 143.01 293.357 143.01 272.301C143.01 251.244 125.916 234.175 104.833 234.175ZM104.833 304.799C86.8601 304.799 72.2891 290.248 72.2891 272.301C72.2891 254.353 86.8601 239.803 104.833 239.803C122.806 239.803 137.377 254.353 137.377 272.301C137.377 290.248 122.806 304.799 104.833 304.799Z" fill="#5B3737"/>
<g opacity="0.3">
<path d="M104.833 234.175C94.0772 234.175 84.3652 238.618 77.4246 245.762C84.2969 239.105 93.6702 235.003 104.003 235.003C125.086 235.003 142.18 252.073 142.18 273.129C142.18 283.448 138.073 292.808 131.406 299.671C138.561 292.74 143.01 283.041 143.01 272.301C143.01 251.244 125.916 234.175 104.833 234.175Z" fill="white"/>
</g>
<g opacity="0.3">
<path d="M71.4595 273.129C71.4595 291.077 86.0305 305.627 104.004 305.627C113.2 305.627 121.501 301.811 127.42 295.684C121.566 301.324 113.607 304.799 104.833 304.799C86.86 304.799 72.289 290.248 72.289 272.301C72.289 263.54 75.7686 255.591 81.4169 249.746C75.2809 255.656 71.4595 263.946 71.4595 273.129Z" fill="white"/>
</g>
<g opacity="0.3">
<path d="M248.406 234.175C237.65 234.175 227.938 238.618 220.998 245.762C227.87 239.105 237.243 235.003 247.577 235.003C268.659 235.003 285.753 252.073 285.753 273.129C285.753 283.448 281.646 292.808 274.979 299.671C282.134 292.74 286.583 283.041 286.583 272.301C286.583 251.244 269.489 234.175 248.406 234.175Z" fill="white"/>
</g>
<g opacity="0.3">
<path d="M215.032 273.129C215.032 291.077 229.604 305.627 247.577 305.627C256.773 305.627 265.074 301.811 270.993 295.684C265.139 301.324 257.18 304.799 248.406 304.799C230.433 304.799 215.862 290.248 215.862 272.301C215.862 263.54 219.342 255.591 224.99 249.746C218.854 255.656 215.032 263.946 215.032 273.129Z" fill="white"/>
</g>
<g opacity="0.3">
<path d="M104.833 236.973C85.2911 236.973 69.4556 252.789 69.4556 272.3C69.4556 291.811 85.2911 307.625 104.833 307.625C124.375 307.625 140.207 291.811 140.207 272.3C140.207 252.789 124.372 236.973 104.833 236.973ZM104.833 304.798C86.86 304.798 72.289 290.248 72.289 272.3C72.289 254.353 86.86 239.802 104.833 239.802C122.806 239.802 137.377 254.353 137.377 272.3C137.377 290.248 122.806 304.798 104.833 304.798Z" fill="#613331"/>
</g>
<path d="M104.833 234.175C125.919 234.175 143.013 251.244 143.013 272.304C143.013 293.363 125.919 310.427 104.833 310.427C83.747 310.427 66.6501 293.357 66.6501 272.304C66.6501 251.251 83.7439 234.175 104.833 234.175ZM104.833 304.799C122.803 304.799 137.374 290.248 137.374 272.304C137.374 254.359 122.803 239.809 104.833 239.809C86.8632 239.809 72.2921 254.356 72.2921 272.304C72.2921 290.251 86.8601 304.799 104.833 304.799ZM104.833 231.528C82.3179 231.528 64 249.82 64 272.304C64 294.787 82.3179 313.073 104.833 313.073C127.348 313.073 145.663 294.784 145.663 272.304C145.663 249.823 127.348 231.528 104.833 231.528ZM104.833 304.799C88.3513 304.799 74.9392 291.409 74.9392 274.95C74.9392 258.492 88.3482 245.098 104.833 245.098C121.318 245.098 134.727 258.489 134.727 274.95C134.727 291.412 121.318 304.799 104.833 304.799Z" fill="#613331"/>
<path d="M252.687 271.733L238.405 223.968L236.494 217.366L236.488 217.347L234.752 211.338L232.176 203.197L226.276 204.63L228.47 211.509L158.522 213.426L155.481 213.51L154.076 209.132L149.833 195.764L144.035 197.616L149.146 213.683L149.764 215.613L104.765 268.234C104.311 268.919 104.106 269.658 104.106 270.384C104.106 272.422 105.728 274.311 108.033 274.311H172.733L233.472 228.78L246.846 273.421C247.312 275.034 248.999 275.962 250.615 275.496C251.948 275.112 252.815 273.896 252.815 272.577C252.815 272.298 252.774 272.012 252.693 271.733H252.687ZM114.123 268.231C113.243 268.231 112.718 267.256 113.203 266.521L152.135 223.025L167.402 268.231H114.123ZM172.95 265.606L157.413 219.538L230.209 217.537L231.545 222.156L172.95 265.606Z" fill="#1389EA"/>
<g opacity="0.2">
<path d="M226.901 214.3L160.579 216.122C158.762 216.171 157.336 217.698 157.413 219.513L230.206 217.533L230.728 219.33L231.402 218.83L230.946 217.251C230.43 215.461 228.765 214.248 226.901 214.297V214.3Z" fill="#613331"/>
</g>
<g opacity="0.2">
<path d="M252.69 271.733L252.094 269.747C251.864 269.89 251.612 270.008 251.339 270.086C249.723 270.551 248.036 269.626 247.567 268.007L235.205 226.751C234.714 225.109 232.738 224.461 231.365 225.488L173.454 268.9H108.757C107.393 268.9 106.269 268.237 105.579 267.275L104.762 268.23C104.311 268.916 104.106 269.657 104.106 270.38C104.106 272.419 105.725 274.311 108.027 274.311H172.73L233.468 228.78L246.843 273.418C247.309 275.034 248.996 275.959 250.609 275.496C251.942 275.112 252.805 273.895 252.805 272.577C252.805 272.295 252.765 272.012 252.687 271.736L252.69 271.733Z" fill="#613331"/>
</g>
<path d="M249.758 276.939C249.031 276.939 248.31 276.756 247.654 276.396C246.632 275.835 245.889 274.907 245.566 273.787L232.741 230.98L173.171 275.636H108.03C105.135 275.636 102.78 273.281 102.78 270.384C102.78 269.366 103.084 268.367 103.659 267.501L103.755 267.374L148.273 215.312L147.881 214.087L142.37 196.756L150.69 194.098L156.435 212.16L226.668 210.237L224.58 203.684L233.061 201.624L236.01 210.944L239.676 223.602L253.961 271.376C254.076 271.777 254.132 272.183 254.132 272.58C254.132 274.51 252.833 276.232 250.975 276.768C250.571 276.883 250.165 276.942 249.754 276.942L249.758 276.939ZM234.192 226.58L248.111 273.039C248.241 273.492 248.533 273.855 248.934 274.079C249.335 274.299 249.798 274.352 250.242 274.224C250.972 274.014 251.485 273.334 251.485 272.577C251.485 272.425 251.463 272.267 251.417 272.102L237.134 224.346L233.475 211.707L231.281 204.776L227.966 205.583L230.262 212.784L154.521 214.859L152.812 209.535L148.969 197.427L145.697 198.472L151.249 215.911L105.83 269.025C105.566 269.447 105.433 269.903 105.433 270.384C105.433 271.637 106.427 272.99 108.033 272.99H172.292L234.195 226.583L234.192 226.58ZM169.247 269.552H114.123C113.228 269.552 112.408 269.062 111.985 268.277C111.559 267.489 111.603 266.537 112.097 265.792L112.215 265.64L152.663 220.447L169.247 269.552ZM114.632 266.906H165.556L151.606 225.597L114.635 266.906H114.632ZM172.273 267.753L155.583 218.263L231.194 216.184L233.071 222.671L172.273 267.753ZM159.237 220.81L173.618 263.456L230.01 221.641L229.212 218.886L159.234 220.81H159.237Z" fill="#613331"/>
<path d="M243.134 190.101C243.221 192.726 241.664 195.127 239.235 196.123L237.265 196.93L233.773 198.363C232.204 199.005 231.396 200.742 231.902 202.353L232.173 203.2L226.273 204.633L225.372 201.803H225.369C225.158 201.133 225.055 200.46 225.055 199.796C225.055 197.181 226.624 194.727 229.162 193.681L234.661 191.423C236.063 190.849 236.97 189.487 236.97 187.979V187.861C236.904 185.857 235.255 184.265 233.248 184.265H217.651C216.81 184.265 216.048 183.924 215.498 183.372C214.949 182.823 214.61 182.063 214.61 181.225C214.61 179.547 215.974 178.185 217.655 178.185H236.659C238.355 178.185 239.899 178.858 241.033 179.953C242.164 181.048 242.891 182.568 242.944 184.262L243.065 187.976L243.137 190.098L243.134 190.101Z" fill="#878787"/>
<g opacity="0.3">
<path d="M231.905 202.35L232.17 203.197L226.27 204.633L225.372 201.804H225.369C225.154 201.131 225.055 200.46 225.055 199.796C225.055 197.55 226.211 195.425 228.14 194.209C227.789 195.028 227.596 195.922 227.596 196.834C227.596 197.498 227.696 198.171 227.91 198.838H227.913C228.423 200.436 230.079 201.363 231.707 200.969L231.784 200.951C231.722 201.41 231.759 201.888 231.905 202.353V202.35Z" fill="#613331"/>
</g>
<g opacity="0.3">
<path d="M233.248 184.269H217.655C216.813 184.269 216.051 183.928 215.502 183.375C214.949 182.829 214.61 182.066 214.61 181.228C214.61 179.718 215.71 178.47 217.151 178.231V178.266C217.151 179.106 217.49 179.866 218.043 180.412C218.596 180.965 219.354 181.306 220.196 181.306H235.789C237.796 181.306 239.446 182.898 239.511 184.902V185.02C239.511 186.53 238.604 187.886 237.2 188.463L236.917 188.581C236.951 188.386 236.97 188.187 236.97 187.982V187.865C236.904 185.86 235.255 184.269 233.248 184.269Z" fill="#613331"/>
</g>
<path d="M225.384 206.209L224.104 202.201C223.856 201.416 223.728 200.606 223.728 199.797C223.728 196.57 225.664 193.688 228.659 192.459L234.158 190.201C235.062 189.828 235.646 188.957 235.646 187.979V187.886C235.597 186.596 234.546 185.59 233.251 185.59H217.655C216.486 185.59 215.39 185.134 214.563 184.309C213.74 183.487 213.286 182.392 213.286 181.225C213.286 178.821 215.247 176.863 217.655 176.863H236.659C238.647 176.863 240.527 177.623 241.956 179.007C243.385 180.394 244.209 182.246 244.271 184.225L244.463 190.058C244.569 193.216 242.671 196.145 239.744 197.349L234.285 199.586C233.363 199.964 232.875 201.003 233.176 201.953L233.872 204.146L225.394 206.206L225.384 206.209ZM226.593 201.273L227.161 203.054L230.511 202.241C230.11 200.138 231.25 197.969 233.27 197.141L238.731 194.901C240.639 194.116 241.879 192.205 241.81 190.145L241.618 184.309C241.577 183.019 241.04 181.809 240.108 180.906C239.179 180.006 237.951 179.51 236.656 179.51H217.651C216.704 179.51 215.933 180.279 215.933 181.225C215.933 181.684 216.11 182.113 216.434 182.438C216.76 182.764 217.192 182.944 217.651 182.944H233.248C235.988 182.944 238.206 185.085 238.293 187.821V187.979C238.293 190.036 237.066 191.867 235.162 192.649L229.666 194.904C227.668 195.723 226.379 197.643 226.379 199.793C226.379 200.29 226.45 200.786 226.593 201.27V201.273Z" fill="#613331"/>
<path d="M169.433 286.46H147.036C145.6 286.46 144.436 287.623 144.436 289.057V290.915C144.436 292.349 145.6 293.512 147.036 293.512H169.433C170.87 293.512 172.034 292.349 172.034 290.915V289.057C172.034 287.623 170.87 286.46 169.433 286.46Z" fill="#878787"/>
<g opacity="0.4">
<path d="M172.037 289.988C172.037 290.965 171.695 291.843 171.139 292.482C170.586 293.121 169.822 293.515 168.974 293.515H147.499C145.809 293.515 144.436 291.936 144.436 289.988C144.436 289.346 144.582 288.744 144.846 288.226C145.374 289.28 146.365 289.988 147.496 289.988H168.97C169.819 289.988 170.583 289.594 171.136 288.955C171.325 288.737 171.49 288.489 171.621 288.226C171.885 288.741 172.031 289.346 172.031 289.988H172.037Z" fill="#613331"/>
</g>
<path d="M169.433 294.837H147.039C144.874 294.837 143.112 293.078 143.112 290.915V289.06C143.112 286.898 144.874 285.139 147.039 285.139H169.433C171.599 285.139 173.36 286.898 173.36 289.06V290.915C173.36 293.078 171.599 294.837 169.433 294.837ZM147.039 287.785C146.337 287.785 145.762 288.356 145.762 289.06V290.915C145.762 291.617 146.334 292.191 147.039 292.191H169.433C170.136 292.191 170.71 291.62 170.71 290.915V289.06C170.71 288.359 170.139 287.785 169.433 287.785H147.039Z" fill="#613331"/>
<path d="M182.732 273.432C184.156 267.405 180.418 261.367 174.383 259.944C168.348 258.522 162.301 262.254 160.876 268.281C159.452 274.308 163.189 280.346 169.225 281.769C175.26 283.191 181.307 279.459 182.732 273.432Z" fill="#B2B2B2"/>
<g opacity="0.4">
<path d="M183.035 270.868C183.035 277.06 178.011 282.08 171.807 282.08C165.603 282.08 160.579 277.057 160.579 270.868C160.579 269.8 160.728 268.767 161.011 267.79C162.347 272.49 166.678 275.928 171.807 275.928C176.936 275.928 181.267 272.49 182.603 267.79C182.889 268.767 183.035 269.8 183.035 270.868Z" fill="#613331"/>
</g>
<path d="M171.81 277.848C167.955 277.848 164.82 274.717 164.82 270.867C164.82 267.017 167.955 263.887 171.81 263.887C175.666 263.887 178.801 267.017 178.801 270.867C178.801 274.717 175.666 277.848 171.81 277.848ZM171.81 265.54C168.871 265.54 166.479 267.929 166.479 270.867C166.479 273.805 168.871 276.194 171.81 276.194C174.749 276.194 177.145 273.805 177.145 270.867C177.145 267.929 174.752 265.54 171.81 265.54Z" fill="#613331"/>
<path d="M171.81 283.401C164.888 283.401 159.255 277.776 159.255 270.864C159.255 263.952 164.888 258.327 171.81 258.327C178.732 258.327 184.365 263.952 184.365 270.864C184.365 277.776 178.732 283.401 171.81 283.401ZM171.81 260.977C166.348 260.977 161.905 265.413 161.905 270.867C161.905 276.321 166.348 280.758 171.81 280.758C177.272 280.758 181.715 276.321 181.715 270.867C181.715 265.413 177.272 260.977 171.81 260.977Z" fill="#613331"/>
<path d="M158.236 287.785C157.929 287.785 157.618 287.68 157.366 287.46C156.813 286.979 156.754 286.144 157.236 285.592L170.81 269.996C171.291 269.444 172.127 269.385 172.68 269.866C173.233 270.346 173.292 271.181 172.81 271.733L159.237 287.329C158.976 287.63 158.606 287.785 158.236 287.785Z" fill="#613331"/>
<path d="M219.652 244.083C219.652 244.083 217.518 248.138 214.103 252.041C210.661 255.978 205.914 259.754 200.738 259.05C196.889 258.522 196.028 254.346 195.783 247.84C195.668 244.713 195.692 241.052 195.596 236.997C195.453 230.886 219.652 244.083 219.652 244.083Z" fill="white"/>
<path d="M199.685 260.11C199.573 260.11 199.458 260.095 199.343 260.067C198.634 259.881 198.215 259.155 198.401 258.447C201.452 246.975 198.799 239.777 198.771 239.709C198.51 239.026 198.852 238.263 199.535 238.002C200.216 237.742 200.98 238.077 201.244 238.759C201.368 239.079 204.255 246.761 200.961 259.13C200.803 259.723 200.269 260.113 199.681 260.113L199.685 260.11Z" fill="#613331"/>
<path d="M203.5 260.34C203.121 260.34 202.742 260.179 202.481 259.863C202.012 259.301 202.089 258.466 202.652 257.998C205.529 255.609 209.204 245.594 209.947 241.493C210.077 240.773 210.767 240.295 211.487 240.426C212.208 240.556 212.687 241.245 212.556 241.965C211.86 245.808 208.12 256.9 204.348 260.033C204.099 260.238 203.801 260.34 203.503 260.34H203.5Z" fill="#613331"/>
<path d="M202.005 260.458C201.527 260.458 201.045 260.427 200.558 260.359C194.533 259.536 194.456 252.212 194.347 242.07C194.328 240.453 194.313 238.781 194.272 237.025C194.248 235.961 194.701 235.092 195.546 234.577C196.932 233.733 199.818 233.339 209.912 237.813C215.278 240.19 220.239 242.889 220.289 242.917C220.923 243.264 221.162 244.052 220.827 244.694C220.472 245.364 212.413 260.455 202.005 260.455V260.458ZM196.923 236.839C196.923 236.839 196.919 236.892 196.923 236.963C196.963 238.738 196.982 240.416 197 242.042C197.106 252.019 197.33 257.247 200.921 257.737C208.694 258.795 215.713 248.175 217.835 244.607C216.023 243.655 212.376 241.787 208.564 240.109C198.939 235.877 197.09 236.74 196.929 236.839H196.923Z" fill="#613331"/>
<path d="M171.211 252.004C171.211 252.004 165.395 269.56 154.993 269.855C149.248 270.017 148.643 261.212 146.315 248.935C145.178 242.929 171.211 252.004 171.211 252.004Z" fill="white"/>
<path d="M171.214 252.004C171.214 252.004 170.21 255.035 168.29 258.597C165.593 263.61 161.079 269.685 154.996 269.853C150.143 269.992 148.956 263.722 147.303 254.371C147.3 254.371 147.303 254.368 147.303 254.368C146.999 252.656 146.682 250.835 146.319 248.936C145.178 242.93 171.214 252.001 171.214 252.001V252.004Z" fill="white"/>
<g opacity="0.4">
<path d="M171.214 252.004C171.214 252.004 170.21 255.035 168.29 258.597C165.522 261.355 161.847 263.508 157.121 263.508C153.412 263.508 149.929 260.095 147.307 254.371C147.304 254.371 147.307 254.368 147.307 254.368C147.002 252.656 146.685 250.835 146.322 248.936C145.182 242.93 171.217 252.001 171.217 252.001L171.214 252.004Z" fill="#613331"/>
</g>
<path d="M153.915 271.09C153.871 271.09 153.831 271.09 153.787 271.084C153.057 271.013 152.526 270.367 152.594 269.641C153.732 257.824 149.935 251.157 149.895 251.092C149.528 250.462 149.739 249.652 150.367 249.283C150.997 248.914 151.805 249.122 152.178 249.752C152.352 250.046 156.456 257.154 155.232 269.896C155.167 270.581 154.589 271.093 153.915 271.093V271.09Z" fill="#613331"/>
<path d="M157.714 270.693C157.407 270.693 157.099 270.587 156.848 270.37C156.295 269.892 156.233 269.058 156.711 268.503C159.159 265.676 161.148 255.196 161.21 251.03C161.222 250.307 161.812 249.727 162.533 249.727H162.555C163.288 249.739 163.872 250.338 163.86 251.07C163.801 254.976 161.927 266.529 158.715 270.234C158.454 270.538 158.084 270.693 157.711 270.693H157.714Z" fill="#613331"/>
<path d="M154.822 271.18C148.925 271.18 147.661 264.017 145.915 254.148C145.632 252.556 145.343 250.909 145.017 249.184C144.818 248.138 145.123 247.207 145.874 246.562C147.105 245.504 149.888 244.645 160.579 247.412C166.261 248.883 171.599 250.738 171.652 250.757C172.335 250.996 172.702 251.737 172.472 252.423C172.223 253.177 166.237 270.864 155.033 271.18C154.962 271.18 154.893 271.18 154.822 271.18ZM147.602 248.566C147.602 248.566 147.605 248.619 147.62 248.69C147.95 250.434 148.242 252.088 148.524 253.689C150.261 263.514 151.33 268.636 154.959 268.534C162.788 268.313 167.986 256.689 169.499 252.823C167.554 252.178 163.652 250.93 159.616 249.897C149.429 247.291 147.745 248.445 147.602 248.566Z" fill="#613331"/>
<path d="M207.915 209.836C207.11 210.798 205.476 211.567 203.31 212.181C193.735 214.893 173.74 214.577 168.778 214.449C168.048 214.431 167.644 214.415 167.644 214.415C171.614 219.481 176.93 235.462 171.568 250.974C167.001 264.2 153.073 261.374 149.814 257.151C144.56 250.345 147.58 240.119 132.375 225.168C115.878 208.949 110.954 185.898 121.8 167.485C143.65 130.389 180.848 159.607 199.464 154.107C199.464 154.107 214.849 201.543 207.915 209.836Z" fill="#D6AF81"/>
<g opacity="0.4">
<path d="M173.795 238.959C173.637 242.862 172.966 246.935 171.568 250.978C167.001 264.203 153.073 261.377 149.814 257.154C144.56 250.348 147.58 240.122 132.375 225.171C119.528 212.541 113.7 195.766 116.872 180.267C116.366 193.728 122.219 207.54 133.192 218.33C148.397 233.281 145.377 243.507 150.631 250.314C153.89 254.539 167.818 257.362 172.385 244.137C172.981 242.412 173.444 240.681 173.792 238.959H173.795Z" fill="#613331"/>
</g>
<g opacity="0.3">
<path d="M200.89 158.711C200.775 158.351 200.71 158.158 200.71 158.158C182.094 163.659 144.896 134.44 123.045 171.536C117.083 181.663 115.887 193.185 118.761 204.208C114.418 192 115.101 178.858 121.8 167.487C143.65 130.392 180.848 159.61 199.464 154.11C199.464 154.11 200.026 155.847 200.887 158.711H200.89Z" fill="white"/>
</g>
<g opacity="0.4">
<path d="M203.31 212.181C193.735 214.892 173.739 214.576 168.778 214.449C163.133 208.266 160.013 208.967 159.656 206.212C159.15 202.334 180.898 209.023 194.406 209.426C198.342 209.544 201.216 210.661 203.313 212.178L203.31 212.181Z" fill="#613331"/>
</g>
<path d="M158.873 261.994C154.446 261.994 150.444 260.132 148.77 257.961C146.754 255.348 145.893 252.373 144.899 248.933C143.171 242.957 141.018 235.521 131.449 226.114C114.132 209.088 109.798 185.258 120.659 166.817C135.88 140.977 158.575 146.332 176.809 150.632C185.319 152.639 193.359 154.534 199.091 152.841C199.781 152.636 200.505 153.021 200.729 153.703C200.766 153.821 204.628 165.765 207.585 178.569C211.696 196.355 212.137 206.86 208.937 210.689C208.089 211.703 205.513 214.784 186.011 215.643C179.621 215.926 173.451 215.873 170.126 215.808C173.948 222.63 177.719 237.252 172.826 251.415C170.816 257.232 166.74 260.92 161.349 261.802C160.52 261.938 159.69 262 158.873 262V261.994ZM153.561 149.645C142.305 149.645 131.462 153.697 122.946 168.154C112.709 185.534 116.875 208.067 133.31 224.225C143.373 234.118 145.632 241.924 147.446 248.194C148.406 251.508 149.161 254.126 150.87 256.341C152.352 258.262 156.745 259.859 160.924 259.18C164.024 258.674 168.175 256.763 170.322 250.543C175.501 235.549 170.456 220.145 166.603 215.231C166.286 214.824 166.23 214.272 166.466 213.816C166.699 213.357 167.181 213.071 167.694 213.093C181.128 213.568 203.652 212.876 206.902 208.985C211.543 203.432 204.597 174.533 198.588 155.692C192.362 157.013 184.498 155.158 176.203 153.204C168.859 151.469 161.116 149.645 153.564 149.645H153.561Z" fill="#613331"/>
<path d="M204.314 143.354C190.227 163.529 203.568 186.999 228.243 204.177C252.917 221.355 279.586 225.736 293.673 205.558C307.172 186.22 310.018 155.382 282.935 133.857C280.729 129.728 278.194 123.47 278.707 117.175C278.865 115.205 276.65 113.964 275.06 115.149C272.947 116.722 270.443 118.975 269.396 123.405C266.889 118.928 264.58 114.213 264.117 112.236C263.62 110.12 260.83 109.627 259.65 111.448C258.509 113.214 256.583 117.296 255.166 120.858C233.568 117.213 214.672 128.518 204.314 143.357V143.354Z" fill="#D6AF81"/>
<g opacity="0.4">
<path d="M293.673 205.557C279.586 225.736 252.92 221.355 228.246 204.177C212.128 192.955 200.844 179.05 198.886 165.129C216.368 180.263 214.65 189.059 227.059 197.808C257.052 218.957 279.307 217.331 292.942 201.078C300.697 191.832 303.537 177.995 300.178 156.21C307.187 173.59 302.94 192.282 293.673 205.554V205.557Z" fill="#613331"/>
</g>
<g opacity="0.51">
<path d="M199.452 153.8C200.346 151.594 201.533 149.416 203.028 147.275C212.771 133.32 231.701 122.415 251.886 124.199C254.182 124.401 256.347 123.113 257.223 120.985C258.211 118.584 259.193 116.363 259.948 115.196C261.128 113.375 262.337 114.045 262.834 116.158C263.198 117.703 264.686 120.92 266.519 124.392C267.081 125.456 268.628 125.453 269.157 124.37C270.402 121.804 272.201 120.247 273.783 119.071C275.373 117.889 276.523 118.115 276.271 121.097C275.917 125.294 277.449 129.473 279.161 133.02C280.531 135.855 282.491 138.356 284.827 140.465C302.232 156.167 305.127 176.075 300.29 192.891C307.134 174.381 304.664 151.125 282.942 133.857C280.736 129.728 278.2 123.47 278.713 117.175C278.872 115.205 276.656 113.964 275.066 115.149C272.953 116.722 270.449 118.975 269.402 123.405C266.895 118.928 264.586 114.213 264.123 112.236C263.626 110.12 260.836 109.627 259.656 111.448C258.516 113.214 256.589 117.296 255.173 120.858C233.574 117.213 214.678 128.518 204.32 143.357C201.943 146.76 200.346 150.257 199.458 153.806L199.452 153.8Z" fill="white"/>
</g>
<path d="M215.045 146.766C210.941 152.645 208.306 160.215 210.239 168.828C212.208 177.632 218.95 187.529 233.757 197.839C248.409 208.039 259.951 210.977 268.868 209.879C277.781 208.781 284.072 203.649 288.22 197.708C289.062 196.501 289.792 195.245 290.404 193.957C295.832 182.581 292.383 168.626 281.693 161.183C275.846 157.113 268.911 155.745 262.396 156.821C261.15 150.34 257.469 144.321 251.622 140.251C241.061 132.901 226.984 134.366 218.149 143.09C217.021 144.2 215.983 145.429 215.045 146.769V146.766Z" fill="#FFD8B5"/>
<path d="M245.253 169.762C243.973 171.593 244.88 175.495 247.893 177.596C250.907 179.693 254.887 179.194 256.167 177.36C257.447 175.53 255.539 173.06 252.526 170.96C249.512 168.862 246.533 167.929 245.253 169.762Z" fill="#613331"/>
<g opacity="0.5">
<path d="M249.04 170.897C248.742 171.325 249.375 172.532 250.603 173.388C251.83 174.241 253.184 174.421 253.483 173.993C253.781 173.565 252.911 172.693 251.684 171.837C250.457 170.984 249.335 170.469 249.037 170.897H249.04Z" fill="#FEFAFB"/>
</g>
<path d="M258.941 177.775C255.409 184.784 259.501 189.859 264.332 197.221C267.361 201.841 268.514 206.361 268.871 209.879C277.784 208.781 284.076 203.65 288.223 197.709C289.065 196.502 289.795 195.245 290.407 193.958C289.317 187.104 285.825 178.818 276.079 173.64C268.945 169.852 261.477 172.743 258.941 177.772V177.775Z" fill="#8A4946"/>
<path d="M215.045 146.767C210.941 152.646 208.306 160.216 210.239 168.828C213.647 167.991 218.198 167.556 223.458 168.769C232.045 170.746 238.228 172.824 243.594 167.091C247.443 162.977 247.576 154.979 241.549 149.606C233.571 142.495 224.878 141.89 218.149 143.087C217.021 144.198 215.983 145.427 215.045 146.767Z" fill="#8A4946"/>
<path d="M228.898 152.888C229.047 153.052 229.212 153.316 229.374 153.536C229.461 153.651 229.535 153.766 229.616 153.881L229.864 154.219C230.023 154.445 230.203 154.659 230.358 154.883L230.865 155.522C231.542 156.363 232.257 157.12 233.015 157.796C233.381 158.156 233.795 158.438 234.183 158.77C234.605 159.043 235 159.375 235.454 159.623C235.677 159.747 235.882 159.927 236.122 160.036C236.355 160.157 236.591 160.284 236.827 160.424C237.057 160.585 237.315 160.675 237.566 160.802C237.818 160.929 238.076 161.063 238.334 161.221L238.551 161.354C239.228 161.773 239.44 162.661 239.02 163.337C238.778 163.731 238.368 163.967 237.939 164.013C236.532 164.156 235.044 164.026 233.661 163.501C232.95 163.287 232.306 162.912 231.648 162.561C231.039 162.146 230.411 161.73 229.886 161.209C228.799 160.21 227.913 159.021 227.276 157.74C227.13 157.411 226.975 157.092 226.848 156.76C226.73 156.422 226.602 156.093 226.512 155.748C226.425 155.404 226.332 155.063 226.279 154.706C226.217 154.343 226.183 154.017 226.161 153.58C226.124 152.804 226.723 152.143 227.5 152.109C227.938 152.087 228.336 152.267 228.609 152.568L228.898 152.888Z" fill="#613331"/>
<path d="M278.176 189.791C277.759 189.921 277.439 190.002 277.079 190.07C276.725 190.145 276.374 190.176 276.019 190.21C275.662 190.247 275.311 190.241 274.954 190.247C274.597 190.241 274.242 190.207 273.885 190.185C272.459 190.03 271.039 189.611 269.722 188.938C269.051 188.628 268.445 188.184 267.842 187.756C267.286 187.263 266.708 186.791 266.261 186.195C265.288 185.082 264.652 183.732 264.301 182.364C264.102 181.594 264.568 180.81 265.338 180.611C265.786 180.496 266.239 180.605 266.581 180.865L266.789 181.027C267.028 181.213 267.243 181.408 267.448 181.601C267.656 181.793 267.83 182.004 268.06 182.162C268.271 182.336 268.473 182.513 268.669 182.69C268.855 182.876 269.091 183.006 269.287 183.174C269.678 183.512 270.126 183.766 270.527 184.067C270.971 184.315 271.381 184.607 271.847 184.824C272.745 185.299 273.705 185.708 274.73 186.053L275.507 186.304C275.771 186.372 276.035 186.468 276.302 186.537L276.706 186.655C276.84 186.689 276.976 186.72 277.113 186.763C277.374 186.838 277.682 186.903 277.887 186.983L278.281 187.139C279.005 187.427 279.356 188.243 279.067 188.966C278.906 189.372 278.57 189.664 278.182 189.788L278.176 189.791Z" fill="#613331"/>
<path d="M240.686 176.931C240.856 177.086 241.055 177.328 241.239 177.53C241.428 177.738 241.611 177.952 241.807 178.154C242.183 178.566 242.559 178.963 242.944 179.336C243.702 180.093 244.485 180.76 245.287 181.309C246.07 181.836 246.974 182.292 247.968 182.686C248.462 182.885 248.978 183.071 249.506 183.254C249.77 183.35 250.037 183.431 250.307 183.521C250.568 183.611 250.87 183.691 251.084 183.784L251.358 183.902C252.035 184.191 252.352 184.976 252.063 185.652C251.889 186.059 251.528 186.338 251.125 186.431C250.724 186.521 250.407 186.57 250.053 186.608C249.708 186.648 249.363 186.654 249.015 186.667C248.322 186.673 247.626 186.605 246.933 186.484C245.548 186.232 244.153 185.717 242.882 184.873C241.643 184.042 240.63 182.978 239.853 181.808C239.462 181.225 239.126 180.614 238.856 179.975C238.728 179.652 238.601 179.332 238.498 178.997C238.393 178.656 238.315 178.346 238.241 177.936C238.107 177.21 238.588 176.515 239.315 176.385C239.741 176.308 240.157 176.441 240.456 176.711L240.692 176.928L240.686 176.931Z" fill="#613331"/>
<path d="M267.516 220.282C266.637 220.282 265.748 220.254 264.847 220.198C253.411 219.482 240.493 214.319 227.488 205.266C199.259 185.615 189.963 161.602 203.23 142.6L204.317 143.357L203.23 142.6C208.813 134.605 216.322 128.167 224.949 123.985C234.205 119.499 244.342 117.917 254.334 119.387C255.772 115.894 257.481 112.367 258.537 110.732C259.376 109.438 260.84 108.799 262.359 109.062C263.884 109.326 265.052 110.428 265.407 111.935C265.73 113.307 267.156 116.437 269.119 120.132C270.446 117.247 272.419 115.469 274.27 114.092C275.426 113.232 276.921 113.13 278.176 113.822C279.434 114.517 280.145 115.844 280.027 117.284C279.552 123.135 281.879 129.017 283.976 132.998C311.279 154.873 308.722 186.313 294.757 206.318C288.354 215.489 278.974 220.282 267.513 220.282H267.516ZM246.837 121.472C228.118 121.472 213.426 132.613 205.401 144.111C190.663 165.226 207.927 188.423 229.001 203.091C241.608 211.868 254.061 216.869 265.012 217.555C276.883 218.296 286.16 214.006 292.585 204.801C305.901 185.724 308.306 155.711 282.112 134.89C281.969 134.779 281.854 134.636 281.767 134.478C279.471 130.184 276.849 123.675 277.387 117.067C277.433 116.496 277.054 116.223 276.893 116.133C276.731 116.043 276.305 115.872 275.855 116.207C273.717 117.796 271.611 119.806 270.688 123.706C270.561 124.237 270.123 124.637 269.582 124.711C269.042 124.786 268.51 124.522 268.243 124.047C265.988 120.02 263.381 114.883 262.831 112.534C262.67 111.845 262.085 111.693 261.908 111.662C261.734 111.631 261.144 111.582 260.765 112.162C259.709 113.794 257.832 117.74 256.403 121.339C256.173 121.919 255.567 122.26 254.949 122.155C252.172 121.686 249.465 121.466 246.837 121.466V121.472Z" fill="#613331"/>
<path d="M163.304 208.753C163.832 209.069 164.344 209.41 164.829 209.783C165.314 210.152 165.792 210.53 166.246 210.934C166.696 211.337 167.147 211.743 167.566 212.178C167.986 212.618 168.368 213.068 168.691 213.608C169.07 214.238 168.865 215.057 168.234 215.435C167.706 215.752 167.047 215.662 166.625 215.255L166.594 215.227C166.196 214.846 165.829 214.39 165.491 213.934L164.487 212.531L163.474 211.132L162.434 209.748L162.421 209.733C162.198 209.435 162.257 209.013 162.555 208.793C162.778 208.625 163.077 208.619 163.304 208.753Z" fill="#613331"/>
<g opacity="0.4">
<path d="M219.652 244.083C219.652 244.083 217.518 248.138 214.103 252.041C207.405 256.056 199.24 254.197 195.783 247.84C195.668 244.713 195.692 241.052 195.596 236.997C195.453 230.886 219.652 244.083 219.652 244.083Z" fill="#613331"/>
</g>
<path d="M191.312 159.434C209.238 172.123 219.845 192.36 222.511 206.215C224.502 216.574 226.826 241.18 215.775 248.195C207.862 253.217 197.715 249.876 195.764 240.494C193.017 227.272 197.156 218.048 189.469 209.966" fill="#D6AF81"/>
<g opacity="0.4">
<path d="M223.853 230.575C223.085 238.098 220.83 244.986 215.772 248.194C207.859 253.217 197.712 249.878 195.761 240.497C193.014 227.271 197.153 218.05 189.466 209.969L189.482 209.516C198.131 211.368 196.739 221.845 199.157 233.494C201.108 242.876 210.35 246.959 218.161 241.781C220.572 240.183 222.473 235.917 223.85 230.578L223.853 230.575Z" fill="#613331"/>
</g>
<path d="M191.566 159.074C194.648 160.504 197.451 162.465 199.936 164.748C200.567 165.31 201.195 165.874 201.803 166.464L203.562 168.288L204.432 169.209L205.252 170.174L206.886 172.107C211.102 177.366 214.88 182.984 217.847 189.043L218.947 191.321L219.954 193.641C220.305 194.408 220.581 195.208 220.889 195.993C221.193 196.781 221.498 197.569 221.749 198.376C222.007 199.182 222.299 199.973 222.526 200.792L223.206 203.243L223.759 205.738C223.933 206.569 224.07 207.397 224.21 208.226C224.751 211.545 225.12 214.884 225.328 218.24C225.54 221.594 225.571 224.97 225.366 228.345C225.142 231.721 224.695 235.112 223.722 238.431C223.237 240.088 222.622 241.729 221.799 243.296C220.979 244.859 219.935 246.355 218.618 247.627L217.58 248.533C217.204 248.8 216.828 249.073 216.449 249.33C215.685 249.805 214.886 250.227 214.057 250.583C213.221 250.931 212.364 251.216 211.481 251.43C210.596 251.632 209.695 251.765 208.785 251.818C205.159 252.026 201.375 250.825 198.653 248.303C197.967 247.686 197.361 246.982 196.823 246.237C196.286 245.492 195.826 244.689 195.459 243.851C195.083 243.02 194.791 242.151 194.583 241.273C194.465 240.823 194.397 240.411 194.322 239.992L194.095 238.735C193.533 235.375 193.356 231.972 193.294 228.646C193.253 226.98 193.235 225.333 193.154 223.71C193.061 222.094 192.887 220.493 192.533 218.982C192.405 218.206 192.144 217.493 191.973 216.739C191.694 216.035 191.523 215.278 191.181 214.595C191.026 214.248 190.905 213.875 190.737 213.528C190.56 213.187 190.392 212.833 190.227 212.47C190.137 212.296 190.075 212.098 189.973 211.927C189.876 211.753 189.774 211.583 189.684 211.4C189.497 211.04 189.311 210.671 189.143 210.27L189.128 210.23C189.031 209.997 189.143 209.73 189.376 209.634C189.513 209.578 189.665 209.594 189.786 209.665C192.819 211.477 194.76 214.974 195.307 218.433C195.646 220.17 195.702 221.889 195.804 223.58C195.882 225.271 195.907 226.937 195.944 228.587C196.006 231.888 196.18 235.127 196.711 238.313L196.926 239.502C196.997 239.899 197.066 240.302 197.159 240.656C197.33 241.391 197.572 242.101 197.88 242.778C198.178 243.46 198.548 244.106 198.979 244.704C199.411 245.303 199.89 245.868 200.44 246.358C202.608 248.368 205.65 249.349 208.638 249.184C209.387 249.138 210.133 249.029 210.866 248.865C211.599 248.688 212.317 248.446 213.016 248.157C213.712 247.856 214.383 247.5 215.029 247.099L215.933 246.46L216.772 245.728C218.928 243.649 220.289 240.724 221.175 237.693C222.069 234.643 222.504 231.417 222.716 228.181C222.914 224.939 222.883 221.669 222.678 218.405C222.476 215.141 222.113 211.88 221.591 208.654C221.457 207.85 221.321 207.041 221.156 206.25L220.631 203.885L219.982 201.543C219.767 200.761 219.481 199.998 219.236 199.226C218.997 198.45 218.702 197.69 218.406 196.933C218.108 196.176 217.844 195.406 217.502 194.665L216.53 192.422L215.464 190.219C215.284 189.853 215.116 189.481 214.924 189.121L214.343 188.044C213.951 187.328 213.581 186.599 213.168 185.894C212.326 184.495 211.525 183.071 210.605 181.722C210.152 181.042 209.726 180.344 209.251 179.68L207.818 177.692C207.349 177.021 206.827 176.395 206.318 175.756C205.802 175.123 205.305 174.474 204.777 173.854L203.146 172.03L202.332 171.117L201.477 170.243L199.79 168.474C199.228 167.885 198.622 167.342 198.05 166.759C196.92 165.58 195.683 164.522 194.533 163.349C193.968 162.75 193.353 162.21 192.769 161.624C192.182 161.044 191.601 160.448 191.051 159.8L191.032 159.778C190.871 159.589 190.895 159.306 191.082 159.145C191.219 159.027 191.408 159.009 191.56 159.08L191.566 159.074Z" fill="#613331"/>
</g>
<defs>
<clipPath id="clip0_799_25212">
<rect width="241" height="204.073" fill="white" transform="translate(64 109)"/>
</clipPath>
</defs>
</svg>
