<svg width="114" height="73" viewBox="0 0 114 73" fill="none" xmlns="http://www.w3.org/2000/svg">
<g clip-path="url(#clip0_1238_5712)">
<path d="M107.826 41.5893C107.826 41.5893 98.2389 65.2489 70.4567 68.4796C70.4567 68.4796 67.6349 74.4889 61.6636 70.858C61.6636 70.858 24.0395 75.8381 7.80602 48.1729C7.80602 48.1729 1.03762 46.8671 0.753606 43.92C0.621444 42.5525 1.19368 41.7522 2.15678 41.213C3.58385 40.4127 5.86858 40.1853 7.99021 39.531C7.99021 39.531 8.70445 35.1012 15.8665 32.1205C16.0704 32.0348 16.2729 31.9534 16.4725 31.8705C23.3675 29.0933 29.1868 28.2172 36.7496 23.706C36.7496 23.706 54.3863 19.8814 66.5171 23.2932C78.6479 26.7051 84.4392 32.7424 95.4607 33.7211C101.145 34.2251 105.54 34.6351 108.542 35.2852C110.903 35.7934 112.404 36.4519 112.99 37.4193C113.104 37.6075 113.185 37.8068 113.23 38.0202C113.8 40.7174 107.826 41.5879 107.826 41.5879V41.5893Z" fill="white"/>
<g opacity="0.2">
<path d="M108.449 36.5981C104.819 40.132 100.321 42.7702 95.1964 44.1462C95.3567 45.8226 95.5085 47.5496 95.0221 49.1614C94.5342 50.7733 93.2393 52.263 91.5634 52.4525C90.4189 52.5817 89.3053 52.1057 88.189 51.8361C84.6459 50.9769 80.9566 52.1605 77.3123 52.2237C74.2444 52.2798 71.2258 51.5413 68.1917 51.0723C65.1576 50.6034 61.9632 50.4209 59.1034 51.5357C56.2197 52.6617 53.9983 54.9714 51.4745 56.7615C48.9508 58.5517 45.6369 59.8546 41.8154 58.1417C35.2368 52.3318 26.3622 49.1867 17.6662 49.3833C15.3168 48.6279 13.3484 46.7746 12.4542 44.4776C11.5614 42.1791 11.7611 39.4848 12.9843 37.3436C13.9165 35.7121 15.3759 34.4344 16.5682 32.9897C23.4631 30.2125 29.2825 29.3364 36.8453 24.8252C36.8453 24.8252 54.4819 21.0005 66.6128 24.4124C78.7436 27.8242 84.5348 33.8616 95.5563 34.8402C101.241 35.3443 105.636 35.7542 108.638 36.4043C108.574 36.4689 108.51 36.5335 108.446 36.5953L108.449 36.5981Z" fill="#484848"/>
</g>
<path d="M65.3094 72.7563C64.0918 72.7563 62.818 72.3744 61.5006 71.612C59.8992 71.7889 51.0583 72.6145 40.6808 70.6067C33.9588 69.3066 27.9074 67.0896 22.6954 64.0176C16.256 60.2238 11.0918 55.1131 7.33786 48.823C5.61693 48.4495 0.317777 47.0525 0.0239267 43.9903C-0.291014 40.7203 2.60672 40.0632 5.40885 39.4286C6.05982 39.2811 6.72906 39.1295 7.38144 38.9442C7.77793 37.6552 9.41028 34.0118 15.5825 31.4438C18.1527 30.3739 20.5864 29.5778 22.9401 28.807C27.3028 27.3791 31.4224 26.0298 36.3714 23.0757C36.4403 23.0349 36.5148 23.0055 36.5922 22.9886C37.3191 22.8314 54.548 19.1668 66.714 22.5871C71.9723 24.0655 75.9738 25.9947 79.843 27.8592C84.9482 30.3191 89.3573 32.4434 95.524 32.991C101.378 33.5105 105.439 33.898 108.41 34.5088C110.904 35.0213 113.512 35.8216 113.945 37.8687C114.086 38.5328 113.949 39.1871 113.549 39.7613C112.437 41.3535 109.474 42.0359 108.34 42.2437C107.703 43.6702 105.208 48.8146 100.095 54.3184C96.6347 58.0433 92.6895 61.1505 88.3703 63.5528C83.0782 66.4957 77.2082 68.3813 70.9193 69.1606C70.4525 69.9665 69.1576 71.8493 66.9375 72.5176C66.4075 72.6777 65.8648 72.7563 65.3094 72.7563V72.7563ZM61.6623 70.1251C61.7958 70.1251 61.928 70.1616 62.0433 70.2318C63.6714 71.2217 65.1758 71.5194 66.5157 71.1164C68.6936 70.4607 69.7804 68.1918 69.7917 68.1693C69.8999 67.9404 70.1179 67.7818 70.3709 67.7523C84.4744 66.1124 93.7145 59.0248 98.9813 53.3665C104.709 47.2154 107.122 41.3703 107.146 41.3128C107.244 41.0727 107.462 40.9014 107.719 40.8635C109.13 40.6571 111.634 39.9466 112.347 38.9245C112.515 38.6816 112.567 38.4429 112.511 38.1733C112.036 35.9297 104.692 35.2782 95.3946 34.4512C88.9623 33.8798 84.2227 31.5968 79.2075 29.179C75.3945 27.3426 71.4521 25.4429 66.3175 23.9981C55.0035 20.8166 38.5549 24.0796 37.0196 24.3969C31.9763 27.3903 27.6164 28.8182 23.3984 30.1998C21.0715 30.9622 18.6645 31.7498 16.1478 32.7973C9.50729 35.559 8.71853 39.6111 8.7115 39.6518C8.6637 39.9214 8.46827 40.1474 8.20535 40.2289C7.37722 40.4844 6.54207 40.6739 5.73363 40.8579C2.57719 41.5725 1.309 42.0429 1.48334 43.8513C1.64924 45.5811 5.53538 46.9795 7.94524 47.4555C8.15895 47.4976 8.33329 47.6296 8.43733 47.8037C16.6764 61.8441 30.6477 67.1682 40.9184 69.162C52.1114 71.3354 61.4739 70.1434 61.5667 70.1308C61.599 70.1265 61.6313 70.1251 61.6623 70.1251V70.1251Z" fill="#484848"/>
<path d="M103.686 38.4822C103.686 38.4822 103.651 38.5411 103.549 38.6464C103.009 39.1968 100.602 40.9743 91.7264 41.5009C91.7264 41.5009 91.7602 41.5317 91.8178 41.5949H91.8192C92.3071 42.1032 94.4807 44.7091 93.4572 49.8858C93.3278 50.5359 92.577 50.8476 92.0217 50.4867C90.7619 49.6654 88.5587 48.434 86.1067 48.0002C86.073 47.9917 86.0378 47.9875 86.0013 47.9805C86.0013 47.9805 85.8382 48.6123 79.7826 48.6123C73.727 48.6123 60.1494 53.8129 40.1071 49.8409C31.2086 48.076 28.4698 43.6603 28.5654 38.8556C28.6835 32.8379 33.2459 26.2122 35.7134 23.421C36.4951 22.5364 37.3865 21.6098 38.3834 20.6803C44.1324 15.3183 53.4021 9.89304 65.727 12.3277C80.1889 15.1863 80.9988 25.52 84.1918 27.9013C87.3552 30.2629 97.1352 27.7469 102.08 31.2738C102.122 31.3005 102.164 31.3314 102.204 31.3623C102.204 31.3623 108.105 31.6473 108.861 33.1608C108.881 33.1945 108.895 33.2296 108.906 33.2661C108.933 33.3476 108.953 33.4318 108.962 33.5161C109.237 35.7541 103.683 38.4822 103.683 38.4822H103.686Z" fill="#BCBCBC"/>
<g opacity="0.59">
<path d="M108.864 33.1603C106.933 32.4105 104.784 32.221 102.725 32.7082C99.6547 30.9307 95.5759 30.6864 92.0272 30.6457C88.4785 30.6049 84.65 30.8436 82.2838 28.2784C80.5755 26.4279 79.6911 23.9554 78.2725 21.876C76.4264 19.169 74.0827 17.2202 71.4057 15.8807C71.4071 15.9439 71.3986 16.0043 71.3804 16.0633C71.1765 16.6993 69.845 16.8425 68.4053 16.3834C66.9656 15.9243 65.9631 15.0383 66.1656 14.4023C66.2007 14.2928 66.271 14.1959 66.3666 14.1173C64.1888 13.6315 61.8829 13.4152 59.5124 13.4152C50.4776 13.4152 43.4449 17.6147 37.5439 22.3674C37.8026 21.7904 38.0824 21.2273 38.3875 20.6784C44.1366 15.3163 53.4063 9.89109 65.7311 12.3257C80.1931 15.1843 81.0029 25.5181 84.1959 27.8993C87.3594 30.2609 97.1394 27.7449 102.084 31.2719C102.126 31.2985 102.169 31.3294 102.208 31.3603C102.208 31.3603 108.109 31.6453 108.865 33.1589L108.864 33.1603Z" fill="white"/>
</g>
<path d="M55.227 52.0697C50.6575 52.0697 45.5665 51.6681 39.9664 50.5575C33.6465 49.3051 29.7463 46.6121 28.3741 42.5531C27.321 39.4375 27.7892 35.6536 29.7646 31.3039C31.3225 27.8752 33.5762 24.7329 35.165 22.9358C40.0578 17.4066 50.5535 8.58504 65.8703 11.6094C76.6739 13.7449 80.1171 19.9648 82.3962 24.0801C83.1906 25.5136 83.8753 26.752 84.6303 27.315C85.869 28.2402 88.5868 28.3133 91.4648 28.3905C95.2596 28.493 99.5577 28.6081 102.458 30.644C102.948 30.6749 104.185 30.7689 105.481 30.9908C107.974 31.4162 109.283 32.0677 109.603 33.0365C110.477 35.6718 105.523 38.376 104.158 39.064C104.133 39.0921 104.105 39.123 104.074 39.1553C103.376 39.8657 100.947 41.5155 93.1337 42.1375C93.9562 43.4924 94.9573 46.0828 94.177 50.0282C94.0687 50.5715 93.7003 51.0237 93.1886 51.2385C92.6754 51.4547 92.0905 51.4027 91.6237 51.0995C90.5664 50.4101 88.4771 49.2068 86.1713 48.7561C85.9238 48.8769 85.6202 48.9527 85.3094 49.0145C84.2043 49.2335 82.3456 49.3444 79.7867 49.3444C78.1923 49.3444 76.0229 49.7249 73.2742 50.2065C68.6879 51.011 62.6478 52.0697 55.2298 52.0697H55.227ZM59.7374 12.4616C48.2871 12.4616 40.294 19.3512 36.2631 23.906C33.0982 27.4849 27.6669 35.8895 29.7618 42.0855C30.9541 45.6111 34.4831 47.9783 40.2505 49.1226C54.6744 51.9812 65.7128 50.045 73.0169 48.7645C75.8359 48.2703 78.0616 47.88 79.7839 47.88C84.1678 47.88 85.2701 47.5472 85.4936 47.4546C85.6581 47.2959 85.8943 47.2159 86.1347 47.2608L86.1586 47.265C86.1896 47.2706 86.2219 47.2763 86.2528 47.2819C88.7513 47.727 90.9882 48.9358 92.4251 49.8737C92.5053 49.9257 92.5812 49.906 92.6206 49.8892C92.6655 49.8695 92.7246 49.8288 92.7415 49.7432C93.6807 44.9919 91.7756 42.6162 91.3172 42.1262C91.3045 42.115 91.2933 42.1024 91.2821 42.0897C91.2567 42.0616 91.2385 42.0448 91.2314 42.0378C91.0191 41.837 90.9432 41.5267 91.0416 41.2529C91.1415 40.9777 91.3917 40.7868 91.6842 40.7699C100.533 40.2448 102.685 38.4813 103.026 38.1331C103.045 38.1149 103.057 38.1008 103.064 38.091C103.133 37.952 103.219 37.8958 103.362 37.8242C105.627 36.7094 108.574 34.5851 108.213 33.4956C108.21 33.4886 107.943 32.896 105.235 32.4341C103.687 32.1702 102.185 32.0943 102.171 32.0943C102.024 32.0873 101.882 32.0354 101.764 31.9455C101.737 31.9259 101.71 31.9048 101.682 31.8879C101.674 31.8823 101.665 31.8767 101.657 31.8711C99.1204 30.0627 95.0332 29.9532 91.4269 29.8563C88.1748 29.7692 85.3657 29.6934 83.7544 28.4902C82.7463 27.739 82.0265 26.4375 81.114 24.7905C78.8377 20.6795 75.7206 15.0507 65.5863 13.0471C63.5476 12.6441 61.5961 12.463 59.7374 12.463V12.4616Z" fill="#484848"/>
<g opacity="0.35">
<path d="M103.784 39.6009C103.784 39.6009 103.749 39.6599 103.648 39.7652C103.108 40.3155 100.701 42.0931 91.8248 42.6196C91.8248 42.6196 91.8586 42.6505 91.9162 42.7136H91.9176C92.2649 43.0759 93.4656 44.4996 93.7608 47.156C93.6048 46.0581 93.273 44.998 92.7176 44.0208C91.2118 41.363 88.3211 39.7581 85.384 38.9045C82.4666 38.0592 79.4072 37.829 76.3702 37.8009C73.4416 37.7742 70.4159 37.9567 67.7923 39.2569C67.3002 39.5012 66.825 39.7946 66.3779 40.1274C64.2549 41.714 65.8535 45.0921 68.432 44.4659C73.6778 43.191 79.1892 42.9973 84.5067 43.9309C85.997 44.1935 87.4859 44.5459 88.8441 45.2128C90.2023 45.8798 91.4283 46.8837 92.151 48.2105C92.7331 49.2804 92.9538 50.4766 92.9721 51.6911C92.705 51.7936 92.39 51.7781 92.1201 51.6026C90.8603 50.7813 88.6571 49.5499 86.2051 49.1161C86.1713 49.1077 86.1362 49.1034 86.0996 49.0964C86.0996 49.0964 85.9365 49.7282 79.881 49.7282C73.8254 49.7282 60.2478 54.9288 40.2055 50.9568C31.307 49.1919 28.5682 44.7762 28.6638 39.9716C30.4663 36.1006 33.6944 32.6972 36.8747 29.7122C40.6849 26.1361 44.827 22.5923 49.8857 21.2697C56.2857 19.5947 63.5744 22.0658 67.6306 27.2832C68.7737 28.7532 69.8001 30.5097 71.5533 31.1415C73.2152 31.7382 75.0556 31.1387 76.8173 31.2665C79.888 31.4939 82.3007 33.8443 84.9847 35.3466C88.7654 37.4639 93.2969 37.9301 97.6034 37.4513C101.522 37.0174 105.311 35.8535 109.062 34.6306C109.336 36.8686 103.783 39.5967 103.783 39.5967L103.784 39.6009Z" fill="#484848"/>
</g>
<path d="M54.1782 53.1436C47.6305 55.8828 31.8033 57.1324 20.6679 50.4015C14.0486 46.3999 12.6074 41.3103 16.4556 34.7843C16.7396 34.3013 17.0518 33.8099 17.3962 33.3114C17.4328 33.2567 17.4707 33.2019 17.5073 33.1458C18.4859 31.6771 19.4475 29.6623 19.9439 28.007C21.714 22.117 26.6729 17.1944 32.7974 15.7005C32.2448 14.392 32.4234 12.8026 33.2515 11.6499C34.1935 13.0272 35.6473 14.0466 37.4048 14.5955C37.1222 12.8489 37.6804 10.9843 38.8768 9.67578C40.5936 12.6481 44.2449 13.7868 47.5419 14.7542C53.6706 16.5528 57.859 20.7102 60.2717 25.6819C61.1054 27.3948 61.7283 29.2046 62.1473 31.0467C64.231 40.2039 61.284 50.1712 54.1768 53.145L54.1782 53.1436Z" fill="#BCBCBC"/>
<g opacity="0.61">
<path d="M17.5087 33.1441C17.5087 33.1441 17.5185 33.1315 17.5214 33.123C17.16 33.8138 16.8156 34.3811 16.457 34.7826C16.741 34.2996 17.0532 33.8082 17.3976 33.3098C17.4342 33.255 17.4722 33.2003 17.5087 33.1441V33.1441Z" fill="white"/>
</g>
<g opacity="0.61">
<path d="M17.5214 33.1256C18.1498 31.9293 18.8317 30.3638 19.7316 28.6621C19.2043 30.1644 18.3706 31.8493 17.5214 33.1256Z" fill="white"/>
</g>
<g opacity="0.61">
<path d="M62.1487 31.0448C59.8316 25.6322 55.7177 20.5734 50.5521 17.7302C50.5381 17.7218 50.5212 17.7148 50.5072 17.7064C50.5086 17.7738 50.4987 17.8383 50.4776 17.9015C50.2724 18.4856 49.0688 18.5993 47.7852 18.1514C46.5029 17.705 45.6298 16.8695 45.8337 16.2855C45.8744 16.1675 45.956 16.0692 46.0685 15.9934C43.7641 15.2802 41.4287 14.5529 39.0878 12.5212C39.1187 13.7736 39.0892 14.6189 39.3802 15.693C39.4646 16.0047 39.2129 16.3051 38.8881 16.2869C37.021 16.1788 35.4153 15.8558 33.9208 14.6287C34.1429 15.2563 34.2273 15.7182 34.3369 16.2082C34.4649 16.7867 34.0585 17.3483 33.4694 17.4045C30.6111 17.6755 28.3024 18.9068 26.3608 20.4105C23.1509 22.8957 21.1643 25.9509 19.7316 28.6593C19.8089 28.4375 19.8806 28.2184 19.9439 28.005C21.714 22.1151 26.6729 17.1925 32.7974 15.6986C32.2448 14.39 32.4234 12.8006 33.2515 11.6479C34.1935 13.0253 35.6473 14.0446 37.4048 14.5936C37.1222 12.847 37.6804 10.9824 38.8769 9.67383C40.5936 12.6462 44.2449 13.7849 47.5419 14.7523C53.6706 16.5508 57.859 20.7082 60.2717 25.6799C61.1055 27.3928 61.7283 29.2027 62.1473 31.0448H62.1487Z" fill="white"/>
</g>
<path d="M56.5922 39.8359C56.4966 41.3635 56.2618 42.8981 55.8864 44.3892C55.0161 47.8515 53.0843 50.9812 49.6593 52.9819C45.8083 55.2312 40.0719 56.054 31.8314 54.3172C23.5881 52.5804 20.54 50.0039 18.0879 47.7027C17.8559 47.4851 17.6422 47.2661 17.4468 47.047C13.541 42.7029 16.2236 37.9966 18.6306 35.1941C19.9705 33.6342 21.0363 31.8679 21.8264 29.9753C21.9825 29.6004 22.1273 29.2213 22.2637 28.8366C23.2985 25.8853 25.1713 22.1927 28.1927 21.4696C34.2343 20.0234 36.6455 26.5269 36.6455 26.5269C36.6455 26.5269 43.9805 20.8546 51.2087 25.4402C55.1764 27.9591 56.969 33.8308 56.5922 39.8359V39.8359Z" fill="#D9D9D9"/>
<path d="M32.6989 32.9167C32.1365 34.9413 30.4943 36.5602 28.5681 37.404C25.4834 38.7519 21.624 38.3588 19.0693 40.5505C17.8981 41.5572 17.1572 43.0441 17.0587 44.5829C17.0053 45.4183 17.1445 46.2636 17.4468 47.0456C13.541 42.7015 16.2236 37.9951 18.6306 35.1927C19.9705 33.6328 21.0363 31.8665 21.8264 29.9738C22.4226 29.2129 23.0904 28.515 23.8665 27.9324C25.8644 26.43 28.8043 25.874 30.8543 27.3034C32.5808 28.5024 33.2599 30.8921 32.6989 32.9181V32.9167Z" fill="#686868"/>
<path d="M29.3738 33.4506C29.4075 33.8311 29.2754 34.2298 29.0392 34.5668C28.803 34.9038 28.4627 35.1747 28.0845 35.3573C27.3211 35.7237 26.4086 35.735 25.6198 35.4556C24.8297 35.1747 24.1309 34.5893 23.771 33.8226C23.5924 33.4422 23.501 33.0167 23.5319 32.6067C23.5629 32.1968 23.7133 31.8036 23.9819 31.5312C24.0479 32.288 24.3601 32.8005 24.7425 33.2049C25.1291 33.6078 25.6001 33.8886 26.1105 34.0768C26.6251 34.2551 27.1678 34.3351 27.7232 34.2677C28.2771 34.1975 28.8437 33.9953 29.3724 33.4506H29.3738Z" fill="#484848"/>
<path d="M56.5922 39.8349C56.4966 41.3625 56.2618 42.8971 55.8864 44.3882C55.0161 47.8506 53.0843 50.9802 49.6593 52.9809C50.4875 52.1118 51.0189 50.9423 50.9669 49.7474C50.9022 48.2297 49.9419 46.8818 48.8115 45.8638C46.9205 44.1636 44.5261 43.1512 42.3566 41.8244C40.1858 40.4962 38.1049 38.6569 37.5271 36.1816C36.9577 33.7456 38.1218 31.0063 40.2702 29.7216C42.5661 28.3484 45.537 28.6713 48.0073 29.7005C51.6066 31.1986 54.6056 34.1513 55.9989 37.7864C56.2534 38.4519 56.4516 39.1357 56.5936 39.8349H56.5922Z" fill="#686868"/>
<path d="M49.6172 36.1558C49.7128 36.6416 49.6454 37.1681 49.4499 37.6553C49.2545 38.1439 48.9255 38.589 48.5135 38.9442C47.6882 39.6617 46.5184 39.9888 45.4162 39.8372C44.3139 39.694 43.2706 39.0692 42.6646 38.158C42.361 37.7059 42.1627 37.1892 42.1037 36.6669C42.0446 36.1446 42.1191 35.6195 42.3413 35.1758C42.524 36.1432 42.9655 36.8887 43.5532 37.4237C44.1395 37.9614 44.858 38.2801 45.6116 38.3854C46.3666 38.4851 47.1441 38.3672 47.8527 38.0035C48.5628 37.6427 49.1856 37.0389 49.6158 36.1544L49.6172 36.1558Z" fill="#484848"/>
<path d="M40.5696 56.0659C40.0846 56.0659 39.6009 56.0589 39.1173 56.0449C34.067 55.8946 26.701 54.902 20.2897 51.0282C16.63 48.8155 14.4521 46.2068 13.818 43.2765C13.1487 40.1792 14.1217 36.7842 16.7916 32.8978C17.7688 31.4755 18.753 29.4256 19.2423 27.7969C21.0462 21.7947 25.9544 16.9226 31.868 15.1914C31.5643 13.8379 31.8455 12.3511 32.6554 11.2222C32.7946 11.0285 33.0125 10.9105 33.2599 10.9161C33.499 10.9189 33.7225 11.0383 33.8575 11.2349C34.5155 12.1966 35.4519 12.9674 36.6006 13.4996C36.6413 11.9144 37.2543 10.3601 38.3369 9.18074C38.4944 9.00944 38.7264 8.92239 38.957 8.94767C39.189 8.97294 39.3956 9.10773 39.5123 9.30991C41.0913 12.0422 44.6315 13.1107 47.7542 14.0514C52.484 15.4779 56.4699 18.4797 59.2833 22.7312C61.7719 26.494 63.2721 31.1723 63.5083 35.9039C63.9273 44.3422 60.3743 51.375 54.458 53.8195C51.0414 55.2319 45.8252 56.0659 40.5696 56.0659V56.0659ZM21.049 49.7744C32.346 56.6037 48.0185 54.8978 53.897 52.466C59.2341 50.2602 62.4313 43.7876 62.0432 35.9755C61.6692 28.4428 57.5919 18.5471 47.3296 15.4526C44.2772 14.5315 40.8565 13.501 38.8431 10.9316C38.202 11.9804 37.9306 13.2679 38.1274 14.4754C38.1682 14.7253 38.0754 14.9794 37.8842 15.1451C37.693 15.3108 37.4273 15.3669 37.1854 15.2911C35.6656 14.8166 34.3721 14.0275 33.3879 12.9815C33.1292 13.7691 33.1489 14.6495 33.4722 15.4147C33.5552 15.6127 33.5482 15.8359 33.4511 16.0283C33.3541 16.2192 33.1784 16.3596 32.9703 16.4102C27.217 17.8142 22.379 22.4475 20.6454 28.2167C20.1084 30.0027 19.0707 32.1649 18.0008 33.7248C15.5712 37.2616 14.6714 40.2845 15.2521 42.9662C15.8046 45.5244 17.7013 47.7512 21.049 49.7758V49.7744Z" fill="#484848"/>
<path d="M31.7499 41.7738C31.7499 41.7738 29.281 40.0342 30.0824 38.8394C30.8838 37.6445 35.3155 38.852 35.3155 40.3164C35.3155 41.7809 31.7499 41.7738 31.7499 41.7738Z" fill="#484848"/>
<path d="M31.3056 44.0514C30.9359 44.0514 30.6181 43.772 30.5773 43.3972C30.4564 42.2599 31.0076 41.4512 31.0708 41.3627C31.3056 41.0342 31.764 40.9583 32.093 41.1928C32.4206 41.4259 32.4979 41.8794 32.2673 42.2079C32.2533 42.229 31.9721 42.6656 32.0339 43.2427C32.0761 43.6443 31.7851 44.0051 31.383 44.0486C31.3563 44.0514 31.3309 44.0528 31.3042 44.0528L31.3056 44.0514Z" fill="#484848"/>
<path d="M33.8941 45.7046C33.4076 45.7046 32.9085 45.5965 32.4473 45.3859C31.9665 45.1655 31.5222 44.8355 31.1383 44.4185C30.7194 44.6221 30.2849 44.7415 29.8575 44.7667C29.0743 44.8117 28.332 44.5449 27.8202 44.0366C27.2241 43.4413 27.009 42.5385 27.2831 41.7888C27.4209 41.4083 27.8427 41.2131 28.2223 41.3507C28.6033 41.4897 28.7988 41.9095 28.661 42.2886C28.5808 42.5076 28.6638 42.8053 28.8564 42.9991C29.0687 43.2097 29.4118 43.3234 29.7717 43.3037C30.1302 43.2827 30.5169 43.131 30.8867 42.8671C31.0469 42.7534 31.2466 42.7084 31.4406 42.7421C31.6346 42.7758 31.8062 42.8867 31.9172 43.0496C32.2322 43.5087 32.6259 43.8555 33.0589 44.0535C33.5046 44.2585 33.9967 44.2964 34.4072 44.1602C34.8136 44.0254 35.1468 43.7011 35.2565 43.3318C35.3718 42.9443 35.7795 42.7239 36.1675 42.8376C36.5556 42.9527 36.7763 43.3599 36.661 43.7474C36.415 44.573 35.7289 45.2638 34.8698 45.5474C34.5605 45.6499 34.2301 45.7018 33.8941 45.7018V45.7046Z" fill="#484848"/>
<path d="M103.686 38.4823C103.686 38.4823 103.65 38.5413 103.549 38.6466L103.409 38.6143C104.884 33.8293 102.081 31.2754 102.081 31.2754C102.124 31.3021 102.166 31.333 102.205 31.3638C102.205 31.3638 108.377 31.6615 108.907 33.2677C109.662 35.5465 103.684 38.4837 103.684 38.4837L103.686 38.4823Z" fill="white"/>
<path d="M91.7263 42.2331C91.5393 42.2331 91.3509 42.1615 91.2089 42.0197C91.1878 41.9986 89.107 39.9628 85.1941 38.5896C81.5849 37.3232 75.625 36.3782 67.729 39.0642C67.3465 39.1948 66.929 38.9898 66.7982 38.6079C66.6675 38.2246 66.8727 37.809 67.2552 37.6784C75.5912 34.8422 81.9196 35.8728 85.7607 37.2375C89.959 38.7286 92.1537 40.8936 92.2451 40.9849C92.5305 41.2713 92.5305 41.7347 92.2451 42.0197C92.1017 42.1629 91.9147 42.2331 91.7277 42.2331H91.7263Z" fill="#484848"/>
<path d="M103.549 39.3794C103.495 39.3794 103.44 39.3738 103.386 39.3611L103.246 39.3288C103.047 39.2839 102.876 39.1576 102.775 38.9806C102.673 38.8051 102.65 38.5945 102.709 38.3994C104.019 34.1493 101.685 31.9071 101.585 31.813C101.308 31.5533 101.273 31.1236 101.508 30.8246C101.736 30.5339 102.141 30.4581 102.455 30.6448C102.942 30.6757 104.183 30.7698 105.483 30.9916C107.975 31.4171 109.284 32.0685 109.605 33.0373C110.478 35.6727 105.525 38.3769 104.16 39.0649C104.134 39.093 104.106 39.1239 104.075 39.1561C103.936 39.2994 103.745 39.378 103.549 39.378V39.3794ZM103.67 32.2202C104.259 33.3125 104.803 34.9932 104.476 37.227C106.479 36.063 108.517 34.4133 108.213 33.4964C108.21 33.4894 107.944 32.8997 105.246 32.4364C104.695 32.3423 104.147 32.2707 103.67 32.2202V32.2202Z" fill="#484848"/>
<path d="M103.452 34.3383C103.147 34.3383 102.862 34.1459 102.759 33.8412C102.628 33.4579 102.834 33.0423 103.217 32.9118C103.307 32.8809 105.452 32.1676 108.86 32.3502C109.265 32.3712 109.574 32.7166 109.553 33.1196C109.532 33.5239 109.184 33.8356 108.782 33.8118C105.654 33.6447 103.711 34.2905 103.691 34.2976C103.613 34.3242 103.534 34.3369 103.455 34.3369L103.452 34.3383Z" fill="#484848"/>
<path d="M93.4586 49.8866C93.3293 50.5366 92.5785 50.8483 92.0231 50.4875C90.7634 49.6661 88.5602 48.4348 86.1082 48.0009C86.1208 47.9069 86.1306 47.8549 86.1306 47.8549C88.5771 42.198 91.8179 41.5957 91.8179 41.5957H91.8193C92.3071 42.104 94.4808 44.7099 93.4572 49.8866H93.4586Z" fill="white"/>
<path d="M104.089 36.5261C103.769 36.5261 103.475 36.3155 103.385 35.9926C103.275 35.6037 103.502 35.1993 103.891 35.0898C103.919 35.0814 106.731 34.2754 108.434 32.856C108.744 32.5962 109.207 32.6383 109.466 32.9486C109.726 33.2589 109.684 33.7209 109.373 33.9792C107.427 35.6023 104.417 36.4629 104.289 36.498C104.223 36.5163 104.155 36.5261 104.089 36.5261V36.5261Z" fill="#484848"/>
<path d="M92.5362 51.3701C92.2171 51.3701 91.8993 51.2789 91.6237 51.0991C90.2979 50.2342 88.2424 49.1194 85.9815 48.7207C85.5935 48.6519 85.3292 48.2896 85.3826 47.8993C85.3981 47.787 85.4093 47.7224 85.4093 47.7224C85.4191 47.6677 85.436 47.6129 85.4571 47.5624C88.0286 41.6162 91.5352 40.9016 91.6828 40.8735C91.9246 40.8286 92.1777 40.91 92.3478 41.0869C92.8456 41.605 95.2737 44.4735 94.1756 50.0264C94.0674 50.5698 93.699 51.0219 93.1872 51.2367C92.9777 51.3252 92.7556 51.3687 92.5348 51.3687L92.5362 51.3701ZM87.1134 47.4669C89.2617 48.0046 91.1542 49.045 92.4252 49.8734C92.5053 49.9254 92.5812 49.9057 92.6206 49.8888C92.6656 49.8692 92.7232 49.8285 92.7415 49.7428C93.5499 45.6557 92.2536 43.3264 91.583 42.4432C90.7773 42.7844 88.8076 43.9385 87.1148 47.4655L87.1134 47.4669Z" fill="#484848"/>
<path d="M92.9876 51.2563C92.9721 51.2563 92.9552 51.2563 92.9398 51.2549C92.5362 51.2282 92.2297 50.88 92.2564 50.477C92.4434 47.5959 90.8842 44.5744 89.2687 43.3178C88.9496 43.0693 88.8919 42.6088 89.1408 42.2901C89.3896 41.9713 89.8494 41.9138 90.17 42.1623C92.3928 43.8921 93.9183 47.5061 93.7201 50.5711C93.6948 50.9586 93.3728 51.2563 92.989 51.2563H92.9876Z" fill="#484848"/>
<path d="M92.6797 51.3559C92.369 51.3559 92.0822 51.1579 91.9824 50.8476C91.2752 48.6461 89.5725 46.8096 87.427 45.9363C87.0516 45.7833 86.8716 45.3564 87.0249 44.9815C87.1781 44.6067 87.6056 44.4269 87.981 44.58C90.523 45.6148 92.5406 47.791 93.3785 50.3997C93.5023 50.7844 93.29 51.1972 92.9047 51.3208C92.8302 51.3447 92.7543 51.3559 92.6812 51.3559H92.6797Z" fill="#484848"/>
<path d="M70.4552 69.2109C70.368 69.2109 70.2809 69.1954 70.1951 69.1631C69.8169 69.0199 69.6271 68.5987 69.7705 68.221C69.8253 68.0778 71.1441 64.6842 74.9305 62.6975C75.289 62.5094 75.7319 62.647 75.9203 63.005C76.1087 63.363 75.9709 63.8053 75.6124 63.9934C72.3364 65.7134 71.1526 68.711 71.1413 68.7405C71.0289 69.0312 70.7505 69.2109 70.4566 69.2109H70.4552Z" fill="#484848"/>
<g opacity="0.2">
<path d="M54.181 53.4229C47.6333 56.1622 31.8061 57.4118 20.6708 50.6808C13.5621 46.3831 12.4247 40.8301 17.399 33.5894C17.4356 33.5347 17.4735 33.4799 17.5101 33.4237C16.5526 35.6646 16.7396 38.3884 17.8264 40.6068C19.1664 43.3363 21.6845 45.3525 24.4486 46.6288C27.2128 47.905 30.2314 48.5144 33.2304 49.0409C37.1039 49.7219 41.0449 50.2863 44.9591 49.9044C48.872 49.5239 52.8031 48.117 55.5771 45.3342C58.2021 42.7017 59.5954 39.0469 60.1325 35.3711C60.5852 32.2598 60.4742 29.1021 60.2759 25.957C65.2503 36.1869 62.7195 49.8496 54.181 53.4215V53.4229Z" fill="#484848"/>
</g>
<path d="M61.6623 71.588C61.5034 71.588 61.3417 71.536 61.2082 71.4293C61.166 71.3956 56.986 68.106 54.593 67.5205C54.1993 67.4236 53.9589 67.0277 54.0559 66.6359C54.1529 66.2428 54.5494 66.0027 54.9417 66.0996C57.6454 66.7609 61.9379 70.1404 62.1192 70.2836C62.437 70.535 62.4904 70.9955 62.2388 71.3114C62.0939 71.4939 61.8802 71.5894 61.6637 71.5894L61.6623 71.588Z" fill="#484848"/>
<path d="M16.9253 48.9159C16.9253 48.9159 30.8066 45.9309 43.5476 58.6515C43.5476 58.6515 34.6323 60.6228 27.3703 57.6645C20.1098 54.7075 16.9267 48.9159 16.9267 48.9159H16.9253Z" fill="white"/>
<path d="M43.5461 59.3823C43.3591 59.3823 43.1707 59.3107 43.0273 59.1675C36.6076 52.7566 29.9011 50.5059 25.4047 49.7449C20.5217 48.9194 17.1108 49.6228 17.0771 49.6298C16.6806 49.7141 16.2925 49.4627 16.2068 49.0668C16.1224 48.6723 16.3727 48.2833 16.7692 48.1977C16.9168 48.1654 20.436 47.4325 25.5777 48.289C30.3032 49.0766 37.3457 51.4228 44.0635 58.1313C44.3504 58.4177 44.3504 58.8811 44.0635 59.1661C43.9201 59.3093 43.7331 59.3809 43.5447 59.3809L43.5461 59.3823Z" fill="#484848"/>
<path d="M48.8004 58.4166C48.8004 58.4166 59.192 42.6773 77.931 53.0532L48.8004 58.4166Z" fill="white"/>
<path d="M48.7989 59.1478C48.6597 59.1478 48.5205 59.1085 48.3954 59.027C48.058 58.8038 47.9652 58.3517 48.1873 58.0133C48.297 57.8462 50.9459 53.8924 55.9919 51.1981C60.6598 48.7059 68.3168 46.8933 78.2852 52.4126C78.6395 52.6091 78.7675 53.0542 78.5706 53.408C78.3738 53.7619 77.9281 53.8882 77.5738 53.6931C70.056 49.5301 63.0458 49.1159 56.7357 52.4603C51.9975 54.9721 49.4358 58.7813 49.4105 58.8192C49.2699 59.0312 49.0365 59.1478 48.7989 59.1478V59.1478Z" fill="#484848"/>
<path d="M15.3824 35.6373C15.3824 35.6373 15.3811 35.6414 15.3797 35.6455C15.3605 35.6209 15.366 35.6236 15.3824 35.6373Z" fill="white"/>
<g opacity="0.2">
<path d="M107.466 41.8575C107.466 41.8575 97.8789 65.517 70.0967 68.7477C70.0967 68.7477 67.2749 74.757 61.3037 71.1262C61.3037 71.1262 23.6795 76.1063 7.44604 48.4411C7.44604 48.4411 0.67763 47.1353 0.393621 44.1882C0.261458 42.8207 0.833694 42.0204 1.79679 41.4812C2.01472 42.3784 2.69943 43.2222 3.55006 43.6406C4.2418 43.9804 4.99259 44.1194 5.76589 44.1545C7.22951 44.2219 8.58067 44.9464 9.39754 46.1623C13.8194 52.7599 20.4865 57.5645 27.7569 60.492C35.7808 63.7227 44.5246 64.8122 53.1757 64.9358C57.1265 64.961 60.2815 69.4441 64.1887 68.7646C65.949 68.4585 67.3311 67.1527 68.7863 66.1208C71.7614 64.0077 75.3171 62.9125 78.7027 61.5506C85.1252 58.9672 91.1147 55.3195 96.3548 50.7984C99.2427 48.3063 102.001 45.3578 103.4 41.88C104.069 40.2162 105.612 39.0747 107.399 38.8908C109.186 38.7068 110.948 38.3025 112.635 37.6875C112.749 37.8756 112.829 38.075 112.874 38.2884C113.445 40.9842 107.471 41.8547 107.471 41.8547L107.466 41.8575Z" fill="#484848"/>
</g>
<path d="M12.6468 19.4262C12.5048 19.4262 12.3684 19.3602 12.2799 19.2422C12.1604 19.0822 12.159 18.8645 12.2742 18.7031L15.4813 14.2143L11.3899 15.7391C11.1523 15.8276 10.8894 15.7068 10.8008 15.471C10.7122 15.2337 10.8331 14.9711 11.0693 14.8827L16.5639 12.8356C16.7523 12.7654 16.9646 12.8258 17.0869 12.9858C17.2093 13.1459 17.2135 13.3663 17.0968 13.5306L13.8518 18.0713L18.0233 16.6363C18.2623 16.5535 18.5238 16.6813 18.6054 16.9199C18.6883 17.1586 18.5604 17.4198 18.3214 17.5012L12.7973 19.4009C12.7481 19.4177 12.6975 19.4262 12.6482 19.4262H12.6468Z" fill="#484848"/>
<path d="M21.7492 10.0111C21.738 10.0111 21.7253 10.0111 21.7141 10.0097L17.4624 9.56323C17.3176 9.54779 17.1995 9.44108 17.1699 9.29787C17.1404 9.15606 17.2065 9.01004 17.333 8.93843L20.8494 6.95311L17.6648 6.70039C17.4807 6.68635 17.3429 6.52488 17.3569 6.33955C17.3724 6.15562 17.5327 6.01943 17.7183 6.03206L21.9953 6.37184C22.1415 6.38307 22.2638 6.48978 22.2962 6.63299C22.3285 6.77621 22.2624 6.92363 22.1345 6.99664L18.5773 9.00583L21.7872 9.3428C21.9714 9.36245 22.1049 9.52673 22.0853 9.71066C22.067 9.88195 21.9222 10.0097 21.752 10.0097L21.7492 10.0111Z" fill="#484848"/>
<path d="M13.9881 2.7412C13.8855 2.7412 13.7927 2.67662 13.7589 2.57974C13.7238 2.48005 13.7561 2.36913 13.8405 2.30455L16.1772 0.531239L13.8602 0.661815C13.728 0.668835 13.6113 0.56634 13.6029 0.432956C13.5958 0.299572 13.6985 0.18444 13.8321 0.176016L16.9449 0.000510721C17.0504 -0.00650949 17.1502 0.0594805 17.1867 0.159168C17.2233 0.258855 17.191 0.372582 17.1052 0.437168L14.7417 2.23154L17.0855 2.15993C17.2205 2.15572 17.3315 2.26102 17.3358 2.39581C17.34 2.5306 17.2345 2.64152 17.0996 2.64573L13.9951 2.7412C13.9951 2.7412 13.9895 2.7412 13.9881 2.7412Z" fill="#484848"/>
</g>
<defs>
<clipPath id="clip0_1238_5712">
<rect width="114" height="72.7561" fill="white"/>
</clipPath>
</defs>
</svg>
