<svg width="100" height="69" viewBox="0 0 100 69" fill="none" xmlns="http://www.w3.org/2000/svg">
<g clip-path="url(#clip0_1238_7097)">
<path d="M84.8529 35.5574L86.0779 43.8045C86.0779 43.8045 89.4004 41.9118 92.7241 42.1824C96.0466 42.4529 97.7417 43.8045 99.031 41.9118C100.568 39.6537 94.343 32.0425 84.8541 35.5574H84.8529Z" fill="#DADADA"/>
<g opacity="0.6">
<path d="M84.8529 35.5573L85.0279 36.7344C92.9621 34.1274 98.4834 39.2833 98.8488 42.1514C98.9107 42.0779 98.9715 41.9996 99.031 41.9117C100.568 39.6547 94.343 32.0424 84.8541 35.5573H84.8529Z" fill="white"/>
</g>
<path d="M86.0791 44.5396C85.9684 44.5396 85.8588 44.5147 85.7565 44.466C85.5374 44.3592 85.385 44.1527 85.3493 43.913L84.1244 35.6659C84.0732 35.323 84.2708 34.9907 84.597 34.8697C90.8253 32.5616 96.1799 34.7902 98.7227 38.0214C99.9952 39.6388 100.348 41.2882 99.6417 42.3253C98.4762 44.0376 96.9775 43.7137 95.243 43.3387C94.4978 43.1773 93.6538 42.9958 92.6657 42.9151C89.6182 42.6659 86.4767 44.4257 86.4445 44.4435C86.3314 44.5076 86.2053 44.5396 86.0791 44.5396ZM85.6719 36.0516L86.66 42.6979C87.9397 42.1224 90.342 41.2526 92.7848 41.4508C93.8704 41.5386 94.8049 41.7403 95.5549 41.9029C97.2715 42.2743 97.8429 42.3502 98.4215 41.5006C98.6834 41.1161 98.4715 40.0838 97.5632 38.928C95.962 36.8929 91.6979 34.0805 85.6731 36.0516H85.6719Z" fill="#484848"/>
<path d="M43.1866 8.04715C49.3459 5.81626 55.6599 10.5818 56.6456 29.3402L47.459 33.1932C47.459 33.1932 32.6679 11.8563 43.1866 8.04715V8.04715Z" fill="#DADADA"/>
<g opacity="0.6">
<path d="M41.9331 9.40878C47.9686 7.22299 54.1505 11.756 55.3242 29.5852L56.3873 29.1391C55.4016 10.3806 49.0888 5.61509 42.9283 7.84598C41.2497 8.45354 40.2176 9.50965 39.6653 10.8529C40.2331 10.2466 40.9771 9.75528 41.9319 9.40878H41.9331Z" fill="white"/>
</g>
<g opacity="0.2">
<path d="M43.1866 8.04715C49.3459 5.81626 55.6599 10.5818 56.6456 29.3402L47.459 33.1932C47.459 33.1932 32.6679 11.8563 43.1866 8.04715V8.04715Z" fill="#484848"/>
</g>
<path d="M47.459 33.9269C47.2221 33.9269 46.9935 33.813 46.8519 33.6101C46.434 33.0073 36.6558 18.7747 39.0545 11.2775C39.6593 9.38839 40.964 8.06885 42.9341 7.35568C45.4817 6.43247 47.9316 6.67336 50.016 8.04867C54.2504 10.8444 56.7967 18.1933 57.3801 29.3002C57.3967 29.6099 57.2158 29.8959 56.9301 30.0158L47.7435 33.8688C47.6506 33.9079 47.5542 33.9257 47.4578 33.9257L47.459 33.9269ZM45.9233 8.26939C45.1269 8.26939 44.2972 8.42484 43.4377 8.73574C41.8985 9.29346 40.9247 10.2701 40.4592 11.7225C38.5105 17.8088 46.0376 29.712 47.7328 32.2787L55.8801 28.8612C55.1182 15.8271 51.8386 11.0129 49.203 9.2721C48.1899 8.60283 47.0923 8.2682 45.9245 8.2682L45.9233 8.26939Z" fill="#484848"/>
<path d="M69.9391 34.4076C70.4474 34.4076 77.771 36.4356 77.771 36.4356C77.771 36.4356 88.5242 15.5365 77.771 13.5204C68.0392 11.6953 69.9391 34.4076 69.9391 34.4076Z" fill="#DADADA"/>
<g opacity="0.6">
<path d="M78.9555 15.2816C80.3649 15.5462 81.4018 16.1371 82.1446 16.9607C81.5435 15.0205 80.2126 13.5859 77.771 13.1278C68.0392 11.3028 69.9391 34.0151 69.9391 34.0151C70.0451 34.0151 70.4486 34.1029 71.0189 34.2429C70.8177 28.801 70.9724 13.784 78.9567 15.2816H78.9555Z" fill="white"/>
</g>
<g opacity="0.2">
<path d="M69.9391 34.4076C70.4474 34.4076 77.771 36.4356 77.771 36.4356C77.771 36.4356 88.5242 15.5365 77.771 13.5204C68.0392 11.6953 69.9391 34.4076 69.9391 34.4076Z" fill="#484848"/>
</g>
<path d="M77.7711 37.172C77.7056 37.172 77.6389 37.1637 77.5734 37.1447C74.2152 36.2144 70.4035 35.201 69.9094 35.1428C69.5392 35.1286 69.2345 34.8414 69.2035 34.47C69.1499 33.828 67.95 18.7067 73.1093 14.0669C74.4331 12.8767 76.0473 12.4507 77.9068 12.7996C80.0376 13.1995 81.5614 14.3042 82.4364 16.0842C85.641 22.6048 78.7234 36.1977 78.427 36.7733C78.2984 37.0236 78.0425 37.1732 77.7711 37.1732V37.172ZM70.6356 33.7972C71.957 34.0891 74.8069 34.8568 77.3794 35.5664C78.6163 33.0033 83.6637 21.9201 81.1126 16.7297C80.4448 15.371 79.3067 14.5582 77.6353 14.2437C76.2306 13.9803 75.0747 14.2793 74.0986 15.1586C69.9844 18.8586 70.4713 31.0513 70.6368 33.7972H70.6356ZM69.919 35.144C69.9261 35.144 69.9344 35.144 69.9392 35.144C69.9321 35.144 69.9261 35.144 69.919 35.144Z" fill="#484848"/>
<path d="M90.0384 42.9336C89.992 42.962 89.948 42.9905 89.9027 43.019C89.9765 43.5174 90.0289 44.0217 90.0575 44.532C90.073 44.8239 90.0813 45.1158 90.0813 45.4101C90.0813 57.9268 75.7008 68.0725 57.9634 68.0725C46.2317 68.0725 35.9713 63.6345 30.3679 57.0083C29.6656 56.18 29.037 55.3162 28.4883 54.4226C28.2145 54.3419 27.9514 54.2506 27.7014 54.1497C27.6049 54.1105 27.5097 54.0714 27.4181 54.0298C25.4229 53.1422 24.2182 51.6779 23.6158 50.3869C23.1063 49.2999 23.0242 48.3352 23.2503 47.9341C23.5622 47.3847 24.8229 47.3965 25.986 47.5377C25.8943 46.8376 25.8455 46.128 25.8455 45.4101C25.8455 32.8946 40.2235 22.75 57.9634 22.75C71.0439 22.75 82.2982 28.2679 87.3052 36.1851C88.5635 35.9419 90.4872 35.9739 91.4015 38.06C92.4741 40.5045 91.3539 42.0851 90.0396 42.9336H90.0384V42.9336Z" fill="#BBBBBB"/>
<g opacity="0.6">
<path d="M90.0563 44.5299C88.4301 45.7747 86.2826 46.3514 84.2541 46.0155C83.8934 45.955 83.491 45.8767 83.1875 46.0796C82.9744 46.2232 82.8649 46.476 82.7661 46.7133C81.678 49.3393 80.5888 51.9677 79.5007 54.5938C80.3459 52.1172 80.6864 49.471 80.4959 46.864C80.4614 46.381 80.4007 45.8815 80.1495 45.4685C79.7543 44.8218 78.9805 44.5263 78.2615 44.2759C75.5449 43.3266 70.7808 40.6116 69.7879 40.9059C68.7166 41.2227 66.6214 44.073 65.156 45.0366C63.7525 45.9598 61.7966 46.5127 60.0121 46.7524C60.0347 47.3232 58.8907 48.0257 57.3777 48.3544C56.1122 48.6309 54.9706 48.5609 54.504 48.2215C53.7957 48.6368 53.1088 49.14 52.4148 49.7119C50.4398 51.3471 49.1696 53.9316 49.5018 56.4687C49.0613 55.2357 48.6208 53.9969 48.3947 52.7082C42.6258 56.1898 33.9297 57.3219 29.7632 55.746C29.0608 54.9177 29.0358 55.3117 28.4859 54.4193C28.2121 54.3386 27.949 54.2473 27.699 54.1464C34.8499 47.7148 56.4337 32.2885 90.036 42.9303C89.9896 42.9588 89.9456 42.9872 89.9003 43.0157C89.9741 43.5141 90.0265 44.0184 90.0551 44.5287L90.0563 44.5299Z" fill="white"/>
</g>
<path d="M87.3754 36.1832C87.3754 36.1832 86.591 37.6534 82.1137 37.0447C77.6389 36.4359 74.2819 31.6823 69.5011 31.9291C64.7191 32.1771 63.6001 37.1456 59.5324 38.363C55.4623 39.5794 53.3267 38.261 50.2756 40.1881C47.2233 42.114 40.0843 50.627 26.055 47.537C25.9634 46.8368 25.9146 46.1272 25.9146 45.4093C25.9146 42.5626 26.6586 39.838 28.0157 37.3271C32.6298 28.8035 44.3282 22.748 58.0324 22.748C66.9262 22.748 74.9747 25.2981 80.7888 29.4193C83.528 31.3595 85.7719 33.6485 87.3743 36.1832H87.3754Z" fill="#BEBEBE"/>
<g opacity="0.6">
<path d="M58.2027 24.6044C70.3773 24.6044 81.1245 29.7805 87.1767 36.1386C87.4362 35.9523 87.5183 35.8004 87.5183 35.8004C82.5102 27.8819 71.257 22.3652 58.1765 22.3652C43.6937 22.3652 31.4537 29.1279 27.4467 38.4205C32.9572 30.8117 44.6234 24.6044 58.2039 24.6044H58.2027Z" fill="white"/>
</g>
<path d="M57.9622 68.8065C45.0269 68.8065 33.3083 63.412 28.0061 55.0414C24.5669 53.9153 23.2229 51.4056 22.7992 50.3601C22.3373 49.2186 22.2658 48.1755 22.6087 47.5703C22.9658 46.9414 23.7848 46.6673 25.161 46.7278C25.1265 46.2852 25.1086 45.8438 25.1086 45.4095C25.1086 39.1108 28.5597 33.2072 34.8273 28.7858C41.0175 24.4178 49.2339 22.0137 57.9634 22.0137C70.6617 22.0137 82.2518 27.2479 87.6659 35.3859C89.7122 35.151 91.305 36.0018 92.0788 37.7651C93.0538 39.9877 92.5336 42.0513 90.6943 43.3779C90.7765 44.0555 90.8181 44.7378 90.8181 45.4118C90.8181 51.7105 87.3671 57.6141 81.0994 62.0355C74.9092 66.4035 66.6928 68.8076 57.9634 68.8076L57.9622 68.8065ZM23.8836 48.3179C23.8372 48.4924 23.8479 49.1533 24.2908 50.0931C24.6717 50.9024 25.8645 52.8758 28.6978 53.7171C28.8716 53.7693 29.0204 53.8833 29.1156 54.0375C34.0845 62.1162 45.4067 67.3362 57.9622 67.3362C75.2651 67.3362 89.3432 57.5001 89.3432 45.4095C89.3432 44.6536 89.2861 43.8846 89.173 43.1252C89.1289 42.8321 89.267 42.5414 89.5218 42.3883C90.5967 41.7416 91.6776 40.517 90.7277 38.3525C90.1682 37.0793 89.0634 36.5915 87.4456 36.9048C87.148 36.9618 86.8445 36.8312 86.6826 36.5749C81.6518 28.6209 70.3784 23.4815 57.9634 23.4815C40.6604 23.4815 26.5824 33.3176 26.5824 45.4083C26.5824 46.074 26.6276 46.7575 26.7181 47.4398C26.7478 47.6653 26.6716 47.8919 26.5109 48.0533C26.3502 48.2147 26.124 48.293 25.8979 48.2657C24.4324 48.0865 23.9789 48.2669 23.8848 48.3179H23.8836Z" fill="#484848"/>
<g opacity="0.6">
<path d="M50.2363 66.629C52.2672 65.8363 54.1005 64.544 55.5254 62.8982C59.7384 63.4618 64.2906 62.8044 68.4131 61.7685C71.6356 60.958 74.5962 59.7429 77.483 58.1018C77.758 57.9451 78.0437 57.7778 78.3591 57.7612C78.6246 57.747 78.8817 57.8419 79.1329 57.9285C80.5448 58.4115 82.0388 58.6559 83.5304 58.6464C82.1245 59.235 80.5436 59.4035 79.0436 59.1258C78.827 59.0855 78.6044 59.0356 78.3877 59.0772C78.1698 59.1175 77.9806 59.2457 77.7961 59.3679C76.1568 60.4549 74.3926 61.3543 72.5486 62.0426C67.5464 63.9104 62.1073 64.1857 56.7682 64.3494C56.4992 64.3577 56.2266 64.366 55.9695 64.4455C55.3207 64.6449 54.8969 65.243 54.4207 65.7247C52.9588 67.2045 50.597 67.7219 48.6471 66.9885" fill="white"/>
</g>
<g opacity="0.2">
<path d="M87.3754 36.1836C87.3754 36.1836 86.591 37.6539 82.1137 37.0451C77.6389 36.4364 74.2819 31.6827 69.5011 31.9295C64.7191 32.1775 63.6001 37.146 59.5324 38.3635C55.4623 39.5798 53.3267 38.2614 50.2756 40.1886C47.2233 42.1145 40.0843 50.6274 26.055 47.5374C25.9634 46.8373 25.9146 46.1277 25.9146 45.4098C25.9146 42.563 26.6586 39.8385 28.0157 37.3276C29.1597 36.8873 30.3358 36.5313 31.5048 36.2489C35.844 35.1987 40.3593 34.8772 44.8044 35.302C47.5162 35.5618 50.2458 36.097 52.9433 35.7197C56.417 35.2343 59.4895 33.2906 62.3787 31.3066C63.9537 30.2243 65.6072 29.0792 67.5119 28.8977C69.2856 28.7268 71.0117 29.4186 72.7367 29.866C75.0818 30.4735 77.6163 30.6278 79.8948 29.8102C80.2162 29.6951 80.5114 29.5658 80.7888 29.4186C83.528 31.3588 85.7719 33.6478 87.3743 36.1825L87.3754 36.1836Z" fill="#484848"/>
</g>
<path d="M37.3879 7.59737C40.2283 11.6581 43.3139 9.10321 48.0268 13.8249C52.0862 17.8903 53.4599 29.5419 45.2198 39.3163C35.7094 50.5988 18.6707 49.9391 10.1258 42.309C1.58323 34.6789 -3.90943 21.0634 6.16045 8.79469C16.2303 -3.47399 32.0988 0.0349084 37.3879 7.59737Z" fill="#DADADA"/>
<g opacity="0.6">
<path d="M51.1994 24.6056C50.953 20.9294 49.7209 17.8916 48.0209 16.1852C43.3068 11.4648 40.2224 14.0196 37.382 9.95772C35.1892 6.82618 31.1823 4.38763 26.5241 3.48104C26.4979 4.20608 24.8658 4.79228 22.8528 4.79228C20.8398 4.79228 19.1803 4.19658 19.1803 3.46205C19.1803 3.4312 19.1839 3.39916 19.191 3.37068C14.6067 4.12894 9.96396 6.51172 6.15338 11.1562C2.6797 15.3878 1.05714 19.7795 0.773814 24.0325C0.440492 18.9465 1.92377 13.5568 6.15338 8.40204C16.2221 -3.86782 32.0906 -0.356556 37.3808 7.2059C40.22 11.2654 43.3056 8.71175 48.0197 13.4334C50.1316 15.548 51.516 19.7155 51.1982 24.6056H51.1994Z" fill="white"/>
</g>
<g opacity="0.2">
<path d="M49.4375 15.6934C49.9065 20.8588 48.4185 27.377 43.4889 33.226C33.9785 44.5085 16.9398 43.8488 8.39492 36.2187C5.25812 33.417 2.53441 29.8084 0.839233 25.7573C1.73444 32.1639 5.43907 37.9808 10.0234 42.0747C18.5684 49.7048 35.607 50.3658 45.1174 39.082C52.2148 30.6616 52.1791 20.8505 49.4387 15.6934H49.4375Z" fill="#484848"/>
</g>
<path d="M26.0943 48.6673C19.8207 48.6673 13.7805 46.5574 9.63537 42.8563C4.84268 38.5761 1.57732 33.0998 0.440458 27.4359C-0.913064 20.6899 0.866634 14.0838 5.59027 8.32982C10.2056 2.70515 16.5185 -0.247211 23.3718 0.0162227C29.3716 0.246431 35.1106 3.05758 37.9927 7.17878C39.2426 8.96468 40.5188 9.30643 42.1354 9.73837C43.8687 10.2023 46.0257 10.7791 48.5494 13.3078C50.8375 15.6004 52.1493 19.8723 51.9719 24.4586C51.7636 29.8579 49.5661 35.3033 45.7853 39.79C41.4176 44.9721 35.1226 48.1001 28.0609 48.5985C27.405 48.6447 26.7478 48.6673 26.0943 48.6673V48.6673ZM22.5373 1.46867C16.4589 1.46867 10.871 4.21456 6.73071 9.26015C-2.76657 20.8311 1.84041 33.9221 10.6199 41.7622C14.9054 45.5891 21.3849 47.5981 27.9573 47.133C34.6178 46.6631 40.5485 43.719 44.6579 38.8443C52.4029 29.6549 51.5362 18.3819 47.5066 14.3437C45.2615 12.095 43.4794 11.618 41.7556 11.1576C40.0009 10.6877 38.3427 10.2451 36.7856 8.01893C34.1583 4.26202 28.8716 1.69769 23.317 1.48528C23.0575 1.47579 22.7968 1.46986 22.5385 1.46986L22.5373 1.46867Z" fill="#484848"/>
<path d="M16.5578 33.7198C17.2328 33.861 17.9042 33.9073 18.5411 33.8195C19.1768 33.7341 19.766 33.5217 20.2577 33.1858C20.7493 32.8488 21.1386 32.386 21.4398 31.8236L21.5017 31.7203L21.5505 31.6088C21.5826 31.534 21.6148 31.4593 21.6505 31.3845C21.6826 31.3086 21.7255 31.2362 21.7517 31.1555L21.8338 30.9134C21.9659 30.5942 22.0255 30.2442 22.1528 29.8917L22.1778 29.8241C22.2612 29.5915 22.5183 29.4705 22.7516 29.5535C22.9123 29.6105 23.0195 29.7505 23.0433 29.9083C23.104 30.3142 23.1623 30.7307 23.1171 31.1555L23.0945 31.4747C23.0897 31.5827 23.0564 31.6871 23.0361 31.7939C23.0135 31.9007 22.9897 32.0075 22.9635 32.1131L22.9242 32.2733L22.8647 32.4288C22.779 32.6352 22.7135 32.8512 22.5957 33.0458C22.5397 33.1443 22.4802 33.2428 22.4207 33.3401C22.36 33.4374 22.3052 33.5383 22.2266 33.6249C21.9421 33.9892 21.604 34.3179 21.2183 34.5778C20.4481 35.1046 19.5291 35.3621 18.6434 35.3752C17.7554 35.3882 16.8828 35.177 16.1388 34.7546C15.8673 34.6003 15.7721 34.2562 15.9269 33.9856C16.0519 33.7673 16.3007 33.6629 16.534 33.7127L16.5578 33.7175V33.7198Z" fill="#484848"/>
<path d="M35.8153 13.6972C36.2213 14.4484 36.4129 15.3229 36.3796 16.207C36.3463 17.0899 36.0665 17.9988 35.5201 18.7547C35.2511 19.1332 34.9142 19.4631 34.5416 19.7372C34.4535 19.8132 34.3511 19.8654 34.2523 19.9235C34.1535 19.9805 34.0535 20.0375 33.9535 20.0921C33.7547 20.2048 33.5368 20.2653 33.3285 20.346L33.1702 20.4018L33.0083 20.4374C32.9011 20.4611 32.7928 20.4825 32.6857 20.5026C32.5785 20.5204 32.4726 20.5501 32.3643 20.5525L32.0428 20.5679C31.6155 20.6035 31.1988 20.5347 30.7941 20.4647C30.55 20.4219 30.3869 20.1905 30.4286 19.9473C30.4572 19.78 30.5774 19.6506 30.7286 19.5996L30.7976 19.577C31.1536 19.4584 31.506 19.4074 31.8298 19.2828L32.0738 19.2068C32.1547 19.1831 32.2286 19.1404 32.3059 19.1107C32.3821 19.0775 32.4583 19.0466 32.5333 19.0158L32.6464 18.9707L32.7512 18.9113C33.3226 18.6242 33.7952 18.2468 34.144 17.765C34.4916 17.2833 34.7189 16.7006 34.8189 16.0693C34.9213 15.4369 34.8916 14.7664 34.7654 14.0912L34.7606 14.0675C34.7035 13.7613 34.9058 13.467 35.213 13.4101C35.4606 13.3638 35.701 13.4872 35.8153 13.6972V13.6972Z" fill="#484848"/>
<path d="M66.2773 36.5374L58.6478 41.5059C49.8577 35.5679 43.7329 24.1465 45.1781 17.0065C45.2102 16.8427 45.2471 16.6802 45.2888 16.5188C45.6626 15.077 46.3649 13.831 47.4435 12.8663C48.3434 12.0606 49.5053 11.4518 50.9529 11.0887C51.16 11.0365 51.366 10.9938 51.5683 10.9606C51.5767 10.9594 51.5838 10.9594 51.5921 10.957C53.2421 10.6936 54.7254 11.0484 56.0539 11.8517C60.2311 14.371 62.8834 21.2891 64.4369 27.1618C65.7488 32.1243 66.2773 36.3416 66.2773 36.5374V36.5374Z" fill="#DADADA"/>
<g opacity="0.6">
<path d="M66.0881 36.389L65.0548 37.0606C64.8084 35.4076 64.2775 32.3734 63.3834 28.9915C61.8299 23.1176 59.1776 16.1995 55.0004 13.6814C53.6707 12.8781 52.1886 12.5233 50.5387 12.7867C50.5303 12.7879 50.5232 12.7879 50.5148 12.7903C50.3125 12.8235 50.1065 12.8662 49.8994 12.9184C48.4518 13.2815 47.29 13.8903 46.39 14.696C45.9031 15.1315 45.4924 15.6251 45.1555 16.1674C45.54 14.8111 46.2257 13.6375 47.2543 12.7179C48.1542 11.9121 49.3161 11.3034 50.7636 10.9403C50.9708 10.8881 51.1767 10.8453 51.3791 10.8121C51.3874 10.8109 51.3946 10.8109 51.4029 10.8086C53.0529 10.5451 54.5361 10.8999 55.8647 11.7033C60.0419 14.2225 62.6942 21.1406 64.2477 27.0133C65.5596 31.9759 66.0881 36.1932 66.0881 36.389V36.389Z" fill="white"/>
</g>
<path d="M58.6479 42.2407C58.5038 42.2407 58.3586 42.198 58.2348 42.1137C49.397 36.1426 43.0639 24.6927 44.4067 17.11C45.0293 13.5916 47.2316 11.2623 50.7732 10.3747C53.1195 9.78728 55.3254 10.2797 57.3325 11.839C64.7655 17.6167 67.0154 36.3656 67.0154 36.5377C67.0154 36.7857 66.8893 37.0171 66.6809 37.1524L59.0514 42.1209C58.9288 42.2004 58.7884 42.2407 58.6479 42.2407V42.2407ZM52.6624 11.6028C52.1648 11.6028 51.6553 11.6681 51.1327 11.7998C48.1542 12.5462 46.3793 14.4187 45.8579 17.3652C44.6472 24.2038 50.5982 34.9571 58.6598 40.6209L65.4965 36.1687C65.3298 34.8705 64.6941 30.7398 63.4227 26.2448C61.5204 19.5225 59.0288 14.8875 56.217 12.8405C55.0802 12.0134 53.9076 11.6028 52.6636 11.6028H52.6624Z" fill="#484848"/>
<path d="M56.054 11.8493C56.054 11.8493 55.4957 15.0058 53.5969 14.2629C52.6791 13.9034 52.1732 13.0977 51.8958 12.3607C52.0006 13.3528 51.8637 14.5501 50.7482 14.9808C49.7816 15.3546 48.9876 14.8954 48.4209 14.3104C48.7721 15.0378 48.9554 15.8946 48.3745 16.5175C47.1531 17.8252 45.2877 16.5175 45.2877 16.5175C45.6615 15.0758 46.3639 13.8298 47.4424 12.8651C48.3424 12.0593 49.5042 11.4506 50.9518 11.0875C51.1589 11.0353 51.3649 10.9926 51.5673 10.9593C51.5625 10.9012 51.5613 10.8691 51.5613 10.8691C51.5613 10.8691 51.572 10.8988 51.5911 10.9558C53.241 10.6923 54.7243 11.0471 56.0528 11.8505L56.054 11.8493Z" fill="white"/>
<path d="M47.0388 17.1924C46.0972 17.1924 45.2448 16.6062 45.2317 16.5979L45.1758 16.5587L45.1924 16.4923C45.5841 14.9829 46.3186 13.7381 47.3769 12.7912C48.3138 11.9522 49.509 11.347 50.928 10.991C51.1065 10.9459 51.2851 10.908 51.4625 10.8771V10.8747L51.4291 10.2363L51.6529 10.8356L51.6577 10.8474C53.216 10.6172 54.7123 10.927 56.104 11.7671L56.1611 11.8015L56.1492 11.868C56.1361 11.9439 55.8075 13.7393 54.7921 14.3065C54.4207 14.5142 54.0052 14.5308 53.5588 14.3552C52.916 14.1036 52.391 13.6016 52.022 12.8908C52.022 14.0087 51.5982 14.7586 50.7827 15.0731C50.0649 15.3496 49.3471 15.2155 48.6828 14.685C48.959 15.4682 48.8792 16.1185 48.4459 16.5849C48.0197 17.0417 47.5162 17.1936 47.0376 17.1936L47.0388 17.1924ZM45.402 16.4733C45.7162 16.6715 47.2709 17.5555 48.3042 16.4496C48.7602 15.9607 48.7697 15.2558 48.334 14.3528L48.0685 13.8022L48.4935 14.2412C49.1971 14.9686 49.9447 15.1858 50.7149 14.888C51.7874 14.4738 51.897 13.2907 51.7994 12.3699L51.7184 11.6057L51.9886 12.326C52.3398 13.2599 52.8934 13.8817 53.6338 14.1712C54.0231 14.3243 54.3814 14.3113 54.6992 14.1344C55.5302 13.6705 55.8766 12.2251 55.9456 11.8988C54.5873 11.0955 53.1279 10.8107 51.6089 11.0527L51.5267 11.0658C51.3458 11.0966 51.1613 11.1358 50.9791 11.1821C49.5911 11.5298 48.4233 12.1207 47.5114 12.9371C46.4984 13.8437 45.7889 15.0327 45.4043 16.4733H45.402Z" fill="#484848"/>
<path d="M47.1209 17.8491C46.2602 17.8491 45.3972 17.4385 44.8876 17.0766C44.6555 16.9117 44.5496 16.6209 44.6198 16.3456C45.04 14.7259 45.8317 13.3838 46.9757 12.3585C46.9792 12.355 46.984 12.3514 46.9876 12.3479C47.9959 11.4472 49.2732 10.7993 50.7839 10.4207C50.8958 10.3923 51.0077 10.3673 51.1196 10.3436C51.2041 10.2736 51.3065 10.2226 51.4208 10.1988C51.5565 10.1704 51.6922 10.1846 51.8136 10.2321C53.4254 10.047 54.9694 10.3923 56.4099 11.2633C56.6527 11.4104 56.7813 11.6905 56.7313 11.9705C56.692 12.19 56.317 14.1302 55.0813 14.8208C54.5552 15.1151 53.954 15.1436 53.3433 14.9039C52.9636 14.7555 52.6243 14.4399 52.3171 14.0222C52.1398 14.6903 51.7636 15.2812 51.0291 15.6087C50.3779 15.8983 49.7958 15.8556 49.2851 15.6396C49.3065 16.0893 49.2137 16.5284 48.9339 16.9176C48.4375 17.6082 47.7792 17.8491 47.1197 17.8491H47.1209ZM46.1007 16.1949C46.59 16.437 47.3947 16.7028 47.8149 16.1166C48.1197 15.6918 47.6542 14.6998 47.2864 14.0163C46.7709 14.6369 46.3745 15.3655 46.1007 16.1949ZM48.4066 12.9708C49.2232 14.0649 49.8232 14.6416 50.4672 14.3545C51.1624 14.0447 51.135 12.9103 51.0017 11.7842C50.0029 12.0476 49.1327 12.4452 48.4078 12.9708H48.4066ZM52.5683 11.5576C53.2671 13.2295 53.6873 13.5618 53.848 13.6247C54.1361 13.7374 54.298 13.6828 54.4075 13.6223C54.8004 13.404 55.098 12.7276 55.2587 12.196C54.3909 11.7533 53.5004 11.5409 52.5683 11.5576V11.5576Z" fill="#484848"/>
<g opacity="0.2">
<path d="M66.2773 36.5368L58.6478 41.5052C49.8577 35.5673 43.7329 24.1459 45.1781 17.0059C50.4553 24.4295 62.5513 39.7609 64.4381 27.1623C65.75 32.1248 66.2785 36.3422 66.2785 36.538L66.2773 36.5368Z" fill="#484848"/>
</g>
<path d="M92.6538 28.3667C91.3217 32.9626 88.8861 37.3745 85.8291 40.0611C85.8291 40.0611 81.3316 41.0673 73.9224 36.9604C73.9224 36.9604 75.3449 35.7393 76.2485 27.7283C76.8008 22.8275 77.4449 17.0533 79.9198 13.65C80.1781 13.2952 80.4567 12.9653 80.7555 12.6663C82.278 11.1426 84.366 10.3808 87.2826 10.8662C90.2813 11.3634 92.1324 13.3379 93.055 16.0779C94.1931 19.4562 93.9217 23.9963 92.655 28.3679L92.6538 28.3667Z" fill="#DADADA"/>
<g opacity="0.6">
<path d="M93.0361 16.0985C92.1135 13.3574 90.2623 11.3828 87.2636 10.8856C84.3757 10.405 82.2995 11.1479 80.7817 12.643C82.0579 12.0212 83.6162 11.7981 85.5351 12.1173C88.5338 12.6145 90.385 14.5891 91.3076 17.3291C92.4456 20.7074 92.1742 25.2475 90.9076 29.6191C89.7517 33.605 87.7672 37.4509 85.2673 40.1541C85.6244 40.1221 85.8125 40.0805 85.8125 40.0805C88.8695 37.394 91.3052 32.9832 92.6373 28.3862C93.9051 24.0134 94.1753 19.4745 93.0372 16.0973L93.0361 16.0985Z" fill="white"/>
</g>
<path d="M84.4125 40.9067C82.4316 40.9067 78.6484 40.4249 73.5462 37.5853C73.3224 37.4607 73.145 37.2554 73.1343 37.0003C73.1236 36.7523 73.207 36.5411 73.4069 36.3987C73.5522 36.2136 74.7236 34.5345 75.5116 27.6342L75.5188 27.5736C76.1854 21.7377 77.0152 14.4743 81.0614 11.4377C82.7649 10.1585 84.9065 9.72419 87.4255 10.1466C90.6718 10.6913 92.9229 12.8522 93.9336 16.3979C94.9228 19.8652 94.6383 24.5524 93.1527 29.2575C91.6682 33.9589 89.1683 38.1003 86.2922 40.6172C86.1993 40.6991 86.0874 40.756 85.966 40.7821C85.9029 40.7964 85.366 40.9079 84.4113 40.9079L84.4125 40.9067ZM74.9581 36.6775C80.8448 39.7759 84.6435 39.4887 85.4744 39.3748C91.0087 34.3873 94.4252 23.4892 92.517 16.7989C91.6611 13.7956 89.8659 12.0453 87.1815 11.5955C85.0482 11.2383 83.3364 11.5706 81.9495 12.6113C78.4092 15.2682 77.6199 22.1827 76.9842 27.7398L76.9771 27.8003C76.3676 33.1295 75.5259 35.5775 74.9581 36.6775V36.6775Z" fill="#484848"/>
<path d="M93.0551 16.0765C93.0551 16.0765 91.2373 17.2098 90.1159 15.8428C89.0969 14.6004 90.1361 12.557 90.3337 12.1974C90.1052 12.5854 88.654 14.878 86.6041 14.28C84.9422 13.797 84.5089 12.1203 84.397 11.2908C84.4411 12.1535 84.3804 13.9228 83.1959 14.2313C81.6209 14.6395 80.7555 12.6638 80.7555 12.6638C82.2781 11.1413 84.3673 10.3795 87.2826 10.8636C90.2813 11.3608 92.1325 13.3354 93.0551 16.0753V16.0765Z" fill="white"/>
<path d="M91.5385 16.6117C91.029 16.6117 90.4814 16.4444 90.0397 15.9045C89.3445 15.056 89.56 13.8682 89.8517 13.0435C89.1922 13.8302 88.0386 14.8009 86.5768 14.3749C85.3268 14.0118 84.753 12.9853 84.4899 12.1547C84.4245 13.0708 84.1364 14.0901 83.2209 14.3274C81.5853 14.7522 80.6746 12.7255 80.6651 12.7041L80.6377 12.6424L80.6853 12.5949C82.3507 10.9289 84.5757 10.3142 87.2994 10.7675C90.1219 11.235 92.1444 13.0601 93.1492 16.0445L93.1539 16.0777V16.1323L93.1075 16.1608C93.0956 16.1679 92.3682 16.6117 91.5397 16.6117H91.5385ZM90.3933 12.2923C90.1397 12.7694 89.2529 14.6348 90.1921 15.7799C91.1409 16.9368 92.6039 16.2177 92.9361 16.0326C92.3813 14.4247 91.5218 13.1657 90.3933 12.2923V12.2923ZM84.4947 11.2778C84.6149 12.1666 85.0518 13.7258 86.6315 14.185C88.5588 14.7475 89.9386 12.6638 90.2338 12.1713C89.385 11.5542 88.391 11.146 87.266 10.9597C84.5995 10.5171 82.5067 11.0808 80.8734 12.6839C81.0329 13.0031 81.846 14.4793 83.1709 14.1352C84.3042 13.8409 84.3376 12.0503 84.2983 11.2956L84.4947 11.2778V11.2778Z" fill="#484848"/>
<path d="M91.5467 17.2046C90.8658 17.2046 90.1491 16.9708 89.5813 16.279C89.1587 15.764 89.0016 15.1648 88.9885 14.575C88.2837 14.9975 87.4135 15.2336 86.41 14.9405C85.6374 14.7162 85.0827 14.2879 84.6851 13.793C84.3934 14.3697 83.9506 14.7459 83.3696 14.8966C81.6721 15.3368 80.5042 13.8084 80.1233 12.9398C80.0102 12.6811 80.0674 12.3797 80.2674 12.1792C82.0756 10.3708 84.4743 9.7003 87.3969 10.1868C90.4479 10.6923 92.6312 12.6538 93.7097 15.8578C93.7335 15.9278 93.7454 16.0025 93.7454 16.0761C93.7454 16.3146 93.6228 16.5353 93.4216 16.6599C92.999 16.9222 92.2955 17.2034 91.5491 17.2034L91.5467 17.2046ZM90.611 13.2578C90.3503 13.9817 90.2087 14.8717 90.6491 15.4092C91.0908 15.948 91.7407 15.8696 92.1884 15.7213C91.7872 14.7305 91.2598 13.9081 90.611 13.2578V13.2578ZM85.1148 11.4221C85.2541 12.1828 85.6541 13.2899 86.7969 13.621C87.9528 13.958 88.923 12.9707 89.4123 12.3299C88.7504 11.943 88.0016 11.6808 87.1695 11.5432C86.4386 11.4221 85.7541 11.3806 85.116 11.4221H85.1148ZM81.6221 12.7998C81.8947 13.2021 82.3887 13.7301 83.022 13.5676C83.5363 13.4335 83.7148 12.5209 83.716 11.663C82.9423 11.8897 82.247 12.2682 81.6221 12.7986V12.7998Z" fill="#484848"/>
<g opacity="0.2">
<path d="M92.6538 28.3671C91.3217 32.963 88.8861 37.3749 85.8291 40.0614C85.8291 40.0614 81.3316 41.0677 73.9224 36.9608C73.9224 36.9608 75.3449 35.7397 76.2485 27.7287C76.8008 22.8279 77.4449 17.0537 79.9198 13.6504C79.5686 21.4015 79.8233 41.0108 92.6538 28.3683V28.3671Z" fill="#484848"/>
</g>
<path d="M48.6685 67.8436C48.2959 67.8436 47.9769 67.5636 47.9364 67.1862C47.8936 66.784 48.1864 66.422 48.59 66.3781C48.6304 66.3734 52.6208 65.8952 55.0064 62.2937C55.1564 62.0671 55.4219 61.9413 55.6909 61.9674C55.8266 61.9804 69.4214 63.1766 77.8318 56.7414C78.0663 56.5622 78.3865 56.5397 78.6448 56.6857C78.6758 56.7023 81.8388 58.4443 84.5327 57.1413C84.8994 56.9657 85.3398 57.1164 85.5172 57.4819C85.6946 57.8474 85.5422 58.2864 85.1756 58.4632C82.4173 59.7958 79.4591 58.6934 78.3579 58.1844C70.257 64.0938 58.436 63.6311 55.9873 63.4637C53.1946 67.3286 48.9328 67.8187 48.7471 67.8389C48.7209 67.8413 48.6947 67.8424 48.6685 67.8424V67.8436Z" fill="#484848"/>
<path d="M78.2794 58.0597C78.1544 58.0597 78.027 58.0277 77.9103 57.9601C77.558 57.756 77.4377 57.3062 77.6425 56.9562C80.4459 52.1372 80.021 43.457 80.0162 43.3691C79.9948 42.9645 80.3067 42.618 80.7138 42.5966C81.1257 42.5765 81.4673 42.8862 81.4888 43.2908C81.509 43.6646 81.9435 52.4932 78.9174 57.6931C78.7805 57.928 78.5329 58.0597 78.2794 58.0597V58.0597Z" fill="#484848"/>
<path d="M55.6207 63.4318C55.5135 63.4318 55.4052 63.4081 55.3016 63.3594C48.0054 59.8683 47.3174 51.2011 47.2924 50.8332C47.2638 50.4286 47.5697 50.0773 47.9769 50.0489C48.3876 50.0192 48.7352 50.3253 48.7638 50.73C48.7721 50.8451 49.4411 58.9249 55.9409 62.0339C56.3075 62.2096 56.4623 62.6486 56.2861 63.0141C56.1599 63.2775 55.8956 63.4306 55.6207 63.4306V63.4318Z" fill="#484848"/>
<path d="M89.9015 43.0184C84.7398 47.2678 75.127 40.1883 71.1605 39.2758C67.1916 38.3644 67.9047 41.5055 63.531 43.9393C59.1574 46.3731 58.1396 44.6489 54.6813 46.1713C51.2243 47.6914 51.5279 49.7206 43.1877 53.0657C34.8475 56.4109 28.4882 54.4221 28.4882 54.4221C26.7038 53.8916 25.43 52.9269 24.5741 51.8909C23.7229 50.8609 23.2849 49.7633 23.1658 48.954C23.0991 48.5031 23.1337 48.1412 23.2515 47.9335C23.5634 47.3841 24.8241 47.396 25.9871 47.5372C40.0164 50.6272 47.1554 42.1142 50.2077 40.1883C53.2588 38.2612 55.3944 39.5796 59.4645 38.3633C63.5322 37.1458 64.6512 32.1773 69.4332 31.9293C74.2128 31.6813 77.571 36.435 82.0458 37.0449C86.5219 37.6536 87.3076 36.1834 87.3076 36.1834C88.1373 36.0244 89.2551 35.9829 90.1825 36.5714C90.6348 36.8574 91.0431 37.2941 91.3491 37.9384C91.3681 37.9776 91.3872 38.0168 91.405 38.0583C92.5157 40.5882 91.2765 42.1925 89.9051 43.0173L89.9015 43.0184Z" fill="#939393"/>
<g opacity="0.2">
<path d="M89.9015 43.0179C84.7398 47.2673 75.1271 40.1878 71.1605 39.2753C67.1916 38.3639 67.9047 41.505 63.531 43.9388C59.1574 46.3726 58.1396 44.6484 54.6814 46.1708C51.2243 47.6909 51.5279 49.7201 43.1877 53.0652C34.8475 56.4103 28.4882 54.4215 28.4882 54.4215C26.7038 53.8911 25.43 52.9264 24.5741 51.8904C28.0311 52.8457 31.4108 53.0925 34.9821 52.8113C39.6557 52.4422 44.5508 51.004 48.3078 48.2059C50.841 46.3192 52.36 43.8747 55.4956 43.4653C56.3944 43.3466 58.1908 43.3561 59.0895 43.2469C61.2252 42.9871 63.2334 41.8871 64.8536 40.475C66.2226 39.2824 67.488 37.5689 69.2677 37.2022C71.601 36.7228 76.3865 39.5802 78.6876 40.5758C81.4602 41.7731 84.7838 42.7308 87.6683 41.836C89.342 41.3175 90.6253 39.9196 91.23 38.3058C91.2765 38.1824 91.3158 38.0601 91.3467 37.9379C91.3658 37.9771 91.3848 38.0162 91.4027 38.0578C92.5133 40.5877 91.2741 42.192 89.9027 43.0167L89.9015 43.0179Z" fill="#484848"/>
</g>
<g opacity="0.6">
<path d="M90.3777 36.3753C88.7873 38.1814 86.3398 39.1889 83.9565 39.2791C80.6269 39.4048 77.4139 38.02 74.5866 36.265C72.8998 35.216 71.0677 33.97 69.1059 34.2999C67.2595 34.612 65.9667 36.2152 64.5429 37.4279C62.3751 39.2731 59.5633 40.3553 56.7134 40.4372C55.9694 40.4598 55.2183 40.417 54.485 40.5476C52.4291 40.9154 50.8898 42.5494 49.3208 43.9212C45.1389 47.5772 39.7498 49.8378 34.2023 50.2567C30.5382 50.5343 26.8181 50.0075 23.3634 48.7568C23.2968 48.3058 23.3313 47.9439 23.4492 47.7362C23.761 47.1868 25.0217 47.1987 26.1848 47.3399C40.214 50.4299 47.3531 41.917 50.4053 39.991C53.4564 38.0639 55.5921 39.3823 59.6621 38.166C63.7299 36.9485 64.8489 31.98 69.6308 31.732C74.4104 31.484 77.7686 36.2377 82.2435 36.8476C86.7195 37.4564 87.5052 35.9861 87.5052 35.9861C88.3349 35.8271 89.4528 35.7856 90.3801 36.3742L90.3777 36.3753Z" fill="white"/>
</g>
<path d="M33.4131 55.7506C30.3406 55.7506 28.4121 55.1679 28.2668 55.1216C24.6384 54.0442 23.2349 51.4324 22.8004 50.3608C22.3373 49.2193 22.2659 48.1762 22.6087 47.571C23.0397 46.8128 24.1408 46.5707 26.0765 46.8069C26.1003 46.8104 26.1229 46.814 26.1455 46.8187C37.5665 49.3344 44.3127 43.9031 47.9376 40.9852C48.6602 40.4037 49.2851 39.9006 49.8137 39.5672C51.7077 38.3698 53.3064 38.3129 54.998 38.2524C56.2658 38.2073 57.5765 38.1598 59.2526 37.659C60.8728 37.1749 61.9966 35.9989 63.1858 34.7553C64.7882 33.0798 66.4441 31.3485 69.3951 31.1954C72.2546 31.0518 74.5783 32.5007 76.8294 33.9057C78.6055 35.0152 80.284 36.063 82.1459 36.3158C85.5957 36.7857 86.5374 35.9503 86.666 35.8126C86.6886 35.758 86.6969 35.7628 86.7469 35.7046C87.235 35.1362 87.9885 34.8811 88.8147 35.0045C90.1492 35.2027 91.4313 36.2861 92.0788 37.7647C93.1157 40.1261 92.4622 42.3107 90.3301 43.6183C86.2243 46.9421 79.8483 43.9281 75.1878 41.7257C73.4819 40.9199 72.0081 40.2234 70.9951 39.9896C69.1094 39.5565 68.638 40.1225 67.6035 41.3637C66.8071 42.319 65.8179 43.5068 63.8906 44.5795C61.2835 46.0308 59.7229 46.0937 58.3455 46.1495C57.2849 46.1922 56.3694 46.2301 54.979 46.8413C53.76 47.3776 53.0541 47.9757 52.1589 48.7328C50.6339 50.0238 48.7364 51.6294 43.4615 53.7451C39.5391 55.3186 36.0535 55.7494 33.4131 55.7494V55.7506ZM23.8837 48.3174C23.8384 48.4919 23.848 49.1528 24.2908 50.0938C24.6717 50.9031 25.8646 52.8753 28.6978 53.7167C28.768 53.7392 34.9404 55.5797 42.9116 52.3829C47.9638 50.3561 49.7613 48.836 51.2041 47.6138C52.1505 46.8128 52.9683 46.121 54.3826 45.498C56.0289 44.7741 57.1753 44.7267 58.2848 44.6816C59.6145 44.627 60.8716 44.576 63.1715 43.2968C64.8596 42.3581 65.7143 41.3305 66.4691 40.4251C67.5881 39.0818 68.5559 37.9225 71.326 38.5585C72.495 38.8279 74.0343 39.5553 75.8187 40.3978C78.8377 41.8242 82.6375 43.6195 85.8053 43.6207C87.1683 43.6207 88.4147 43.2885 89.4325 42.4507C89.4611 42.4281 89.4897 42.4068 89.5206 42.3878C90.5956 41.7411 91.6765 40.5165 90.7265 38.352C90.2182 37.1915 89.2659 36.5567 88.5956 36.457C88.2873 36.4107 88.0528 36.4688 87.8945 36.6279C87.5826 37.0871 86.3052 38.3639 81.9447 37.7718C79.7686 37.4751 77.8758 36.2932 76.0449 35.1505C73.8938 33.8072 71.8605 32.5387 69.4701 32.6621C67.1059 32.7843 65.7191 34.2332 64.2525 35.7687C62.9823 37.0966 61.6692 38.4695 59.6752 39.0664C57.817 39.6217 56.3468 39.674 55.0492 39.7202C53.4338 39.7784 52.1589 39.8235 50.6006 40.8072C50.1434 41.0956 49.5506 41.5738 48.8625 42.1267C45.7341 44.6448 40.3962 48.9416 31.9048 48.9416C30.0454 48.9416 28.0335 48.7351 25.861 48.2593C24.4241 48.0872 23.9753 48.2664 23.8825 48.3163L23.8837 48.3174Z" fill="#484848"/>
<g opacity="0.2">
<path d="M90.1444 35.748C90.1444 35.748 92.3348 36.4755 93.3205 38.8096C93.8205 39.9927 94.7169 40.9728 95.9025 41.4748C96.9573 41.9221 98.2584 42.1583 99.4988 41.54L98.1203 42.5214L95.3633 42.9142L92.6062 42.3256L91.4241 41.9328C91.4241 41.9328 91.6205 40.3617 91.6205 40.1659C91.6205 39.9701 91.2813 37.776 91.1563 37.6953C91.0301 37.6146 90.1444 35.7492 90.1444 35.7492V35.748Z" fill="#484848"/>
</g>
<g opacity="0.2">
<path d="M89.9182 43.4648C89.992 44.0926 90.0325 44.7286 90.0325 45.3706C90.0325 57.8873 75.6521 68.033 57.9146 68.033C45.0055 68.033 33.8798 62.6611 28.7764 54.9112C34.9321 60.4219 45.1222 63.6971 56.6539 63.08C72.9641 62.2078 86.5981 53.842 89.9194 43.4648H89.9182Z" fill="#484848"/>
</g>
<path d="M38.5689 27.4965C39.3664 28.0388 39.9152 28.8113 40.1843 29.6657C40.5533 30.8309 40.4021 32.1493 39.6569 33.2386C38.9748 34.2354 37.9332 34.8406 36.8225 35.0008C35.8332 35.142 34.7868 34.9296 33.8964 34.3232C32.006 33.0369 36.6796 26.2102 38.57 27.4965H38.5689Z" fill="#939393"/>
<path d="M40.1843 29.666C40.5533 30.8313 40.4021 32.1497 39.6569 33.239C38.9748 34.2358 37.9332 34.841 36.8225 35.0012C36.4523 33.8335 36.6046 32.5151 37.3498 31.4258C38.032 30.429 39.0736 29.8238 40.1855 29.666H40.1843Z" fill="#696969"/>
<path d="M40.4474 33.1884C40.37 33.3296 40.2855 33.4685 40.1926 33.6049C38.7034 35.7812 35.7142 36.3437 33.531 34.858C32.0882 33.8767 33.0322 31.4014 34.2786 29.5822C35.5249 27.7619 37.4927 25.9843 38.9343 26.9645C40.9819 28.3564 41.6057 31.0632 40.4474 33.1884ZM34.8071 31.1937C34.0655 32.5548 33.956 33.5824 34.2619 33.7901C35.8547 34.8735 38.0344 34.4629 39.1212 32.8752C40.2081 31.2874 39.7962 29.1147 38.2046 28.0313C37.8356 27.7809 36.5725 28.5261 35.3511 30.3096C35.1416 30.6146 34.9619 30.9113 34.8083 31.1925L34.8071 31.1937Z" fill="#484848"/>
</g>
<defs>
<clipPath id="clip0_1238_7097">
<rect width="100" height="68.8073" fill="white"/>
</clipPath>
</defs>
</svg>
