<svg width="24" height="23" viewBox="0 0 24 23" fill="none" xmlns="http://www.w3.org/2000/svg">
<path fill-rule="evenodd" clip-rule="evenodd" d="M12 9.26123C11.1103 9.26225 10.2574 9.60145 9.62846 10.2044C8.99948 10.8074 8.64578 11.6248 8.64499 12.4774C8.64552 13.3301 8.99913 14.1477 9.62817 14.7507C10.2572 15.3537 11.1103 15.6928 12 15.6936C12.8897 15.6928 13.7428 15.3537 14.3718 14.7507C15.0008 14.1477 15.3545 13.3301 15.355 12.4774C15.3542 11.6248 15.0005 10.8074 14.3715 10.2044C13.7425 9.60145 12.8896 9.26225 12 9.26123Z" fill="#989898"/>
<path fill-rule="evenodd" clip-rule="evenodd" d="M12 17.506C10.6092 17.5045 9.27574 16.9743 8.29227 16.0318C7.3088 15.0893 6.75559 13.8114 6.754 12.4786C6.75532 11.1455 7.30842 9.8674 8.29192 8.9247C9.27542 7.982 10.609 7.45171 12 7.45018C13.391 7.45171 14.7246 7.982 15.7081 8.9247C16.6916 9.8674 17.2447 11.1455 17.246 12.4786C17.2444 13.8114 16.6912 15.0893 15.7077 16.0318C14.7243 16.9743 13.3908 17.5045 12 17.506M20.113 4.9221H17.159L16.046 2.84348C15.8695 2.51442 15.6018 2.23835 15.2722 2.04561C14.9427 1.85287 14.5641 1.75093 14.178 1.75098H9.765C9.37133 1.75093 8.98558 1.85693 8.65175 2.05688C8.31792 2.25683 8.04946 2.54268 7.877 2.88181L6.841 4.9221H3.887C3.55598 4.92198 3.22818 4.98435 2.92233 5.10566C2.61647 5.22697 2.33855 5.40483 2.10444 5.6291C1.87033 5.85337 1.68462 6.11964 1.55792 6.4127C1.43121 6.70576 1.366 7.01988 1.366 7.3371V18.4547C1.366 18.7719 1.43121 19.0861 1.55792 19.3791C1.68462 19.6722 1.87033 19.9385 2.10444 20.1627C2.33855 20.387 2.61647 20.5649 2.92233 20.6862C3.22818 20.8075 3.55598 20.8699 3.887 20.8697H20.113C20.444 20.8699 20.7718 20.8075 21.0777 20.6862C21.3835 20.5649 21.6614 20.387 21.8956 20.1627C22.1297 19.9385 22.3154 19.6722 22.4421 19.3791C22.5688 19.0861 22.634 18.7719 22.634 18.4547V7.3371C22.634 7.01988 22.5688 6.70576 22.4421 6.4127C22.3154 6.11964 22.1297 5.85337 21.8956 5.6291C21.6614 5.40483 21.3835 5.22697 21.0777 5.10566C20.7718 4.98435 20.444 4.92198 20.113 4.9221" fill="#989898"/>
</svg>
