<svg width="22" height="21" viewBox="0 0 22 21" fill="none" xmlns="http://www.w3.org/2000/svg">
<path fill-rule="evenodd" clip-rule="evenodd" d="M11 17.2671C9.60916 17.2656 8.27574 16.7123 7.29227 15.7289C6.3088 14.7454 5.75559 13.412 5.754 12.0211C5.75532 10.6301 6.30842 9.29646 7.29192 8.31277C8.27542 7.32909 9.60899 6.77574 11 6.77415C12.391 6.77574 13.7246 7.32909 14.7081 8.31277C15.6916 9.29646 16.2447 10.6301 16.246 12.0211C16.2444 13.412 15.6912 14.7454 14.7077 15.7289C13.7243 16.7123 12.3908 17.2656 11 17.2671ZM19.113 4.13615H16.159L15.046 1.96715C14.8695 1.62378 14.6018 1.33571 14.2722 1.13459C13.9427 0.933476 13.5641 0.827098 13.178 0.827148H8.765C8.37133 0.827102 7.98558 0.937709 7.65175 1.14635C7.31792 1.35499 7.04946 1.65327 6.877 2.00715L5.841 4.13615H2.887C2.55598 4.13602 2.22818 4.2011 1.92233 4.32769C1.61647 4.45427 1.33855 4.63987 1.10444 4.87389C0.870332 5.1079 0.684621 5.38575 0.557916 5.69156C0.431212 5.99736 0.365997 6.32513 0.365997 6.65615V18.2571C0.365997 18.5882 0.431212 18.9159 0.557916 19.2217C0.684621 19.5275 0.870332 19.8054 1.10444 20.0394C1.33855 20.2734 1.61647 20.459 1.92233 20.5856C2.22818 20.7122 2.55598 20.7773 2.887 20.7771H19.113C19.444 20.7773 19.7718 20.7122 20.0777 20.5856C20.3835 20.459 20.6614 20.2734 20.8956 20.0394C21.1297 19.8054 21.3154 19.5275 21.4421 19.2217C21.5688 18.9159 21.634 18.5882 21.634 18.2571V6.65615C21.634 6.32513 21.5688 5.99736 21.4421 5.69156C21.3154 5.38575 21.1297 5.1079 20.8956 4.87389C20.6614 4.63987 20.3835 4.45427 20.0777 4.32769C19.7718 4.2011 19.444 4.13602 19.113 4.13615Z" fill="#8B95A1"/>
</svg>
