<svg width="150" height="150" viewBox="0 0 150 150" fill="none" xmlns="http://www.w3.org/2000/svg">
<g clip-path="url(#clip0_637_10354)">
<rect width="150" height="150" rx="75" fill="#F7F7F7"/>
<path fill-rule="evenodd" clip-rule="evenodd" d="M75.1727 76.6111C91.4958 76.6111 104.728 63.3786 104.728 47.0556C104.728 30.7325 91.4958 17.5 75.1727 17.5C58.8496 17.5 45.6171 30.7325 45.6171 47.0556C45.6171 63.3786 58.8496 76.6111 75.1727 76.6111ZM5 132.129C5 117.217 24.5945 85.1661 75 85.1661C125.405 85.1661 145 117.217 145 132.121C145 147.034 103.278 151.003 75 151.003C46.7218 151.003 5 147.034 5 132.129Z" fill="#DDDDDD"/>
</g>
<defs>
<clipPath id="clip0_637_10354">
<rect width="150" height="150" rx="75" fill="white"/>
</clipPath>
</defs>
</svg>
