<svg width="24" height="24" viewBox="0 0 24 24" fill="none" xmlns="http://www.w3.org/2000/svg">
<path fill-rule="evenodd" clip-rule="evenodd" d="M9 12C9 10.34 10.34 9 12 9C13.66 9 15 10.34 15 12C15 13.66 13.66 15 12 15C10.34 15 9 13.66 9 12Z" fill="black"/>
<path fill-rule="evenodd" clip-rule="evenodd" d="M20.0182 11.8182C18.5182 8.75455 15.4455 6.81818 12 6.81818C8.55455 6.81818 5.48182 8.75455 3.98182 11.8182C5.48182 14.8818 8.55455 16.8182 12 16.8182C15.4455 16.8182 18.5182 14.8818 20.0182 11.8182ZM2 11.8182C3.57273 7.82727 7.45455 5 12 5C16.5455 5 20.4273 7.82727 22 11.8182C20.4273 15.8091 16.5455 18.6364 12 18.6364C7.45455 18.6364 3.57273 15.8091 2 11.8182Z" fill="black"/>
</svg>
