<svg width="375" height="61" viewBox="0 0 375 61" fill="none" xmlns="http://www.w3.org/2000/svg">
<path d="M0 0H375V60H0V0Z" fill="white"/>
<path d="M32.1223 22.1589C32.4098 22.1589 32.6822 22.1816 32.9395 22.227C33.1968 22.2724 33.4087 22.4162 33.5751 22.6583C33.7567 22.9005 33.8475 23.3167 33.8475 23.9069C33.8475 24.482 33.7567 24.8981 33.5751 25.1554C33.4087 25.3976 33.1892 25.5413 32.9168 25.5867C32.6595 25.6321 32.3871 25.6548 32.0996 25.6548H28.9669V36.0519C28.9669 36.3848 28.9366 36.7102 28.8761 37.028C28.8155 37.3307 28.6415 37.5804 28.3539 37.7771C28.0815 37.9739 27.5972 38.0722 26.9011 38.0722C26.2352 38.0722 25.7585 37.9739 25.4709 37.7771C25.1834 37.5653 25.0093 37.308 24.9488 37.0053C24.9034 36.6875 24.8807 36.3621 24.8807 36.0292V25.6548H21.7253C21.4529 25.6548 21.1804 25.6321 20.908 25.5867C20.6508 25.5262 20.4313 25.3749 20.2497 25.1327C20.0832 24.8906 20 24.4744 20 23.8842C20 23.3091 20.0832 22.9005 20.2497 22.6583C20.4313 22.4162 20.6583 22.2724 20.9307 22.227C21.2031 22.1816 21.4756 22.1589 21.748 22.1589H32.1223Z" fill="black"/>
<path d="M41.1136 38.3219C40.0088 38.3219 38.9722 38.1176 38.0036 37.709C37.0501 37.2853 36.2102 36.7026 35.4838 35.9611C34.7574 35.2195 34.1823 34.3644 33.7585 33.3959C33.3499 32.4121 33.1456 31.3679 33.1456 30.2631C33.1456 29.1129 33.3423 28.0384 33.7358 27.0396C34.1444 26.0408 34.7044 25.163 35.4157 24.4063C36.127 23.6496 36.9518 23.0594 37.8901 22.6356C38.8435 22.2119 39.8575 22 40.932 22C42.0368 22 43.0659 22.2119 44.0193 22.6356C44.9879 23.0442 45.8354 23.6193 46.5618 24.3609C47.2883 25.1025 47.8558 25.9727 48.2644 26.9715C48.673 27.9552 48.8773 29.0221 48.8773 30.1723C48.8773 31.2922 48.673 32.344 48.2644 33.3278C47.8709 34.3115 47.311 35.1817 46.5845 35.9384C45.8732 36.6799 45.0484 37.2626 44.1101 37.6863C43.187 38.1101 42.1881 38.3219 41.1136 38.3219ZM41.0001 34.1677C41.5147 34.1677 41.9989 34.0693 42.453 33.8726C42.907 33.6607 43.3005 33.3807 43.6334 33.0326C43.9815 32.6694 44.2463 32.2457 44.4279 31.7614C44.6247 31.262 44.7231 30.7323 44.7231 30.1723C44.7231 29.6124 44.6247 29.0902 44.4279 28.606C44.2312 28.1217 43.9588 27.6979 43.6107 27.3347C43.2778 26.9564 42.8843 26.6688 42.4303 26.4721C41.9914 26.2602 41.5222 26.1543 41.0228 26.1543C40.5083 26.1543 40.024 26.2602 39.57 26.4721C39.1311 26.6688 38.7376 26.9564 38.3895 27.3347C38.0566 27.6979 37.7917 28.1217 37.595 28.606C37.3982 29.0902 37.2999 29.6124 37.2999 30.1723C37.2999 30.7171 37.3982 31.2317 37.595 31.716C37.7917 32.2003 38.0566 32.6316 38.3895 33.0099C38.7376 33.3732 39.1311 33.6607 39.57 33.8726C40.024 34.0693 40.5007 34.1677 41.0001 34.1677Z" fill="black"/>
<path d="M51.8898 38.0495C51.239 38.0495 50.7699 37.9512 50.4823 37.7544C50.1948 37.5577 50.0132 37.3004 49.9375 36.9826C49.8619 36.6648 49.824 36.3243 49.824 35.9611V24.2247C49.824 23.8917 49.8543 23.5664 49.9148 23.2485C49.9754 22.9307 50.1494 22.6735 50.4369 22.4767C50.7245 22.2648 51.2163 22.1665 51.9125 22.1816H55.8171C56.8916 22.1816 57.9055 22.3859 58.859 22.7945C59.8124 23.2031 60.6523 23.7707 61.3788 24.4971C62.1203 25.2084 62.6954 26.0408 63.104 26.9942C63.5278 27.9476 63.7397 28.9616 63.7397 30.0361C63.7397 31.1409 63.5278 32.1776 63.104 33.1461C62.6954 34.1147 62.1203 34.9698 61.3788 35.7113C60.6523 36.4378 59.8048 37.0129 58.8363 37.4366C57.8828 37.8452 56.8537 38.0495 55.749 38.0495H51.8898ZM53.9783 33.8953H55.8171C56.4981 33.8953 57.1261 33.7288 57.7012 33.3959C58.2763 33.0478 58.7303 32.5938 59.0633 32.0338C59.4114 31.4587 59.5854 30.8231 59.5854 30.1269C59.5854 29.4308 59.4114 28.7951 59.0633 28.22C58.7303 27.645 58.2763 27.1909 57.7012 26.858C57.1261 26.5099 56.4905 26.3359 55.7944 26.3359H53.9783V33.8953Z" fill="black"/>
<path d="M72.3495 38.3219C71.2447 38.3219 70.2081 38.1176 69.2395 37.709C68.2861 37.2853 67.4461 36.7026 66.7197 35.9611C65.9933 35.2195 65.4182 34.3644 64.9944 33.3959C64.5858 32.4121 64.3815 31.3679 64.3815 30.2631C64.3815 29.1129 64.5782 28.0384 64.9717 27.0396C65.3803 26.0408 65.9403 25.163 66.6516 24.4063C67.3629 23.6496 68.1877 23.0594 69.126 22.6356C70.0794 22.2119 71.0934 22 72.1679 22C73.2727 22 74.3018 22.2119 75.2552 22.6356C76.2238 23.0442 77.0713 23.6193 77.7977 24.3609C78.5242 25.1025 79.0917 25.9727 79.5003 26.9715C79.9089 27.9552 80.1132 29.0221 80.1132 30.1723C80.1132 31.2922 79.9089 32.344 79.5003 33.3278C79.1068 34.3115 78.5469 35.1817 77.8204 35.9384C77.1091 36.6799 76.2843 37.2626 75.346 37.6863C74.4229 38.1101 73.424 38.3219 72.3495 38.3219ZM72.236 34.1677C72.7506 34.1677 73.2349 34.0693 73.6889 33.8726C74.1429 33.6607 74.5364 33.3807 74.8693 33.0326C75.2174 32.6694 75.4822 32.2457 75.6639 31.7614C75.8606 31.262 75.959 30.7323 75.959 30.1723C75.959 29.6124 75.8606 29.0902 75.6639 28.606C75.4671 28.1217 75.1947 27.6979 74.8466 27.3347C74.5137 26.9564 74.1202 26.6688 73.6662 26.4721C73.2273 26.2602 72.7581 26.1543 72.2587 26.1543C71.7442 26.1543 71.2599 26.2602 70.8059 26.4721C70.367 26.6688 69.9735 26.9564 69.6254 27.3347C69.2925 27.6979 69.0276 28.1217 68.8309 28.606C68.6341 29.0902 68.5358 29.6124 68.5358 30.1723C68.5358 30.7171 68.6341 31.2317 68.8309 31.716C69.0276 32.2003 69.2925 32.6316 69.6254 33.0099C69.9735 33.3732 70.367 33.6607 70.8059 33.8726C71.2599 34.0693 71.7366 34.1677 72.236 34.1677Z" fill="black"/>
<path d="M87.0076 38.0495C86.5233 38.0495 86.1449 37.9512 85.8725 37.7544C85.6001 37.5577 85.4034 37.3458 85.2823 37.1188C85.1612 36.8767 85.0855 36.7178 85.0553 36.6421L80.9691 24.9284C80.7421 24.1717 80.7043 23.6118 80.8556 23.2485C81.0221 22.8702 81.4988 22.5524 82.2858 22.2951C82.8003 22.1286 83.2165 22.053 83.5343 22.0681C83.8521 22.0832 84.117 22.2119 84.3289 22.454C84.5407 22.6962 84.7299 23.0745 84.8964 23.5891L87.2573 30.4901L89.1187 23.7026C89.1641 23.5512 89.2398 23.3545 89.3458 23.1123C89.4668 22.8702 89.6636 22.6583 89.936 22.4767C90.2084 22.28 90.6019 22.1816 91.1164 22.1816C91.6915 22.1816 92.1153 22.2875 92.3877 22.4994C92.6752 22.7113 92.872 22.9383 92.9779 23.1804C93.0838 23.4226 93.1595 23.6042 93.2049 23.7253L95.0664 30.5355L97.4273 23.5891C97.5938 23.0896 97.7754 22.7189 97.9721 22.4767C98.184 22.2194 98.4564 22.0757 98.7893 22.0454C99.1223 22.0151 99.546 22.0908 100.061 22.2724C100.605 22.4692 100.991 22.681 101.218 22.908C101.445 23.1199 101.559 23.3848 101.559 23.7026C101.574 24.0204 101.506 24.429 101.355 24.9284L97.2911 36.6421C97.2608 36.7329 97.1851 36.8918 97.0641 37.1188C96.9581 37.3458 96.7689 37.5577 96.4965 37.7544C96.2241 37.9512 95.8306 38.0495 95.3161 38.0495C94.8015 38.0495 94.4005 37.936 94.1129 37.709C93.8254 37.4669 93.6211 37.2247 93.5 36.9826C93.3789 36.7253 93.3108 36.574 93.2957 36.5286L91.1618 29.5367L89.0279 36.5059C89.0128 36.5815 88.9447 36.748 88.8236 37.0053C88.7026 37.2474 88.4983 37.482 88.2107 37.709C87.9383 37.936 87.5372 38.0495 87.0076 38.0495Z" fill="black"/>
<path d="M104.629 38.0722C103.948 38.0722 103.464 37.9739 103.177 37.7771C102.889 37.5653 102.715 37.3004 102.655 36.9826C102.594 36.6496 102.564 36.3167 102.564 35.9838V24.2474C102.564 23.9144 102.594 23.5891 102.655 23.2713C102.715 22.9534 102.889 22.6962 103.177 22.4994C103.464 22.2875 103.956 22.1816 104.652 22.1816C105.348 22.1816 105.833 22.2875 106.105 22.4994C106.393 22.6962 106.567 22.9534 106.627 23.2713C106.688 23.5891 106.718 23.922 106.718 24.2701V36.0065C106.718 36.3394 106.688 36.6648 106.627 36.9826C106.567 37.3004 106.393 37.5653 106.105 37.7771C105.817 37.9739 105.326 38.0722 104.629 38.0722Z" fill="black"/>
<path d="M119.822 22.1589C120.11 22.1589 120.382 22.1816 120.639 22.227C120.897 22.2724 121.109 22.4162 121.275 22.6583C121.457 22.9005 121.548 23.3167 121.548 23.9069C121.548 24.482 121.457 24.8981 121.275 25.1554C121.109 25.3976 120.889 25.5413 120.617 25.5867C120.359 25.6321 120.087 25.6548 119.8 25.6548H116.667V36.0519C116.667 36.3848 116.637 36.7102 116.576 37.028C116.515 37.3307 116.341 37.5804 116.054 37.7771C115.781 37.9739 115.297 38.0722 114.601 38.0722C113.935 38.0722 113.458 37.9739 113.171 37.7771C112.883 37.5653 112.709 37.308 112.649 37.0053C112.603 36.6875 112.581 36.3621 112.581 36.0292V25.6548H109.425C109.153 25.6548 108.88 25.6321 108.608 25.5867C108.351 25.5262 108.131 25.3749 107.95 25.1327C107.783 24.8906 107.7 24.4744 107.7 23.8842C107.7 23.3091 107.783 22.9005 107.95 22.6583C108.131 22.4162 108.358 22.2724 108.631 22.227C108.903 22.1816 109.176 22.1589 109.448 22.1589H119.822Z" fill="black"/>
<path d="M133.912 38.0495C133.23 38.0495 132.746 37.9512 132.459 37.7544C132.171 37.5426 131.997 37.2777 131.937 36.9599C131.876 36.6269 131.846 36.294 131.846 35.9611V24.2474C131.846 23.9144 131.876 23.5891 131.937 23.2713C131.997 22.9534 132.171 22.6962 132.459 22.4994C132.746 22.2875 133.238 22.1816 133.934 22.1816C134.63 22.1816 135.115 22.2875 135.387 22.4994C135.675 22.6962 135.849 22.9534 135.909 23.2713C135.97 23.5891 136 23.922 136 24.2701V35.9838C136 36.3167 135.97 36.6421 135.909 36.9599C135.849 37.2777 135.675 37.5426 135.387 37.7544C135.1 37.9512 134.608 38.0495 133.912 38.0495ZM124.581 38.0495C123.9 38.0495 123.416 37.9512 123.129 37.7544C122.841 37.5426 122.667 37.2777 122.606 36.9599C122.546 36.6269 122.516 36.294 122.516 35.9611V24.2474C122.516 23.9144 122.546 23.5891 122.606 23.2713C122.667 22.9534 122.841 22.6962 123.129 22.4994C123.416 22.2875 123.908 22.1816 124.604 22.1816C125.3 22.1816 125.785 22.2875 126.057 22.4994C126.345 22.6962 126.519 22.9534 126.579 23.2713C126.64 23.5891 126.67 23.922 126.67 24.2701V35.9838C126.67 36.3167 126.64 36.6421 126.579 36.9599C126.519 37.2777 126.345 37.5426 126.057 37.7544C125.769 37.9512 125.278 38.0495 124.581 38.0495ZM126.307 31.8976V28.3563H132.209V31.8976H126.307Z" fill="black"/>
<path d="M251 29.994L248.116 26.6734L248.518 22.2778L244.252 21.2984L242.018 17.5L238 19.2439L233.982 17.5L231.748 21.2984L227.482 22.2659L227.884 26.6615L225 29.994L227.884 33.3146L227.482 37.7222L231.748 38.7016L233.982 42.5L238 40.7441L242.018 42.4881L244.252 38.6897L248.518 37.7102L248.116 33.3146L251 29.994ZM245.67 32.5143L245.977 35.8469L242.739 36.5874L241.049 39.4661L238 38.1402L234.951 39.4661L233.261 36.5874L230.023 35.8469L230.33 32.5024L228.144 29.994L230.33 27.4618L230.023 24.1412L233.261 23.4126L234.951 20.5339L238 21.8478L241.049 20.522L242.739 23.4006L245.977 24.1412L245.67 27.4737L247.856 29.994L245.67 32.5143ZM236.818 33.5774H239.182V35.9663H236.818V33.5774ZM236.818 24.0217H239.182V31.1885H236.818V24.0217Z" fill="black"/>
<path d="M346.556 18H329.444C328.088 18 327 19.0286 327 20.2857V36.2857C327 37.5429 328.088 38.5714 329.444 38.5714H334.333L338 42L341.667 38.5714H346.556C347.9 38.5714 349 37.5429 349 36.2857V20.2857C349 19.0286 347.9 18 346.556 18ZM346.556 36.2857H340.652L339.931 36.96L338 38.7657L336.057 36.9486L335.348 36.2857H329.444V20.2857H346.556V36.2857ZM338 28.2857C340.017 28.2857 341.667 26.7429 341.667 24.8571C341.667 22.9714 340.017 21.4286 338 21.4286C335.983 21.4286 334.333 22.9714 334.333 24.8571C334.333 26.7429 335.983 28.2857 338 28.2857ZM338 23.7143C338.672 23.7143 339.222 24.2286 339.222 24.8571C339.222 25.4857 338.672 26 338 26C337.328 26 336.778 25.4857 336.778 24.8571C336.778 24.2286 337.328 23.7143 338 23.7143ZM345.333 33.52C345.333 30.6629 340.481 29.4286 338 29.4286C335.519 29.4286 330.667 30.6629 330.667 33.52V35.1429H345.333V33.52ZM333.698 32.8571C334.602 32.2743 336.423 31.7143 338 31.7143C339.577 31.7143 341.398 32.2743 342.302 32.8571H333.698Z" fill="black"/>
<path d="M300 25.4318V35.6818C300 36.9318 298.92 37.9545 297.6 37.9545H280.8L276 42.5V22.0455C276 20.7955 277.08 19.7727 278.4 19.7727H290.52C290.448 20.1364 290.4 20.5227 290.4 20.9091C290.4 21.2955 290.448 21.6818 290.52 22.0455H278.4V35.6818H297.6V26.4773C298.488 26.3068 299.304 25.9318 300 25.4318ZM292.8 20.9091C292.8 22.7955 294.408 24.3182 296.4 24.3182C298.392 24.3182 300 22.7955 300 20.9091C300 19.0227 298.392 17.5 296.4 17.5C294.408 17.5 292.8 19.0227 292.8 20.9091Z" fill="black"/>
<path d="M-0.5 60H374.5" stroke="#DDDDDD"/>
</svg>
