<svg width="24" height="24" viewBox="0 0 24 24" fill="none" xmlns="http://www.w3.org/2000/svg">
<mask id="path-1-inside-1_729_15824" fill="white">
<path d="M15.1344 3C11.8977 3 9.26867 5.6422 9.26867 8.895C9.26867 9.24349 9.31361 9.57932 9.3676 9.88861C9.38354 9.97993 9.35438 10.0593 9.3056 10.1083L3.72131 15.7205C3.25946 16.1846 3 16.8142 3 17.4706V19.425C3 20.2948 3.70164 21 4.56717 21H6.80598C7.6715 21 8.37315 20.2948 8.37315 19.425V18.3H9.94032C10.5585 18.3 11.0598 17.7963 11.0598 17.175V15.6H12.6269C13.2312 15.6 13.7238 15.1186 13.7455 14.5166C14.1903 14.6316 14.6594 14.7 15.1344 14.7C18.371 14.7 21 12.0578 21 8.805C21 5.53696 18.3556 3 15.1344 3Z"/>
</mask>
<path d="M9.3676 9.88861L10.8453 9.63068L10.8453 9.63066L9.3676 9.88861ZM9.3056 10.1083L8.2423 9.05027L8.2423 9.05028L9.3056 10.1083ZM3.72131 15.7205L4.78458 16.7786L4.78461 16.7785L3.72131 15.7205ZM8.37315 18.3V16.8C7.54472 16.8 6.87315 17.4716 6.87315 18.3H8.37315ZM11.0598 15.6V14.1C10.2313 14.1 9.55977 14.7716 9.55977 15.6H11.0598ZM13.7455 14.5166L14.1211 13.0644C13.681 12.9506 13.2131 13.0424 12.8488 13.3142C12.4844 13.5859 12.2629 14.0082 12.2465 14.4624L13.7455 14.5166ZM15.1344 1.5C11.0622 1.5 7.76867 4.82083 7.76867 8.895H10.7687C10.7687 6.46357 12.7332 4.5 15.1344 4.5V1.5ZM7.76867 8.895C7.76867 9.36758 7.82938 9.79959 7.88995 10.1466L10.8453 9.63066C10.7978 9.35905 10.7687 9.11939 10.7687 8.895H7.76867ZM7.88994 10.1465C7.82569 9.77842 7.93307 9.36106 8.2423 9.05027L10.3689 11.1663C10.7757 10.7575 10.9414 10.1814 10.8453 9.63068L7.88994 10.1465ZM8.2423 9.05028L2.65801 14.6625L4.78461 16.7785L10.3689 11.1663L8.2423 9.05028ZM2.65804 14.6625C1.91568 15.4085 1.5 16.4188 1.5 17.4706H4.5C4.5 17.2096 4.60324 16.9608 4.78458 16.7786L2.65804 14.6625ZM1.5 17.4706V19.425H4.5V17.4706H1.5ZM1.5 19.425C1.5 21.1162 2.86618 22.5 4.56717 22.5V19.5C4.53711 19.5 4.5 19.4735 4.5 19.425H1.5ZM4.56717 22.5H6.80598V19.5H4.56717V22.5ZM6.80598 22.5C8.50697 22.5 9.87315 21.1162 9.87315 19.425H6.87315C6.87315 19.4735 6.83604 19.5 6.80598 19.5V22.5ZM9.87315 19.425V18.3H6.87315V19.425H9.87315ZM8.37315 19.8H9.94032V16.8H8.37315V19.8ZM9.94032 19.8C11.394 19.8 12.5598 18.6177 12.5598 17.175H9.55977C9.55977 16.9749 9.72311 16.8 9.94032 16.8V19.8ZM12.5598 17.175V15.6H9.55977V17.175H12.5598ZM11.0598 17.1H12.6269V14.1H11.0598V17.1ZM12.6269 17.1C14.0482 17.1 15.194 15.9699 15.2446 14.5708L12.2465 14.4624C12.2536 14.2673 12.4142 14.1 12.6269 14.1V17.1ZM13.37 15.9688C13.921 16.1113 14.5167 16.2 15.1344 16.2V13.2C14.8021 13.2 14.4597 13.1519 14.1211 13.0644L13.37 15.9688ZM15.1344 16.2C19.2065 16.2 22.5 12.8791 22.5 8.805H19.5C19.5 11.2364 17.5355 13.2 15.1344 13.2V16.2ZM22.5 8.805C22.5 4.68048 19.1557 1.5 15.1344 1.5V4.5C17.5555 4.5 19.5 6.39345 19.5 8.805H22.5Z" fill="#1A1A1A" mask="url(#path-1-inside-1_729_15824)"/>
<circle cx="16.2891" cy="7.74902" r="1.25" fill="#1A1A1A"/>
</svg>
