<svg width="240" height="180" viewBox="0 0 240 180" fill="none" xmlns="http://www.w3.org/2000/svg">
<circle cx="120" cy="90" r="75" fill="#FFFBE9"/>
<path d="M157.576 100.201V75.2598C157.576 69.6962 154.607 64.555 149.791 61.7702L128.191 49.2966C123.375 46.5118 117.438 46.5118 112.615 49.2966L91.0094 61.7702C86.1926 64.555 83.2241 69.6962 83.2241 75.2598V100.201C83.2241 105.764 86.1926 110.906 91.0094 113.69L112.609 126.164C117.425 128.949 123.362 128.949 128.185 126.164L149.785 113.69C154.601 110.906 157.57 105.764 157.57 100.201H157.576Z" fill="#FFD83D"/>
<path d="M157.576 100.201V75.2598C157.576 69.6962 154.607 64.555 149.791 61.7702L128.191 49.2966C123.375 46.5118 117.438 46.5118 112.615 49.2966L91.0094 61.7702C86.1926 64.555 83.2241 69.6962 83.2241 75.2598V100.201C83.2241 105.764 86.1926 110.906 91.0094 113.69L112.609 126.164C117.425 128.949 123.362 128.949 128.185 126.164L149.785 113.69C154.601 110.906 157.57 105.764 157.57 100.201H157.576Z" fill="#FFD83D"/>
<path d="M120.4 117.516C119.169 117.516 117.951 117.191 116.886 116.573L97.1784 105.195C95.0118 103.947 93.6653 101.609 93.6653 99.1115V76.3555C93.6653 73.8522 95.0118 71.5203 97.1784 70.2717L116.886 58.8937C117.951 58.2756 119.169 57.9512 120.4 57.9512C121.63 57.9512 122.848 58.2756 123.913 58.8937L143.621 70.2717C145.787 71.5203 147.134 73.8583 147.134 76.3555V99.1115C147.134 101.615 145.787 103.947 143.621 105.195L123.913 116.573C122.848 117.191 121.63 117.516 120.4 117.516Z" fill="#FFA245"/>
<path d="M141.05 119.966C140.628 119.966 140.218 119.745 139.991 119.354C139.655 118.766 139.857 118.019 140.438 117.683L149.178 112.633C153.603 110.075 156.351 105.313 156.351 100.203V87.729C156.351 87.0557 156.902 86.5049 157.576 86.5049C158.249 86.5049 158.8 87.0557 158.8 87.729V100.203C158.8 106.182 155.58 111.758 150.402 114.751L141.662 119.8C141.473 119.911 141.258 119.966 141.05 119.966Z" fill="#FFB13B"/>
<path d="M99.7555 119.966C99.5474 119.966 99.3394 119.911 99.1435 119.8L90.4034 114.751C85.2194 111.758 82.0061 106.182 82.0061 100.203V87.729C82.0061 87.0557 82.5569 86.5049 83.2302 86.5049C83.9035 86.5049 84.4543 87.0557 84.4543 87.729V100.203C84.4543 105.313 87.2024 110.075 91.6275 112.633L100.368 117.683C100.955 118.019 101.151 118.772 100.814 119.354C100.588 119.745 100.178 119.966 99.7555 119.966Z" fill="#FFB13B"/>
<path d="M83.2241 88.9556C82.5508 88.9556 82 88.4048 82 87.7315V75.2579C82 69.2721 85.2194 63.7024 90.3973 60.7095L99.1374 55.6601C99.725 55.3235 100.472 55.5254 100.808 56.1069C101.145 56.6945 100.943 57.4412 100.361 57.7778L91.6214 62.8272C87.1963 65.3856 84.4482 70.1473 84.4482 75.2579V87.7315C84.4482 88.4048 83.8974 88.9556 83.2241 88.9556Z" fill="#FEF66B"/>
<path d="M157.576 88.9567C156.903 88.9567 156.352 88.4059 156.352 87.7326V75.2591C156.352 70.1484 153.604 65.3867 149.179 62.8283L140.439 57.7789C139.851 57.4423 139.656 56.6895 139.992 56.108C140.329 55.5204 141.076 55.3185 141.663 55.6612L150.403 60.7106C155.587 63.7036 158.801 69.2793 158.801 75.2591V87.7326C158.801 88.4059 158.25 88.9567 157.576 88.9567Z" fill="#FEF66B"/>
<path d="M120.4 129.47C117.492 129.47 114.591 128.723 112.002 127.224L99.1431 119.8C98.5556 119.463 98.3597 118.71 98.6963 118.129C99.033 117.541 99.7858 117.345 100.367 117.682L113.226 125.106C117.652 127.664 123.154 127.658 127.579 125.106L140.438 117.682C141.026 117.345 141.772 117.547 142.109 118.129C142.446 118.716 142.244 119.463 141.662 119.8L128.803 127.224C126.214 128.717 123.307 129.47 120.406 129.47H120.4Z" fill="#FF9142"/>
<path d="M141.044 57.9518C140.836 57.9518 140.628 57.8967 140.432 57.7865L127.573 50.3624C123.148 47.804 117.646 47.804 113.22 50.3624L100.361 57.7865C99.7737 58.1232 99.027 57.9212 98.6904 57.3398C98.3537 56.7522 98.5557 56.0055 99.1372 55.6689L111.996 48.2447C117.18 45.2518 123.613 45.2518 128.797 48.2447L141.656 55.6689C142.244 56.0055 142.44 56.7583 142.103 57.3398C141.877 57.7315 141.467 57.9518 141.044 57.9518Z" fill="white"/>
<path d="M93.6662 88.9583C92.993 88.9583 92.4421 88.4075 92.4421 87.7342V76.3562C92.4421 73.4184 94.0212 70.6825 96.5674 69.2075L104.206 64.8007C104.793 64.4641 105.54 64.6661 105.877 65.2475C106.213 65.8351 106.011 66.5818 105.43 66.9184L97.7915 71.3252C96.0043 72.3595 94.8903 74.2875 94.8903 76.3501V87.7281C94.8903 88.4014 94.3395 88.9522 93.6662 88.9522V88.9583Z" fill="#FFB13B"/>
<path d="M147.141 88.9562C146.468 88.9562 145.917 88.4054 145.917 87.7321V76.3542C145.917 74.2854 144.803 72.3636 143.016 71.3292L135.378 66.9225C134.79 66.5858 134.594 65.833 134.931 65.2516C135.267 64.664 136.02 64.462 136.602 64.8048L144.24 69.2115C146.786 70.6804 148.365 73.4224 148.365 76.3603V87.7383C148.365 88.4115 147.814 88.9624 147.141 88.9624V88.9562Z" fill="#FFB13B"/>
<path d="M104.811 110.831C104.603 110.831 104.395 110.776 104.199 110.665L96.561 106.259C94.0149 104.79 92.4358 102.048 92.4358 99.1099V87.7319C92.4358 87.0587 92.9866 86.5078 93.6599 86.5078C94.3331 86.5078 94.884 87.0587 94.884 87.7319V99.1099C94.884 101.179 95.9979 103.1 97.7851 104.135L105.423 108.542C106.011 108.878 106.207 109.631 105.87 110.212C105.644 110.604 105.234 110.825 104.811 110.825V110.831Z" fill="#FEF66B"/>
<path d="M135.99 110.831C135.567 110.831 135.157 110.611 134.931 110.219C134.594 109.632 134.796 108.885 135.378 108.548L143.016 104.142C144.803 103.107 145.917 101.179 145.917 99.1167V87.7387C145.917 87.0655 146.468 86.5146 147.141 86.5146C147.814 86.5146 148.365 87.0655 148.365 87.7387V99.1167C148.365 102.055 146.786 104.797 144.24 106.265L136.602 110.672C136.412 110.782 136.198 110.838 135.99 110.838V110.831Z" fill="#FEF66B"/>
<path d="M135.983 67.083C135.775 67.083 135.567 67.0279 135.371 66.9177L123.302 59.9465C121.539 58.9305 119.262 58.9305 117.499 59.9465L105.43 66.9177C104.842 67.2544 104.096 67.0524 103.759 66.4709C103.422 65.8834 103.624 65.1367 104.206 64.8L116.275 57.8288C118.779 56.3782 122.023 56.3844 124.526 57.8288L136.595 64.8C137.183 65.1367 137.379 65.8895 137.042 66.4709C136.816 66.8626 136.406 67.083 135.983 67.083Z" fill="#FF9142"/>
<path d="M120.4 118.739C118.956 118.739 117.53 118.359 116.275 117.631L104.206 110.66C103.618 110.323 103.422 109.57 103.759 108.989C104.095 108.401 104.848 108.199 105.43 108.542L117.499 115.513C119.262 116.529 121.539 116.529 123.302 115.513L135.371 108.542C135.959 108.205 136.705 108.407 137.042 108.989C137.379 109.576 137.177 110.323 136.595 110.66L124.526 117.631C123.271 118.353 121.845 118.739 120.4 118.739Z" fill="white"/>
<path d="M120.4 69.0352C121.171 69.0352 121.936 69.2371 122.603 69.6288L134.973 76.7715C136.331 77.5549 137.176 79.0238 137.176 80.5907V94.8759C137.176 96.4489 136.331 97.9117 134.973 98.6951L122.603 105.838C121.936 106.223 121.171 106.431 120.4 106.431C119.629 106.431 118.864 106.229 118.196 105.838L105.827 98.6951C104.468 97.9117 103.624 96.4427 103.624 94.8759V80.5907C103.624 79.0177 104.468 77.5549 105.827 76.7715L118.196 69.6288C118.864 69.2433 119.629 69.0352 120.4 69.0352Z" fill="#FFD83D"/>
<path d="M120.4 79.2197C120.755 79.2197 121.097 79.3115 121.403 79.489L127.034 82.739C127.652 83.094 128.038 83.7611 128.038 84.4772V90.9833C128.038 91.6994 127.652 92.3666 127.034 92.7215L121.403 95.9715C121.097 96.149 120.748 96.2408 120.4 96.2408C120.051 96.2408 119.702 96.149 119.396 95.9715L113.765 92.7215C113.147 92.3666 112.761 91.6994 112.761 90.9833V84.4772C112.761 83.7611 113.147 83.094 113.765 82.739L119.396 79.489C119.702 79.3115 120.051 79.2197 120.4 79.2197Z" fill="#FEF66B"/>
<path d="M130.186 102.688C129.764 102.688 129.354 102.468 129.127 102.076C128.791 101.489 128.992 100.742 129.574 100.405L134.366 97.6388C135.352 97.0696 135.958 96.0107 135.958 94.8784V87.7358C135.958 87.0626 136.508 86.5117 137.182 86.5117C137.855 86.5117 138.406 87.0626 138.406 87.7358V94.8784C138.406 96.886 137.329 98.7527 135.59 99.7565L130.798 102.523C130.608 102.633 130.394 102.688 130.186 102.688Z" fill="#FFB13B"/>
<path d="M110.619 102.688C110.411 102.688 110.203 102.633 110.007 102.523L105.215 99.7565C103.476 98.7527 102.399 96.8798 102.399 94.8784V87.7358C102.399 87.0626 102.95 86.5117 103.623 86.5117C104.297 86.5117 104.847 87.0626 104.847 87.7358V94.8784C104.847 96.0107 105.459 97.0696 106.439 97.6388L111.231 100.405C111.819 100.742 112.014 101.495 111.678 102.076C111.451 102.468 111.041 102.688 110.619 102.688Z" fill="#FFB13B"/>
<path d="M137.182 88.9602C136.509 88.9602 135.958 88.4093 135.958 87.7361V80.5934C135.958 79.4612 135.346 78.4023 134.367 77.8331L129.575 75.0666C128.987 74.73 128.791 73.9772 129.128 73.3957C129.464 72.8143 130.211 72.6062 130.799 72.9489L135.591 75.7154C137.329 76.7192 138.406 78.5859 138.406 80.5934V87.7361C138.406 88.4093 137.856 88.9602 137.182 88.9602Z" fill="#FEF66B"/>
<path d="M103.617 88.9604C102.944 88.9604 102.393 88.4095 102.393 87.7363V80.5937C102.393 78.5861 103.47 76.7194 105.208 75.7156L110.001 72.9492C110.588 72.6125 111.335 72.8145 111.672 73.3959C112.008 73.9774 111.806 74.7302 111.225 75.0668L106.433 77.8333C105.447 78.4025 104.841 79.4614 104.841 80.5937V87.7363C104.841 88.4095 104.29 88.9604 103.617 88.9604Z" fill="#FEF66B"/>
<path d="M120.4 107.657C119.414 107.657 118.435 107.394 117.584 106.904L110.007 102.528C109.42 102.191 109.224 101.438 109.56 100.857C109.897 100.269 110.644 100.067 111.231 100.41L118.808 104.786C119.775 105.343 121.024 105.343 121.997 104.786L129.574 100.41C130.162 100.074 130.909 100.276 131.245 100.857C131.582 101.445 131.38 102.191 130.798 102.528L123.221 106.904C122.364 107.4 121.391 107.657 120.406 107.657H120.4Z" fill="#FF9142"/>
<path d="M130.18 75.2263C129.972 75.2263 129.764 75.1712 129.568 75.061L121.991 70.6849C121.024 70.1279 119.769 70.1279 118.802 70.6849L111.225 75.061C110.638 75.3976 109.891 75.1957 109.554 74.6142C109.218 74.0328 109.42 73.28 110.001 72.9433L117.578 68.5672C119.292 67.5818 121.502 67.5818 123.215 68.5672L130.793 72.9433C131.38 73.28 131.576 74.0328 131.239 74.6142C131.013 75.0059 130.603 75.2263 130.18 75.2263Z" fill="white"/>
<path d="M95.7694 137L97.2507 141.711L101.969 143.16L97.9501 146.026L98.0316 150.964L94.0665 148.025L89.3977 149.628L90.9659 144.946L88 140.998L92.936 141.042L95.7694 137Z" fill="#FFD600"/>
<path d="M189.149 31L191.549 33.7924L195.208 33.3967L193.296 36.5435L194.802 39.9043L191.221 39.0565L188.495 41.5293L188.192 37.8587L185 36.0261L188.395 34.6043L189.149 31Z" fill="#FFD600"/>
<path d="M176.219 59L177.173 61.5837L179.841 62.262L177.679 63.9674L177.859 66.7174L175.57 65.187L173.014 66.2076L173.759 63.5565L172 61.438L174.75 61.3293L176.219 59Z" fill="#FFD600"/>
<path d="M26.512 104.407L23.545 102.227L20.0697 103.437L21.2242 99.9402L19 97.0163H22.6805L24.7809 94L25.9006 97.5098L29.4236 98.5728L26.436 100.725L26.512 104.407Z" fill="#FFD600"/>
<path d="M184 24.2511L185.348 21.85L184.137 19.3772L186.835 19.9185L188.811 18L189.129 20.7359L191.563 22.0239L189.062 23.1728L188.59 25.887L186.725 23.862L184 24.2511Z" fill="#FFD600"/>
<path d="M216.648 117.383L215.757 121.299L218.474 124.253L214.479 124.615L212.512 128.113L210.932 124.423L207 123.632L210.02 120.988L209.556 117L213.001 119.058L216.648 117.383Z" fill="#FFD600"/>
<path d="M59.0007 50.9565L59.3254 46.6913L56 44.0054L60.1529 42.9967L61.6788 39L63.9204 42.6424L68.1884 42.8598L65.4202 46.1185L66.5344 50.2489L62.5813 48.6207L59.0007 50.9565Z" fill="#FFD600"/>
<path d="M159.273 160.101L156.152 158.708L153.238 160.491L153.596 157.091L151 154.867L154.342 154.158L155.653 151L157.361 153.961L160.766 154.234L158.479 156.774L159.273 160.101Z" fill="#FFD600"/>
<path d="M210.649 79L212.098 81.3424L214.848 81.4761L213.069 83.5772L213.791 86.237L211.243 85.1935L208.941 86.7022L209.145 83.9554L207 82.2293L209.674 81.575L210.649 79Z" fill="#FFD600"/>
<path d="M37.7537 56.0705C36.318 55.1673 34.879 54.301 33.389 53.5336C31.9022 52.7673 30.4046 52.0433 28.8799 51.4053C27.3507 50.7662 25.7782 50.2716 24.2491 49.6836C22.7156 49.0944 21.1713 48.5531 19.6248 47.9205C19.1154 47.7118 18.8656 47.1281 19.0731 46.6183C19.2447 46.1999 19.6682 45.9607 20.0961 46.0053C21.8294 46.1857 23.5182 46.6357 25.157 47.2151C26.7979 47.7955 28.3271 48.6488 29.8203 49.5238C31.3136 50.3999 32.7548 51.3596 34.1025 52.4292C35.4514 53.4988 36.7394 54.6314 37.9188 55.8673C37.9698 55.9205 37.9677 56.0031 37.9156 56.0542C37.871 56.0966 37.8037 56.102 37.7537 56.0705Z" fill="#FFD600"/>
<path d="M83.3266 29.6312C82.6238 28.5732 81.9205 27.54 81.1502 26.5607C80.3818 25.5843 79.5984 24.633 78.7737 23.7314C77.9464 22.8281 77.0283 22.0263 76.2084 21.1436C75.387 20.2591 74.5467 19.4017 73.7556 18.4467C73.3931 18.0091 73.4529 17.3763 73.879 17.0232C74.2034 16.7552 74.645 16.7256 74.9948 16.9131C76.1593 17.5417 77.1735 18.391 78.0994 19.3165C79.0281 20.2445 79.7492 21.3573 80.4458 22.4572C81.143 23.5592 81.7696 24.7015 82.2802 25.8898C82.7921 27.079 83.2439 28.2832 83.5671 29.5234C83.586 29.5937 83.543 29.6674 83.4716 29.6865C83.415 29.7019 83.3573 29.6773 83.3266 29.6312Z" fill="#FFD600"/>
<path d="M204.025 52.6062C204.773 51.5671 205.639 50.6149 206.55 49.6953C207.459 48.7769 208.459 47.9432 209.51 47.1725C210.559 46.403 211.638 45.6323 212.841 45.1084C214.041 44.5867 215.295 44.1671 216.609 44.0073C217.158 43.941 217.659 44.3334 217.724 44.8845C217.774 45.3019 217.561 45.691 217.214 45.8823C216.117 46.4888 215.02 46.978 213.933 47.5008C212.849 48.0214 211.701 48.4312 210.602 48.9703C209.505 49.5073 208.429 50.1062 207.358 50.7323C206.282 51.3617 205.249 52.0627 204.211 52.7932C204.15 52.8356 204.066 52.8214 204.025 52.7617C203.99 52.7138 203.993 52.6508 204.025 52.6062Z" fill="#FFD600"/>
<path d="M154.33 33.683C154.636 32.2479 155.081 30.842 155.59 29.4515C156.097 28.0607 156.732 26.7142 157.439 25.402C158.146 24.0919 158.885 22.7764 159.844 21.625C160.801 20.4772 161.858 19.4054 163.08 18.5304C163.528 18.2097 164.153 18.3121 164.472 18.7605C164.726 19.1164 164.714 19.5819 164.476 19.9197C163.638 21.097 162.748 22.1737 161.886 23.2788C161.024 24.3799 160.064 25.4127 159.207 26.5397C158.35 27.6647 157.545 28.8381 156.764 30.0378C155.981 31.2416 155.272 32.4938 154.575 33.7741C154.539 33.8384 154.459 33.8629 154.395 33.8272C154.343 33.7984 154.318 33.738 154.33 33.683Z" fill="#FFD600"/>
<path d="M174.145 127.296C176.209 127.661 178.24 128.197 180.253 128.831C182.263 129.464 184.228 130.259 186.148 131.157C188.067 132.054 189.976 133.019 191.72 134.24C193.461 135.46 195.109 136.821 196.562 138.378C196.936 138.777 196.916 139.405 196.518 139.779C196.173 140.103 195.655 140.129 195.278 139.873L190.235 136.409C188.547 135.282 186.904 134.076 185.156 133.011C183.411 131.948 181.604 130.97 179.762 130.05C177.915 129.128 176.013 128.315 174.073 127.549C174.007 127.523 173.973 127.446 173.999 127.378C174.022 127.32 174.085 127.286 174.145 127.296Z" fill="#FFD600"/>
<path d="M41.6567 129.243C40.613 129.965 39.5943 130.688 38.631 131.479C37.671 132.266 36.7359 133.067 35.8508 133.909C34.9635 134.753 34.1794 135.686 33.3149 136.521C32.4461 137.359 31.6055 138.219 30.6672 139.028C30.248 139.39 29.604 139.352 29.2423 138.93C28.9687 138.611 28.9296 138.169 29.1109 137.817C29.718 136.64 30.5467 135.61 31.4535 134.666C32.3625 133.72 33.4615 132.975 34.5465 132.259C35.6336 131.542 36.7641 130.893 37.9403 130.36C39.1186 129.827 40.3132 129.35 41.5459 129.005C41.6165 128.985 41.6892 129.028 41.7099 129.097C41.7262 129.154 41.7023 129.211 41.6567 129.243Z" fill="#FFD600"/>
<path d="M188.143 96.2562C189.265 96.2053 190.388 96.2799 191.517 96.4009C192.644 96.5221 193.762 96.7545 194.865 97.0519C195.968 97.3492 197.089 97.6556 198.102 98.1969C199.113 98.7373 200.08 99.3728 200.898 100.197C201.29 100.592 201.287 101.231 200.891 101.625C200.604 101.907 200.191 101.985 199.836 101.854C198.796 101.472 197.86 100.997 196.911 100.541C195.966 100.086 195.075 99.5008 194.122 99.0201C193.168 98.5416 192.187 98.1032 191.188 97.6751C190.184 97.2454 189.155 96.8806 188.104 96.5158C188.032 96.4924 187.996 96.4152 188.02 96.3462C188.04 96.2928 188.089 96.2595 188.143 96.2562Z" fill="#FFD600"/>
<path d="M169.241 132.045C170.384 132.623 171.461 133.328 172.513 134.082C173.563 134.836 174.544 135.692 175.471 136.611C176.395 137.526 177.327 138.471 178.034 139.577C178.739 140.681 179.351 141.853 179.716 143.126C179.868 143.658 179.562 144.215 179.027 144.366C178.622 144.481 178.206 144.331 177.961 144.02C177.19 143.029 176.533 142.025 175.845 141.031C175.16 140.042 174.574 138.973 173.868 137.971C173.165 136.972 172.404 136.002 171.615 135.042C170.825 134.077 169.97 133.168 169.085 132.257C169.034 132.203 169.035 132.119 169.088 132.069C169.128 132.028 169.191 132.02 169.241 132.045Z" fill="#FFD600"/>
<path d="M139.707 23.2522L133.908 21.4739L129.156 25.2467L129.053 19.1772L124 15.8217L129.736 13.8478L131.363 8L135.011 12.8511L141.072 12.5924L137.589 17.563L139.707 23.2522Z" fill="#FFD600"/>
<path d="M73.4995 131.298C72.132 133.107 70.8336 134.947 69.6398 136.85C68.4474 138.749 67.3311 140.687 66.3352 142.681C65.3394 144.674 64.5024 146.732 63.5938 148.749C62.6827 150.771 61.8793 152.831 60.986 154.885C60.7677 155.388 60.1856 155.619 59.6825 155.404C59.2501 155.215 59.02 154.752 59.1012 154.307C59.5313 152.031 60.2961 149.842 61.1815 147.705C62.0671 145.567 63.2615 143.572 64.5106 141.636C65.7599 139.698 67.1097 137.832 68.5784 136.074C70.0494 134.315 71.6219 132.653 73.3051 131.118C73.3585 131.07 73.4433 131.073 73.4919 131.126C73.5355 131.176 73.5377 131.248 73.4995 131.298Z" fill="#FFD600"/>
<path d="M43.4136 71L46.5761 74.0739L50.8985 73.2087L48.9545 77.1696L51.1124 81.0174L46.7488 80.3902L43.7589 83.6337L43.0063 79.2859L39 77.4424L42.8988 75.3815L43.4136 71Z" fill="#FFD600"/>
<path d="M57.5469 105L59.0674 107.297L61.8194 107.345L60.1078 109.502L60.9125 112.135L58.3332 111.173L56.0797 112.752L56.1981 110L54 108.342L56.651 107.604L57.5469 105Z" fill="#FFD600"/>
<path d="M54.5469 24L56.0674 26.2967L58.8194 26.3446L57.1078 28.5022L57.9125 31.1348L55.3332 30.1728L53.0797 31.7522L53.1981 29L51 27.3424L53.651 26.6043L54.5469 24Z" fill="#FFD600"/>
</svg>
