<svg width="90" height="44" viewBox="0 0 90 44" fill="none" xmlns="http://www.w3.org/2000/svg">
<path d="M21.5012 5.87825H24.3033C25.2189 5.87825 25.746 6.68233 25.746 7.51414C25.746 8.34595 25.2189 9.15003 24.3033 9.15003H21.5012V13.5586C21.5012 14.4736 22.0284 14.8618 22.611 14.8618C22.9994 14.8618 23.3878 14.8063 23.7762 14.64C24.4421 14.335 25.2466 14.7232 25.6073 15.5827C25.968 16.5254 25.5518 17.3295 24.9137 17.6345C24.1646 18.0227 23.2491 18.1336 22.4723 18.1336C19.3095 18.1336 17.8391 16.4977 17.8391 13.9191V9.15003H17.0623C16.1467 9.15003 15.7306 8.34595 15.7306 7.51414C15.7306 6.68233 16.1467 5.87825 17.0623 5.87825H17.8391V3.71555C17.8391 2.60647 18.6159 1.96875 19.6702 1.96875C20.7244 1.96875 21.5012 2.6342 21.5012 3.71555V5.87825Z" fill="#FFD600"/>
<path d="M39.59 11.8667C39.59 15.388 36.8712 18.1607 33.32 18.1607C29.7688 18.1607 27.0222 15.3603 27.0222 11.8667C27.0222 8.37311 29.7688 5.68359 33.32 5.68359C36.8712 5.68359 39.59 8.40084 39.59 11.8667ZM30.6844 11.8667C30.6844 13.5858 31.7941 14.9167 33.32 14.9167C34.8459 14.9167 35.9279 13.5858 35.9279 11.8667C35.9279 10.1476 34.8181 8.92765 33.32 8.92765C31.8218 8.92765 30.6844 10.1754 30.6844 11.8667Z" fill="#FFD600"/>
<path d="M53.3786 17.9393C49.7442 17.9393 47.6357 15.2221 47.6357 11.8671C47.6357 8.51218 49.7164 5.85039 53.3786 5.85039H55.6536V1.80225C55.6536 0.693174 56.4304 0 57.4846 0C58.5389 0 59.3157 0.693174 59.3157 1.80225V15.5271C59.3157 17.1353 58.4557 17.9671 56.902 17.9671H53.3508L53.3786 17.9393ZM53.6283 9.12217C51.9914 9.12217 51.3256 10.4531 51.3256 11.8671C51.3256 13.2812 51.9914 14.6676 53.6283 14.6676H55.6536V9.12217H53.6283Z" fill="#FFD600"/>
<path d="M74.2694 11.8667C74.2694 15.388 71.5506 18.1607 67.9994 18.1607C64.4482 18.1607 61.7016 15.3603 61.7016 11.8667C61.7016 8.37311 64.4482 5.68359 67.9994 5.68359C71.5506 5.68359 74.2694 8.40084 74.2694 11.8667ZM65.3637 11.8667C65.3637 13.5858 66.4735 14.9167 67.9994 14.9167C69.5253 14.9167 70.6073 13.5858 70.6073 11.8667C70.6073 10.1476 69.4975 8.92765 67.9994 8.92765C66.5012 8.92765 65.3637 10.1754 65.3637 11.8667Z" fill="#FFD600"/>
<path d="M21.9729 37.4335C21.418 38.0435 20.5025 38.3208 19.6979 37.988C18.8933 37.6553 18.3939 36.8235 18.4217 35.9917L18.8933 26.8141C18.9211 25.9823 19.6424 25.2614 20.6412 25.4C21.6677 25.5109 22.3335 26.1209 22.2503 27.1191L21.7232 33.1635L25.4408 29.1709C25.9957 28.5609 26.6893 28.4222 27.3551 28.6718C27.9932 28.949 28.3816 29.559 28.3539 30.3631L28.1874 35.8253L32.0715 31.1949C32.7096 30.4186 33.6251 30.4186 34.4297 31.084C35.2065 31.694 35.2065 32.6922 34.6239 33.3022L28.4926 40.0953C27.91 40.733 26.9944 40.9825 26.1621 40.6221C25.3576 40.2894 24.8859 39.4853 24.9137 38.6258L25.1079 34.0231L21.9729 37.4058V37.4335Z" fill="#FFD600"/>
<path d="M41.5876 41.9253C41.5043 42.9789 40.672 43.5335 39.6733 43.4503C38.6745 43.3671 37.9809 42.6462 38.0641 41.5926L38.8687 32.914C38.9797 31.8604 39.7842 31.3059 40.783 31.3891C41.7818 31.4722 42.4754 32.1931 42.3921 33.219L41.5876 41.8976V41.9253ZM41.2824 25.9823C42.3921 26.0932 43.2522 27.0914 43.1412 28.2282C43.0302 29.3373 42.0315 30.1968 40.894 30.0859C39.7565 29.975 38.9242 28.9768 39.0352 27.84C39.1461 26.7309 40.1449 25.8714 41.2824 25.9823Z" fill="#FFD600"/>
<path d="M51.603 31.3326L54.2663 30.9999C55.1264 30.889 55.7367 31.5821 55.8477 32.3862C55.9587 33.218 55.5425 34.0221 54.6825 34.133L52.0191 34.4657L52.5462 38.6525C52.6572 39.512 53.2121 39.8448 53.767 39.7616C54.1554 39.7061 54.516 39.5952 54.849 39.4011C55.4593 39.0407 56.2639 39.2902 56.7078 40.0943C57.1517 40.9261 56.8465 41.7579 56.2916 42.1461C55.598 42.5897 54.7657 42.8393 54.0167 42.9225C50.9926 43.3106 49.3835 41.9243 49.0783 39.4566L48.4957 34.9094L47.7466 34.9925C46.8866 35.1035 46.3872 34.3826 46.2762 33.5785C46.1652 32.7467 46.4704 31.9426 47.3582 31.8317L48.1073 31.7485L47.8298 29.6967C47.6911 28.6431 48.357 27.9222 49.3835 27.7835C50.41 27.6449 51.2146 28.1717 51.3533 29.2253L51.6307 31.2771L51.603 31.3326Z" fill="#FFD600"/>
<path d="M72.688 34.9651C73.1319 35.9355 72.688 36.8228 71.7725 37.2387C70.8292 37.6546 69.8859 37.3773 69.4698 36.4069L67.2225 31.3883C66.8064 30.4456 65.8909 30.0574 64.9753 30.4733C64.0598 30.8892 63.6991 31.8319 64.1153 32.7192L66.3902 37.7932C66.8341 38.7637 66.3902 39.6509 65.4747 40.0669C64.5592 40.4828 63.5881 40.2055 63.172 39.235L57.4013 26.3143C56.9574 25.3438 57.4013 24.4566 58.3169 24.0407C59.2324 23.6248 60.2034 23.902 60.6196 24.8725L62.6171 29.3088C62.8113 28.4493 63.6436 27.6452 64.6147 27.2015C66.6122 26.3143 68.9981 26.6193 70.3298 29.5861L72.7435 34.9651H72.688Z" fill="#FFD600"/>
<path d="M80.6782 31.2764C80.0956 31.2764 79.5684 30.9159 79.3742 30.3614C79.1246 29.6405 79.4852 28.8364 80.2065 28.5869C84.59 27.0064 87.1979 25.0933 87.1979 23.4296C87.1979 21.766 84.59 19.8251 80.2065 18.2724C79.4852 18.0229 79.1246 17.2188 79.3742 16.4979C79.6239 15.777 80.4285 15.3888 81.1498 15.6661C87.0037 17.7733 90 20.3797 90 23.4574C90 26.5351 87.0315 29.1414 81.1776 31.2209C81.0111 31.2764 80.8724 31.3041 80.7059 31.3041L80.6782 31.2764Z" fill="#FFD600"/>
<path d="M80.6504 23.2632C80.0123 23.2632 79.4297 22.8196 79.291 22.1541L78.1535 16.6365C78.0425 16.1097 78.2645 15.5551 78.7084 15.2224L82.5925 12.4497C83.2306 12.0061 84.0906 12.1447 84.5345 12.7824C84.9784 13.3924 84.8397 14.2797 84.2016 14.7233L81.0388 16.9692L81.9821 21.5996C82.1486 22.3482 81.6492 23.0691 80.9001 23.2355C80.8169 23.2355 80.7059 23.2632 80.6227 23.2632H80.6504Z" fill="#FFD600"/>
<path d="M9.32183 27.9219C9.15536 27.9219 9.01665 27.9219 8.85019 27.8387C2.9963 25.7315 0 23.1252 0 20.0475C0 16.9698 2.96856 14.3912 8.82244 12.2839C9.54377 12.0344 10.3483 12.3948 10.598 13.1157C10.8477 13.8366 10.4871 14.6407 9.76572 14.8903C5.38224 16.4707 2.77435 18.3839 2.77435 20.0475C2.77435 21.7111 5.38224 23.652 9.76572 25.2047C10.4871 25.4542 10.8477 26.2583 10.598 26.9792C10.4038 27.5338 9.84895 27.8942 9.29408 27.8942L9.32183 27.9219Z" fill="#FFD600"/>
<path d="M6.54749 31.2763C6.10359 31.2763 5.68744 31.0822 5.41001 30.694C4.96611 30.084 5.10483 29.1967 5.74293 28.7531L8.90569 26.5072L7.96241 21.8768C7.79595 21.1282 8.29533 20.4073 9.04441 20.2409C9.76574 20.1023 10.5426 20.5737 10.6813 21.3223L11.8188 26.84C11.9297 27.3668 11.7078 27.9213 11.2639 28.254L7.3798 31.0267C7.1301 31.1931 6.85267 31.2763 6.57523 31.2763H6.54749Z" fill="#FFD600"/>
</svg>
