<svg width="189" height="201" viewBox="0 0 189 201" fill="none" xmlns="http://www.w3.org/2000/svg">
<g clip-path="url(#clip0_165_2244)">
<path d="M144.867 154.863C144.836 155.741 144.769 156.613 144.664 157.475C144.375 159.895 143.807 162.262 142.977 164.529C140.102 172.393 134.12 179.058 125.99 182.665L125.535 182.867C116.321 186.959 106.492 189.116 96.6261 189.348C95.3234 189.379 94.0207 189.376 92.7149 189.339C82.8461 189.061 73.0173 186.855 63.8214 182.714C55.6793 179.052 49.7126 172.314 46.8921 164.388C46.6155 163.617 46.3697 162.831 46.1608 162.039C45.7491 160.537 45.4541 159.001 45.2759 157.441C45.1684 156.515 45.1008 155.582 45.0793 154.643C45.0732 154.386 45.0701 154.132 45.0701 153.875C45.0701 151.523 45.3343 149.143 45.8874 146.769C47.8415 138.376 50.3793 130.817 52.6714 124.874C53.9895 121.457 55.2246 118.57 56.2139 116.367C56.2938 116.193 56.3706 116.025 56.4444 115.86C57.2494 114.095 57.87 112.822 58.2172 112.131C58.4138 111.736 58.5214 111.528 58.5214 111.528H131.459C131.459 111.528 131.582 111.761 131.803 112.207C132.184 112.972 132.863 114.367 133.729 116.288C133.803 116.453 133.88 116.621 133.96 116.796C135.09 119.328 136.504 122.681 137.985 126.654C140.077 132.261 142.305 139.107 144.062 146.625C144.707 149.378 144.965 152.147 144.867 154.863V154.863Z" fill="#ECC18E"/>
<g opacity="0.35">
<path d="M144.277 154.863C144.16 158.194 143.512 161.452 142.388 164.529C139.512 172.393 133.53 179.058 125.4 182.665L124.945 182.867C115.731 186.959 105.902 189.116 96.0362 189.348C95.305 188.418 94.6383 187.305 94.0791 186.078C93.5199 187.302 92.8562 188.412 92.125 189.339C82.2562 189.061 72.4274 186.855 63.2315 182.714C55.0894 179.052 49.1227 172.314 46.3021 164.388C45.193 161.283 44.5723 157.998 44.4894 154.643C44.6829 154.578 44.8796 154.517 45.0762 154.459C45.0732 154.263 45.0701 154.071 45.0701 153.875C45.0701 151.523 45.3343 149.143 45.8874 146.769C47.8414 138.376 50.3793 130.817 52.6714 124.874C53.9895 121.457 55.2246 118.57 56.2139 116.367C56.2938 116.193 56.3706 116.025 56.4444 115.86C57.2494 114.095 57.87 112.822 58.2172 112.131C58.4138 111.736 58.5214 111.528 58.5214 111.528H61.3572L61.3634 111.801L61.6891 126.027C61.6891 126.027 62.1254 142.092 54.4503 153.811C54.3459 153.973 54.2383 154.135 54.1277 154.294C62.8197 155.634 60.2204 158.124 87.2705 166.477C90.5519 167.49 92.7395 169.288 94.0791 171.485C95.4156 169.288 97.6032 167.49 100.885 166.477C128.703 157.888 125.163 155.496 134.799 154.184C134.712 154.061 134.633 153.936 134.55 153.811C126.875 142.092 127.311 126.027 127.311 126.027L127.637 111.801L127.643 111.528H130.479C130.479 111.528 130.586 111.736 130.783 112.131C131.13 112.822 131.751 114.095 132.556 115.86C132.629 116.025 132.706 116.193 132.786 116.367C133.775 118.57 135.011 121.457 136.329 124.874C138.621 130.817 141.159 138.376 143.113 146.769C143.666 149.143 143.93 151.523 143.93 153.875C143.93 154.132 143.927 154.386 143.921 154.643C143.921 154.673 143.921 154.701 143.918 154.731C144.037 154.774 144.157 154.817 144.277 154.863V154.863Z" fill="#6B184E"/>
</g>
<path d="M94.848 190.587C84.0866 190.587 73.3276 188.334 63.3144 183.83C59.7957 182.247 56.6134 180.091 53.8566 177.422C51.172 174.822 48.9644 171.81 47.2938 168.468C45.6216 165.122 44.5416 161.553 44.0846 157.86C43.6137 154.061 43.8173 150.237 44.6883 146.493C46.3736 139.254 48.6726 131.833 51.5215 124.437C54.6762 116.253 57.3193 111.175 57.4299 110.963L57.774 110.305H132.202L132.546 110.963C132.578 111.023 135.7 117.019 139.134 126.23C141.655 132.984 143.715 139.753 145.257 146.348C146.137 150.108 146.342 153.949 145.867 157.765C145.405 161.474 144.317 165.056 142.63 168.413C140.946 171.766 138.721 174.785 136.015 177.387C133.237 180.058 130.032 182.21 126.489 183.783L126.032 183.986C116.116 188.388 105.48 190.588 94.8464 190.588L94.848 190.587ZM59.2772 112.752C58.4668 114.38 56.2785 118.928 53.8166 125.313C51.0076 132.604 48.7425 139.915 47.0826 147.045C46.276 150.509 46.0886 154.047 46.5234 157.561C46.9466 160.977 47.9459 164.281 49.4937 167.377C51.0407 170.472 53.0846 173.261 55.5695 175.667C58.1212 178.137 61.0669 180.133 64.3253 181.599C74.0158 185.959 84.4323 188.139 94.8472 188.14C105.141 188.14 115.433 186.011 125.032 181.75L125.489 181.547C131.959 178.675 137.266 173.622 140.433 167.318C141.993 164.211 143.001 160.895 143.428 157.464C143.868 153.934 143.677 150.381 142.864 146.902C141.345 140.408 139.315 133.74 136.83 127.082C134.102 119.765 131.583 114.525 130.701 112.752H59.2772Z" fill="#6B184E"/>
<path d="M92.254 188.727C97.5594 190.176 102.897 191.18 103.346 191.986C104.616 194.268 90.8376 200.013 82.8937 196.84" fill="white"/>
<path d="M88.4027 198.997C86.4217 198.997 84.3355 198.734 82.4359 197.975C80.405 197.164 79.3043 195.977 79.1645 194.445C79.0293 192.963 79.8727 191.329 81.6724 189.587C83.1242 188.182 84.8279 187.058 85.4931 186.64C87.1468 185.601 88.7153 186.187 90.376 186.807C91.0197 187.047 91.7494 187.32 92.5797 187.547C94.2112 187.993 95.8795 188.404 97.3513 188.768C102.621 190.068 103.905 190.465 104.421 191.394C105.047 192.518 104.282 193.578 103.924 193.982C102.548 195.534 98.929 197.221 94.9186 198.182C93.344 198.559 90.9613 198.998 88.4035 198.998L88.4027 198.997ZM86.8042 188.709C83.6834 190.67 81.4996 192.989 81.6125 194.222C81.674 194.898 82.5919 195.401 83.3515 195.704C86.2604 196.866 90.5496 196.83 95.1199 195.605C96.9833 195.106 98.7677 194.43 100.145 193.705C101.06 193.223 101.604 192.819 101.904 192.541C100.845 192.151 98.6186 191.601 96.759 191.143C95.2735 190.777 93.5898 190.361 91.9283 189.907C90.9897 189.651 90.2047 189.357 89.5111 189.098C87.9349 188.509 87.3772 188.349 86.8042 188.71V188.709Z" fill="#6B184E"/>
<path d="M95.5385 181.257C100.852 182.677 106.195 183.649 106.649 184.453C107.932 186.728 94.1866 192.551 86.2251 189.424" fill="white"/>
<path d="M91.6196 191.551C89.6762 191.551 87.6369 191.294 85.7742 190.563C83.7387 189.763 82.6318 188.581 82.4828 187.05C82.3391 185.57 83.1733 183.93 84.9623 182.178C86.4056 180.765 88.1031 179.631 88.7652 179.21C90.4128 178.161 91.9844 178.738 93.6489 179.349C94.2941 179.586 95.0254 179.854 95.8573 180.076C97.491 180.513 99.1617 180.914 100.636 181.269C105.912 182.539 107.199 182.929 107.721 183.855C108.353 184.976 107.594 186.04 107.238 186.446C105.872 188.005 102.263 189.715 98.2576 190.697C96.6592 191.09 94.2265 191.551 91.6203 191.551H91.6196ZM90.0895 181.271C86.9793 183.251 84.8094 185.582 84.9292 186.815C84.9945 187.49 85.9155 187.988 86.6767 188.287C89.5925 189.432 93.8817 189.371 98.4443 188.12C100.305 187.61 102.086 186.925 103.459 186.191C104.37 185.704 104.912 185.297 105.211 185.018C104.15 184.633 101.92 184.096 100.057 183.648C98.5695 183.29 96.8835 182.884 95.2197 182.44C94.2795 182.189 93.4922 181.9 92.7978 181.645C91.2178 181.066 90.6594 180.909 90.0887 181.272L90.0895 181.271Z" fill="#6B184E"/>
<path d="M87.6461 172.634C89.2392 171.568 90.8015 172.789 93.7795 173.513C99.1248 174.811 104.489 175.663 104.959 176.456C106.294 178.702 92.6865 184.835 84.655 181.888C78.3196 179.565 85.2987 174.205 87.6461 172.634V172.634Z" fill="white"/>
<path d="M89.6071 183.896C87.8128 183.896 85.9516 183.667 84.2295 183.035C82.1763 182.282 81.0426 181.126 80.8582 179.599C80.6808 178.121 81.4773 176.464 83.2256 174.672C84.6366 173.226 86.3073 172.054 86.9602 171.617C88.5832 170.532 90.1678 171.073 91.8454 171.646C92.496 171.868 93.2334 172.12 94.0699 172.323C95.7136 172.722 97.392 173.086 98.8737 173.407C104.178 174.557 105.473 174.918 106.016 175.831C106.674 176.937 105.94 178.019 105.593 178.433C104.262 180.022 100.693 181.813 96.7114 182.886C95.0231 183.341 92.3961 183.896 89.6063 183.896L89.6071 183.896ZM89.0249 173.439C88.7568 173.439 88.544 173.507 88.3313 173.649C85.2672 175.699 83.1511 178.079 83.2993 179.308C83.3807 179.981 84.3125 180.458 85.0798 180.74C88.0209 181.819 92.3078 181.66 96.8405 180.306C98.6886 179.754 100.454 179.028 101.809 178.264C102.71 177.756 103.242 177.337 103.535 177.051C102.465 176.69 100.223 176.204 98.3506 175.798C96.8551 175.474 95.1606 175.107 93.4869 174.7C92.5413 174.471 91.7478 174.199 91.0473 173.961C90.0564 173.623 89.465 173.438 89.0233 173.438L89.0249 173.439Z" fill="#6B184E"/>
<path d="M88.9511 195.57C78.5938 202.278 52.4509 201.203 41.791 190.609C24.0029 172.932 36.8074 156.7 49.9868 158.004C62.7698 159.269 56.4083 161.337 86.3334 170.577C99.6164 174.678 94.957 191.68 88.9519 195.569L88.9511 195.57Z" fill="#D3A17F"/>
<path d="M101.119 195.57C111.476 202.278 137.619 201.203 148.279 190.609C166.067 172.932 153.263 156.7 140.083 158.004C127.3 159.269 133.662 161.337 103.737 170.577C90.4536 174.678 95.113 191.68 101.118 195.569L101.119 195.57Z" fill="#D3A17F"/>
<path d="M88.9511 195.57C78.5938 202.278 52.4509 201.203 41.791 190.609C24.0029 172.932 36.8074 156.7 49.9868 158.004C62.7698 159.269 56.4083 161.337 86.3334 170.577C99.6164 174.678 94.957 191.68 88.9519 195.569L88.9511 195.57Z" fill="#D3A17F"/>
<path d="M101.119 195.57C111.476 202.278 137.619 201.203 148.279 190.609C166.067 172.932 153.263 156.7 140.083 158.004C127.3 159.269 133.662 161.337 103.737 170.577C90.4536 174.678 95.113 191.68 101.118 195.569L101.119 195.57Z" fill="#D3A17F"/>
<path d="M88.9496 195.57C78.5923 202.278 52.4517 201.204 41.7902 190.608C29.7031 178.596 31.7402 167.254 38.4228 161.626C41.5751 158.971 45.7629 157.585 49.9876 158.004C60.4647 159.041 58.0774 160.619 73.3629 166.241C76.7242 167.48 80.9366 168.912 86.3318 170.579C99.6172 174.678 94.9563 191.679 88.9496 195.57V195.57Z" fill="#ECC18E"/>
<g opacity="0.35">
<path d="M88.9496 195.57C78.5923 202.278 52.4517 201.204 41.7902 190.608C33.7465 182.616 31.9583 174.92 33.6328 169.004C34.6744 173.078 37.2276 177.52 41.7902 182.053C52.4517 192.646 78.5923 193.719 88.9496 187.011C91.2478 185.525 93.3494 182.117 94.3203 178.248C96.2805 184.754 92.9069 193.007 88.9496 195.57Z" fill="#6B184E"/>
</g>
<path d="M70.2951 201C68.6705 201 67.026 200.933 65.383 200.797C54.9335 199.937 46.0179 196.54 40.9223 191.476C36.4733 187.055 33.6182 182.469 32.4346 177.845C31.383 173.736 31.7133 169.696 33.3916 166.164C34.8518 163.09 37.2322 160.565 40.274 158.864C43.3057 157.168 46.7062 156.45 50.1074 156.787C56.5965 157.429 58.4215 158.321 62.0578 160.097C65.8323 161.941 71.5364 164.728 86.6967 169.409C89.4834 170.269 91.7071 171.711 93.3071 173.694C94.7304 175.458 95.6261 177.6 95.9694 180.062C96.3965 183.124 95.9279 186.575 94.649 189.776C93.4293 192.83 91.5965 195.315 89.6209 196.595C86.9763 198.308 83.274 199.597 78.9141 200.321C76.2027 200.771 73.2838 200.999 70.2951 200.999V201ZM48.4744 159.154C46.0471 159.154 43.6529 159.782 41.4784 160.998C38.8829 162.45 36.8551 164.598 35.6138 167.211C34.1836 170.222 33.9078 173.691 34.8165 177.241C35.8888 181.432 38.528 185.639 42.659 189.744C45.077 192.146 48.4283 194.132 52.6199 195.647C56.4751 197.04 60.9586 197.978 65.5865 198.359C74.7832 199.116 83.4798 197.654 88.2813 194.544C91.4106 192.518 94.3226 186.038 93.5353 180.399C93.1151 177.387 91.4613 173.442 85.9693 171.747C70.6269 167.01 64.8192 164.172 60.9755 162.295C57.3945 160.545 55.9128 159.822 49.8654 159.223C49.4015 159.177 48.9376 159.154 48.4744 159.154V159.154Z" fill="#6B184E"/>
<path d="M97.816 188.727C92.5106 190.176 87.1729 191.18 86.7243 191.986C85.4539 194.268 99.2324 200.013 107.176 196.84" fill="white"/>
<path d="M101.667 198.997C99.1087 198.997 96.7268 198.558 95.1521 198.181C91.1418 197.221 87.5224 195.533 86.1467 193.982C85.7888 193.578 85.0237 192.517 85.649 191.393C86.1652 190.466 87.4494 190.067 92.7187 188.767C94.1904 188.404 95.8588 187.992 97.4903 187.547C98.3206 187.32 99.0503 187.047 99.694 186.806C101.355 186.186 102.923 185.6 104.577 186.64C105.242 187.058 106.946 188.181 108.398 189.587C110.196 191.329 111.041 192.963 110.905 194.444C110.765 195.976 109.664 197.164 107.633 197.975C105.734 198.734 103.648 198.997 101.667 198.997L101.667 198.997ZM88.1653 192.542C88.4664 192.819 89.0103 193.223 89.9243 193.705C91.3015 194.431 93.0867 195.106 94.9493 195.605C99.5196 196.83 103.809 196.867 106.718 195.705C107.477 195.402 108.394 194.899 108.457 194.223C108.57 192.989 106.386 190.67 103.265 188.709C102.692 188.349 102.134 188.509 100.558 189.097C99.8653 189.356 99.0795 189.65 98.1409 189.906C96.4794 190.359 94.7957 190.775 93.3102 191.142C91.4506 191.6 89.2238 192.149 88.1653 192.54V192.542Z" fill="#6B184E"/>
<path d="M94.5315 181.257C89.2176 182.677 83.8746 183.649 83.4214 184.453C82.1379 186.728 95.8834 192.551 103.845 189.424" fill="white"/>
<path d="M98.4504 191.551C95.8442 191.551 93.4116 191.09 91.8131 190.697C87.8082 189.714 84.1988 188.005 82.8323 186.446C82.4766 186.04 81.7177 184.976 82.3499 183.855C82.8715 182.929 84.1581 182.539 89.435 181.269C90.909 180.914 92.5789 180.513 94.2135 180.076C95.0454 179.854 95.7766 179.586 96.4218 179.349C98.0863 178.738 99.6579 178.161 101.306 179.21C101.968 179.631 103.665 180.765 105.108 182.178C106.897 183.93 107.732 185.57 107.588 187.05C107.439 188.581 106.331 189.763 104.297 190.563C102.434 191.294 100.394 191.551 98.4512 191.551H98.4504ZM84.8586 185.018C85.1581 185.297 85.6997 185.704 86.6106 186.191C87.984 186.925 89.7645 187.61 91.6249 188.12C96.1883 189.371 100.477 189.432 103.392 188.287C104.154 187.988 105.074 187.49 105.14 186.815C105.26 185.582 103.089 183.251 99.9797 181.271C99.409 180.908 98.8498 181.065 97.2706 181.645C96.5762 181.899 95.7889 182.188 94.8487 182.439C93.185 182.883 91.499 183.29 90.0111 183.647C88.1484 184.096 85.9186 184.632 84.8578 185.017L84.8586 185.018Z" fill="#6B184E"/>
<path d="M102.424 172.634C100.831 171.568 99.2685 172.789 96.2905 173.513C90.9452 174.811 85.5814 175.663 85.1105 176.456C83.7755 178.702 97.3835 184.835 105.415 181.888C111.75 179.565 104.771 174.205 102.424 172.634V172.634Z" fill="white"/>
<path d="M100.463 183.896C97.6731 183.896 95.0461 183.343 93.3578 182.887C89.3766 181.813 85.8072 180.023 84.4761 178.433C84.1296 178.02 83.3953 176.937 84.0528 175.832C84.5959 174.919 85.8909 174.557 91.1955 173.408C92.6772 173.086 94.3556 172.722 95.9994 172.323C96.8358 172.12 97.5732 171.868 98.2238 171.646C99.9014 171.074 101.486 170.533 103.109 171.618C103.762 172.055 105.433 173.226 106.844 174.672C108.593 176.464 109.389 178.122 109.211 179.599C109.027 181.127 107.893 182.283 105.84 183.036C104.118 183.668 102.256 183.896 100.462 183.897L100.463 183.896ZM86.5354 177.051C86.828 177.337 87.3603 177.756 88.2606 178.264C89.6163 179.029 91.3814 179.755 93.2295 180.307C97.763 181.661 102.05 181.819 104.991 180.74C105.758 180.459 106.69 179.982 106.771 179.309C106.92 178.079 104.804 175.699 101.74 173.65C101.177 173.274 100.615 173.417 99.0227 173.962C98.3221 174.201 97.5287 174.472 96.5831 174.701C94.9102 175.108 93.2149 175.475 91.7194 175.8C89.8467 176.206 87.6046 176.691 86.5354 177.052V177.051Z" fill="#6B184E"/>
<path d="M101.119 195.57C111.476 202.278 137.619 201.203 148.279 190.609C166.067 172.932 153.263 156.7 140.083 158.004C127.3 159.269 133.662 161.337 103.737 170.577C90.4536 174.678 95.113 191.68 101.118 195.569L101.119 195.57Z" fill="#ECC18E"/>
<g opacity="0.35">
<path d="M148.279 190.609C137.618 201.204 111.477 202.278 101.12 195.57C97.1439 192.994 93.758 184.681 95.7766 178.162C96.7598 181.986 98.8429 185.344 101.12 186.819C111.477 193.527 137.618 192.45 148.279 181.857C152.805 177.358 155.352 172.953 156.412 168.909C158.129 174.837 156.366 182.573 148.279 190.609V190.609Z" fill="#6B184E"/>
</g>
<path d="M119.775 201C116.786 201 113.868 200.772 111.156 200.322C106.796 199.597 103.094 198.309 100.449 196.596C98.4727 195.316 96.64 192.83 95.421 189.777C94.142 186.575 93.6735 183.125 94.1006 180.062C94.4439 177.6 95.3395 175.458 96.7629 173.694C98.3629 171.711 100.587 170.27 103.373 169.41C118.533 164.729 124.238 161.942 128.012 160.098C131.648 158.321 133.474 157.43 139.963 156.787C143.364 156.451 146.765 157.169 149.796 158.864C152.839 160.566 155.218 163.09 156.678 166.164C158.357 169.696 158.688 173.736 157.635 177.846C156.452 182.469 153.597 187.055 149.148 191.476C144.052 196.54 135.136 199.938 124.687 200.798C123.044 200.933 121.399 201.001 119.775 201.001V201ZM101.789 194.544C106.591 197.654 115.288 199.116 124.484 198.358C129.112 197.978 133.596 197.04 137.451 195.647C141.642 194.133 144.994 192.146 147.412 189.743C151.543 185.638 154.181 181.432 155.254 177.241C156.163 173.69 155.888 170.221 154.457 167.21C153.216 164.597 151.188 162.449 148.592 160.998C146.003 159.55 143.103 158.935 140.205 159.223C134.158 159.822 132.675 160.545 129.094 162.295C125.252 164.172 119.444 167.009 104.101 171.747C98.6087 173.443 96.9549 177.388 96.5347 180.399C95.8857 185.05 97.9949 192.087 101.789 194.544H101.789Z" fill="#6B184E"/>
<path d="M69.404 107.148L68.0214 111.528L65.3883 119.873L61.1022 133.451C61.1022 133.451 56.3276 148.8 45.2759 157.441C41.6965 160.243 37.4565 162.339 32.5067 162.981C-1.06308 167.331 9.97324 142.254 9.97324 142.254C9.97324 142.254 26.4386 140.104 31.9721 138.223C39.4874 135.665 42.8333 124.109 53.885 115.202C55.2123 114.134 56.6502 113.103 58.2172 112.131C58.5459 111.926 58.8808 111.727 59.2188 111.528C62.1376 109.827 65.4928 108.329 69.404 107.148Z" fill="#ECC18E"/>
<g opacity="0.35">
<path d="M60.6967 134.635C60.8933 134.09 61.0162 133.717 61.0715 133.549L60.9793 133.858C60.9793 133.858 60.8933 134.133 60.6967 134.635Z" fill="#6B184E"/>
</g>
<g opacity="0.35">
<path d="M61.0958 133.469L61.0715 133.548C61.0837 133.512 61.0898 133.484 61.0958 133.469Z" fill="#6B184E"/>
</g>
<g opacity="0.35">
<path d="M60.6844 134.662C59.3417 138.357 54.6961 149.681 45.9519 156.897C45.8874 156.952 45.8228 157.004 45.7583 157.056C45.5985 157.187 45.4388 157.316 45.2759 157.441C41.6965 160.243 37.4565 162.338 32.5067 162.981C-1.06308 167.33 9.97324 142.254 9.97324 142.254C9.97324 142.254 23.231 140.024 28.998 139.039C31.502 143.924 23.8923 145.858 23.8923 150.011C23.8923 154.163 25.7903 155.562 29.3045 156.308C35.4264 157.606 41.8386 156.091 46.7738 152.258C46.8068 152.232 46.8398 152.207 46.8729 152.181C56.0257 145.026 59.6912 137.156 60.6836 134.663L60.6844 134.662Z" fill="#6B184E"/>
</g>
<path d="M69.5223 107.538C66.8424 108.966 64.197 110.212 61.6391 111.627C59.0936 113.056 56.6633 114.658 54.3789 116.468C53.799 116.909 53.2621 117.404 52.7013 117.871C52.1713 118.374 51.6206 118.853 51.109 119.377C50.0559 120.392 49.0797 121.489 48.1203 122.602C46.2176 124.847 44.4694 127.237 42.7035 129.666C41.8179 130.88 40.9184 132.101 39.9537 133.298C38.9866 134.493 37.9527 135.672 36.7452 136.735C35.5431 137.795 34.1359 138.737 32.5367 139.314C31.0005 139.847 29.5226 140.173 28.0279 140.513C22.0703 141.767 16.122 142.647 10.133 143.466L11.0985 142.744C10.9587 143.072 10.8082 143.483 10.6784 143.863C10.5455 144.252 10.4234 144.646 10.3112 145.043C10.0815 145.836 9.90488 146.642 9.76201 147.45C9.48933 149.066 9.37257 150.706 9.55769 152.285C9.73282 153.862 10.1845 155.379 10.9749 156.689C11.7676 157.997 12.9105 159.067 14.2517 159.881C15.5936 160.703 17.1513 161.215 18.7405 161.597L19.9496 161.85C20.3582 161.915 20.7737 161.958 21.1855 162.014C22.005 162.147 22.85 162.163 23.6865 162.218C23.8961 162.228 24.1043 162.249 24.3155 162.251L24.9492 162.248L26.2174 162.244C26.6391 162.254 27.0639 162.221 27.4886 162.196L28.7614 162.122L29.3982 162.085L30.0349 162.016L31.3085 161.88C31.7286 161.828 32.1672 161.802 32.572 161.731L33.7926 161.523C35.4049 161.182 37.0056 160.742 38.5165 160.06C40.0335 159.404 41.5037 158.618 42.8725 157.666C44.2505 156.732 45.5632 155.687 46.7768 154.527C47.9981 153.377 49.1557 152.149 50.2195 150.838C52.3595 148.229 54.256 145.386 55.783 142.35L58.102 137.807C58.4999 137.053 58.8939 136.296 59.3333 135.551C59.7603 134.804 60.2081 134.055 60.712 133.331L60.7213 133.318C60.8549 133.126 61.1199 133.078 61.3127 133.211C61.4348 133.296 61.4986 133.435 61.4955 133.572C61.4663 134.498 61.3089 135.373 61.1053 136.24C60.9025 137.106 60.6421 137.955 60.331 138.782C59.7127 140.439 58.9538 142.042 58.072 143.577C56.2931 146.634 54.4004 149.643 52.1214 152.39C50.9984 153.773 49.7694 155.078 48.4636 156.308C47.1663 157.547 45.7514 158.675 44.2559 159.689C41.274 161.732 37.8559 163.222 34.2657 163.924L32.9139 164.153C32.4622 164.231 32.0297 164.256 31.5865 164.311L30.2646 164.452L29.604 164.522L28.9381 164.562L27.6054 164.639C27.1614 164.665 26.7182 164.698 26.2696 164.69L24.9277 164.695L24.2564 164.696C24.0329 164.695 23.807 164.673 23.5828 164.662C22.6833 164.604 21.7854 164.584 20.8844 164.441C20.4342 164.38 19.9841 164.332 19.534 164.26L18.1883 163.98C16.4062 163.552 14.615 162.969 12.9797 161.973C11.3505 160.99 9.88184 159.625 8.87483 157.957C7.86706 156.291 7.32016 154.408 7.11508 152.549C6.90077 150.682 7.03826 148.831 7.3409 147.035C7.49914 146.137 7.69501 145.249 7.94695 144.378C8.07061 143.941 8.20504 143.507 8.35251 143.076C8.50383 142.637 8.64824 142.233 8.84872 141.763L9.11602 141.136L9.81424 141.041C15.7372 140.231 21.694 139.347 27.504 138.123C28.9388 137.799 30.4013 137.466 31.7048 137.012C32.9377 136.567 34.076 135.821 35.1199 134.901C36.1653 133.981 37.1216 132.9 38.038 131.765C38.9543 130.628 39.8346 129.435 40.7156 128.227C42.4746 125.808 44.2666 123.354 46.243 121.022C48.2355 118.705 50.3647 116.47 52.7374 114.49C55.0948 112.495 57.6933 110.761 60.4739 109.41C63.2445 108.047 66.2141 107.079 69.2842 106.759C69.5131 106.735 69.719 106.9 69.7428 107.129C69.7612 107.302 69.6698 107.461 69.5254 107.538L69.5223 107.539V107.538Z" fill="#6B184E"/>
<path d="M22.7709 145.423C22.0857 146.127 20.9635 146.154 20.2368 145.493C18.5209 143.93 15.125 141.5 10.534 141.422C6.88618 141.361 13.1755 135.395 18.9395 135.871C22.7678 136.187 25.4954 137.861 27.1276 139.234C28.0793 140.034 27.948 141.526 26.881 142.168C26.2105 142.572 25.4017 143.11 24.4907 143.817C23.9899 144.205 23.3377 144.84 22.7693 145.424L22.7709 145.423Z" fill="white"/>
<g opacity="0.35">
<path d="M26.881 142.166C26.2112 142.569 25.4032 143.108 24.4907 143.814C23.9899 144.203 23.3385 144.839 22.7701 145.423C22.0849 146.127 20.9635 146.154 20.2384 145.494C18.5209 143.928 15.1258 141.499 10.5355 141.422C8.56605 141.389 9.49086 139.636 11.6631 138.104C16.026 138.327 19.2552 140.648 20.9174 142.16C21.6425 142.823 22.7639 142.796 23.4491 142.089C24.0175 141.508 24.6689 140.872 25.1697 140.483C25.8579 139.951 26.4847 139.514 27.0377 139.159C27.0685 139.18 27.0992 139.208 27.1299 139.232C28.0793 140.034 27.9472 141.523 26.881 142.166V142.166Z" fill="#6B184E"/>
</g>
<path d="M21.4704 147.266C20.7722 147.266 20.0732 147.014 19.5294 146.508C18.0139 145.097 14.8277 142.719 10.514 142.645C9.24276 142.624 8.67973 142.059 8.43162 141.589C8.17891 141.111 8.02913 140.314 8.75193 139.226C9.49624 138.106 11.0056 136.905 12.7892 136.015C14.2639 135.279 16.546 134.445 19.0424 134.651C23.3646 135.008 26.3979 136.953 28.1822 138.521C28.8705 139.126 29.2146 139.995 29.1263 140.906C29.0387 141.812 28.5141 142.63 27.7237 143.092C26.9187 143.563 26.086 144.13 25.2488 144.78C24.8517 145.088 24.261 145.645 23.5397 146.392C22.9798 146.972 22.2255 147.266 21.472 147.266H21.4704ZM11.0832 140.217C15.9492 140.476 19.4964 143.126 21.2085 144.721C21.3637 144.865 21.6141 144.855 21.7669 144.697C22.5796 143.856 23.2425 143.234 23.7371 142.85C24.6589 142.135 25.5806 141.507 26.4778 140.983C26.6352 140.891 26.6713 140.749 26.679 140.671C26.6875 140.584 26.6729 140.46 26.5546 140.356C25.0491 139.032 22.4889 137.391 18.8389 137.09C17.1728 136.952 15.1719 137.462 13.3491 138.49C12.2123 139.131 11.488 139.764 11.0832 140.216V140.217Z" fill="#6B184E"/>
<path d="M15.2686 155.935C15.2686 155.935 9.73051 157.496 7.70882 150.967C4.93362 142.004 11.7268 137.541 13.2078 138.025C14.6887 138.509 12.6348 143.595 17.487 147.883C19.279 149.468 18.1829 153.606 15.2694 155.935H15.2686Z" fill="white"/>
<g opacity="0.35">
<path d="M15.2702 155.933C15.2702 155.933 9.73052 157.496 7.70883 150.966C6.84546 148.179 6.90999 145.827 7.45074 143.924C7.52448 144.233 7.61051 144.545 7.70883 144.866C9.73052 151.397 15.2702 149.834 15.2702 149.834C16.0598 149.204 16.7142 148.442 17.2151 147.635C17.3042 147.717 17.3933 147.8 17.4854 147.882C19.2798 149.467 18.1829 153.606 15.2702 155.933Z" fill="#6B184E"/>
</g>
<path d="M13.8415 157.324C13.2838 157.324 12.6317 157.264 11.9358 157.084C10.1399 156.616 7.74493 155.239 6.53438 151.328C4.38288 144.379 7.60667 140.25 9.09298 138.798C10.2966 137.621 12.1977 136.408 13.5911 136.864C14.893 137.29 15.0213 138.664 15.145 139.993C15.3247 141.918 15.5705 144.555 18.3019 146.969C19.1622 147.729 19.6162 148.906 19.5824 150.281C19.524 152.621 18.133 155.215 16.0375 156.889L15.8432 157.045L15.6028 157.112C15.4922 157.143 14.8108 157.323 13.8407 157.323L13.8415 157.324ZM12.5971 139.31C12.0226 139.537 10.9357 140.19 9.93868 141.558C8.70354 143.253 7.51834 146.199 8.88328 150.607C9.57536 152.843 10.7821 154.217 12.4689 154.692C13.4313 154.962 14.3123 154.87 14.7133 154.802C16.1067 153.589 17.0875 151.742 17.1252 150.22C17.1344 149.847 17.0875 149.167 16.6705 148.798C13.2132 145.741 12.8906 142.284 12.6978 140.219C12.6709 139.931 12.6378 139.578 12.5971 139.31V139.31Z" fill="#6B184E"/>
<path d="M20.4242 160.367C19.3174 161.48 17.7174 162.003 13.7654 161.287C5.6856 159.823 -0.351042 154.237 1.59767 152.17C2.91269 150.774 5.62875 151.931 9.05149 152.068C15.1012 152.309 16.6996 151.19 18.1122 151.19C21.2438 151.19 23.7325 157.042 20.4242 160.367V160.367Z" fill="white"/>
<g opacity="0.35">
<path d="M20.4227 160.366C19.3166 161.479 17.7189 162.002 13.7647 161.286C5.88072 159.861 -0.0522245 154.511 1.47172 152.33C3.61016 154.477 7.63817 156.747 12.3667 157.604C16.3179 158.319 17.9187 157.796 19.0247 156.683C20.2138 155.487 20.6562 153.963 20.5825 152.504C22.2078 154.425 22.7547 158.023 20.4227 160.366V160.366Z" fill="#6B184E"/>
</g>
<path d="M16.8356 162.836C15.8885 162.836 14.8032 162.719 13.5458 162.491C10.4472 161.93 7.33936 160.722 4.79382 159.088C2.3827 157.541 0.702055 155.756 0.182808 154.188C-0.18128 153.089 0.00306799 152.075 0.701287 151.334C2.03013 149.923 4.03261 150.216 6.15262 150.526C7.08895 150.663 8.05755 150.804 9.10066 150.846C13.1141 151.006 15.0566 150.55 16.3425 150.248C16.9815 150.098 17.5331 149.968 18.1122 149.968C19.9734 149.968 21.7016 151.334 22.6218 153.531C23.1395 154.767 23.327 156.102 23.1634 157.39C22.9767 158.862 22.3315 160.19 21.2976 161.229C20.2146 162.318 18.8327 162.836 16.8356 162.836V162.836ZM3.58634 152.712C3.08322 152.712 2.69916 152.791 2.49407 153.008C2.41803 153.089 2.48486 153.325 2.51712 153.422C2.91961 154.636 4.7124 156.125 6.12497 157.031C8.40551 158.495 11.1968 159.579 13.9851 160.084C17.8872 160.791 18.9041 160.157 19.5509 159.507C21.061 157.989 20.9558 155.911 20.3528 154.473C19.8374 153.242 18.9364 152.415 18.1114 152.415C17.8188 152.415 17.4363 152.505 16.9063 152.629C15.4906 152.962 13.3507 153.465 9.0008 153.291C7.82865 153.245 6.74791 153.086 5.79468 152.947C4.9605 152.825 4.18777 152.712 3.5848 152.712H3.58634Z" fill="#6B184E"/>
<path d="M119.596 107.148L120.979 111.528L123.612 119.873L127.898 133.451C127.898 133.451 132.672 148.8 143.724 157.441C147.303 160.243 151.543 162.339 156.493 162.981C190.063 167.331 179.027 142.254 179.027 142.254C179.027 142.254 162.561 140.104 157.028 138.223C149.513 135.665 146.167 124.109 135.115 115.202C133.788 114.134 132.35 113.103 130.783 112.131C130.454 111.926 130.119 111.727 129.781 111.528C126.862 109.827 123.507 108.329 119.596 107.148V107.148Z" fill="#ECC18E"/>
<g opacity="0.35">
<path d="M128.316 134.662C129.658 138.357 134.304 149.681 143.048 156.897C143.113 156.952 143.177 157.004 143.242 157.056C143.401 157.187 143.561 157.316 143.724 157.441C147.304 160.243 151.544 162.338 156.493 162.981C190.063 167.33 179.027 142.254 179.027 142.254C179.027 142.254 165.769 140.024 160.002 139.039C157.498 143.924 165.108 145.858 165.108 150.011C165.108 154.163 163.21 155.562 159.696 156.308C153.574 157.606 147.161 156.091 142.226 152.258C142.193 152.232 142.16 152.207 142.127 152.181C132.974 145.026 129.309 137.156 128.316 134.663L128.316 134.662Z" fill="#6B184E"/>
</g>
<path d="M119.716 106.757C122.786 107.077 125.755 108.046 128.526 109.409C131.307 110.76 133.904 112.495 136.263 114.489C138.636 116.469 140.765 118.704 142.757 121.021C144.733 123.352 146.526 125.807 148.284 128.226C149.165 129.434 150.046 130.627 150.962 131.764C151.879 132.899 152.835 133.979 153.88 134.899C154.924 135.819 156.062 136.566 157.295 137.011C158.599 137.465 160.061 137.798 161.496 138.122C167.306 139.345 173.263 140.23 179.186 141.039L179.884 141.135L180.151 141.762C180.352 142.231 180.496 142.636 180.647 143.075C180.795 143.506 180.929 143.94 181.053 144.376C181.306 145.248 181.501 146.136 181.659 147.034C181.962 148.829 182.099 150.681 181.885 152.548C181.68 154.407 181.133 156.291 180.125 157.956C179.118 159.623 177.65 160.989 176.02 161.972C174.385 162.968 172.594 163.551 170.812 163.979L169.466 164.259C169.017 164.332 168.566 164.38 168.116 164.44C167.215 164.582 166.317 164.602 165.417 164.661C165.193 164.672 164.967 164.692 164.744 164.695L164.072 164.693L162.73 164.689C162.282 164.697 161.839 164.663 161.395 164.638L160.062 164.561L159.396 164.521L158.735 164.451L157.413 164.309C156.97 164.255 156.538 164.23 156.086 164.152L154.734 163.923C151.144 163.221 147.726 161.731 144.744 159.688C143.248 158.673 141.834 157.545 140.536 156.307C139.231 155.077 138.002 153.772 136.879 152.388C134.6 149.641 132.708 146.633 130.928 143.576C130.046 142.041 129.287 140.438 128.669 138.781C128.358 137.954 128.097 137.105 127.895 136.239C127.691 135.372 127.534 134.496 127.504 133.571C127.497 133.338 127.681 133.142 127.915 133.135C128.064 133.131 128.197 133.203 128.276 133.315L128.287 133.33C128.791 134.054 129.239 134.804 129.666 135.551C130.105 136.295 130.499 137.052 130.897 137.807L133.216 142.349C134.743 145.385 136.639 148.228 138.78 150.837C139.844 152.149 141.001 153.376 142.222 154.526C143.436 155.686 144.749 156.73 146.127 157.666C147.496 158.618 148.966 159.403 150.483 160.06C151.994 160.741 153.594 161.182 155.207 161.523L156.427 161.73C156.833 161.802 157.271 161.828 157.691 161.879L158.964 162.015L159.601 162.084L160.238 162.122L161.511 162.196C161.935 162.22 162.359 162.253 162.782 162.244L164.05 162.248L164.684 162.25C164.895 162.248 165.103 162.228 165.313 162.218C166.149 162.162 166.994 162.146 167.814 162.014C168.225 161.958 168.641 161.914 169.05 161.849L170.259 161.596C171.848 161.215 173.406 160.702 174.748 159.88C176.089 159.067 177.232 157.997 178.024 156.688C178.814 155.378 179.266 153.862 179.442 152.284C179.626 150.705 179.51 149.066 179.237 147.45C179.094 146.642 178.918 145.836 178.688 145.043C178.575 144.646 178.454 144.252 178.321 143.863C178.191 143.482 178.04 143.071 177.901 142.744L178.866 143.466C172.877 142.647 166.93 141.766 160.971 140.512C159.477 140.172 158 139.846 156.463 139.313C154.863 138.737 153.456 137.795 152.254 136.735C151.047 135.67 150.013 134.492 149.046 133.297C148.081 132.1 147.181 130.879 146.296 129.666C144.53 127.236 142.782 124.846 140.879 122.601C139.919 121.489 138.943 120.391 137.89 119.377C137.379 118.853 136.828 118.374 136.298 117.871C135.737 117.404 135.2 116.91 134.62 116.468C132.336 114.658 129.906 113.055 127.36 111.626C124.802 110.212 122.157 108.965 119.477 107.537L119.475 107.536C119.272 107.427 119.195 107.176 119.303 106.974C119.385 106.821 119.551 106.74 119.714 106.757L119.716 106.757Z" fill="#6B184E"/>
<path d="M166.229 145.423C166.914 146.127 168.037 146.154 168.763 145.493C170.479 143.93 173.875 141.5 178.466 141.422C182.114 141.361 175.824 135.395 170.061 135.871C166.232 136.187 163.505 137.861 161.872 139.234C160.921 140.034 161.052 141.526 162.119 142.168C162.79 142.572 163.598 143.11 164.509 143.817C165.01 144.205 165.662 144.84 166.231 145.424L166.229 145.423Z" fill="white"/>
<g opacity="0.35">
<path d="M162.119 142.166C162.789 142.569 163.597 143.108 164.509 143.814C165.01 144.203 165.662 144.839 166.23 145.423C166.915 146.127 168.037 146.154 168.762 145.494C170.479 143.928 173.874 141.499 178.464 141.422C180.434 141.389 179.509 139.636 177.337 138.104C172.974 138.327 169.745 140.648 168.083 142.16C167.358 142.823 166.236 142.796 165.551 142.089C164.983 141.508 164.331 140.872 163.83 140.483C163.142 139.951 162.515 139.514 161.962 139.159C161.932 139.18 161.901 139.208 161.87 139.232C160.921 140.034 161.053 141.523 162.119 142.166V142.166Z" fill="#6B184E"/>
</g>
<path d="M167.53 147.265C166.775 147.265 166.022 146.972 165.461 146.392C164.74 145.645 164.149 145.088 163.752 144.78C162.915 144.131 162.082 143.562 161.277 143.091C160.487 142.63 159.962 141.812 159.874 140.906C159.786 139.995 160.13 139.126 160.819 138.521C162.603 136.952 165.636 135.007 169.958 134.651C172.456 134.444 174.738 135.278 176.212 136.015C177.995 136.905 179.505 138.106 180.249 139.226C180.972 140.313 180.822 141.112 180.569 141.589C180.32 142.058 179.757 142.623 178.487 142.645C174.173 142.717 170.986 145.096 169.471 146.507C168.926 147.014 168.228 147.265 167.53 147.265V147.265ZM170.709 137.068C170.523 137.068 170.34 137.075 170.162 137.09C166.512 137.391 163.952 139.032 162.446 140.356C162.328 140.46 162.313 140.585 162.322 140.672C162.329 140.748 162.365 140.891 162.522 140.983C163.419 141.508 164.342 142.136 165.263 142.851C165.758 143.234 166.42 143.855 167.233 144.697C167.385 144.855 167.636 144.866 167.791 144.721C169.504 143.127 173.051 140.477 177.917 140.218C177.512 139.765 176.788 139.131 175.651 138.491C174.024 137.574 172.254 137.069 170.709 137.069V137.068Z" fill="#6B184E"/>
<path d="M173.731 155.935C173.731 155.935 179.269 157.496 181.291 150.967C184.066 142.004 177.273 137.541 175.792 138.025C174.311 138.509 176.365 143.595 171.513 147.883C169.721 149.468 170.817 153.606 173.731 155.935H173.731Z" fill="white"/>
<g opacity="0.35">
<path d="M173.73 155.933C173.73 155.933 179.269 157.496 181.291 150.966C182.155 148.179 182.09 145.827 181.549 143.924C181.476 144.233 181.389 144.545 181.291 144.866C179.269 151.397 173.73 149.834 173.73 149.834C172.94 149.204 172.286 148.442 171.785 147.635C171.696 147.717 171.607 147.8 171.515 147.882C169.72 149.467 170.817 153.606 173.73 155.933Z" fill="#6B184E"/>
</g>
<path d="M175.159 157.324C174.188 157.324 173.508 157.144 173.396 157.113L173.157 157.046L172.962 156.89C170.868 155.216 169.476 152.622 169.418 150.282C169.383 148.906 169.838 147.73 170.698 146.97C173.429 144.555 173.676 141.919 173.855 139.994C173.979 138.665 174.107 137.29 175.409 136.865C176.802 136.409 178.703 137.622 179.907 138.799C181.393 140.252 184.617 144.38 182.466 151.329C181.255 155.24 178.86 156.617 177.064 157.085C176.369 157.265 175.716 157.325 175.159 157.325V157.324ZM174.287 154.803C174.688 154.871 175.569 154.963 176.531 154.693C178.218 154.218 179.425 152.844 180.117 150.608C181.482 146.2 180.296 143.254 179.061 141.559C178.064 140.191 176.977 139.538 176.403 139.311C176.362 139.579 176.329 139.932 176.302 140.22C176.109 142.285 175.787 145.743 172.33 148.799C171.912 149.168 171.866 149.848 171.875 150.221C171.912 151.743 172.893 153.59 174.287 154.803Z" fill="#6B184E"/>
<path d="M168.576 160.367C169.683 161.48 171.283 162.003 175.235 161.287C183.314 159.823 189.351 154.237 187.402 152.17C186.087 150.774 183.371 151.931 179.948 152.068C173.899 152.309 172.3 151.19 170.888 151.19C167.756 151.19 165.267 157.042 168.576 160.367V160.367Z" fill="white"/>
<g opacity="0.35">
<path d="M168.577 160.366C169.683 161.479 171.281 162.002 175.235 161.286C183.119 159.861 189.052 154.511 187.528 152.33C185.39 154.477 181.362 156.747 176.633 157.604C172.682 158.319 171.081 157.796 169.975 156.683C168.786 155.487 168.344 153.963 168.418 152.504C166.792 154.425 166.245 158.023 168.577 160.366V160.366Z" fill="#6B184E"/>
</g>
<path d="M172.164 162.836C170.167 162.836 168.785 162.317 167.702 161.228C166.669 160.189 166.023 158.862 165.837 157.39C165.673 156.101 165.86 154.767 166.378 153.531C167.299 151.333 169.027 149.967 170.888 149.967C171.467 149.967 172.018 150.097 172.658 150.247C173.943 150.549 175.886 151.007 179.899 150.846C180.942 150.805 181.91 150.662 182.847 150.526C184.967 150.216 186.97 149.923 188.299 151.333C188.998 152.075 189.182 153.088 188.817 154.188C188.298 155.755 186.617 157.541 184.206 159.088C181.661 160.721 178.553 161.93 175.454 162.491C174.197 162.719 173.111 162.835 172.164 162.835V162.836ZM169.449 159.506C170.096 160.156 171.112 160.79 175.015 160.084C177.803 159.579 180.594 158.495 182.875 157.031C184.288 156.124 186.081 154.635 186.483 153.421C186.515 153.324 186.582 153.088 186.506 153.008C186.056 152.53 184.735 152.723 183.204 152.947C182.251 153.086 181.17 153.244 179.998 153.291C175.648 153.464 173.509 152.961 172.092 152.628C171.563 152.504 171.18 152.414 170.888 152.414C170.063 152.414 169.162 153.242 168.646 154.473C168.044 155.911 167.938 157.988 169.448 159.507L169.449 159.506Z" fill="#6B184E"/>
<g opacity="0.35">
<path d="M136.488 115.59C135.665 116.006 134.82 116.41 133.96 116.796C131.038 118.108 127.907 119.236 124.607 120.182C115.986 122.653 106.188 123.883 95.7935 123.91C84.7633 123.941 74.3968 122.61 65.3883 119.873C62.1438 118.891 59.0744 117.722 56.2139 116.367C55.4212 115.994 54.6439 115.603 53.885 115.202C55.2123 114.134 56.6502 113.103 58.2172 112.131C58.4138 111.736 58.5214 111.528 58.5214 111.528H59.2188C62.1377 109.827 68.0214 111.528 68.0214 111.528H121.876L120.493 107.148C124.404 108.329 127.76 109.827 130.678 111.528H131.459C131.459 111.528 131.582 111.761 131.803 112.207C133.511 113.275 135.066 114.413 136.488 115.59V115.59Z" fill="#6B184E"/>
</g>
<path d="M158.341 75.7653C158.416 103.975 130.4 117.396 95.7935 117.488C61.1875 117.58 33.0967 104.307 33.0214 76.0964C32.9492 49.0586 50.4984 18.133 90.2339 15.5116C95.0315 13.0576 101.534 8.81351 105.181 2.54442C106.323 0.584471 109.23 0.859766 109.959 3.01242C110.925 5.8732 111.813 9.63175 109.898 14.4907C115.208 11.906 120.485 8.96721 122.22 7.40797C124.078 5.73938 127.041 7.09215 126.961 9.58051C126.882 11.9878 126.023 17.093 125.024 21.3746C147.838 32.0324 158.285 55.0165 158.341 75.7646V75.7653Z" fill="#ECC18E"/>
<g opacity="0.35">
<path d="M158.341 75.7645C158.415 103.976 130.4 117.395 95.792 117.487C61.1867 117.579 33.0982 104.306 33.0214 76.0979C33.0183 74.9569 33.046 73.8099 33.1074 72.6567C34.8096 99.1309 62.2375 111.608 95.792 111.519C129.224 111.431 156.501 98.9046 158.252 72.623C158.311 73.6753 158.338 74.7214 158.341 75.7645V75.7645Z" fill="#6B184E"/>
</g>
<g opacity="0.3">
<path d="M156.081 88.7865C156.683 86.1223 156.991 83.2951 156.983 80.3021C156.93 60.789 146.191 38.1589 125.934 26.6684C123.631 25.3623 122.43 22.7332 122.999 20.1562C123.64 17.2487 124.17 14.5149 124.222 12.9228C124.301 10.4336 122.721 10.2776 120.862 11.9462C119.505 13.1652 115.985 15.2276 111.975 17.3046C110.746 17.9416 109.283 16.9268 109.497 15.5641C110.003 12.334 109.325 9.69112 108.601 7.5507C107.873 5.39804 106.636 4.86274 104.916 7.83746C102.497 12.0242 98.306 14.9661 94.3587 17.1891C91.2032 18.9663 87.7075 20.0483 84.112 20.511C57.3523 23.956 41.5444 40.8331 35.083 59.84C40.7602 37.928 58.3585 17.6143 90.2331 15.5121C95.0308 13.0581 101.533 8.814 105.18 2.54491C106.322 0.584959 109.229 0.860255 109.958 3.01291C110.925 5.87369 111.812 9.63223 109.897 14.4912C115.208 11.9065 120.484 8.9677 122.219 7.40846C124.077 5.73986 127.04 7.09263 126.961 9.581C126.882 11.9883 126.022 17.0935 125.023 21.3751C147.837 32.0329 158.285 55.017 158.34 75.7651C158.353 80.5238 157.566 84.8628 156.08 88.7873L156.081 88.7865Z" fill="white"/>
</g>
<path d="M145.955 71.9821C145.978 80.2027 143.498 89.0573 136.018 95.9144C128.375 102.929 115.507 107.859 94.7404 107.914H94.7374C74.1887 107.969 61.348 103.207 53.6377 96.3541C45.9304 89.5046 43.351 80.5621 43.3288 72.2528C43.3242 70.5643 43.4594 68.9049 43.7259 67.2929C46.0625 53.0257 58.4799 42.121 73.4736 42.082C81.674 42.0606 89.1278 45.293 94.5837 50.5603C100.015 45.2639 107.448 41.9917 115.649 41.9703C130.458 41.9313 142.805 52.4981 145.434 66.4877V66.4907C145.772 68.2702 145.949 70.1063 145.955 71.9813L145.955 71.9821Z" fill="#FEFAFB"/>
<path d="M102.3 73.9482C102.307 76.5092 98.889 79.5971 94.6621 79.6078C90.4351 79.6192 87.0009 76.5497 86.994 73.9887C86.9871 71.4277 90.4105 70.3441 94.6375 70.3326C98.8645 70.3211 102.293 71.3871 102.3 73.9482Z" fill="#6B184E"/>
<g opacity="0.5">
<path d="M97.975 72.5459C97.9765 73.1447 96.5831 73.8681 94.8626 73.8727C93.142 73.8773 91.7448 73.1607 91.7432 72.562C91.7417 71.9632 93.1358 71.7078 94.8572 71.7032C96.5778 71.6986 97.9734 71.9464 97.9757 72.5451L97.975 72.5459Z" fill="#FEFAFB"/>
</g>
<path d="M58.6573 112.258C58.4976 112.258 58.3363 112.227 58.1796 112.162C49.9638 108.709 43.5331 104.01 39.0649 98.1962C34.2619 91.947 31.8154 84.5125 31.7932 76.0992C31.7747 69.252 32.837 62.4537 34.9509 55.8925C37.1877 48.9489 40.5044 42.6103 44.8074 37.0539C49.4676 31.0364 55.1785 26.0933 61.7813 22.3615C68.9716 18.2979 77.182 15.7032 86.1851 14.6502C86.8588 14.5707 87.4702 15.0517 87.5493 15.7223C87.6284 16.3937 87.1461 17.0017 86.4724 17.0804C77.7973 18.0952 69.8987 20.5874 62.9957 24.4889C56.6794 28.0586 51.215 32.7891 46.7553 38.5474C42.6259 43.8789 39.4421 49.966 37.2921 56.6389C35.2574 62.9554 34.2343 69.5005 34.2519 76.0915C34.3034 95.415 47.813 105.146 59.1366 109.906C59.7619 110.169 60.0545 110.887 59.7911 111.509C59.5929 111.976 59.1374 112.257 58.6581 112.257L58.6573 112.258Z" fill="#6B184E"/>
<path d="M66.6788 114.002C65.966 114.027 65.2685 113.981 64.5726 113.916C63.8798 113.843 63.1915 113.743 62.511 113.61C61.8312 113.476 61.1506 113.331 60.497 113.111C59.8433 112.892 59.2027 112.632 58.6112 112.261C58.0643 111.917 57.9015 111.198 58.2464 110.654C58.516 110.228 59.0176 110.036 59.4846 110.137L59.4938 110.14C60.1529 110.283 60.7712 110.52 61.3841 110.777C61.9963 111.034 62.5901 111.347 63.1892 111.653C63.7884 111.96 64.386 112.281 64.9843 112.612C65.5804 112.951 66.1795 113.292 66.7687 113.687C66.8478 113.74 66.8693 113.847 66.8163 113.926C66.784 113.974 66.7318 114.001 66.6788 114.003V114.002Z" fill="#6B184E"/>
<path d="M84.0982 72.5688C82.8361 81.48 75.6381 83.5936 66.2394 87.3835C60.3426 89.7602 56.2869 93.2695 53.6384 96.3543C45.9312 89.5048 43.3518 80.5623 43.3295 72.253C43.3249 70.5645 43.4601 68.9051 43.7267 67.2931C49.2548 61.5432 57.9967 56.0129 70.6085 57.4903C79.8382 58.5739 85.0038 66.1736 84.0982 72.5688Z" fill="#707169"/>
<path d="M145.955 71.982C145.978 80.2026 143.498 89.0572 136.018 95.9143C133.347 92.8998 129.327 89.5213 123.557 87.2318C114.138 83.4916 106.929 81.4162 105.62 72.5119C104.681 66.122 109.805 58.4948 119.029 57.3623C131.24 55.8634 139.856 60.9656 145.435 66.4875V66.4906C145.773 68.2701 145.95 70.1061 145.955 71.9812V71.982Z" fill="#707169"/>
<path d="M108.583 17.5769C108.284 17.5769 107.984 17.4683 107.747 17.2496C107.25 16.7892 107.222 16.0154 107.683 15.5206C110.842 12.1368 110.031 7.06291 108.793 3.40224C108.612 2.86542 108.17 2.51136 107.612 2.45553C107.046 2.39894 106.535 2.662 106.245 3.15983C104.746 5.73537 102.776 8.07003 100.391 10.0996C98.4927 11.7139 96.3297 13.1385 93.9608 14.3345C89.9289 16.3702 86.7082 17.0378 86.573 17.0653C85.9078 17.2007 85.2588 16.7732 85.1236 16.1109C84.9884 15.4487 85.417 14.8025 86.0822 14.6679C86.1114 14.6618 89.1677 14.0218 92.9154 12.1192C96.3304 10.3856 101.047 7.21049 104.118 1.934C104.893 0.601113 106.327 -0.131478 107.857 0.0214636C109.38 0.174405 110.631 1.17082 111.122 2.62224C113.202 8.77509 112.635 13.8115 109.483 17.1869C109.241 17.4461 108.912 17.5777 108.583 17.5777L108.583 17.5769Z" fill="#6B184E"/>
<path d="M131.442 112.661C130.954 112.661 130.492 112.37 130.3 111.892C130.048 111.264 130.355 110.552 130.986 110.301C139.214 107.025 145.631 102.529 150.054 96.9386C154.759 90.993 157.134 83.8705 157.112 75.7676C157.099 70.5729 156.428 65.3591 155.118 60.2692C153.756 54.9721 151.731 49.9365 149.101 45.3031C146.317 40.3998 142.883 36.0035 138.893 32.2342C134.628 28.2057 129.721 24.893 124.308 22.3886C124.011 22.2509 123.781 22.0009 123.67 21.6935C123.559 21.3861 123.576 21.0473 123.717 20.7529L123.823 20.5311C124.917 18.1705 125.577 14.3706 125.733 9.54148C125.755 8.88383 125.41 8.32636 124.811 8.0503C124.204 7.76965 123.543 7.86906 123.043 8.31794C119.647 11.3661 114.633 15.1476 110.029 15.8534C109.358 15.9559 108.731 15.4978 108.627 14.8302C108.524 14.1626 108.984 13.5378 109.655 13.4346C111.865 13.0958 115.696 11.6184 121.397 6.50099C122.634 5.3914 124.338 5.13446 125.846 5.83111C127.345 6.52394 128.243 7.97535 128.19 9.62101C128.038 14.3094 127.445 18.0244 126.424 20.6833C131.652 23.2328 136.412 26.518 140.586 30.4601C144.753 34.3961 148.337 38.9851 151.242 44.0995C153.978 48.9202 156.085 54.1569 157.501 59.6628C158.861 64.9485 159.557 70.3649 159.572 75.7615C159.595 84.4295 157.043 92.0643 151.987 98.4535C147.293 104.385 140.535 109.136 131.9 112.573C131.75 112.633 131.595 112.661 131.443 112.661H131.442Z" fill="#6B184E"/>
<path d="M122.577 114.143C123.231 113.748 123.892 113.405 124.55 113.063C125.211 112.73 125.869 112.405 126.529 112.094C127.189 111.784 127.842 111.466 128.514 111.203C129.184 110.938 129.861 110.695 130.575 110.543L130.582 110.542C131.213 110.408 131.834 110.809 131.968 111.437C132.076 111.939 131.838 112.435 131.417 112.682C130.764 113.062 130.065 113.33 129.353 113.554C128.641 113.78 127.903 113.929 127.166 114.065C126.428 114.201 125.683 114.303 124.934 114.376C124.182 114.442 123.428 114.486 122.662 114.459C122.566 114.456 122.493 114.377 122.496 114.282C122.498 114.222 122.531 114.17 122.579 114.141L122.577 114.143Z" fill="#6B184E"/>
<path d="M59.0352 72.447C59.2004 72.2466 59.3194 72.1128 59.4615 71.956C59.6006 71.8069 59.7434 71.6662 59.8878 71.527C60.1751 71.2464 60.4831 70.9963 60.7935 70.7455C61.4202 70.2546 62.0939 69.8233 62.8029 69.4447C64.2223 68.6961 65.7947 68.1799 67.4277 67.9444C68.2457 67.832 69.0768 67.7968 69.9049 67.8297C70.7329 67.8778 71.5556 67.9964 72.3552 68.1975C73.9498 68.6097 75.4453 69.327 76.6728 70.3387C77.2442 70.8097 77.3234 71.6524 76.8502 72.2214C76.526 72.6114 76.026 72.7712 75.5598 72.681L75.496 72.668C74.151 72.4057 72.9028 72.1816 71.6677 72.0868C71.0494 72.0501 70.4402 72.0271 69.8311 72.0432C69.222 72.0616 68.616 72.109 68.0084 72.1816C66.7955 72.3453 65.5804 72.6251 64.3644 73.0182C63.7553 73.2102 63.1485 73.4342 62.5386 73.672C62.2298 73.7845 61.9326 73.9206 61.6276 74.0445L61.1768 74.2395C61.0308 74.296 60.8657 74.3817 60.7566 74.4123L60.394 74.5132C59.702 74.7067 58.9838 74.3052 58.7902 73.6162C58.6719 73.1964 58.781 72.7605 59.0368 72.4447L59.0352 72.447Z" fill="#6B184E"/>
<path d="M129.863 74.2311C129.753 74.2013 129.588 74.1156 129.441 74.0598L128.989 73.8671C128.684 73.7447 128.386 73.6101 128.076 73.4993C127.465 73.2645 126.858 73.0435 126.247 72.8554C125.03 72.4684 123.813 72.1954 122.599 72.0379C121.991 71.9683 121.384 71.9247 120.775 71.9087C120.166 71.8964 119.556 71.9217 118.938 71.9622C117.704 72.0631 116.457 72.2941 115.113 72.564L115.051 72.5763C114.324 72.7223 113.615 72.2535 113.469 71.5294C113.369 71.0331 113.56 70.5444 113.924 70.2401C115.145 69.2215 116.638 68.4965 118.23 68.0759C119.028 67.871 119.851 67.7471 120.678 67.6951C121.506 67.6584 122.337 67.6882 123.155 67.7968C124.79 68.0239 126.365 68.5309 127.789 69.2727C128.499 69.6474 129.175 70.0749 129.805 70.5628C130.117 70.8113 130.426 71.0598 130.715 71.339C130.86 71.4774 131.003 71.6173 131.144 71.7657C131.287 71.9217 131.407 72.0547 131.572 72.2543C132.031 72.8049 131.954 73.6216 131.401 74.0781C131.064 74.3565 130.627 74.4368 130.234 74.332L129.863 74.2303L129.863 74.2311Z" fill="#6B184E"/>
<path d="M103.404 85.9893C103.072 86.2968 102.789 86.5224 102.466 86.7587C102.151 86.9888 101.822 87.1945 101.491 87.3995C100.822 87.7971 100.113 88.1313 99.3745 88.4089C97.9012 88.9679 96.2913 89.2868 94.6306 89.2646C92.9415 89.234 91.3331 88.8348 89.8852 88.204C89.1616 87.8843 88.4703 87.5157 87.822 87.0867C87.5017 86.8649 87.1821 86.647 86.8803 86.4C86.57 86.1522 86.298 85.9106 85.9823 85.5925C85.5015 85.1076 85.5061 84.3261 85.9939 83.8474C86.3295 83.5178 86.8058 83.4176 87.2267 83.5453L87.4134 83.6027C87.6822 83.6853 88.0133 83.8168 88.319 83.9193C88.6308 84.0263 88.9388 84.1388 89.2515 84.2351C89.8729 84.4362 90.4904 84.6182 91.1026 84.7727C92.327 85.087 93.5306 85.2721 94.6813 85.2881C95.2689 85.2881 95.8711 85.2667 96.4787 85.1902C97.0878 85.1329 97.7023 85.0235 98.3237 84.9012C98.9451 84.7788 99.5727 84.6282 100.203 84.4584C100.521 84.3804 100.834 84.2856 101.151 84.1953C101.46 84.1089 101.799 83.9965 102.071 83.9315L102.266 83.8841C102.932 83.7235 103.602 84.1303 103.764 84.7933C103.873 85.2415 103.719 85.6934 103.403 85.9878L103.404 85.9893Z" fill="#6B184E"/>
</g>
<defs>
<clipPath id="clip0_165_2244">
<rect width="189" height="201" fill="white"/>
</clipPath>
</defs>
</svg>
