<svg width="130" height="130" viewBox="0 0 130 130" fill="none" xmlns="http://www.w3.org/2000/svg">
<rect width="130" height="130" fill="white"/>
<g clip-path="url(#clip0_840_13750)">
<path d="M115.826 70.5883C115.826 70.5883 106.239 94.2479 78.4567 97.4786C78.4567 97.4786 75.6349 103.488 69.6636 99.857C69.6636 99.857 32.0395 104.837 15.806 77.1719C15.806 77.1719 9.03762 75.8661 8.75361 72.9191C8.62144 71.5515 9.19368 70.7512 10.1568 70.2121C11.5839 69.4118 13.8686 69.1843 15.9902 68.53C15.9902 68.53 16.7044 64.1003 23.8665 61.1195C24.0704 61.0338 24.2729 60.9524 24.4725 60.8696C31.3675 58.0924 37.1868 57.2162 44.7496 52.705C44.7496 52.705 62.3863 48.8804 74.5171 52.2923C86.6479 55.7041 92.4392 61.7415 103.461 62.7201C109.145 63.2241 113.54 63.6341 116.542 64.2842C118.903 64.7925 120.404 65.451 120.991 66.4183C121.104 66.6065 121.185 66.8059 121.23 67.0193C121.8 69.7164 115.826 70.5869 115.826 70.5869V70.5883Z" fill="white"/>
<g opacity="0.2">
<path d="M116.449 65.5981C112.819 69.132 108.321 71.7702 103.196 73.1462C103.357 74.8226 103.509 76.5496 103.022 78.1614C102.534 79.7733 101.239 81.263 99.5633 81.4525C98.4189 81.5817 97.3053 81.1057 96.189 80.8361C92.6459 79.9769 88.9566 81.1605 85.3123 81.2237C82.2444 81.2798 79.2258 80.5413 76.1917 80.0723C73.1576 79.6034 69.9632 79.4209 67.1034 80.5357C64.2197 81.6617 61.9983 83.9714 59.4745 85.7615C56.9508 87.5517 53.6369 88.8546 49.8154 87.1417C43.2368 81.3318 34.3622 78.1867 25.6662 78.3833C23.3168 77.6279 21.3484 75.7746 20.4542 73.4776C19.5614 71.1791 19.7611 68.4848 20.9843 66.3436C21.9165 64.7121 23.3759 63.4344 24.5682 61.9897C31.4631 59.2125 37.2825 58.3364 44.8453 53.8252C44.8453 53.8252 62.4819 50.0005 74.6128 53.4124C86.7436 56.8242 92.5348 62.8616 103.556 63.8402C109.241 64.3443 113.636 64.7542 116.638 65.4043C116.574 65.4689 116.51 65.5335 116.446 65.5953L116.449 65.5981Z" fill="#613331"/>
</g>
<path d="M73.3094 101.756C72.0918 101.756 70.818 101.374 69.5006 100.612C67.8992 100.789 59.0583 101.615 48.6808 99.6067C41.9588 98.3066 35.9074 96.0896 30.6954 93.0176C24.256 89.2238 19.0918 84.1131 15.3379 77.823C13.6169 77.4495 8.31778 76.0525 8.02393 72.9903C7.70899 69.7203 10.6067 69.0632 13.4088 68.4286C14.0598 68.2811 14.7291 68.1295 15.3814 67.9442C15.7779 66.6552 17.4103 63.0118 23.5825 60.4438C26.1527 59.3739 28.5864 58.5778 30.9401 57.807C35.3028 56.3791 39.4224 55.0298 44.3714 52.0757C44.4403 52.0349 44.5148 52.0055 44.5922 51.9886C45.3191 51.8314 62.548 48.1668 74.714 51.5871C79.9723 53.0655 83.9738 54.9947 87.843 56.8592C92.9482 59.3191 97.3573 61.4434 103.524 61.991C109.378 62.5105 113.439 62.898 116.41 63.5088C118.904 64.0213 121.512 64.8216 121.945 66.8687C122.086 67.5328 121.949 68.1871 121.549 68.7613C120.437 70.3535 117.474 71.0359 116.34 71.2437C115.703 72.6702 113.208 77.8146 108.095 83.3184C104.635 87.0434 100.69 90.1505 96.3703 92.5528C91.0782 95.4957 85.2082 97.3813 78.9193 98.1606C78.4525 98.9665 77.1576 100.849 74.9375 101.518C74.4075 101.678 73.8648 101.756 73.3094 101.756ZM69.6623 99.1251C69.7958 99.1251 69.928 99.1616 70.0433 99.2318C71.6714 100.222 73.1758 100.519 74.5157 100.116C76.6936 99.4607 77.7804 97.1918 77.7917 97.1693C77.8999 96.9404 78.1179 96.7818 78.3709 96.7523C92.4744 95.1124 101.714 88.0248 106.981 82.3665C112.709 76.2154 115.122 70.3703 115.146 70.3128C115.244 70.0727 115.462 69.9014 115.719 69.8635C117.13 69.6571 119.634 68.9466 120.347 67.9245C120.515 67.6816 120.567 67.4429 120.511 67.1733C120.036 64.9297 112.692 64.2782 103.395 63.4512C96.9623 62.8798 92.2227 60.5968 87.2075 58.179C83.3945 56.3426 79.4521 54.4429 74.3175 52.9981C63.0035 49.8166 46.5549 53.0796 45.0196 53.3969C39.9763 56.3903 35.6164 57.8182 31.3984 59.1998C29.0715 59.9622 26.6645 60.7498 24.1478 61.7973C17.5073 64.559 16.7185 68.6111 16.7115 68.6518C16.6637 68.9214 16.4683 69.1474 16.2053 69.2289C15.3772 69.4844 14.5421 69.6739 13.7336 69.8579C10.5772 70.5725 9.309 71.0429 9.48334 72.8513C9.64924 74.5811 13.5354 75.9795 15.9452 76.4555C16.1589 76.4976 16.3333 76.6296 16.4373 76.8037C24.6764 90.8441 38.6477 96.1682 48.9184 98.162C60.1114 100.335 69.4739 99.1434 69.5667 99.1308C69.599 99.1265 69.6313 99.1251 69.6623 99.1251Z" fill="#613331"/>
<path d="M111.686 67.4822C111.686 67.4822 111.651 67.5411 111.549 67.6464C111.009 68.1968 108.602 69.9743 99.7264 70.5009C99.7264 70.5009 99.7602 70.5317 99.8178 70.5949H99.8192C100.307 71.1032 102.481 73.7091 101.457 78.8858C101.328 79.5359 100.577 79.8476 100.022 79.4867C98.7619 78.6654 96.5587 77.434 94.1067 77.0002C94.073 76.9917 94.0378 76.9875 94.0013 76.9805C94.0013 76.9805 93.8382 77.6123 87.7826 77.6123C81.727 77.6123 68.1494 82.8129 48.1071 78.8409C39.2086 77.076 36.4698 72.6603 36.5654 67.8556C36.6835 61.8379 41.2459 55.2122 43.7134 52.421C44.4951 51.5364 45.3865 50.6098 46.3834 49.6803C52.1324 44.3183 61.4021 38.893 73.727 41.3277C88.1889 44.1863 88.9988 54.52 92.1917 56.9013C95.3552 59.2629 105.135 56.7469 110.08 60.2738C110.122 60.3005 110.164 60.3314 110.204 60.3623C110.204 60.3623 116.105 60.6473 116.861 62.1608C116.881 62.1945 116.895 62.2296 116.906 62.2661C116.933 62.3476 116.953 62.4318 116.962 62.5161C117.237 64.7541 111.683 67.4822 111.683 67.4822H111.686Z" fill="#ECC18E"/>
<g opacity="0.59">
<path d="M116.864 62.1613C114.933 61.4115 112.784 61.222 110.725 61.7092C107.655 59.9317 103.576 59.6873 100.027 59.6466C96.4785 59.6059 92.65 59.8446 90.2838 57.2794C88.5755 55.4289 87.6911 52.9564 86.2725 50.877C84.4264 48.17 82.0827 46.2212 79.4057 44.8817C79.4071 44.9449 79.3986 45.0053 79.3804 45.0642C79.1765 45.7003 77.845 45.8435 76.4053 45.3844C74.9656 44.9252 73.9631 44.0393 74.1656 43.4033C74.2007 43.2937 74.271 43.1969 74.3666 43.1182C72.1888 42.6324 69.8829 42.4162 67.5124 42.4162C58.4776 42.4162 51.4449 46.6157 45.5439 51.3684C45.8026 50.7913 46.0824 50.2283 46.3875 49.6793C52.1366 44.3173 61.4063 38.8921 73.7311 41.3267C88.1931 44.1853 89.0029 54.5191 92.1959 56.9003C95.3594 59.2619 105.139 56.7459 110.084 60.2728C110.126 60.2995 110.169 60.3304 110.208 60.3613C110.208 60.3613 116.109 60.6463 116.865 62.1599L116.864 62.1613Z" fill="white"/>
</g>
<path d="M63.227 81.0706C58.6575 81.0706 53.5665 80.6691 47.9664 79.5585C41.6465 78.3061 37.7463 75.6131 36.3741 71.554C35.321 68.4385 35.7892 64.6546 37.7646 60.3048C39.3225 56.8762 41.5762 53.7339 43.165 51.9367C48.0578 46.4076 58.5535 37.586 73.8703 40.6103C84.6739 42.7459 88.1171 48.9658 90.3962 53.081C91.1906 54.5146 91.8753 55.7529 92.6303 56.316C93.869 57.2412 96.5868 57.3142 99.4648 57.3915C103.26 57.4939 107.558 57.6091 110.458 59.6449C110.948 59.6758 112.185 59.7699 113.481 59.9917C115.974 60.4172 117.283 61.0686 117.603 62.0374C118.477 64.6728 113.523 67.377 112.158 68.065C112.133 68.0931 112.105 68.124 112.074 68.1563C111.376 68.8667 108.947 70.5164 101.134 71.1384C101.956 72.4933 102.957 75.0838 102.177 79.0292C102.069 79.5725 101.7 80.0246 101.189 80.2394C100.675 80.4557 100.09 80.4037 99.6237 80.1004C98.5664 79.4111 96.4771 78.2078 94.1713 77.7571C93.9238 77.8778 93.6202 77.9537 93.3094 78.0154C92.2043 78.2345 90.3456 78.3454 87.7867 78.3454C86.1923 78.3454 84.0229 78.7259 81.2742 79.2075C76.6879 80.012 70.6478 81.0706 63.2298 81.0706H63.227ZM67.7374 41.4626C56.2871 41.4626 48.294 48.3522 44.2631 52.9069C41.0982 56.4858 35.6669 64.8904 37.7618 71.0865C38.9541 74.612 42.4831 76.9793 48.2505 78.1236C62.6744 80.9822 73.7128 79.046 81.0169 77.7655C83.8359 77.2713 86.0616 76.881 87.7839 76.881C92.1678 76.881 93.2701 76.5482 93.4936 76.4555C93.6581 76.2969 93.8943 76.2169 94.1347 76.2618L94.1586 76.266C94.1896 76.2716 94.2219 76.2772 94.2528 76.2829C96.7513 76.7279 98.9882 77.9368 100.425 78.8747C100.505 78.9267 100.581 78.907 100.621 78.8902C100.666 78.8705 100.725 78.8298 100.741 78.7441C101.681 73.9929 99.7756 71.6172 99.3172 71.1272C99.3045 71.116 99.2933 71.1033 99.2821 71.0907C99.2567 71.0626 99.2385 71.0458 99.2314 71.0388C99.0191 70.838 98.9432 70.5277 99.0416 70.2539C99.1415 69.9787 99.3917 69.7878 99.6842 69.7709C108.533 69.2458 110.685 67.4823 111.026 67.1341C111.045 67.1159 111.057 67.1018 111.064 67.092C111.133 66.953 111.219 66.8968 111.362 66.8252C113.627 65.7104 116.574 63.5861 116.213 62.4966C116.21 62.4895 115.943 61.897 113.235 61.4351C111.687 61.1711 110.185 61.0953 110.171 61.0953C110.024 61.0883 109.882 61.0363 109.764 60.9465C109.737 60.9268 109.71 60.9058 109.682 60.8889C109.674 60.8833 109.665 60.8777 109.657 60.8721C107.12 59.0637 103.033 58.9542 99.4269 58.8573C96.1748 58.7702 93.3657 58.6944 91.7544 57.4911C90.7463 56.74 90.0265 55.4384 89.114 53.7915C86.8377 49.6804 83.7206 44.0516 73.5863 42.0481C71.5476 41.6451 69.5961 41.464 67.7374 41.464V41.4626Z" fill="#613331"/>
<g opacity="0.35">
<path d="M111.784 68.6019C111.784 68.6019 111.749 68.6608 111.648 68.7661C111.108 69.3165 108.701 71.094 99.8248 71.6206C99.8248 71.6206 99.8586 71.6514 99.9162 71.7146H99.9176C100.265 72.0769 101.466 73.5006 101.761 76.157C101.605 75.0591 101.273 73.999 100.718 73.0218C99.2118 70.3639 96.3211 68.7591 93.384 67.9055C90.4666 67.0602 87.4072 66.83 84.3702 66.8019C81.4416 66.7752 78.4159 66.9577 75.7923 68.2579C75.3002 68.5022 74.825 68.7956 74.3779 69.1284C72.2549 70.7149 73.8535 74.0931 76.432 73.4669C81.6778 72.192 87.1892 71.9982 92.5067 72.9319C93.997 73.1945 95.4859 73.5469 96.8441 74.2138C98.2023 74.8807 99.4283 75.8846 100.151 77.2115C100.733 78.2813 100.954 79.4776 100.972 80.6921C100.705 80.7946 100.39 80.7791 100.12 80.6036C98.8603 79.7823 96.6571 78.5509 94.2051 78.1171C94.1713 78.1086 94.1362 78.1044 94.0996 78.0974C94.0996 78.0974 93.9366 78.7292 87.881 78.7292C81.8254 78.7292 68.2478 83.9298 48.2055 79.9578C39.307 78.1929 36.5682 73.7772 36.6638 68.9725C38.4663 65.1016 41.6944 61.6982 44.8747 58.7132C48.6849 55.1371 52.827 51.5933 57.8857 50.2707C64.2857 48.5957 71.5744 51.0668 75.6306 56.2842C76.7737 57.7542 77.8001 59.5107 79.5533 60.1425C81.2152 60.7392 83.0556 60.1397 84.8173 60.2675C87.888 60.4949 90.3007 62.8453 92.9847 64.3476C96.7654 66.4649 101.297 66.931 105.603 66.4523C109.522 66.0184 113.311 64.8545 117.062 63.6315C117.336 65.8696 111.783 68.5976 111.783 68.5976L111.784 68.6019Z" fill="#613331"/>
</g>
<path d="M62.1782 82.1436C55.6305 84.8828 39.8033 86.1324 28.6679 79.4015C22.0486 75.3999 20.6074 70.3103 24.4556 63.7843C24.7396 63.3013 25.0518 62.8099 25.3962 62.3114C25.4328 62.2567 25.4707 62.2019 25.5073 62.1458C26.4859 60.6771 27.4475 58.6623 27.9439 57.007C29.714 51.117 34.6729 46.1944 40.7974 44.7005C40.2448 43.392 40.4234 41.8026 41.2515 40.6499C42.1935 42.0272 43.6473 43.0466 45.4048 43.5955C45.1222 41.8489 45.6804 39.9843 46.8768 38.6758C48.5935 41.6481 52.2449 42.7868 55.5419 43.7542C61.6706 45.5528 65.859 49.7102 68.2717 54.6819C69.1054 56.3948 69.7283 58.2046 70.1473 60.0467C72.2309 69.2039 69.284 79.1712 62.1768 82.145L62.1782 82.1436Z" fill="#ECC18E"/>
<g opacity="0.61">
<path d="M25.5087 62.1451C25.5087 62.1451 25.5185 62.1324 25.5214 62.124C25.16 62.8148 24.8156 63.382 24.457 63.7836C24.741 63.3006 25.0532 62.8092 25.3976 62.3108C25.4342 62.256 25.4722 62.2012 25.5087 62.1451Z" fill="white"/>
</g>
<g opacity="0.61">
<path d="M25.5214 62.1256C26.1498 60.9293 26.8317 59.3638 27.7316 57.6621C27.2043 59.1644 26.3706 60.8493 25.5214 62.1256Z" fill="white"/>
</g>
<g opacity="0.61">
<path d="M70.1487 60.0448C67.8316 54.6322 63.7177 49.5734 58.5521 46.7302C58.5381 46.7218 58.5212 46.7148 58.5072 46.7064C58.5086 46.7738 58.4987 46.8383 58.4776 46.9015C58.2724 47.4856 57.0688 47.5993 55.7852 47.1514C54.5029 46.705 53.6298 45.8695 53.8337 45.2855C53.8744 45.1675 53.956 45.0692 54.0685 44.9934C51.7641 44.2802 49.4287 43.5529 47.0878 41.5212C47.1187 42.7736 47.0892 43.6189 47.3802 44.693C47.4646 45.0047 47.2129 45.3051 46.8881 45.2869C45.021 45.1788 43.4153 44.8558 41.9208 43.6287C42.1429 44.2563 42.2273 44.7182 42.3369 45.2082C42.4649 45.7867 42.0585 46.3483 41.4694 46.4045C38.6111 46.6755 36.3024 47.9068 34.3608 49.4105C31.1509 51.8957 29.1643 54.9509 27.7316 57.6593C27.8089 57.4375 27.8806 57.2184 27.9439 57.005C29.714 51.1151 34.6729 46.1925 40.7974 44.6986C40.2448 43.39 40.4234 41.8006 41.2515 40.6479C42.1935 42.0253 43.6473 43.0446 45.4048 43.5936C45.1222 41.847 45.6804 39.9824 46.8769 38.6738C48.5936 41.6462 52.2449 42.7849 55.5419 43.7523C61.6706 45.5508 65.859 49.7082 68.2717 54.6799C69.1055 56.3928 69.7283 58.2027 70.1473 60.0448H70.1487Z" fill="white"/>
</g>
<path d="M64.5922 68.8349C64.4966 70.3625 64.2618 71.8971 63.8864 73.3882C63.0161 76.8506 61.0843 79.9802 57.6593 81.9809C53.8083 84.2302 48.0719 85.053 39.8314 83.3162C31.5881 81.5794 28.54 79.003 26.0879 76.7017C25.8559 76.4841 25.6422 76.2651 25.4468 76.046C21.541 71.7019 24.2236 66.9956 26.6306 64.1931C27.9705 62.6332 29.0363 60.8669 29.8264 58.9743C29.9825 58.5994 30.1273 58.2203 30.2637 57.8356C31.2985 54.8843 33.1713 51.1917 36.1927 50.4686C42.2343 49.0224 44.6455 55.526 44.6455 55.526C44.6455 55.526 51.9805 49.8536 59.2087 54.4392C63.1764 56.9581 64.969 62.8298 64.5922 68.8349Z" fill="#FFD8B5"/>
<path d="M40.6989 61.9167C40.1365 63.9413 38.4943 65.5602 36.5681 66.404C33.4834 67.7519 29.624 67.3588 27.0693 69.5505C25.8981 70.5572 25.1572 72.0441 25.0587 73.5829C25.0053 74.4183 25.1445 75.2635 25.4468 76.0456C21.541 71.7015 24.2236 66.9951 26.6306 64.1927C27.9705 62.6328 29.0363 60.8665 29.8264 58.9738C30.4226 58.2129 31.0904 57.515 31.8665 56.9324C33.8644 55.43 36.8043 54.874 38.8543 56.3034C40.5808 57.5024 41.2599 59.8921 40.6989 61.9181V61.9167Z" fill="#8A4946"/>
<path d="M37.3738 62.4516C37.4075 62.832 37.2754 63.2308 37.0392 63.5678C36.803 63.9047 36.4627 64.1757 36.0845 64.3582C35.3211 64.7247 34.4086 64.7359 33.6198 64.4565C32.8297 64.1757 32.1309 63.5902 31.771 62.8236C31.5924 62.4431 31.501 62.0177 31.5319 61.6077C31.5629 61.1977 31.7133 60.8046 31.9819 60.5322C32.0479 61.289 32.3601 61.8015 32.7425 62.2058C33.1291 62.6088 33.6001 62.8896 34.1105 63.0778C34.6251 63.2561 35.1678 63.3361 35.7232 63.2687C36.2771 63.1985 36.8437 62.9963 37.3724 62.4516H37.3738Z" fill="#613331"/>
<path d="M64.5922 68.8349C64.4966 70.3625 64.2618 71.8971 63.8864 73.3882C63.0161 76.8506 61.0843 79.9802 57.6593 81.9809C58.4874 81.1118 59.0189 79.9423 58.9669 78.7474C58.9022 77.2297 57.9419 75.8818 56.8115 74.8638C54.9205 73.1636 52.5261 72.1512 50.3566 70.8244C48.1858 69.4962 46.1049 67.6569 45.5271 65.1816C44.9577 62.7456 46.1218 60.0063 48.2702 58.7216C50.5661 57.3484 53.537 57.6713 56.0073 58.7005C59.6066 60.1986 62.6056 63.1513 63.9989 66.7864C64.2534 67.4519 64.4516 68.1357 64.5936 68.8349H64.5922Z" fill="#8A4946"/>
<path d="M57.6172 65.1568C57.7128 65.6426 57.6454 66.1691 57.4499 66.6563C57.2545 67.1449 56.9255 67.59 56.5135 67.9452C55.6882 68.6627 54.5184 68.9898 53.4162 68.8382C52.3139 68.695 51.2706 68.0702 50.6646 67.1589C50.361 66.7068 50.1627 66.1902 50.1037 65.6679C50.0446 65.1455 50.1191 64.6204 50.3413 64.1768C50.524 65.1441 50.9655 65.8897 51.5532 66.4246C52.1395 66.9624 52.858 67.2811 53.6116 67.3864C54.3666 67.4861 55.1441 67.3681 55.8527 67.0045C56.5628 66.6437 57.1856 66.0399 57.6158 65.1554L57.6172 65.1568Z" fill="#613331"/>
<path d="M48.5696 85.0659C48.0846 85.0659 47.6009 85.0589 47.1173 85.0449C42.067 84.8946 34.701 83.902 28.2897 80.0282C24.63 77.8155 22.4521 75.2067 21.818 72.2765C21.1487 69.1792 22.1217 65.7842 24.7916 61.8978C25.7688 60.4755 26.753 58.4256 27.2423 56.7969C29.0462 50.7947 33.9544 45.9226 39.868 44.1914C39.5643 42.8379 39.8455 41.3511 40.6554 40.2222C40.7946 40.0285 41.0125 39.9105 41.2599 39.9161C41.499 39.9189 41.7225 40.0383 41.8575 40.2349C42.5155 41.1966 43.4519 41.9674 44.6006 42.4996C44.6413 40.9144 45.2543 39.3601 46.3369 38.1807C46.4944 38.0094 46.7264 37.9224 46.957 37.9477C47.189 37.9729 47.3956 38.1077 47.5123 38.3099C49.0913 41.0422 52.6315 42.1107 55.7542 43.0514C60.484 44.4779 64.4699 47.4797 67.2833 51.7312C69.7719 55.494 71.2721 60.1723 71.5083 64.9039C71.9273 73.3422 68.3743 80.375 62.458 82.8195C59.0414 84.2319 53.8252 85.0659 48.5696 85.0659ZM29.049 78.7744C40.346 85.6037 56.0185 83.8978 61.897 81.466C67.2341 79.2602 70.4313 72.7876 70.0432 64.9755C69.6692 57.4428 65.5919 47.5471 55.3296 44.4526C52.2772 43.5315 48.8565 42.501 46.8431 39.9316C46.202 40.9804 45.9306 42.2679 46.1274 43.4754C46.1682 43.7253 46.0754 43.9794 45.8842 44.1451C45.693 44.3108 45.4273 44.3669 45.1854 44.2911C43.6656 43.8166 42.3721 43.0275 41.3879 41.9815C41.1292 42.7691 41.1489 43.6495 41.4722 44.4147C41.5552 44.6127 41.5482 44.8359 41.4511 45.0283C41.3541 45.2192 41.1784 45.3596 40.9703 45.4102C35.217 46.8142 30.379 51.4475 28.6454 57.2167C28.1084 59.0027 27.0707 61.1649 26.0008 62.7248C23.5712 66.2616 22.6714 69.2845 23.2521 71.9662C23.8046 74.5244 25.7013 76.7512 29.049 78.7758V78.7744Z" fill="#613331"/>
<path d="M39.7499 70.7729C39.7499 70.7729 37.281 69.0332 38.0824 67.8384C38.8838 66.6436 43.3155 67.851 43.3155 69.3155C43.3155 70.7799 39.7499 70.7729 39.7499 70.7729Z" fill="#613331"/>
<path d="M39.3056 73.0524C38.9359 73.0524 38.6181 72.773 38.5773 72.3981C38.4564 71.2609 39.0076 70.4521 39.0708 70.3637C39.3056 70.0351 39.764 69.9593 40.093 70.1938C40.4206 70.4269 40.4979 70.8804 40.2673 71.2089C40.2533 71.23 39.9721 71.6666 40.0339 72.2437C40.0761 72.6452 39.7851 73.0061 39.383 73.0496C39.3563 73.0524 39.3309 73.0538 39.3042 73.0538L39.3056 73.0524Z" fill="#613331"/>
<path d="M41.8941 74.7046C41.4076 74.7046 40.9085 74.5965 40.4473 74.3859C39.9665 74.1655 39.5222 73.8355 39.1383 73.4185C38.7194 73.6221 38.2849 73.7415 37.8575 73.7667C37.0743 73.8117 36.332 73.5449 35.8202 73.0366C35.2241 72.4413 35.009 71.5385 35.2831 70.7888C35.4209 70.4083 35.8427 70.2131 36.2223 70.3507C36.6033 70.4897 36.7988 70.9095 36.661 71.2886C36.5808 71.5076 36.6638 71.8053 36.8564 71.9991C37.0687 72.2097 37.4118 72.3234 37.7717 72.3037C38.1302 72.2827 38.5169 72.131 38.8867 71.8671C39.0469 71.7534 39.2466 71.7084 39.4406 71.7421C39.6346 71.7758 39.8062 71.8867 39.9172 72.0496C40.2322 72.5087 40.6259 72.8555 41.0589 73.0535C41.5046 73.2585 41.9967 73.2964 42.4072 73.1602C42.8136 73.0254 43.1468 72.7011 43.2565 72.3318C43.3718 71.9443 43.7795 71.7239 44.1675 71.8376C44.5556 71.9527 44.7763 72.3599 44.661 72.7474C44.415 73.573 43.7289 74.2638 42.8698 74.5474C42.5605 74.6499 42.2301 74.7018 41.8941 74.7018V74.7046Z" fill="#613331"/>
<path d="M111.686 67.4823C111.686 67.4823 111.65 67.5413 111.549 67.6466L111.409 67.6143C112.884 62.8293 110.081 60.2754 110.081 60.2754C110.124 60.3021 110.166 60.333 110.205 60.3638C110.205 60.3638 116.377 60.6615 116.907 62.2677C117.662 64.5465 111.684 67.4837 111.684 67.4837L111.686 67.4823Z" fill="white"/>
<path d="M99.7263 71.2341C99.5393 71.2341 99.3509 71.1625 99.2089 71.0207C99.1878 70.9996 97.107 68.9637 93.1941 67.5906C89.5849 66.3241 83.625 65.3792 75.729 68.0652C75.3465 68.1957 74.929 67.9907 74.7982 67.6088C74.6675 67.2255 74.8727 66.8099 75.2552 66.6794C83.5912 63.8432 89.9196 64.8738 93.7607 66.2385C97.959 67.7296 100.154 69.8946 100.245 69.9859C100.531 70.2723 100.531 70.7356 100.245 71.0207C100.102 71.1639 99.9147 71.2341 99.7277 71.2341H99.7263Z" fill="#613331"/>
<path d="M111.549 68.3794C111.495 68.3794 111.44 68.3738 111.386 68.3611L111.246 68.3288C111.047 68.2839 110.876 68.1576 110.775 67.9806C110.673 67.8051 110.65 67.5945 110.709 67.3994C112.019 63.1493 109.685 60.9071 109.585 60.813C109.308 60.5533 109.273 60.1236 109.508 59.8246C109.736 59.5339 110.141 59.4581 110.455 59.6448C110.942 59.6757 112.183 59.7698 113.483 59.9916C115.975 60.4171 117.284 61.0685 117.605 62.0373C118.478 64.6727 113.525 67.3769 112.16 68.0649C112.134 68.093 112.106 68.1239 112.075 68.1561C111.936 68.2994 111.745 68.378 111.549 68.378V68.3794ZM111.67 61.2202C112.259 62.3125 112.803 63.9932 112.476 66.227C114.479 65.063 116.517 63.4133 116.213 62.4964C116.21 62.4894 115.944 61.8997 113.246 61.4364C112.695 61.3423 112.147 61.2707 111.67 61.2202Z" fill="#613331"/>
<path d="M111.452 63.3383C111.147 63.3383 110.862 63.1459 110.759 62.8412C110.628 62.4579 110.834 62.0423 111.217 61.9118C111.307 61.8809 113.452 61.1676 116.86 61.3502C117.265 61.3712 117.574 61.7166 117.553 62.1196C117.532 62.5239 117.184 62.8356 116.782 62.8118C113.654 62.6447 111.711 63.2905 111.691 63.2976C111.613 63.3242 111.534 63.3369 111.455 63.3369L111.452 63.3383Z" fill="#613331"/>
<path d="M101.459 78.8856C101.329 79.5357 100.578 79.8474 100.023 79.4865C98.7634 78.6652 96.5602 77.4338 94.1082 77C94.1208 76.9059 94.1306 76.8539 94.1306 76.8539C96.5771 71.1971 99.8179 70.5947 99.8179 70.5947H99.8193C100.307 71.103 102.481 73.7089 101.457 78.8856H101.459Z" fill="white"/>
<path d="M112.089 65.5252C111.769 65.5252 111.475 65.3145 111.385 64.9916C111.275 64.6027 111.502 64.1983 111.891 64.0888C111.919 64.0804 114.731 63.2745 116.434 61.855C116.744 61.5952 117.207 61.6374 117.466 61.9477C117.726 62.2579 117.684 62.7199 117.373 62.9782C115.427 64.6013 112.417 65.462 112.289 65.4971C112.223 65.5153 112.155 65.5252 112.089 65.5252Z" fill="#613331"/>
<path d="M100.536 80.3701C100.217 80.3701 99.8993 80.2789 99.6237 80.0991C98.2979 79.2342 96.2424 78.1194 93.9815 77.7207C93.5935 77.6519 93.3292 77.2896 93.3826 76.8993C93.3981 76.787 93.4093 76.7224 93.4093 76.7224C93.4191 76.6677 93.436 76.6129 93.4571 76.5624C96.0286 70.6162 99.5352 69.9016 99.6828 69.8735C99.9246 69.8286 100.178 69.91 100.348 70.0869C100.846 70.605 103.274 73.4735 102.176 79.0264C102.067 79.5698 101.699 80.0219 101.187 80.2367C100.978 80.3252 100.756 80.3687 100.535 80.3687L100.536 80.3701ZM95.1134 76.4669C97.2617 77.0046 99.1542 78.045 100.425 78.8734C100.505 78.9254 100.581 78.9057 100.621 78.8888C100.666 78.8692 100.723 78.8285 100.742 78.7428C101.55 74.6557 100.254 72.3264 99.583 71.4432C98.7773 71.7844 96.8076 72.9385 95.1148 76.4655L95.1134 76.4669Z" fill="#613331"/>
<path d="M100.988 80.2563C100.972 80.2563 100.955 80.2563 100.94 80.2549C100.536 80.2282 100.23 79.88 100.256 79.477C100.443 76.5959 98.8842 73.5744 97.2687 72.3178C96.9496 72.0693 96.8919 71.6088 97.1408 71.2901C97.3896 70.9713 97.8494 70.9138 98.17 71.1623C100.393 72.8921 101.918 76.5061 101.72 79.5711C101.695 79.9586 101.373 80.2563 100.989 80.2563H100.988Z" fill="#613331"/>
<path d="M100.68 80.3559C100.369 80.3559 100.082 80.1579 99.9824 79.8476C99.2752 77.6461 97.5725 75.8096 95.427 74.9363C95.0516 74.7833 94.8716 74.3564 95.0249 73.9815C95.1781 73.6067 95.6056 73.4269 95.981 73.58C98.523 74.6148 100.541 76.791 101.379 79.3997C101.502 79.7844 101.29 80.1972 100.905 80.3208C100.83 80.3447 100.754 80.3559 100.681 80.3559H100.68Z" fill="#613331"/>
<path d="M78.4552 98.2118C78.368 98.2118 78.2809 98.1964 78.1951 98.1641C77.8169 98.0209 77.6271 97.5997 77.7705 97.222C77.8253 97.0788 79.1441 93.6852 82.9305 91.6985C83.289 91.5103 83.7319 91.6479 83.9203 92.006C84.1087 92.364 83.9709 92.8063 83.6124 92.9944C80.3364 94.7144 79.1526 97.712 79.1413 97.7415C79.0289 98.0321 78.7505 98.2118 78.4566 98.2118H78.4552Z" fill="#613331"/>
<g opacity="0.2">
<path d="M62.181 82.4219C55.6333 85.1612 39.8061 86.4108 28.6708 79.6798C21.5621 75.3821 20.4247 69.8291 25.399 62.5884C25.4356 62.5337 25.4735 62.4789 25.5101 62.4228C24.5526 64.6636 24.7396 67.3875 25.8264 69.6058C27.1664 72.3353 29.6845 74.3515 32.4486 75.6278C35.2128 76.9041 38.2314 77.5134 41.2304 78.0399C45.1039 78.7209 49.0449 79.2853 52.9591 78.9034C56.872 78.5229 60.8031 77.1161 63.5771 74.3333C66.2021 71.7007 67.5954 68.0459 68.1325 64.3702C68.5852 61.2588 68.4742 58.1011 68.2759 54.9561C73.2503 65.1859 70.7195 78.8487 62.181 82.4205V82.4219Z" fill="#613331"/>
</g>
<path d="M69.6623 100.589C69.5034 100.589 69.3417 100.537 69.2082 100.43C69.166 100.397 64.986 97.1069 62.593 96.5215C62.1993 96.4246 61.9589 96.0286 62.0559 95.6369C62.1529 95.2438 62.5494 95.0037 62.9417 95.1006C65.6454 95.7619 69.9379 99.1414 70.1192 99.2846C70.437 99.5359 70.4904 99.9965 70.2388 100.312C70.0939 100.495 69.8802 100.59 69.6637 100.59L69.6623 100.589Z" fill="#613331"/>
<path d="M24.9253 77.9159C24.9253 77.9159 38.8066 74.9309 51.5476 87.6515C51.5476 87.6515 42.6323 89.6228 35.3703 86.6645C28.1098 83.7075 24.9267 77.9159 24.9267 77.9159H24.9253Z" fill="white"/>
<path d="M51.5461 88.3833C51.3591 88.3833 51.1707 88.3117 51.0273 88.1685C44.6076 81.7576 37.9011 79.5069 33.4047 78.7459C28.5217 77.9203 25.1108 78.6238 25.0771 78.6308C24.6806 78.715 24.2925 78.4637 24.2068 78.0678C24.1224 77.6732 24.3727 77.2843 24.7692 77.1987C24.9168 77.1664 28.436 76.4335 33.5777 77.2899C38.3032 78.0776 45.3457 80.4238 52.0635 87.1323C52.3504 87.4187 52.3504 87.882 52.0635 88.1671C51.9201 88.3103 51.7331 88.3819 51.5447 88.3819L51.5461 88.3833Z" fill="#613331"/>
<path d="M56.8004 87.4166C56.8004 87.4166 67.192 71.6773 85.931 82.0532L56.8004 87.4166Z" fill="white"/>
<path d="M56.7989 88.1478C56.6597 88.1478 56.5205 88.1085 56.3954 88.027C56.058 87.8038 55.9652 87.3517 56.1873 87.0133C56.297 86.8462 58.9459 82.8924 63.9919 80.1981C68.6598 77.7059 76.3168 75.8933 86.2852 81.4126C86.6395 81.6091 86.7675 82.0542 86.5706 82.408C86.3738 82.7619 85.9281 82.8882 85.5738 82.6931C78.056 78.5301 71.0458 78.1159 64.7357 81.4603C59.9975 83.9721 57.4358 87.7813 57.4105 87.8192C57.2699 88.0312 57.0365 88.1478 56.7989 88.1478Z" fill="#613331"/>
<path d="M23.3824 64.6373C23.3824 64.6373 23.3811 64.6414 23.3797 64.6455C23.3605 64.6209 23.366 64.6236 23.3824 64.6373Z" fill="white"/>
<g opacity="0.2">
<path d="M115.466 70.8565C115.466 70.8565 105.879 94.5161 78.0967 97.7468C78.0967 97.7468 75.2749 103.756 69.3037 100.125C69.3037 100.125 31.6795 105.105 15.446 77.4401C15.446 77.4401 8.67763 76.1343 8.39362 73.1872C8.26146 71.8197 8.83369 71.0194 9.79679 70.4802C10.0147 71.3774 10.6994 72.2213 11.5501 72.6397C12.2418 72.9794 12.9926 73.1184 13.7659 73.1535C15.2295 73.2209 16.5807 73.9454 17.3975 75.1613C21.8194 81.7589 28.4865 86.5636 35.7569 89.491C43.7808 92.7217 52.5246 93.8112 61.1757 93.9348C65.1265 93.9601 68.2815 98.4432 72.1887 97.7636C73.949 97.4575 75.3311 96.1518 76.7863 95.1198C79.7614 93.0067 83.3171 91.9116 86.7027 90.5496C93.1253 87.9662 99.1147 84.3185 104.355 79.7975C107.243 77.3053 110.001 74.3568 111.4 70.879C112.069 69.2152 113.612 68.0737 115.399 67.8898C117.186 67.7059 118.948 67.3015 120.635 66.6865C120.749 66.8747 120.829 67.074 120.874 67.2875C121.445 69.9832 115.471 70.8537 115.471 70.8537L115.466 70.8565Z" fill="#613331"/>
</g>
<path d="M20.6468 48.4262C20.5048 48.4262 20.3684 48.3602 20.2799 48.2422C20.1604 48.0822 20.159 47.8645 20.2742 47.7031L23.4813 43.2143L19.3899 44.7391C19.1523 44.8276 18.8894 44.7068 18.8008 44.471C18.7122 44.2337 18.8331 43.9711 19.0693 43.8827L24.5639 41.8356C24.7523 41.7654 24.9646 41.8258 25.0869 41.9858C25.2093 42.1459 25.2135 42.3663 25.0968 42.5306L21.8518 47.0713L26.0233 45.6363C26.2623 45.5535 26.5238 45.6813 26.6054 45.9199C26.6883 46.1586 26.5604 46.4198 26.3214 46.5012L20.7973 48.4009C20.7481 48.4177 20.6975 48.4262 20.6482 48.4262H20.6468Z" fill="#613331"/>
<path d="M29.7492 39.0101C29.738 39.0101 29.7253 39.0101 29.7141 39.0087L25.4624 38.5623C25.3176 38.5468 25.1995 38.4401 25.1699 38.2969C25.1404 38.1551 25.2065 38.0091 25.333 37.9375L28.8494 35.9521L25.6648 35.6994C25.4807 35.6854 25.3429 35.5239 25.3569 35.3386C25.3724 35.1546 25.5327 35.0184 25.7183 35.0311L29.9953 35.3709C30.1415 35.3821 30.2638 35.4888 30.2962 35.632C30.3285 35.7752 30.2624 35.9227 30.1345 35.9957L26.5773 38.0048L29.7872 38.3418C29.9714 38.3615 30.1049 38.5257 30.0853 38.7097C30.067 38.881 29.9222 39.0087 29.752 39.0087L29.7492 39.0101Z" fill="#613331"/>
<path d="M21.9881 31.7402C21.8855 31.7402 21.7927 31.6756 21.7589 31.5788C21.7238 31.4791 21.7561 31.3682 21.8405 31.3036L24.1772 29.5303L21.8602 29.6608C21.728 29.6679 21.6113 29.5654 21.6029 29.432C21.5958 29.2986 21.6985 29.1835 21.8321 29.175L24.9449 28.9995C25.0504 28.9925 25.1502 29.0585 25.1867 29.1582C25.2233 29.2579 25.191 29.3716 25.1052 29.4362L22.7417 31.2306L25.0855 31.159C25.2205 31.1547 25.3315 31.26 25.3358 31.3948C25.34 31.5296 25.2345 31.6405 25.0996 31.6448L21.9951 31.7402C21.9951 31.7402 21.9895 31.7402 21.9881 31.7402Z" fill="#613331"/>
</g>
<defs>
<clipPath id="clip0_840_13750">
<rect width="114" height="72.7561" fill="white" transform="translate(8 29)"/>
</clipPath>
</defs>
</svg>
