<svg width="200" height="153" viewBox="0 0 200 153" fill="none" xmlns="http://www.w3.org/2000/svg">
<path d="M76.7694 129L78.2507 133.711L82.9695 135.16L78.9501 138.026L79.0316 142.964L75.0665 140.025L70.3977 141.628L71.9659 136.946L69 132.998L73.936 133.042L76.7694 129Z" fill="#FFD600"/>
<path d="M170.149 23L172.549 25.7924L176.208 25.3967L174.296 28.5435L175.802 31.9043L172.221 31.0565L169.495 33.5293L169.192 29.8587L166 28.0261L169.395 26.6043L170.149 23Z" fill="#FFD600"/>
<path d="M157.219 51L158.173 53.5837L160.841 54.262L158.679 55.9674L158.859 58.7174L156.57 57.187L154.014 58.2076L154.759 55.5565L153 53.438L155.75 53.3293L157.219 51Z" fill="#FFD600"/>
<path d="M7.51201 96.4065L4.545 94.2272L1.06973 95.437L2.22417 91.9402L0 89.0163H3.68053L5.78089 86L6.90058 89.5098L10.4236 90.5728L7.43599 92.725L7.51201 96.4065Z" fill="#FFD600"/>
<path d="M165 16.2511L166.348 13.85L165.137 11.3772L167.835 11.9185L169.811 10L170.129 12.7359L172.563 14.0239L170.062 15.1728L169.59 17.887L167.725 15.862L165 16.2511Z" fill="#FFD600"/>
<path d="M197.648 109.383L196.757 113.299L199.474 116.253L195.479 116.615L193.512 120.113L191.932 116.423L188 115.632L191.02 112.988L190.556 109L194.001 111.058L197.648 109.383Z" fill="#FFD600"/>
<path d="M40.0007 42.9565L40.3254 38.6913L37 36.0054L41.1529 34.9967L42.6788 31L44.9204 34.6424L49.1884 34.8598L46.4202 38.1185L47.5344 42.2489L43.5813 40.6207L40.0007 42.9565Z" fill="#FFD600"/>
<path d="M140.273 152.101L137.152 150.708L134.238 152.491L134.596 149.091L132 146.867L135.342 146.158L136.653 143L138.361 145.961L141.766 146.234L139.479 148.774L140.273 152.101Z" fill="#FFD600"/>
<path d="M191.649 71L193.098 73.3424L195.848 73.4761L194.069 75.5772L194.791 78.237L192.243 77.1935L189.941 78.7022L190.145 75.9554L188 74.2293L190.674 73.575L191.649 71Z" fill="#FFD600"/>
<path d="M18.7537 48.0705C17.318 47.1673 15.879 46.301 14.389 45.5336C12.9022 44.7673 11.4046 44.0433 9.87985 43.4053C8.35073 42.7662 6.77817 42.2716 5.24905 41.6836C3.71559 41.0944 2.17127 40.5531 0.624775 39.9205C0.115431 39.7118 -0.134354 39.1281 0.0730761 38.6183C0.244667 38.1999 0.668216 37.9607 1.09611 38.0053C2.8294 38.1857 4.51816 38.6357 6.15697 39.2151C7.79795 39.7955 9.32707 40.6488 10.8203 41.5238C12.3136 42.3999 13.7548 43.3596 15.1025 44.4292C16.4514 45.4988 17.7394 46.6314 18.9188 47.8673C18.9698 47.9205 18.9677 48.0031 18.9156 48.0542C18.871 48.0966 18.8037 48.102 18.7537 48.0705Z" fill="#FFD600"/>
<path d="M64.3267 21.6312C63.6239 20.5732 62.9207 19.54 62.1503 18.5607C61.3819 17.5843 60.5985 16.633 59.7738 15.7314C58.9466 14.8281 58.0284 14.0263 57.2086 13.1436C56.3871 12.2591 55.5468 11.4017 54.7557 10.4467C54.3932 10.0091 54.453 9.37631 54.8791 9.02323C55.2035 8.75524 55.6452 8.72558 55.9949 8.91306C57.1595 9.5417 58.1736 10.391 59.0995 11.3165C60.0282 12.2445 60.7494 13.3573 61.446 14.4572C62.1431 15.5592 62.7697 16.7015 63.2803 17.8898C63.7922 19.079 64.2441 20.2832 64.5672 21.5234C64.5861 21.5937 64.5431 21.6674 64.4717 21.6865C64.4152 21.7019 64.3574 21.6773 64.3267 21.6312Z" fill="#FFD600"/>
<path d="M185.025 44.6062C185.773 43.5671 186.639 42.6149 187.55 41.6953C188.459 40.7769 189.459 39.9432 190.51 39.1725C191.559 38.403 192.638 37.6323 193.841 37.1084C195.041 36.5867 196.295 36.1671 197.609 36.0073C198.158 35.941 198.659 36.3334 198.724 36.8845C198.774 37.3019 198.561 37.691 198.214 37.8823C197.117 38.4888 196.02 38.978 194.933 39.5008C193.849 40.0214 192.701 40.4312 191.602 40.9703C190.505 41.5073 189.429 42.1062 188.358 42.7323C187.282 43.3617 186.249 44.0627 185.211 44.7932C185.15 44.8356 185.066 44.8214 185.025 44.7617C184.99 44.7138 184.993 44.6508 185.025 44.6062Z" fill="#FFD600"/>
<path d="M135.33 25.683C135.636 24.2479 136.081 22.842 136.59 21.4515C137.097 20.0607 137.732 18.7142 138.439 17.402C139.146 16.0919 139.885 14.7764 140.844 13.625C141.801 12.4772 142.858 11.4054 144.08 10.5304C144.528 10.2097 145.153 10.3121 145.472 10.7605C145.726 11.1164 145.714 11.5819 145.476 11.9197C144.638 13.097 143.748 14.1737 142.886 15.2788C142.024 16.3799 141.064 17.4127 140.207 18.5397C139.35 19.6647 138.545 20.8381 137.764 22.0378C136.981 23.2416 136.272 24.4938 135.575 25.7741C135.539 25.8384 135.459 25.8629 135.395 25.8272C135.343 25.7984 135.318 25.738 135.33 25.683Z" fill="#FFD600"/>
<path d="M155.145 119.296C157.209 119.661 159.24 120.197 161.253 120.831C163.263 121.464 165.228 122.259 167.148 123.157C169.067 124.054 170.976 125.019 172.72 126.24C174.461 127.46 176.109 128.821 177.562 130.378C177.936 130.777 177.916 131.405 177.518 131.779C177.173 132.103 176.655 132.129 176.278 131.873L171.235 128.409C169.547 127.282 167.904 126.076 166.156 125.011C164.411 123.948 162.604 122.97 160.762 122.05C158.915 121.128 157.013 120.315 155.073 119.549C155.007 119.523 154.973 119.446 154.999 119.378C155.022 119.32 155.085 119.286 155.145 119.296Z" fill="#FFD600"/>
<path d="M22.6567 121.243C21.613 121.965 20.5943 122.688 19.631 123.479C18.671 124.266 17.7359 125.067 16.8508 125.909C15.9635 126.753 15.1794 127.686 14.3149 128.521C13.4461 129.359 12.6055 130.219 11.6672 131.028C11.248 131.39 10.604 131.352 10.2423 130.93C9.96867 130.611 9.92957 130.169 10.1109 129.817C10.718 128.64 11.5467 127.61 12.4535 126.666C13.3625 125.72 14.4615 124.975 15.5465 124.259C16.6336 123.542 17.7641 122.893 18.9403 122.36C20.1186 121.827 21.3132 121.35 22.5459 121.005C22.6165 120.985 22.6892 121.028 22.7099 121.097C22.7262 121.154 22.7023 121.211 22.6567 121.243Z" fill="#FFD600"/>
<path d="M169.143 88.2562C170.265 88.2053 171.388 88.2799 172.517 88.4009C173.644 88.5221 174.762 88.7545 175.865 89.0519C176.968 89.3492 178.089 89.6556 179.102 90.1969C180.113 90.7373 181.08 91.3728 181.898 92.1971C182.29 92.5923 182.287 93.2306 181.891 93.6245C181.604 93.9069 181.191 93.9847 180.836 93.8544C179.796 93.472 178.86 92.9973 177.911 92.5413C176.966 92.0861 176.075 91.5008 175.122 91.0201C174.168 90.5416 173.187 90.1032 172.188 89.6751C171.184 89.2454 170.155 88.8806 169.104 88.5158C169.032 88.4924 168.996 88.4152 169.02 88.3462C169.04 88.2928 169.089 88.2595 169.143 88.2562Z" fill="#FFD600"/>
<path d="M150.241 124.045C151.384 124.623 152.461 125.328 153.513 126.082C154.563 126.836 155.544 127.692 156.471 128.611C157.395 129.526 158.327 130.471 159.034 131.577C159.739 132.681 160.351 133.853 160.716 135.126C160.868 135.658 160.562 136.215 160.027 136.366C159.622 136.481 159.206 136.331 158.961 136.02C158.19 135.029 157.533 134.025 156.845 133.031C156.16 132.042 155.574 130.973 154.868 129.971C154.165 128.972 153.404 128.002 152.615 127.042C151.825 126.077 150.97 125.168 150.085 124.257C150.034 124.203 150.035 124.119 150.088 124.069C150.128 124.028 150.191 124.02 150.241 124.045Z" fill="#FFD600"/>
<path d="M120.707 15.2522L114.908 13.4739L110.156 17.2467L110.053 11.1772L105 7.82174L110.736 5.84782L112.363 0L116.011 4.85108L122.072 4.59239L118.589 9.56304L120.707 15.2522Z" fill="#FFD600"/>
<path d="M54.4995 123.298C53.132 125.107 51.8336 126.947 50.6398 128.85C49.4474 130.749 48.3311 132.687 47.3352 134.681C46.3394 136.674 45.5024 138.732 44.5938 140.749C43.6827 142.771 42.8793 144.831 41.986 146.885C41.7677 147.388 41.1856 147.619 40.6825 147.404C40.2501 147.215 40.02 146.752 40.1012 146.307C40.5313 144.031 41.2961 141.842 42.1815 139.705C43.0671 137.567 44.2615 135.572 45.5106 133.636C46.7599 131.698 48.1097 129.832 49.5784 128.074C51.0494 126.315 52.6219 124.653 54.3051 123.118C54.3585 123.07 54.4433 123.073 54.4919 123.126C54.5355 123.176 54.5377 123.248 54.4995 123.298Z" fill="#FFD600"/>
<path d="M24.4136 63L27.5761 66.0739L31.8985 65.2087L29.9545 69.1696L32.1124 73.0174L27.7488 72.3902L24.7589 75.6337L24.0063 71.2859L20 69.4424L23.8988 67.3815L24.4136 63Z" fill="#FFD600"/>
<path d="M38.5469 97L40.0674 99.2967L42.8194 99.3446L41.1078 101.502L41.9125 104.135L39.3332 103.173L37.0797 104.752L37.1981 102L35 100.342L37.651 99.6043L38.5469 97Z" fill="#FFD600"/>
<path d="M35.5469 16L37.0674 18.2967L39.8194 18.3446L38.1078 20.5022L38.9125 23.1348L36.3332 22.1728L34.0797 23.7522L34.1981 21L32 19.3424L34.651 18.6043L35.5469 16Z" fill="#FFD600"/>
</svg>
