<svg width="375" height="54" viewBox="0 0 375 54" fill="none" xmlns="http://www.w3.org/2000/svg">
<g clip-path="url(#clip0_165_2243)">
<rect width="375" height="54" fill="white"/>
<path d="M0 0H375" stroke="#DDDDDD"/>
<path d="M40.1864 39.786H37.3154V38.976H36.6674V39.786H33.7334V40.308H40.1864V39.786ZM34.8944 45.276H39.0794V46.527H34.8944V45.276ZM34.2554 47.04H39.7184V44.763H34.2554V47.04ZM35.1014 41.784C35.1014 41.361 35.7944 41.118 36.9914 41.118C38.1794 41.118 38.8634 41.361 38.8634 41.784C38.8634 42.216 38.1794 42.459 36.9914 42.459C35.7944 42.459 35.1014 42.216 35.1014 41.784ZM37.3154 43.575V42.918C38.7464 42.873 39.5564 42.486 39.5564 41.784C39.5564 41.037 38.6204 40.641 36.9914 40.641C35.3444 40.641 34.4084 41.037 34.4084 41.784C34.4084 42.486 35.2184 42.873 36.6674 42.918V43.575H33.3554V44.115H40.6184V43.575H37.3154Z" fill="black"/>
<path d="M96.3774 39.957V40.497H99.3294C99.3024 41.01 99.2214 41.496 99.0594 41.973L95.9634 42.18L96.0894 42.756L98.8614 42.495C98.3574 43.602 97.4394 44.547 95.9454 45.294L96.3234 45.807C99.1404 44.385 99.9774 42.252 99.9774 39.957H96.3774ZM101.867 39.111V42.36H99.9504V42.909H101.867V47.157H102.524V39.111H101.867ZM109.913 42.135H105.782V40.083H109.913V42.135ZM110.552 39.543H105.143V42.675H110.552V39.543ZM111.506 43.791H104.198V44.34H106.097V47.22H106.745V44.34H108.959V47.22H109.616V44.34H111.506V43.791ZM113.665 39.894H113.008V45.06H113.665C114.943 45.06 116.212 44.97 117.607 44.673L117.535 44.115C116.167 44.394 114.907 44.493 113.665 44.493V39.894ZM118.399 39.111V47.148H119.056V39.111H118.399ZM121.944 42.648H124.869V42.108H121.944V40.389H125.157V39.84H121.287V45.195H121.917C123.474 45.195 124.536 45.15 125.796 44.925L125.724 44.385C124.509 44.601 123.456 44.646 121.944 44.646V42.648ZM126.696 39.102V47.157H127.353V39.102H126.696Z" fill="black"/>
<path d="M182.993 39.858H180.941V39.012H180.284V39.858H178.241V40.38H182.993V39.858ZM179.312 42.081C179.312 41.577 179.825 41.262 180.608 41.262C181.391 41.262 181.904 41.577 181.904 42.081C181.904 42.594 181.391 42.918 180.608 42.918C179.825 42.918 179.312 42.594 179.312 42.081ZM182.525 42.081C182.525 41.271 181.778 40.767 180.608 40.767C179.447 40.767 178.691 41.271 178.691 42.081C178.691 42.9 179.447 43.404 180.608 43.404C181.778 43.404 182.525 42.9 182.525 42.081ZM180.032 45.717H184.433V43.962H179.366V44.466H183.794V45.222H179.384V47.058H184.739V46.536H180.032V45.717ZM184.433 41.055V39.075H183.776V43.539H184.433V41.604H185.648V41.055H184.433ZM195.076 39.102H194.419V43.251H195.076V39.102ZM189.325 41.181C189.325 40.461 189.928 39.948 190.747 39.948C191.575 39.948 192.178 40.461 192.178 41.181C192.178 41.901 191.575 42.414 190.747 42.414C189.928 42.414 189.325 41.901 189.325 41.181ZM192.817 41.181C192.817 40.137 191.953 39.408 190.747 39.408C189.559 39.408 188.686 40.137 188.686 41.181C188.686 42.234 189.559 42.954 190.747 42.954C191.953 42.954 192.817 42.234 192.817 41.181ZM190.558 46.509V45.555H195.076V43.656H189.892V44.187H194.428V45.06H189.91V47.04H195.364V46.509H190.558Z" fill="black"/>
<path d="M251.513 39.111H250.856V45.069H251.513V39.111ZM249.866 43.404C248.696 43.035 247.805 42.072 247.805 40.983V40.74H249.659V40.2H247.814V39.138H247.157V40.2H245.285V40.74H247.157V40.983C247.157 42.135 246.284 43.161 245.114 43.557L245.429 44.07C246.383 43.737 247.148 43.026 247.49 42.108C247.859 42.954 248.606 43.611 249.551 43.917L249.866 43.404ZM247.022 46.428V44.511H246.374V46.977H251.765V46.428H247.022ZM260.486 43.098H259.271C259.505 41.937 259.505 41.1 259.505 40.335V39.633H254.141V40.182H258.857V40.335C258.857 41.1 258.857 41.946 258.614 43.098H253.214V43.647H256.508V47.166H257.165V43.647H260.486V43.098ZM264.298 45.168H269.203V47.157H269.86V44.628H264.298V45.168ZM265.072 39.975H269.185V41.622H265.072V39.975ZM267.457 43.215V42.162H269.824V39.444H264.424V42.162H266.809V43.215H263.488V43.755H270.769V43.215H267.457ZM272.577 45.285H277.5V47.076H278.157V44.745H272.577V45.285ZM275.745 43.548V42.657H278.283V42.135H273.36V41.226H278.121V39.309H272.694V39.84H277.473V40.731H272.712V42.657H275.088V43.548H271.758V44.097H279.066V43.548H275.745Z" fill="black"/>
<path d="M332.52 41.172H334.086V40.623H332.529V39.39H331.899V40.623H330.342V41.172H331.899V41.586C331.899 42.909 331.233 44.331 330.153 44.961L330.549 45.456C331.35 44.979 331.935 44.052 332.214 43.008C332.511 43.989 333.105 44.835 333.906 45.285L334.284 44.79C333.213 44.205 332.52 42.864 332.52 41.586V41.172ZM336.417 39.102V42.378H335.283V39.282H334.662V46.752H335.283V42.936H336.417V47.157H337.047V39.102H336.417ZM345.074 39.12H344.417V44.115H345.074V39.12ZM343.445 42.738C342.311 42.927 341.366 42.972 339.62 42.972V41.838H342.563V41.307H339.62V40.245H342.779V39.705H338.963V43.512H339.602C341.375 43.512 342.347 43.476 343.517 43.269L343.445 42.738ZM342.419 46.617C341.159 46.617 340.376 46.266 340.376 45.681C340.376 45.096 341.159 44.754 342.419 44.754C343.679 44.754 344.453 45.096 344.453 45.681C344.453 46.266 343.679 46.617 342.419 46.617ZM342.419 44.232C340.736 44.232 339.728 44.763 339.728 45.681C339.728 46.608 340.736 47.139 342.419 47.139C344.093 47.139 345.101 46.608 345.101 45.681C345.101 44.763 344.093 44.232 342.419 44.232Z" fill="black"/>
<mask id="path-7-inside-1_165_2243" fill="white">
<path fill-rule="evenodd" clip-rule="evenodd" d="M46.069 19.2041L37.622 12.4871C37.4453 12.3462 37.226 12.2695 37 12.2695C36.774 12.2695 36.5547 12.3462 36.378 12.4871L27.93 19.2041C27.6945 19.3913 27.5044 19.6293 27.3737 19.9003C27.2429 20.1713 27.175 20.4682 27.175 20.7691V30.1871C27.175 30.8236 27.4278 31.434 27.8779 31.8841C28.328 32.3342 28.9385 32.5871 29.575 32.5871H35V27.8351C35 27.5699 35.1053 27.3155 35.2929 27.128C35.4804 26.9404 35.7348 26.8351 36 26.8351H38C38.2652 26.8351 38.5196 26.9404 38.7071 27.128C38.8946 27.3155 39 27.5699 39 27.8351V32.5871H44.424C45.0605 32.5871 45.671 32.3342 46.121 31.8841C46.5711 31.434 46.824 30.8236 46.824 30.1871V20.7701C46.824 20.4692 46.756 20.1723 46.6253 19.9013C46.4946 19.6303 46.3044 19.3923 46.069 19.2051"/>
</mask>
<path d="M37.622 12.4871L36.3755 14.0511L36.3772 14.0525L37.622 12.4871ZM37 12.2695V10.2695V12.2695ZM36.378 12.4871L37.6227 14.0525L37.6245 14.0511L36.378 12.4871ZM27.93 19.2041L26.6853 17.6386L26.685 17.6388L27.93 19.2041ZM27.175 20.7691L25.175 20.7688V20.7691H27.175ZM35 32.5871V34.5871H37V32.5871H35ZM39 32.5871H37V34.5871H39V32.5871ZM44.424 32.5871V34.5871V32.5871ZM46.824 20.7701H48.824V20.7698L46.824 20.7701ZM47.3138 17.6387L38.8668 10.9217L36.3772 14.0525L44.8242 20.7695L47.3138 17.6387ZM38.8685 10.923C38.3376 10.4999 37.6788 10.2695 37 10.2695V14.2695C36.7731 14.2695 36.5529 14.1925 36.3755 14.0511L38.8685 10.923ZM37 10.2695C36.3211 10.2695 35.6624 10.4999 35.1315 10.923L37.6245 14.0511C37.447 14.1925 37.2269 14.2695 37 14.2695V10.2695ZM35.1333 10.9216L26.6853 17.6386L29.1747 20.7695L37.6227 14.0525L35.1333 10.9216ZM26.685 17.6388C26.2141 18.0134 25.8338 18.4894 25.5723 19.0313L29.175 20.7693H29.175L26.685 17.6388ZM25.5723 19.0313C25.3109 19.5732 25.1751 20.1671 25.175 20.7688L29.175 20.7693V20.7693L25.5723 19.0313ZM25.175 20.7691V30.1871H29.175V20.7691H25.175ZM25.175 30.1871C25.175 31.354 25.6386 32.4732 26.4637 33.2983L29.2921 30.4699C29.2171 30.3949 29.175 30.2932 29.175 30.1871H25.175ZM26.4637 33.2983C27.2889 34.1235 28.408 34.5871 29.575 34.5871V30.5871C29.4689 30.5871 29.3672 30.5449 29.2921 30.4699L26.4637 33.2983ZM29.575 34.5871H35V30.5871H29.575V34.5871ZM37 32.5871V27.8351H33V32.5871H37ZM37 27.8351C37 28.1003 36.8946 28.3546 36.7071 28.5422L33.8787 25.7137C33.3161 26.2764 33 27.0394 33 27.8351H37ZM36.7071 28.5422C36.5196 28.7297 36.2652 28.8351 36 28.8351V24.8351C35.2043 24.8351 34.4413 25.1511 33.8787 25.7137L36.7071 28.5422ZM36 28.8351H38V24.8351H36V28.8351ZM38 28.8351C37.7348 28.8351 37.4804 28.7297 37.2929 28.5422L40.1213 25.7137C39.5587 25.1511 38.7956 24.8351 38 24.8351V28.8351ZM37.2929 28.5422C37.1053 28.3546 37 28.1003 37 27.8351H41C41 27.0394 40.6839 26.2764 40.1213 25.7137L37.2929 28.5422ZM37 27.8351V32.5871H41V27.8351H37ZM39 34.5871H44.424V30.5871H39V34.5871ZM44.424 34.5871C45.5909 34.5871 46.7101 34.1235 47.5353 33.2983L44.7068 30.4699C44.6318 30.5449 44.5301 30.5871 44.424 30.5871V34.5871ZM47.5353 33.2983C48.3604 32.4732 48.824 31.354 48.824 30.1871H44.824C44.824 30.2932 44.7818 30.3949 44.7068 30.4699L47.5353 33.2983ZM48.824 30.1871V20.7701H44.824V30.1871H48.824ZM48.824 20.7698C48.8239 20.1681 48.6881 19.5742 48.4267 19.0323L44.824 20.7703L48.824 20.7698ZM48.4267 19.0323C48.1652 18.4904 47.7849 18.0144 47.314 17.6398L44.824 20.7703L48.4267 19.0323Z" fill="#989898" mask="url(#path-7-inside-1_165_2243)"/>
<mask id="path-9-inside-2_165_2243" fill="white">
<path fill-rule="evenodd" clip-rule="evenodd" d="M194.5 13H179.5C179.235 13 178.98 13.1054 178.793 13.2929C178.605 13.4804 178.5 13.7348 178.5 14V32C178.5 32.2652 178.605 32.5196 178.793 32.7071C178.98 32.8946 179.235 33 179.5 33H188V28C188 26.622 189.122 25.5 190.5 25.5H195.5V14C195.5 13.7348 195.395 13.4804 195.207 13.2929C195.02 13.1054 194.765 13 194.5 13Z"/>
</mask>
<path d="M179.5 13V11V13ZM178.5 14H176.5H178.5ZM178.5 32H176.5H178.5ZM188 33V35H190V33H188ZM195.5 25.5V27.5H197.5V25.5H195.5ZM194.5 11H179.5V15H194.5V11ZM179.5 11C178.704 11 177.941 11.3161 177.379 11.8787L180.207 14.7071C180.02 14.8946 179.765 15 179.5 15V11ZM177.379 11.8787C176.816 12.4413 176.5 13.2044 176.5 14H180.5C180.5 14.2652 180.395 14.5196 180.207 14.7071L177.379 11.8787ZM176.5 14V32H180.5V14H176.5ZM176.5 32C176.5 32.7956 176.816 33.5587 177.379 34.1213L180.207 31.2929C180.395 31.4804 180.5 31.7348 180.5 32H176.5ZM177.379 34.1213C177.941 34.6839 178.704 35 179.5 35V31C179.765 31 180.02 31.1054 180.207 31.2929L177.379 34.1213ZM179.5 35H188V31H179.5V35ZM190 33V28H186V33H190ZM190 28C190 27.7266 190.227 27.5 190.5 27.5V23.5C188.017 23.5 186 25.5174 186 28H190ZM190.5 27.5H195.5V23.5H190.5V27.5ZM197.5 25.5V14H193.5V25.5H197.5ZM197.5 14C197.5 13.2044 197.184 12.4413 196.621 11.8787L193.793 14.7071C193.605 14.5196 193.5 14.2652 193.5 14H197.5ZM196.621 11.8787C196.059 11.3161 195.296 11 194.5 11V15C194.235 15 193.98 14.8946 193.793 14.7071L196.621 11.8787Z" fill="#989898" mask="url(#path-9-inside-2_165_2243)"/>
<path fill-rule="evenodd" clip-rule="evenodd" d="M189.5 28V33L195.5 27H190.5C190.235 27 189.98 27.1054 189.793 27.2929C189.605 27.4804 189.5 27.7348 189.5 28Z" fill="#989898"/>
<mask id="path-12-inside-3_165_2243" fill="white">
<path fill-rule="evenodd" clip-rule="evenodd" d="M338 12.5654C332.201 12.5654 327.5 16.8184 327.5 22.0654C327.5 24.5924 328.598 26.8824 330.376 28.5854L329.508 32.8344C329.49 32.9253 329.497 33.0195 329.529 33.1066C329.561 33.1936 329.616 33.2701 329.689 33.3273C329.762 33.3846 329.85 33.4205 329.942 33.4309C330.034 33.4413 330.127 33.4259 330.211 33.3864L334.942 31.1534C335.938 31.4272 336.967 31.5657 338 31.5654C343.799 31.5654 348.5 27.3124 348.5 22.0654C348.5 16.8184 343.799 12.5654 338 12.5654Z"/>
</mask>
<path d="M330.376 28.5854L332.336 28.9857L332.556 27.9045L331.759 27.1411L330.376 28.5854ZM329.508 32.8344L327.548 32.4341L327.548 32.4358L329.508 32.8344ZM330.211 33.3864L331.063 35.1958L331.065 35.1951L330.211 33.3864ZM334.942 31.1534L335.472 29.2249L334.758 29.0287L334.088 29.3448L334.942 31.1534ZM338 31.5654V29.5654H337.999L338 31.5654ZM338 10.5654C331.29 10.5654 325.5 15.5302 325.5 22.0654H329.5C329.5 18.1067 333.112 14.5654 338 14.5654V10.5654ZM325.5 22.0654C325.5 25.1952 326.864 27.9912 328.993 30.0298L331.759 27.1411C330.332 25.7737 329.5 23.9896 329.5 22.0654H325.5ZM328.416 28.1851L327.548 32.4341L331.468 33.2347L332.336 28.9857L328.416 28.1851ZM327.548 32.4358C327.456 32.8902 327.491 33.3614 327.651 33.7966L331.406 32.4166C331.502 32.6777 331.523 32.9604 331.468 33.233L327.548 32.4358ZM327.651 33.7966C327.811 34.2318 328.089 34.614 328.454 34.9004L330.924 31.7543C331.143 31.9261 331.31 32.1554 331.406 32.4166L327.651 33.7966ZM328.454 34.9004C328.819 35.1867 329.256 35.366 329.717 35.4182L330.167 31.4436C330.443 31.4749 330.705 31.5825 330.924 31.7543L328.454 34.9004ZM329.717 35.4182C330.177 35.4704 330.644 35.3934 331.063 35.1958L329.359 31.577C329.611 31.4585 329.89 31.4123 330.167 31.4436L329.717 35.4182ZM331.065 35.1951L335.796 32.9621L334.088 29.3448L329.357 31.5778L331.065 35.1951ZM334.412 33.082C335.581 33.4032 336.788 33.5658 338.001 33.5654L337.999 29.5654C337.145 29.5657 336.295 29.4511 335.472 29.2249L334.412 33.082ZM338 33.5654C344.71 33.5654 350.5 28.6007 350.5 22.0654H346.5C346.5 26.0242 342.888 29.5654 338 29.5654V33.5654ZM350.5 22.0654C350.5 15.5302 344.71 10.5654 338 10.5654V14.5654C342.888 14.5654 346.5 18.1067 346.5 22.0654H350.5Z" fill="#989898" mask="url(#path-12-inside-3_165_2243)"/>
<mask id="path-14-inside-4_165_2243" fill="white">
<path fill-rule="evenodd" clip-rule="evenodd" d="M273 21.1H270.9V19C270.892 18.7667 270.794 18.5455 270.626 18.3831C270.458 18.2208 270.234 18.13 270 18.13C269.767 18.13 269.543 18.2208 269.375 18.3831C269.207 18.5455 269.109 18.7667 269.101 19V21.1H267C266.761 21.1 266.532 21.1949 266.364 21.3637C266.195 21.5324 266.1 21.7614 266.1 22C266.1 22.2387 266.195 22.4677 266.364 22.6364C266.532 22.8052 266.761 22.9 267 22.9H269.101V25C269.097 25.1207 269.117 25.2409 269.161 25.3536C269.204 25.4662 269.27 25.569 269.354 25.6557C269.438 25.7425 269.538 25.8115 269.649 25.8586C269.76 25.9058 269.88 25.93 270 25.93C270.121 25.93 270.241 25.9058 270.352 25.8586C270.463 25.8115 270.563 25.7425 270.647 25.6557C270.731 25.569 270.797 25.4662 270.84 25.3536C270.884 25.2409 270.904 25.1207 270.9 25V22.9H273C273.239 22.9 273.468 22.8052 273.636 22.6364C273.805 22.4677 273.9 22.2387 273.9 22C273.9 21.7614 273.805 21.5324 273.636 21.3637C273.468 21.1949 273.239 21.1 273 21.1ZM260 22.456C261.155 22.456 262.262 21.9973 263.079 21.1808C263.895 20.3643 264.354 19.2568 264.354 18.102C264.354 16.9473 263.895 15.8398 263.079 15.0233C262.262 14.2068 261.155 13.748 260 13.748C258.845 13.748 257.738 14.2068 256.921 15.0233C256.105 15.8398 255.646 16.9473 255.646 18.102C255.646 19.2568 256.105 20.3643 256.921 21.1808C257.738 21.9973 258.845 22.456 260 22.456ZM260 23.788C253.731 23.788 251.294 27.777 251.294 29.633C251.294 31.488 256.483 31.982 260 31.982C263.517 31.982 268.706 31.488 268.706 29.632C268.706 27.777 266.269 23.788 260 23.788Z"/>
</mask>
<path d="M270.9 21.1H268.9V23.1H270.9V21.1ZM270.9 19H272.9V18.9667L272.899 18.9334L270.9 19ZM269.101 19L267.102 18.9334L267.101 18.9667V19H269.101ZM269.101 21.1V23.1H271.101V21.1H269.101ZM267 21.1V19.1V21.1ZM269.101 22.9H271.101V20.9H269.101V22.9ZM269.101 25L271.1 25.0667L271.101 25.0334V25H269.101ZM270.9 25H268.9V25.0334L268.901 25.0667L270.9 25ZM270.9 22.9V20.9H268.9V22.9H270.9ZM273 22.9V20.9V22.9ZM260 13.748V11.748V13.748ZM255.646 18.102H253.646H255.646ZM273 19.1H270.9V23.1H273V19.1ZM272.9 21.1V19H268.9V21.1H272.9ZM272.899 18.9334C272.874 18.1814 272.557 17.4686 272.017 16.9455L269.236 19.8207C269.031 19.6223 268.911 19.3519 268.901 19.0667L272.899 18.9334ZM272.017 16.9455C271.476 16.4225 270.753 16.13 270 16.13V20.13C269.715 20.13 269.441 20.0191 269.236 19.8207L272.017 16.9455ZM270 16.13C269.248 16.13 268.525 16.4225 267.984 16.9455L270.765 19.8207C270.56 20.0191 270.286 20.13 270 20.13V16.13ZM267.984 16.9455C267.444 17.4686 267.127 18.1814 267.102 18.9334L271.1 19.0667C271.09 19.3519 270.97 19.6223 270.765 19.8207L267.984 16.9455ZM267.101 19V21.1H271.101V19H267.101ZM269.101 19.1H267V23.1H269.101V19.1ZM267 19.1C266.231 19.1 265.493 19.4056 264.949 19.9494L267.778 22.7779C267.572 22.9842 267.292 23.1 267 23.1V19.1ZM264.949 19.9494C264.406 20.4933 264.1 21.2309 264.1 22H268.1C268.1 22.2918 267.984 22.5716 267.778 22.7779L264.949 19.9494ZM264.1 22C264.1 22.7692 264.406 23.5068 264.949 24.0507L267.778 21.2222C267.984 21.4285 268.1 21.7083 268.1 22H264.1ZM264.949 24.0507C265.493 24.5945 266.231 24.9 267 24.9V20.9C267.292 20.9 267.572 21.0159 267.778 21.2222L264.949 24.0507ZM267 24.9H269.101V20.9H267V24.9ZM267.101 22.9V25H271.101V22.9H267.101ZM267.102 24.9334C267.089 25.3221 267.155 25.7095 267.294 26.0725L271.027 24.6346C271.08 24.7723 271.105 24.9193 271.1 25.0667L267.102 24.9334ZM267.294 26.0725C267.434 26.4355 267.646 26.7666 267.916 27.0462L270.791 24.2653C270.894 24.3713 270.974 24.4969 271.027 24.6346L267.294 26.0725ZM267.916 27.0462C268.186 27.3258 268.51 27.5481 268.868 27.7L270.43 24.0173C270.566 24.0749 270.689 24.1592 270.791 24.2653L267.916 27.0462ZM268.868 27.7C269.227 27.8518 269.612 27.93 270 27.93V23.93C270.148 23.93 270.294 23.9597 270.43 24.0173L268.868 27.7ZM270 27.93C270.389 27.93 270.774 27.8518 271.133 27.7L269.571 24.0173C269.707 23.9597 269.853 23.93 270 23.93V27.93ZM271.133 27.7C271.491 27.5481 271.815 27.3258 272.085 27.0462L269.21 24.2653C269.312 24.1592 269.435 24.0749 269.571 24.0173L271.133 27.7ZM272.085 27.0462C272.355 26.7666 272.567 26.4355 272.707 26.0725L268.974 24.6346C269.027 24.497 269.107 24.3714 269.21 24.2653L272.085 27.0462ZM272.707 26.0725C272.846 25.7095 272.912 25.3221 272.899 24.9334L268.901 25.0667C268.896 24.9193 268.921 24.7723 268.974 24.6346L272.707 26.0725ZM272.9 25V22.9H268.9V25H272.9ZM270.9 24.9H273V20.9H270.9V24.9ZM273 24.9C273.769 24.9 274.507 24.5945 275.051 24.0507L272.222 21.2222C272.428 21.0159 272.708 20.9 273 20.9V24.9ZM275.051 24.0507C275.594 23.5068 275.9 22.7692 275.9 22H271.9C271.9 21.7083 272.016 21.4285 272.222 21.2222L275.051 24.0507ZM275.9 22C275.9 21.2309 275.594 20.4933 275.051 19.9494L272.222 22.7779C272.016 22.5716 271.9 22.2918 271.9 22H275.9ZM275.051 19.9494C274.507 19.4056 273.769 19.1 273 19.1V23.1C272.708 23.1 272.428 22.9842 272.222 22.7779L275.051 19.9494ZM260 24.456C261.685 24.456 263.301 23.7866 264.493 22.595L261.665 19.7666C261.223 20.208 260.624 20.456 260 20.456V24.456ZM264.493 22.595C265.685 21.4034 266.354 19.7872 266.354 18.102H262.354C262.354 18.7264 262.106 19.3251 261.665 19.7666L264.493 22.595ZM266.354 18.102C266.354 16.4169 265.685 14.8007 264.493 13.6091L261.665 16.4375C262.106 16.879 262.354 17.4777 262.354 18.102H266.354ZM264.493 13.6091C263.301 12.4175 261.685 11.748 260 11.748V15.748C260.624 15.748 261.223 15.9961 261.665 16.4375L264.493 13.6091ZM260 11.748C258.315 11.748 256.699 12.4175 255.507 13.6091L258.335 16.4375C258.777 15.9961 259.376 15.748 260 15.748V11.748ZM255.507 13.6091C254.315 14.8007 253.646 16.4169 253.646 18.102H257.646C257.646 17.4777 257.894 16.879 258.335 16.4375L255.507 13.6091ZM253.646 18.102C253.646 19.7872 254.315 21.4034 255.507 22.595L258.335 19.7666C257.894 19.3251 257.646 18.7264 257.646 18.102H253.646ZM255.507 22.595C256.699 23.7866 258.315 24.456 260 24.456V20.456C259.376 20.456 258.777 20.208 258.335 19.7666L255.507 22.595ZM260 21.788C252.869 21.788 249.294 26.4449 249.294 29.633H253.294C253.294 29.1092 254.593 25.788 260 25.788V21.788ZM249.294 29.633C249.294 31.182 250.406 32.0871 251.173 32.5222C251.984 32.9826 252.983 33.2694 253.927 33.4626C255.852 33.8564 258.18 33.982 260 33.982V29.982C258.303 29.982 256.278 29.8607 254.729 29.5438C253.936 29.3816 253.418 29.197 253.147 29.0431C252.831 28.8639 253.294 29.0115 253.294 29.633H249.294ZM260 33.982C261.82 33.982 264.148 33.8564 266.073 33.4624C267.017 33.2691 268.016 32.9823 268.828 32.5216C269.595 32.0861 270.706 31.1808 270.706 29.632H266.706C266.706 29.0113 267.169 28.8638 266.853 29.0429C266.582 29.1968 266.063 29.3815 265.271 29.5437C263.722 29.8607 261.697 29.982 260 29.982V33.982ZM270.706 29.632C270.706 26.4447 267.131 21.788 260 21.788V25.788C265.407 25.788 266.706 29.1093 266.706 29.632H270.706Z" fill="#989898" mask="url(#path-14-inside-4_165_2243)"/>
<path fill-rule="evenodd" clip-rule="evenodd" d="M107.5 22.6475C107.992 22.6475 108.48 22.5505 108.935 22.362C109.39 22.1736 109.803 21.8973 110.152 21.5491C110.5 21.2009 110.776 20.7875 110.965 20.3325C111.153 19.8776 111.25 19.3899 111.25 18.8975C111.25 18.405 111.153 17.9174 110.965 17.4624C110.776 17.0074 110.5 16.594 110.152 16.2458C109.803 15.8976 109.39 15.6214 108.935 15.4329C108.48 15.2445 107.992 15.1475 107.5 15.1475C106.505 15.1475 105.552 15.5425 104.848 16.2458C104.145 16.9491 103.75 17.9029 103.75 18.8975C103.75 19.892 104.145 20.8459 104.848 21.5491C105.552 22.2524 106.505 22.6475 107.5 22.6475ZM108 28.8285C108 27.5645 108.771 25.6935 110.48 24.2765C109.637 23.9795 108.652 23.7935 107.5 23.7935C102.46 23.7935 100.5 27.2315 100.5 28.8285C100.5 30.4285 104.673 30.8525 107.5 30.8525C107.971 30.8525 108.48 30.8395 109.001 30.8125C108.34 30.2855 108 29.6255 108 28.8285Z" fill="#989898" fill-opacity="0.72"/>
<path fill-rule="evenodd" clip-rule="evenodd" d="M116.5 23.7945C111.46 23.7945 109.5 27.2315 109.5 28.8295C109.5 30.4275 113.673 30.8535 116.5 30.8535C119.327 30.8535 123.5 30.4275 123.5 28.8295C123.5 27.2315 121.54 23.7945 116.5 23.7945ZM116.5 22.6475C116.992 22.6475 117.48 22.5505 117.935 22.362C118.39 22.1736 118.803 21.8973 119.152 21.5491C119.5 21.2009 119.776 20.7875 119.965 20.3325C120.153 19.8776 120.25 19.3899 120.25 18.8975C120.25 18.405 120.153 17.9174 119.965 17.4624C119.776 17.0074 119.5 16.594 119.152 16.2458C118.803 15.8976 118.39 15.6214 117.935 15.4329C117.48 15.2445 116.992 15.1475 116.5 15.1475C115.505 15.1475 114.552 15.5425 113.848 16.2458C113.145 16.9491 112.75 17.9029 112.75 18.8975C112.75 19.892 113.145 20.8459 113.848 21.5491C114.552 22.2524 115.505 22.6475 116.5 22.6475Z" fill="#989898"/>
</g>
<defs>
<clipPath id="clip0_165_2243">
<rect width="375" height="54" fill="white"/>
</clipPath>
</defs>
</svg>
