<svg width="168" height="24" viewBox="0 0 168 24" fill="none" xmlns="http://www.w3.org/2000/svg">
<path d="M17.5564 0.233659C17.9728 0.233659 18.3674 0.267039 18.74 0.333798C19.1126 0.400557 19.4194 0.611962 19.6605 0.968012C19.9236 1.32406 20.0551 1.93602 20.0551 2.8039C20.0551 3.64951 19.9236 4.26148 19.6605 4.63978C19.4194 4.99583 19.1016 5.20723 18.7071 5.27399C18.3345 5.34075 17.94 5.37413 17.5235 5.37413H12.9865V20.662C12.9865 21.1516 12.9426 21.63 12.855 22.0974C12.7673 22.5424 12.5152 22.9096 12.0988 23.1989C11.7043 23.4882 11.0029 23.6328 9.99466 23.6328C9.03026 23.6328 8.33984 23.4882 7.9234 23.1989C7.50695 22.8873 7.25489 22.509 7.16722 22.064C7.10147 21.5967 7.06859 21.1182 7.06859 20.6286V5.37413H2.49866C2.10414 5.37413 1.70961 5.34075 1.31509 5.27399C0.942479 5.18498 0.624666 4.96245 0.361649 4.6064C0.12055 4.25035 0 3.63839 0 2.77051C0 1.9249 0.12055 1.32406 0.361649 0.968012C0.624666 0.611962 0.953438 0.400557 1.34796 0.333798C1.74249 0.267039 2.13702 0.233659 2.53154 0.233659H17.5564Z" fill="black"/>
<path d="M30.5783 24C28.9783 24 27.4769 23.6996 26.0742 23.0987C24.6933 22.4757 23.4769 21.6189 22.4248 20.5285C21.3727 19.4381 20.5398 18.1808 19.9261 16.7566C19.3343 15.3102 19.0384 13.7747 19.0384 12.1502C19.0384 10.459 19.3234 8.879 19.8933 7.41029C20.485 5.94159 21.296 4.6509 22.3262 3.53825C23.3563 2.42559 24.5509 1.55772 25.9098 0.934633C27.2906 0.311545 28.7591 0 30.3153 0C31.9153 0 33.4058 0.311545 34.7866 0.934633C36.1894 1.53547 37.4168 2.38108 38.4689 3.47149C39.5209 4.56189 40.3429 5.84145 40.9346 7.31015C41.5264 8.75661 41.8223 10.3255 41.8223 12.0167C41.8223 13.6634 41.5264 15.21 40.9346 16.6565C40.3648 18.1029 39.5538 19.3825 38.5017 20.4951C37.4716 21.5855 36.277 22.4423 34.9181 23.0654C33.5811 23.6885 32.1345 24 30.5783 24ZM30.4139 17.8915C31.1592 17.8915 31.8605 17.7469 32.5181 17.4576C33.1756 17.146 33.7455 16.7344 34.2277 16.2225C34.7318 15.6885 35.1154 15.0654 35.3784 14.3533C35.6633 13.6189 35.8058 12.8401 35.8058 12.0167C35.8058 11.1933 35.6633 10.4256 35.3784 9.71349C35.0935 9.00139 34.6989 8.3783 34.1948 7.84423C33.7126 7.2879 33.1428 6.86509 32.4852 6.5758C31.8496 6.26426 31.1701 6.10848 30.4468 6.10848C29.7016 6.10848 29.0002 6.26426 28.3427 6.5758C27.7071 6.86509 27.1372 7.2879 26.6331 7.84423C26.1509 8.3783 25.7673 9.00139 25.4824 9.71349C25.1974 10.4256 25.055 11.1933 25.055 12.0167C25.055 12.8178 25.1974 13.5744 25.4824 14.2865C25.7673 14.9986 26.1509 15.6328 26.6331 16.1891C27.1372 16.7232 27.7071 17.146 28.3427 17.4576C29.0002 17.7469 29.6907 17.8915 30.4139 17.8915Z" fill="black"/>
<path d="M46.1852 23.5994C45.2427 23.5994 44.5633 23.4548 44.1468 23.1655C43.7304 22.8762 43.4674 22.4979 43.3578 22.0306C43.2482 21.5633 43.1934 21.0626 43.1934 20.5285V3.27121C43.1934 2.78164 43.2372 2.3032 43.3249 1.83588C43.4126 1.36857 43.6646 0.990266 44.0811 0.700975C44.4975 0.389431 45.2099 0.244786 46.2181 0.267038H51.873C53.4292 0.267038 54.8977 0.567456 56.2785 1.16829C57.6594 1.76912 58.8758 2.60362 59.9279 3.67177C61.0019 4.71766 61.8348 5.94159 62.4265 7.34353C63.0403 8.74548 63.3471 10.2364 63.3471 11.8164C63.3471 13.4409 63.0403 14.9652 62.4265 16.3894C61.8348 17.8136 61.0019 19.0709 59.9279 20.1613C58.8758 21.2295 57.6484 22.0751 56.2456 22.6982C54.8648 23.299 53.3744 23.5994 51.7743 23.5994H46.1852ZM49.2099 17.491H51.873C52.8593 17.491 53.7689 17.2462 54.6018 16.7566C55.4347 16.2448 56.0922 15.5772 56.5744 14.7538C57.0785 13.9082 57.3306 12.9736 57.3306 11.9499C57.3306 10.9263 57.0785 9.99166 56.5744 9.14604C56.0922 8.30042 55.4347 7.63282 54.6018 7.14325C53.7689 6.63143 52.8483 6.37552 51.8401 6.37552H49.2099V17.491Z" fill="black"/>
<path d="M75.8165 24C74.2165 24 72.7151 23.6996 71.3124 23.0987C69.9315 22.4757 68.7151 21.6189 67.663 20.5285C66.6109 19.4381 65.778 18.1808 65.1643 16.7566C64.5726 15.3102 64.2767 13.7747 64.2767 12.1502C64.2767 10.459 64.5616 8.879 65.1315 7.41029C65.7233 5.94159 66.5342 4.6509 67.5644 3.53825C68.5945 2.42559 69.7891 1.55772 71.148 0.934633C72.5288 0.311545 73.9973 0 75.5535 0C77.1535 0 78.644 0.311545 80.0248 0.934633C81.4276 1.53547 82.655 2.38108 83.7071 3.47149C84.7591 4.56189 85.5811 5.84145 86.1729 7.31015C86.7646 8.75661 87.0605 10.3255 87.0605 12.0167C87.0605 13.6634 86.7646 15.21 86.1729 16.6565C85.603 18.1029 84.792 19.3825 83.7399 20.4951C82.7098 21.5855 81.5153 22.4423 80.1563 23.0654C78.8193 23.6885 77.3727 24 75.8165 24ZM75.6522 17.8915C76.3974 17.8915 77.0988 17.7469 77.7563 17.4576C78.4138 17.146 78.9837 16.7344 79.4659 16.2225C79.97 15.6885 80.3536 15.0654 80.6166 14.3533C80.9016 13.6189 81.044 12.8401 81.044 12.0167C81.044 11.1933 80.9016 10.4256 80.6166 9.71349C80.3317 9.00139 79.9371 8.3783 79.433 7.84423C78.9508 7.2879 78.381 6.86509 77.7234 6.5758C77.0878 6.26426 76.4083 6.10848 75.685 6.10848C74.9398 6.10848 74.2384 6.26426 73.5809 6.5758C72.9453 6.86509 72.3754 7.2879 71.8713 7.84423C71.3891 8.3783 71.0055 9.00139 70.7206 9.71349C70.4356 10.4256 70.2932 11.1933 70.2932 12.0167C70.2932 12.8178 70.4356 13.5744 70.7206 14.2865C71.0055 14.9986 71.3891 15.6328 71.8713 16.1891C72.3754 16.7232 72.9453 17.146 73.5809 17.4576C74.2384 17.7469 74.9289 17.8915 75.6522 17.8915Z" fill="black"/>
<path d="M97.0454 23.5994C96.344 23.5994 95.7961 23.4548 95.4016 23.1655C95.007 22.8762 94.7221 22.5647 94.5468 22.2309C94.3714 21.8748 94.2618 21.6412 94.218 21.5299L88.3001 4.30598C87.9713 3.19332 87.9165 2.36996 88.1357 1.83588C88.3768 1.27956 89.0672 0.81224 90.207 0.433936C90.9522 0.189152 91.5549 0.0778869 92.0152 0.10014C92.4755 0.122393 92.8591 0.311545 93.1659 0.667596C93.4728 1.02365 93.7468 1.57997 93.9879 2.33658L97.4071 12.484L100.103 2.50348C100.169 2.28095 100.278 1.99166 100.432 1.63561C100.607 1.27956 100.892 0.968013 101.287 0.700975C101.681 0.411684 102.251 0.267038 102.996 0.267038C103.829 0.267038 104.443 0.42281 104.837 0.734354C105.254 1.0459 105.539 1.37969 105.692 1.73575C105.846 2.09179 105.955 2.35883 106.021 2.53686L108.717 12.5508L112.136 2.33658C112.377 1.60223 112.64 1.05702 112.925 0.700975C113.232 0.322671 113.626 0.111266 114.109 0.0667607C114.591 0.0222537 115.205 0.133519 115.95 0.400557C116.739 0.689848 117.298 1.00139 117.627 1.33519C117.955 1.64673 118.12 2.03616 118.12 2.50348C118.142 2.97079 118.043 3.57163 117.824 4.30598L111.939 21.5299C111.895 21.6634 111.785 21.8971 111.61 22.2309C111.457 22.5647 111.183 22.8762 110.788 23.1655C110.394 23.4548 109.824 23.5994 109.078 23.5994C108.333 23.5994 107.752 23.4325 107.336 23.0987C106.92 22.7427 106.624 22.3866 106.448 22.0306C106.273 21.6523 106.174 21.4298 106.152 21.363L103.062 11.0821L99.9715 21.3296C99.9496 21.4409 99.851 21.6857 99.6756 22.064C99.5003 22.42 99.2044 22.765 98.7879 23.0987C98.3934 23.4325 97.8126 23.5994 97.0454 23.5994Z" fill="black"/>
<path d="M122.567 23.6328C121.581 23.6328 120.879 23.4882 120.463 23.1989C120.046 22.8873 119.794 22.4979 119.707 22.0306C119.619 21.541 119.575 21.0515 119.575 20.5619V3.30459C119.575 2.81502 119.619 2.33658 119.707 1.86926C119.794 1.40195 120.046 1.02364 120.463 0.734354C120.879 0.42281 121.591 0.267038 122.6 0.267038C123.608 0.267038 124.309 0.42281 124.704 0.734354C125.12 1.02364 125.372 1.40195 125.46 1.86926C125.548 2.33658 125.592 2.82615 125.592 3.33797V20.5953C125.592 21.0848 125.548 21.5633 125.46 22.0306C125.372 22.4979 125.12 22.8873 124.704 23.1989C124.287 23.4882 123.575 23.6328 122.567 23.6328Z" fill="black"/>
<path d="M144.57 0.233659C144.987 0.233659 145.381 0.267039 145.754 0.333798C146.126 0.400557 146.433 0.611962 146.674 0.968012C146.937 1.32406 147.069 1.93602 147.069 2.8039C147.069 3.64951 146.937 4.26148 146.674 4.63978C146.433 4.99583 146.115 5.20723 145.721 5.27399C145.348 5.34075 144.954 5.37413 144.537 5.37413H140V20.662C140 21.1516 139.956 21.63 139.869 22.0974C139.781 22.5424 139.529 22.9096 139.113 23.1989C138.718 23.4882 138.017 23.6328 137.008 23.6328C136.044 23.6328 135.354 23.4882 134.937 23.1989C134.521 22.8873 134.269 22.509 134.181 22.064C134.115 21.5967 134.082 21.1182 134.082 20.6286V5.37413H129.512C129.118 5.37413 128.723 5.34075 128.329 5.27399C127.956 5.18498 127.638 4.96245 127.375 4.6064C127.134 4.25035 127.014 3.63839 127.014 2.77051C127.014 1.9249 127.134 1.32406 127.375 0.968012C127.638 0.611962 127.967 0.400557 128.362 0.333798C128.756 0.267039 129.151 0.233659 129.545 0.233659H144.57Z" fill="black"/>
<path d="M164.975 23.5994C163.989 23.5994 163.288 23.4548 162.871 23.1655C162.455 22.854 162.203 22.4645 162.115 21.9972C162.027 21.5076 161.983 21.0181 161.983 20.5285V3.30459C161.983 2.81502 162.027 2.33658 162.115 1.86926C162.203 1.40195 162.455 1.02364 162.871 0.734354C163.288 0.42281 164 0.267038 165.008 0.267038C166.016 0.267038 166.718 0.42281 167.112 0.734354C167.529 1.02364 167.781 1.40195 167.868 1.86926C167.956 2.33658 168 2.82615 168 3.33797V20.5619C168 21.0515 167.956 21.5299 167.868 21.9972C167.781 22.4645 167.529 22.854 167.112 23.1655C166.696 23.4548 165.984 23.5994 164.975 23.5994ZM151.463 23.5994C150.476 23.5994 149.775 23.4548 149.359 23.1655C148.942 22.854 148.69 22.4645 148.602 21.9972C148.515 21.5076 148.471 21.0181 148.471 20.5285V3.30459C148.471 2.81502 148.515 2.33658 148.602 1.86926C148.69 1.40195 148.942 1.02364 149.359 0.734354C149.775 0.42281 150.487 0.267038 151.496 0.267038C152.504 0.267038 153.205 0.42281 153.6 0.734354C154.016 1.02364 154.268 1.40195 154.356 1.86926C154.444 2.33658 154.487 2.82615 154.487 3.33797V20.5619C154.487 21.0515 154.444 21.5299 154.356 21.9972C154.268 22.4645 154.016 22.854 153.6 23.1655C153.183 23.4548 152.471 23.5994 151.463 23.5994ZM153.961 14.5535V9.34631H162.51V14.5535H153.961Z" fill="black"/>
</svg>
