<svg width="130" height="130" viewBox="0 0 130 130" fill="none" xmlns="http://www.w3.org/2000/svg">
<rect width="130" height="130" fill="white"/>
<g clip-path="url(#clip0_840_13748)">
<path d="M98.8529 67.5574L100.078 75.8045C100.078 75.8045 103.4 73.9118 106.724 74.1824C110.047 74.4529 111.742 75.8045 113.031 73.9118C114.568 71.6537 108.343 64.0425 98.8541 67.5574H98.8529Z" fill="#DADADA"/>
<g opacity="0.6">
<path d="M98.8529 67.5573L99.0279 68.7344C106.962 66.1274 112.483 71.2833 112.849 74.1514C112.911 74.0779 112.971 73.9996 113.031 73.9117C114.568 71.6547 108.343 64.0424 98.8541 67.5573H98.8529Z" fill="white"/>
</g>
<path d="M100.079 76.5396C99.9684 76.5396 99.8588 76.5147 99.7565 76.466C99.5374 76.3592 99.385 76.1527 99.3493 75.913L98.1244 67.6659C98.0732 67.323 98.2708 66.9907 98.597 66.8697C104.825 64.5616 110.18 66.7902 112.723 70.0214C113.995 71.6388 114.348 73.2882 113.642 74.3253C112.476 76.0376 110.977 75.7137 109.243 75.3387C108.498 75.1773 107.654 74.9958 106.666 74.9151C103.618 74.6659 100.477 76.4257 100.445 76.4435C100.331 76.5076 100.205 76.5396 100.079 76.5396ZM99.6719 68.0516L100.66 74.6979C101.94 74.1224 104.342 73.2526 106.785 73.4508C107.87 73.5386 108.805 73.7403 109.555 73.9029C111.272 74.2743 111.843 74.3502 112.421 73.5006C112.683 73.1161 112.471 72.0838 111.563 70.928C109.962 68.8929 105.698 66.0805 99.6731 68.0516H99.6719Z" fill="#484848"/>
<path d="M57.1866 40.0462C63.3459 37.8153 69.6599 42.5808 70.6456 61.3392L61.459 65.1923C61.459 65.1923 46.6679 43.8553 57.1866 40.0462Z" fill="#DADADA"/>
<g opacity="0.6">
<path d="M55.9331 41.4098C61.9686 39.224 68.1505 43.7569 69.3242 61.5862L70.3873 61.14C69.4016 42.3816 63.0888 37.6161 56.9283 39.847C55.2497 40.4545 54.2176 41.5106 53.6653 42.8539C54.2331 42.2475 54.9771 41.7563 55.9319 41.4098H55.9331Z" fill="white"/>
</g>
<g opacity="0.2">
<path d="M57.1866 40.0462C63.3459 37.8153 69.6599 42.5808 70.6456 61.3392L61.459 65.1923C61.459 65.1923 46.6679 43.8553 57.1866 40.0462Z" fill="#484848"/>
</g>
<path d="M61.459 65.9269C61.2221 65.9269 60.9935 65.813 60.8519 65.6101C60.434 65.0073 50.6558 50.7747 53.0545 43.2775C53.6593 41.3884 54.964 40.0688 56.9341 39.3557C59.4817 38.4325 61.9316 38.6734 64.016 40.0487C68.2504 42.8444 70.7967 50.1933 71.3801 61.3002C71.3967 61.6099 71.2158 61.8959 70.9301 62.0158L61.7435 65.8688C61.6506 65.9079 61.5542 65.9257 61.4578 65.9257L61.459 65.9269ZM59.9233 40.2694C59.1269 40.2694 58.2972 40.4248 57.4377 40.7357C55.8985 41.2935 54.9247 42.2701 54.4592 43.7225C52.5105 49.8088 60.0376 61.712 61.7328 64.2787L69.8801 60.8612C69.1182 47.8271 65.8386 43.0129 63.203 41.2721C62.1899 40.6028 61.0923 40.2682 59.9245 40.2682L59.9233 40.2694Z" fill="#484848"/>
<path d="M83.9391 66.4086C84.4474 66.4086 91.771 68.4366 91.771 68.4366C91.771 68.4366 102.524 47.5375 91.771 45.5214C82.0392 43.6963 83.9391 66.4086 83.9391 66.4086Z" fill="#DADADA"/>
<g opacity="0.6">
<path d="M92.9555 47.2825C94.3649 47.5472 95.4018 48.1381 96.1446 48.9616C95.5435 47.0215 94.2126 45.5868 91.771 45.1288C82.0392 43.3037 83.9391 66.016 83.9391 66.016C84.0451 66.016 84.4486 66.1038 85.0189 66.2439C84.8177 60.8019 84.9724 45.785 92.9567 47.2825H92.9555Z" fill="white"/>
</g>
<g opacity="0.2">
<path d="M83.9391 66.4086C84.4474 66.4086 91.771 68.4366 91.771 68.4366C91.771 68.4366 102.524 47.5375 91.771 45.5214C82.0392 43.6963 83.9391 66.4086 83.9391 66.4086Z" fill="#484848"/>
</g>
<path d="M91.7711 69.171C91.7056 69.171 91.6389 69.1627 91.5734 69.1437C88.2152 68.2134 84.4035 67.2 83.9094 67.1418C83.5392 67.1276 83.2345 66.8404 83.2035 66.469C83.1499 65.827 81.95 50.7057 87.1093 46.0659C88.4331 44.8757 90.0473 44.4497 91.9068 44.7986C94.0376 45.1985 95.5614 46.3032 96.4364 48.0832C99.641 54.6038 92.7234 68.1968 92.427 68.7723C92.2984 69.0227 92.0425 69.1722 91.7711 69.1722V69.171ZM84.6356 65.7962C85.957 66.0881 88.8069 66.8559 91.3794 67.5655C92.6163 65.0023 97.6637 53.9191 95.1126 48.7287C94.4448 47.37 93.3067 46.5572 91.6353 46.2427C90.2306 45.9793 89.0747 46.2783 88.0986 47.1576C83.9844 50.8576 84.4713 63.0503 84.6368 65.7962H84.6356ZM83.919 67.143C83.9261 67.143 83.9344 67.143 83.9392 67.143C83.9321 67.143 83.9261 67.143 83.919 67.143Z" fill="#484848"/>
<path d="M104.038 74.9336C103.992 74.962 103.948 74.9905 103.903 75.019C103.977 75.5174 104.029 76.0217 104.057 76.532C104.073 76.8239 104.081 77.1158 104.081 77.4101C104.081 89.9268 89.7008 100.073 71.9634 100.073C60.2317 100.073 49.9713 95.6345 44.3679 89.0083C43.6656 88.18 43.037 87.3162 42.4883 86.4226C42.2145 86.3419 41.9514 86.2506 41.7014 86.1497C41.6049 86.1105 41.5097 86.0714 41.4181 86.0298C39.4229 85.1422 38.2182 83.6779 37.6158 82.3869C37.1063 81.2999 37.0242 80.3352 37.2503 79.9341C37.5622 79.3847 38.8229 79.3965 39.986 79.5377C39.8943 78.8376 39.8455 78.128 39.8455 77.4101C39.8455 64.8946 54.2235 54.75 71.9634 54.75C85.0439 54.75 96.2982 60.2679 101.305 68.1851C102.563 67.9419 104.487 67.9739 105.401 70.06C106.474 72.5045 105.354 74.0851 104.04 74.9336H104.038Z" fill="#BBBBBB"/>
<g opacity="0.6">
<path d="M104.056 76.5299C102.43 77.7747 100.283 78.3514 98.2541 78.0155C97.8934 77.955 97.491 77.8767 97.1875 78.0796C96.9744 78.2232 96.8649 78.476 96.7661 78.7133C95.678 81.3393 94.5888 83.9677 93.5007 86.5938C94.3459 84.1172 94.6864 81.471 94.4959 78.864C94.4614 78.381 94.4007 77.8815 94.1495 77.4685C93.7543 76.8218 92.9805 76.5263 92.2615 76.2759C89.5449 75.3266 84.7808 72.6116 83.7879 72.9059C82.7166 73.2227 80.6214 76.073 79.156 77.0366C77.7525 77.9598 75.7966 78.5127 74.0121 78.7524C74.0347 79.3232 72.8907 80.0257 71.3777 80.3544C70.1122 80.6309 68.9706 80.5609 68.504 80.2215C67.7957 80.6368 67.1088 81.14 66.4148 81.7119C64.4398 83.3471 63.1696 85.9316 63.5018 88.4687C63.0613 87.2357 62.6208 85.9969 62.3947 84.7082C56.6258 88.1898 47.9297 89.3219 43.7632 87.746C43.0608 86.9177 43.0358 87.3117 42.4859 86.4193C42.2121 86.3386 41.949 86.2473 41.699 86.1464C48.8499 79.7148 70.4337 64.2885 104.036 74.9303C103.99 74.9588 103.946 74.9872 103.9 75.0157C103.974 75.5141 104.027 76.0184 104.055 76.5287L104.056 76.5299Z" fill="white"/>
</g>
<path d="M101.375 68.1842C101.375 68.1842 100.591 69.6544 96.1137 69.0457C91.6389 68.4369 88.2819 63.6832 83.5011 63.9301C78.7191 64.1781 77.6001 69.1465 73.5324 70.364C69.4623 71.5803 67.3267 70.262 64.2756 72.1891C61.2233 74.115 54.0843 82.6279 40.055 79.5379C39.9634 78.8378 39.9146 78.1282 39.9146 77.4103C39.9146 74.5635 40.6586 71.839 42.0157 69.3281C46.6298 60.8044 58.3282 54.749 72.0324 54.749C80.9262 54.749 88.9747 57.2991 94.7888 61.4203C97.528 63.3605 99.7719 65.6495 101.374 68.1842H101.375Z" fill="#BEBEBE"/>
<g opacity="0.6">
<path d="M72.2027 56.6044C84.3773 56.6044 95.1245 61.7805 101.177 68.1386C101.436 67.9523 101.518 67.8004 101.518 67.8004C96.5102 59.8819 85.257 54.3652 72.1765 54.3652C57.6937 54.3652 45.4537 61.1279 41.4467 70.4205C46.9572 62.8117 58.6234 56.6044 72.2039 56.6044H72.2027Z" fill="white"/>
</g>
<path d="M71.9622 100.806C59.0269 100.806 47.3083 95.412 42.0061 87.0414C38.5669 85.9153 37.2229 83.4056 36.7992 82.3601C36.3373 81.2186 36.2658 80.1755 36.6087 79.5703C36.9658 78.9414 37.7848 78.6673 39.161 78.7278C39.1265 78.2852 39.1086 77.8438 39.1086 77.4095C39.1086 71.1108 42.5597 65.2072 48.8273 60.7858C55.0175 56.4178 63.2339 54.0137 71.9634 54.0137C84.6617 54.0137 96.2518 59.2479 101.666 67.3859C103.712 67.151 105.305 68.0018 106.079 69.7651C107.054 71.9877 106.534 74.0513 104.694 75.3779C104.776 76.0555 104.818 76.7378 104.818 77.4118C104.818 83.7105 101.367 89.6141 95.0994 94.0355C88.9092 98.4035 80.6928 100.808 71.9634 100.808L71.9622 100.806ZM37.8836 80.3179C37.8372 80.4924 37.8479 81.1533 38.2908 82.0931C38.6717 82.9024 39.8645 84.8758 42.6978 85.7171C42.8716 85.7694 43.0204 85.8833 43.1156 86.0375C48.0845 94.1162 59.4067 99.3362 71.9622 99.3362C89.2651 99.3362 103.343 89.5001 103.343 77.4095C103.343 76.6536 103.286 75.8846 103.173 75.1252C103.129 74.8321 103.267 74.5414 103.522 74.3883C104.597 73.7416 105.678 72.517 104.728 70.3525C104.168 69.0793 103.063 68.5915 101.446 68.9048C101.148 68.9618 100.844 68.8312 100.683 68.5749C95.6518 60.6209 84.3784 55.4815 71.9634 55.4815C54.6604 55.4815 40.5824 65.3176 40.5824 77.4083C40.5824 78.074 40.6276 78.7575 40.7181 79.4398C40.7478 79.6653 40.6716 79.8919 40.5109 80.0533C40.3502 80.2147 40.124 80.293 39.8979 80.2657C38.4324 80.0865 37.9789 80.2669 37.8848 80.3179H37.8836Z" fill="#484848"/>
<g opacity="0.6">
<path d="M64.2363 98.629C66.2672 97.8363 68.1005 96.544 69.5254 94.8982C73.7384 95.4618 78.2906 94.8044 82.4131 93.7685C85.6356 92.958 88.5962 91.7429 91.483 90.1018C91.758 89.9451 92.0437 89.7778 92.3591 89.7612C92.6246 89.747 92.8817 89.8419 93.1329 89.9285C94.5448 90.4115 96.0388 90.6559 97.5304 90.6464C96.1245 91.235 94.5436 91.4035 93.0436 91.1258C92.827 91.0855 92.6044 91.0356 92.3877 91.0772C92.1698 91.1175 91.9806 91.2457 91.7961 91.3679C90.1568 92.4549 88.3926 93.3543 86.5486 94.0426C81.5464 95.9104 76.1073 96.1857 70.7682 96.3494C70.4992 96.3577 70.2266 96.366 69.9695 96.4455C69.3207 96.6449 68.8969 97.243 68.4207 97.7247C66.9588 99.2045 64.597 99.7219 62.6471 98.9885" fill="white"/>
</g>
<g opacity="0.2">
<path d="M101.375 68.1836C101.375 68.1836 100.591 69.6539 96.1137 69.0451C91.6389 68.4364 88.2819 63.6827 83.5011 63.9295C78.7191 64.1775 77.6001 69.146 73.5324 70.3635C69.4623 71.5798 67.3267 70.2614 64.2756 72.1886C61.2233 74.1145 54.0843 82.6274 40.055 79.5374C39.9634 78.8373 39.9146 78.1277 39.9146 77.4098C39.9146 74.563 40.6586 71.8385 42.0157 69.3276C43.1597 68.8873 44.3358 68.5313 45.5048 68.2489C49.844 67.1987 54.3593 66.8772 58.8044 67.302C61.5162 67.5618 64.2458 68.097 66.9433 67.7197C70.417 67.2343 73.4895 65.2906 76.3787 63.3066C77.9537 62.2243 79.6072 61.0792 81.5119 60.8977C83.2856 60.7268 85.0117 61.4186 86.7367 61.866C89.0818 62.4735 91.6163 62.6278 93.8948 61.8102C94.2162 61.6951 94.5114 61.5658 94.7888 61.4186C97.528 63.3588 99.7719 65.6478 101.374 68.1825L101.375 68.1836Z" fill="#484848"/>
</g>
<path d="M51.3879 39.5974C54.2283 43.6581 57.3139 41.1032 62.0268 45.8249C66.0862 49.8903 67.4599 61.5419 59.2198 71.3163C49.7094 82.5988 32.6707 81.9391 24.1258 74.309C15.5832 66.6789 10.0906 53.0634 20.1604 40.7947C30.2303 28.526 46.0988 32.0349 51.3879 39.5974Z" fill="#DADADA"/>
<g opacity="0.6">
<path d="M65.1994 56.6056C64.953 52.9294 63.7209 49.8916 62.0209 48.1852C57.3068 43.4648 54.2224 46.0196 51.382 41.9577C49.1892 38.8262 45.1822 36.3876 40.5241 35.481C40.4979 36.2061 38.8658 36.7923 36.8528 36.7923C34.8398 36.7923 33.1803 36.1966 33.1803 35.4621C33.1803 35.4312 33.1839 35.3992 33.191 35.3707C28.6067 36.1289 23.964 38.5117 20.1534 43.1562C16.6797 47.3878 15.0571 51.7795 14.7738 56.0325C14.4405 50.9465 15.9238 45.5568 20.1534 40.402C30.2221 28.1322 46.0906 31.6434 51.3808 39.2059C54.22 43.2654 57.3056 40.7117 62.0197 45.4334C64.1316 47.548 65.516 51.7155 65.1982 56.6056H65.1994Z" fill="white"/>
</g>
<g opacity="0.2">
<path d="M63.4375 47.6934C63.9065 52.8588 62.4185 59.377 57.4889 65.226C47.9785 76.5085 30.9398 75.8488 22.3949 68.2187C19.2581 65.417 16.5344 61.8084 14.8392 57.7573C15.7344 64.1639 19.4391 69.9808 24.0234 74.0747C32.5684 81.7048 49.607 82.3658 59.1174 71.082C66.2148 62.6616 66.1791 52.8505 63.4387 47.6934H63.4375Z" fill="#484848"/>
</g>
<path d="M40.0943 80.6673C33.8207 80.6673 27.7805 78.5574 23.6354 74.8563C18.8427 70.5761 15.5773 65.0998 14.4405 59.4359C13.0869 52.6899 14.8666 46.0838 19.5903 40.3298C24.2056 34.7051 30.5185 31.7528 37.3718 32.0162C43.3716 32.2464 49.1106 35.0576 51.9927 39.1788C53.2426 40.9647 54.5188 41.3064 56.1354 41.7384C57.8687 42.2023 60.0257 42.7791 62.5494 45.3078C64.8375 47.6004 66.1493 51.8723 65.9719 56.4586C65.7636 61.8579 63.5661 67.3033 59.7853 71.79C55.4176 76.9721 49.1226 80.1001 42.0609 80.5985C41.405 80.6447 40.7479 80.6673 40.0943 80.6673ZM36.5373 33.4687C30.4589 33.4687 24.871 36.2146 20.7307 41.2602C11.2334 52.8311 15.8404 65.9221 24.6199 73.7622C28.9054 77.5891 35.3849 79.5981 41.9573 79.133C48.6178 78.6631 54.5485 75.719 58.6579 70.8443C66.4029 61.6549 65.5362 50.3819 61.5066 46.3437C59.2615 44.095 57.4794 43.618 55.7556 43.1576C54.0009 42.6877 52.3427 42.2451 50.7856 40.0189C48.1583 36.262 42.8716 33.6977 37.317 33.4853C37.0575 33.4758 36.7968 33.4699 36.5385 33.4699L36.5373 33.4687Z" fill="#484848"/>
<path d="M30.5578 65.7198C31.2328 65.861 31.9042 65.9073 32.5411 65.8195C33.1768 65.7341 33.766 65.5217 34.2577 65.1858C34.7493 64.8488 35.1386 64.386 35.4398 63.8236L35.5017 63.7203L35.5505 63.6088C35.5826 63.534 35.6148 63.4593 35.6505 63.3845C35.6826 63.3086 35.7255 63.2362 35.7517 63.1555L35.8338 62.9134C35.9659 62.5942 36.0255 62.2442 36.1528 61.8917L36.1778 61.8241C36.2612 61.5915 36.5183 61.4705 36.7516 61.5535C36.9123 61.6105 37.0195 61.7505 37.0433 61.9083C37.104 62.3142 37.1623 62.7307 37.1171 63.1555L37.0945 63.4747C37.0897 63.5827 37.0564 63.6871 37.0361 63.7939C37.0135 63.9007 36.9897 64.0075 36.9635 64.1131L36.9242 64.2733L36.8647 64.4288C36.779 64.6352 36.7135 64.8512 36.5957 65.0458C36.5397 65.1443 36.4802 65.2428 36.4207 65.3401C36.36 65.4374 36.3052 65.5383 36.2266 65.6249C35.9421 65.9892 35.604 66.3179 35.2183 66.5778C34.4481 67.1046 33.5291 67.3621 32.6434 67.3752C31.7554 67.3882 30.8828 67.177 30.1388 66.7546C29.8673 66.6003 29.7721 66.2562 29.9269 65.9856C30.0519 65.7673 30.3007 65.6629 30.534 65.7127L30.5578 65.7175V65.7198Z" fill="#484848"/>
<path d="M49.8153 45.6972C50.2213 46.4484 50.4129 47.3229 50.3796 48.207C50.3463 49.0898 50.0665 49.9988 49.5201 50.7547C49.2511 51.1332 48.9142 51.4631 48.5416 51.7372C48.4535 51.8132 48.3511 51.8654 48.2523 51.9235C48.1535 51.9805 48.0535 52.0375 47.9535 52.0921C47.7547 52.2048 47.5368 52.2653 47.3285 52.346L47.1702 52.4018L47.0083 52.4374C46.9011 52.4611 46.7928 52.4825 46.6857 52.5026C46.5785 52.5204 46.4726 52.5501 46.3643 52.5525L46.0428 52.5679C45.6155 52.6035 45.1988 52.5347 44.7941 52.4647C44.55 52.4219 44.3869 52.1905 44.4286 51.9473C44.4572 51.78 44.5774 51.6506 44.7286 51.5996L44.7976 51.577C45.1536 51.4584 45.506 51.4074 45.8298 51.2828L46.0738 51.2068C46.1547 51.1831 46.2286 51.1404 46.3059 51.1107C46.3821 51.0775 46.4583 51.0466 46.5333 51.0158L46.6464 50.9707L46.7512 50.9113C47.3226 50.6242 47.7952 50.2468 48.144 49.765C48.4916 49.2833 48.7189 48.7006 48.8189 48.0693C48.9213 47.4369 48.8916 46.7664 48.7654 46.0912L48.7606 46.0675C48.7035 45.7613 48.9058 45.467 49.213 45.4101C49.4606 45.3638 49.701 45.4872 49.8153 45.6972Z" fill="#484848"/>
<path d="M80.2773 68.5374L72.6478 73.5059C63.8577 67.5679 57.7329 56.1465 59.1781 49.0065C59.2102 48.8427 59.2471 48.6802 59.2888 48.5188C59.6626 47.077 60.3649 45.831 61.4435 44.8663C62.3434 44.0606 63.5053 43.4518 64.9529 43.0887C65.16 43.0365 65.366 42.9938 65.5683 42.9606C65.5767 42.9594 65.5838 42.9594 65.5921 42.957C67.2421 42.6936 68.7254 43.0484 70.0539 43.8517C74.2311 46.371 76.8834 53.2891 78.4369 59.1618C79.7488 64.1243 80.2773 68.3416 80.2773 68.5374Z" fill="#DADADA"/>
<g opacity="0.6">
<path d="M80.0881 68.389L79.0548 69.0606C78.8084 67.4076 78.2775 64.3734 77.3834 60.9915C75.8299 55.1176 73.1776 48.1995 69.0004 45.6814C67.6707 44.8781 66.1886 44.5233 64.5387 44.7867C64.5303 44.7879 64.5232 44.7879 64.5148 44.7903C64.3125 44.8235 64.1065 44.8662 63.8994 44.9184C62.4518 45.2815 61.29 45.8903 60.39 46.696C59.9031 47.1315 59.4924 47.6251 59.1555 48.1674C59.54 46.8111 60.2257 45.6375 61.2543 44.7179C62.1542 43.9121 63.3161 43.3034 64.7636 42.9403C64.9708 42.8881 65.1767 42.8453 65.3791 42.8121C65.3874 42.8109 65.3946 42.8109 65.4029 42.8086C67.0529 42.5451 68.5361 42.8999 69.8647 43.7033C74.0419 46.2225 76.6942 53.1406 78.2477 59.0133C79.5596 63.9759 80.0881 68.1932 80.0881 68.389Z" fill="white"/>
</g>
<path d="M72.6479 74.2417C72.5038 74.2417 72.3586 74.199 72.2348 74.1147C63.397 68.1435 57.0639 56.6936 58.4067 49.111C59.0293 45.5926 61.2316 43.2632 64.7732 42.3756C67.1195 41.7883 69.3254 42.2807 71.3325 43.84C78.7655 49.6177 81.0154 68.3666 81.0154 68.5387C81.0154 68.7867 80.8893 69.0181 80.6809 69.1534L73.0514 74.1218C72.9288 74.2013 72.7884 74.2417 72.6479 74.2417ZM66.6624 43.6038C66.1648 43.6038 65.6553 43.6691 65.1327 43.8008C62.1542 44.5472 60.3793 46.4197 59.8579 49.3661C58.6472 56.2047 64.5982 66.9581 72.6598 72.6219L79.4965 68.1696C79.3298 66.8715 78.6941 62.7408 77.4227 58.2458C75.5204 51.5234 73.0288 46.8884 70.217 44.8415C69.0802 44.0144 67.9076 43.6038 66.6636 43.6038H66.6624Z" fill="#484848"/>
<path d="M70.054 43.8522C70.054 43.8522 69.4957 47.0087 67.5969 46.2659C66.6791 45.9063 66.1732 45.1006 65.8958 44.3637C66.0006 45.3557 65.8637 46.553 64.7482 46.9838C63.7816 47.3576 62.9876 46.8983 62.4209 46.3133C62.7721 47.0407 62.9554 47.8975 62.3745 48.5205C61.1531 49.8282 59.2877 48.5205 59.2877 48.5205C59.6615 47.0787 60.3639 45.8327 61.4424 44.868C62.3424 44.0623 63.5042 43.4535 64.9518 43.0904C65.1589 43.0382 65.3649 42.9955 65.5673 42.9623C65.5625 42.9041 65.5613 42.8721 65.5613 42.8721C65.5613 42.8721 65.572 42.9017 65.5911 42.9587C67.241 42.6953 68.7243 43.0501 70.0528 43.8534L70.054 43.8522Z" fill="white"/>
<path d="M61.0388 49.1944C60.0972 49.1944 59.2448 48.6082 59.2317 48.5999L59.1758 48.5607L59.1924 48.4942C59.5841 46.9848 60.3186 45.7401 61.3769 44.7931C62.3138 43.9542 63.509 43.349 64.928 42.993C65.1065 42.9479 65.2851 42.9099 65.4625 42.8791V42.8767L65.4291 42.2383L65.6529 42.8375L65.6577 42.8494C67.216 42.6192 68.7123 42.9289 70.104 43.769L70.1611 43.8035L70.1492 43.8699C70.1361 43.9459 69.8075 45.7412 68.7921 46.3085C68.4207 46.5161 68.0052 46.5327 67.5588 46.3571C66.916 46.1055 66.391 45.6036 66.022 44.8928C66.022 46.0106 65.5982 46.7606 64.7827 47.075C64.0649 47.3515 63.3471 47.2174 62.6828 46.687C62.959 47.4702 62.8792 48.1205 62.4459 48.5868C62.0197 49.0437 61.5162 49.1956 61.0376 49.1956L61.0388 49.1944ZM59.402 48.4753C59.7162 48.6734 61.2709 49.5575 62.3042 48.4515C62.7602 47.9626 62.7697 47.2578 62.334 46.3547L62.0685 45.8041L62.4935 46.2432C63.1971 46.9706 63.9447 47.1878 64.7149 46.8899C65.7874 46.4758 65.897 45.2927 65.7994 44.3719L65.7184 43.6077L65.9886 44.328C66.3398 45.2618 66.8934 45.8836 67.6338 46.1732C68.0231 46.3263 68.3814 46.3132 68.6993 46.1364C69.5302 45.6724 69.8766 44.2271 69.9456 43.9008C68.5873 43.0974 67.1279 42.8126 65.6089 43.0547L65.5267 43.0677C65.3458 43.0986 65.1613 43.1378 64.9791 43.184C63.5911 43.5317 62.4233 44.1227 61.5114 44.9391C60.4984 45.8457 59.7889 47.0347 59.4043 48.4753H59.402Z" fill="#484848"/>
<path d="M61.1209 49.8501C60.2602 49.8501 59.3972 49.4395 58.8876 49.0776C58.6555 48.9126 58.5496 48.6219 58.6198 48.3466C59.04 46.7269 59.8317 45.3848 60.9757 44.3595C60.9792 44.3559 60.984 44.3524 60.9876 44.3488C61.9959 43.4482 63.2732 42.8003 64.7839 42.4217C64.8958 42.3932 65.0077 42.3683 65.1196 42.3446C65.2041 42.2746 65.3065 42.2236 65.4208 42.1998C65.5565 42.1713 65.6922 42.1856 65.8136 42.233C67.4254 42.0479 68.9694 42.3932 70.4099 43.2642C70.6527 43.4114 70.7813 43.6914 70.7313 43.9715C70.692 44.191 70.317 46.1312 69.0813 46.8218C68.5552 47.1161 67.954 47.1446 67.3433 46.9049C66.9636 46.7565 66.6243 46.4409 66.3171 46.0232C66.1398 46.6913 65.7636 47.2822 65.0291 47.6097C64.3779 47.8993 63.7958 47.8565 63.2851 47.6406C63.3065 48.0903 63.2137 48.5294 62.9339 48.9186C62.4375 49.6092 61.7792 49.8501 61.1197 49.8501H61.1209ZM60.1007 48.1959C60.59 48.438 61.3947 48.7038 61.8149 48.1176C62.1197 47.6928 61.6542 46.7007 61.2864 46.0172C60.7709 46.6379 60.3745 47.3665 60.1007 48.1959ZM62.4066 44.9718C63.2232 46.0659 63.8232 46.6426 64.4672 46.3554C65.1624 46.0457 65.135 44.9113 65.0017 43.7852C64.0029 44.0486 63.1327 44.4461 62.4078 44.9718H62.4066ZM66.5683 43.5585C67.2671 45.2305 67.6873 45.5628 67.848 45.6257C68.1361 45.7384 68.298 45.6838 68.4075 45.6233C68.8004 45.4049 69.098 44.7286 69.2587 44.1969C68.3909 43.7543 67.5004 43.5419 66.5683 43.5585Z" fill="#484848"/>
<g opacity="0.2">
<path d="M80.2773 68.5377L72.6478 73.5062C63.8577 67.5683 57.7329 56.1469 59.1781 49.0068C64.4553 56.4305 76.5513 71.7618 78.4381 59.1633C79.75 64.1258 80.2785 68.3431 80.2785 68.5389L80.2773 68.5377Z" fill="#484848"/>
</g>
<path d="M106.654 60.3677C105.322 64.9636 102.886 69.3755 99.8291 72.062C99.8291 72.062 95.3316 73.0683 87.9224 68.9613C87.9224 68.9613 89.3449 67.7403 90.2485 59.7293C90.8008 54.8285 91.4449 49.0543 93.9198 45.651C94.1781 45.2962 94.4567 44.9663 94.7555 44.6673C96.278 43.1436 98.366 42.3818 101.283 42.8671C104.281 43.3643 106.132 45.3389 107.055 48.0789C108.193 51.4572 107.922 55.9973 106.655 60.3689L106.654 60.3677Z" fill="#DADADA"/>
<g opacity="0.6">
<path d="M107.036 48.0975C106.113 45.3564 104.262 43.3818 101.264 42.8846C98.3757 42.404 96.2995 43.1469 94.7817 44.6421C96.0579 44.0203 97.6162 43.7972 99.5351 44.1164C102.534 44.6136 104.385 46.5881 105.308 49.3281C106.446 52.7065 106.174 57.2465 104.908 61.6181C103.752 65.6041 101.767 69.45 99.2673 72.1531C99.6244 72.1211 99.8125 72.0795 99.8125 72.0795C102.87 69.393 105.305 64.9823 106.637 60.3852C107.905 56.0124 108.175 51.4735 107.037 48.0964L107.036 48.0975Z" fill="white"/>
</g>
<path d="M98.4125 72.9067C96.4316 72.9067 92.6484 72.4249 87.5462 69.5853C87.3224 69.4607 87.145 69.2554 87.1343 69.0003C87.1236 68.7523 87.207 68.5411 87.4069 68.3987C87.5522 68.2136 88.7236 66.5345 89.5116 59.6342L89.5188 59.5736C90.1854 53.7377 91.0152 46.4743 95.0614 43.4377C96.7649 42.1585 98.9065 41.7242 101.425 42.1466C104.672 42.6913 106.923 44.8522 107.934 48.3979C108.923 51.8652 108.638 56.5524 107.153 61.2575C105.668 65.9589 103.168 70.1003 100.292 72.6172C100.199 72.6991 100.087 72.756 99.966 72.7821C99.9029 72.7964 99.366 72.9079 98.4113 72.9079L98.4125 72.9067ZM88.9581 68.6775C94.8448 71.7759 98.6435 71.4887 99.4744 71.3748C105.009 66.3873 108.425 55.4892 106.517 48.7989C105.661 45.7956 103.866 44.0453 101.181 43.5955C99.0482 43.2383 97.3364 43.5706 95.9495 44.6113C92.4092 47.2682 91.6199 54.1827 90.9842 59.7398L90.9771 59.8003C90.3676 65.1295 89.5259 67.5775 88.9581 68.6775Z" fill="#484848"/>
<path d="M107.055 48.0775C107.055 48.0775 105.237 49.2108 104.116 47.8437C103.097 46.6013 104.136 44.5579 104.334 44.1984C104.105 44.5864 102.654 46.879 100.604 46.2809C98.9422 45.798 98.5089 44.1213 98.397 43.2918C98.4411 44.1545 98.3804 45.9238 97.1959 46.2323C95.6209 46.6405 94.7555 44.6647 94.7555 44.6647C96.2781 43.1423 98.3673 42.3805 101.283 42.8646C104.281 43.3618 106.132 45.3364 107.055 48.0763V48.0775Z" fill="white"/>
<path d="M105.538 48.6127C105.029 48.6127 104.481 48.4454 104.04 47.9054C103.345 47.057 103.56 45.8692 103.852 45.0445C103.192 45.8312 102.039 46.8019 100.577 46.3759C99.3268 46.0128 98.753 44.9863 98.4899 44.1557C98.4245 45.0718 98.1364 46.0911 97.2209 46.3284C95.5853 46.7532 94.6746 44.7264 94.6651 44.7051L94.6377 44.6434L94.6853 44.5959C96.3507 42.9299 98.5757 42.3152 101.299 42.7685C104.122 43.236 106.144 45.0611 107.149 48.0455L107.154 48.0787V48.1333L107.107 48.1618C107.096 48.1689 106.368 48.6127 105.54 48.6127H105.538ZM104.393 44.2933C104.14 44.7703 103.253 46.6357 104.192 47.7809C105.141 48.9378 106.604 48.2187 106.936 48.0336C106.381 46.4257 105.522 45.1667 104.393 44.2933ZM98.4947 43.2787C98.6149 44.1675 99.0518 45.7268 100.632 46.186C102.559 46.7485 103.939 44.6647 104.234 44.1723C103.385 43.5552 102.391 43.147 101.266 42.9607C98.5995 42.5181 96.5067 43.0818 94.8734 44.6849C95.0329 45.0041 95.846 46.4803 97.1709 46.1362C98.3042 45.8419 98.3376 44.0512 98.2983 43.2965L98.4947 43.2787Z" fill="#484848"/>
<path d="M105.547 49.2046C104.866 49.2046 104.149 48.9708 103.581 48.279C103.159 47.764 103.002 47.1648 102.988 46.575C102.284 46.9975 101.414 47.2336 100.41 46.9405C99.6374 46.7162 99.0827 46.2879 98.6851 45.793C98.3934 46.3697 97.9506 46.7459 97.3696 46.8966C95.6721 47.3368 94.5042 45.8084 94.1233 44.9398C94.0102 44.6811 94.0674 44.3797 94.2674 44.1792C96.0756 42.3708 98.4743 41.7003 101.397 42.1868C104.448 42.6923 106.631 44.6538 107.71 47.8578C107.734 47.9278 107.745 48.0025 107.745 48.0761C107.745 48.3146 107.623 48.5353 107.422 48.6599C106.999 48.9222 106.295 49.2034 105.549 49.2034L105.547 49.2046ZM104.611 45.2578C104.35 45.9817 104.209 46.8717 104.649 47.4092C105.091 47.948 105.741 47.8696 106.188 47.7213C105.787 46.7305 105.26 45.9081 104.611 45.2578ZM99.1148 43.4221C99.2541 44.1828 99.6541 45.2899 100.797 45.621C101.953 45.958 102.923 44.9707 103.412 44.3299C102.75 43.943 102.002 43.6808 101.169 43.5432C100.439 43.4221 99.7541 43.3806 99.116 43.4221H99.1148ZM95.6221 44.7998C95.8947 45.2021 96.3887 45.7301 97.022 45.5676C97.5363 45.4335 97.7148 44.5209 97.716 43.663C96.9423 43.8897 96.247 44.2682 95.6221 44.7986V44.7998Z" fill="#484848"/>
<g opacity="0.2">
<path d="M106.654 60.3671C105.322 64.963 102.886 69.3749 99.8291 72.0614C99.8291 72.0614 95.3316 73.0677 87.9224 68.9608C87.9224 68.9608 89.3449 67.7397 90.2485 59.7287C90.8008 54.8279 91.4449 49.0537 93.9198 45.6504C93.5686 53.4015 93.8233 73.0108 106.654 60.3683V60.3671Z" fill="#484848"/>
</g>
<path d="M62.6685 99.8436C62.2959 99.8436 61.9769 99.5636 61.9364 99.1862C61.8936 98.784 62.1864 98.422 62.59 98.3781C62.6304 98.3734 66.6208 97.8952 69.0064 94.2937C69.1564 94.0671 69.4219 93.9413 69.6909 93.9674C69.8266 93.9804 83.4214 95.1766 91.8318 88.7414C92.0663 88.5622 92.3865 88.5397 92.6448 88.6857C92.6758 88.7023 95.8388 90.4443 98.5327 89.1413C98.8994 88.9657 99.3398 89.1164 99.5172 89.4819C99.6946 89.8474 99.5422 90.2864 99.1756 90.4632C96.4173 91.7958 93.4591 90.6934 92.3579 90.1844C84.257 96.0938 72.436 95.6311 69.9873 95.4637C67.1946 99.3286 62.9328 99.8187 62.7471 99.8389C62.7209 99.8413 62.6947 99.8424 62.6685 99.8424V99.8436Z" fill="#484848"/>
<path d="M92.2794 90.0597C92.1544 90.0597 92.027 90.0277 91.9103 89.9601C91.558 89.756 91.4377 89.3062 91.6425 88.9562C94.4459 84.1372 94.021 75.457 94.0162 75.3691C93.9948 74.9645 94.3067 74.618 94.7138 74.5966C95.1257 74.5765 95.4673 74.8862 95.4888 75.2908C95.509 75.6646 95.9435 84.4932 92.9174 89.6931C92.7805 89.928 92.5329 90.0597 92.2794 90.0597Z" fill="#484848"/>
<path d="M69.6207 95.4318C69.5135 95.4318 69.4052 95.4081 69.3016 95.3594C62.0054 91.8683 61.3174 83.2011 61.2924 82.8332C61.2638 82.4286 61.5697 82.0773 61.9769 82.0489C62.3876 82.0192 62.7352 82.3253 62.7638 82.73C62.7721 82.8451 63.4411 90.9249 69.9409 94.0339C70.3075 94.2096 70.4623 94.6486 70.2861 95.0141C70.1599 95.2775 69.8956 95.4306 69.6207 95.4306V95.4318Z" fill="#484848"/>
<path d="M103.902 75.0184C98.7398 79.2678 89.127 72.1883 85.1605 71.2758C81.1916 70.3644 81.9047 73.5055 77.531 75.9393C73.1574 78.3731 72.1396 76.6489 68.6813 78.1713C65.2243 79.6914 65.5279 81.7206 57.1877 85.0657C48.8475 88.4109 42.4882 86.4221 42.4882 86.4221C40.7038 85.8916 39.43 84.9269 38.5741 83.8909C37.7229 82.8609 37.2849 81.7633 37.1658 80.954C37.0991 80.5031 37.1337 80.1412 37.2515 79.9335C37.5634 79.3841 38.8241 79.396 39.9871 79.5372C54.0164 82.6272 61.1554 74.1142 64.2077 72.1883C67.2588 70.2612 69.3944 71.5796 73.4645 70.3633C77.5322 69.1458 78.6512 64.1773 83.4332 63.9293C88.2128 63.6813 91.571 68.435 96.0458 69.0449C100.522 69.6536 101.308 68.1834 101.308 68.1834C102.137 68.0244 103.255 67.9829 104.182 68.5714C104.635 68.8574 105.043 69.2941 105.349 69.9384C105.368 69.9776 105.387 70.0168 105.405 70.0583C106.516 72.5882 105.276 74.1925 103.905 75.0173L103.902 75.0184Z" fill="#939393"/>
<g opacity="0.2">
<path d="M103.902 75.0179C98.7398 79.2673 89.1271 72.1878 85.1605 71.2753C81.1916 70.3639 81.9047 73.505 77.531 75.9388C73.1574 78.3726 72.1396 76.6484 68.6814 78.1708C65.2243 79.6909 65.5279 81.7201 57.1877 85.0652C48.8475 88.4103 42.4882 86.4215 42.4882 86.4215C40.7038 85.8911 39.43 84.9264 38.5741 83.8904C42.0311 84.8457 45.4108 85.0925 48.9821 84.8113C53.6557 84.4422 58.5508 83.004 62.3078 80.2059C64.841 78.3192 66.36 75.8747 69.4956 75.4653C70.3944 75.3466 72.1908 75.3561 73.0895 75.2469C75.2252 74.9871 77.2334 73.8871 78.8536 72.475C80.2226 71.2824 81.488 69.5689 83.2677 69.2022C85.601 68.7228 90.3865 71.5802 92.6876 72.5758C95.4602 73.7731 98.7838 74.7308 101.668 73.836C103.342 73.3175 104.625 71.9196 105.23 70.3058C105.276 70.1824 105.316 70.0601 105.347 69.9379C105.366 69.9771 105.385 70.0162 105.403 70.0578C106.513 72.5877 105.274 74.192 103.903 75.0167L103.902 75.0179Z" fill="#484848"/>
</g>
<g opacity="0.6">
<path d="M104.378 68.3753C102.787 70.1814 100.34 71.1889 97.9565 71.2791C94.6269 71.4048 91.4139 70.02 88.5866 68.265C86.8998 67.216 85.0677 65.97 83.1059 66.2999C81.2595 66.612 79.9667 68.2152 78.5429 69.4279C76.3751 71.2731 73.5633 72.3553 70.7134 72.4372C69.9694 72.4598 69.2183 72.417 68.485 72.5476C66.4291 72.9154 64.8898 74.5494 63.3209 75.9212C59.1389 79.5772 53.7498 81.8378 48.2023 82.2567C44.5382 82.5343 40.8181 82.0075 37.3634 80.7568C37.2968 80.3058 37.3313 79.9439 37.4492 79.7362C37.761 79.1868 39.0217 79.1987 40.1848 79.3399C54.214 82.4299 61.3531 73.917 64.4053 71.991C67.4564 70.0639 69.5921 71.3823 73.6621 70.166C77.7299 68.9485 78.8489 63.98 83.6308 63.732C88.4104 63.484 91.7686 68.2377 96.2435 68.8476C100.72 69.4564 101.505 67.9861 101.505 67.9861C102.335 67.8271 103.453 67.7856 104.38 68.3742L104.378 68.3753Z" fill="white"/>
</g>
<path d="M47.4131 87.7506C44.3406 87.7506 42.4121 87.1679 42.2668 87.1216C38.6384 86.0442 37.2349 83.4324 36.8004 82.3608C36.3373 81.2193 36.2659 80.1762 36.6087 79.571C37.0397 78.8128 38.1408 78.5707 40.0765 78.8069C40.1003 78.8104 40.1229 78.814 40.1455 78.8187C51.5665 81.3344 58.3127 75.9031 61.9376 72.9852C62.6602 72.4037 63.2851 71.9006 63.8137 71.5672C65.7077 70.3698 67.3064 70.3129 68.998 70.2524C70.2658 70.2073 71.5765 70.1598 73.2526 69.659C74.8728 69.1749 75.9966 67.9989 77.1858 66.7553C78.7882 65.0798 80.4441 63.3485 83.3951 63.1954C86.2546 63.0518 88.5783 64.5007 90.8294 65.9057C92.6055 67.0152 94.284 68.063 96.1459 68.3158C99.5957 68.7857 100.537 67.9503 100.666 67.8126C100.689 67.758 100.697 67.7628 100.747 67.7046C101.235 67.1362 101.989 66.8811 102.815 67.0045C104.149 67.2027 105.431 68.2861 106.079 69.7647C107.116 72.1261 106.462 74.3107 104.33 75.6183C100.224 78.9421 93.8483 75.9281 89.1878 73.7257C87.4819 72.9199 86.0081 72.2234 84.9951 71.9896C83.1094 71.5565 82.638 72.1225 81.6035 73.3637C80.8071 74.319 79.8179 75.5068 77.8906 76.5795C75.2835 78.0308 73.7229 78.0937 72.3455 78.1495C71.2849 78.1922 70.3694 78.2301 68.979 78.8413C67.76 79.3776 67.0541 79.9757 66.1588 80.7328C64.6339 82.0238 62.7364 83.6294 57.4615 85.7451C53.5391 87.3186 50.0535 87.7494 47.4131 87.7494V87.7506ZM37.8837 80.3174C37.8384 80.4919 37.848 81.1528 38.2908 82.0938C38.6717 82.9031 39.8646 84.8753 42.6978 85.7167C42.768 85.7392 48.9404 87.5797 56.9116 84.3829C61.9638 82.3561 63.7613 80.836 65.2041 79.6138C66.1505 78.8128 66.9683 78.121 68.3826 77.498C70.0289 76.7741 71.1753 76.7267 72.2848 76.6816C73.6145 76.627 74.8716 76.576 77.1715 75.2968C78.8596 74.3581 79.7143 73.3305 80.4691 72.4251C81.5881 71.0818 82.5559 69.9225 85.326 70.5585C86.495 70.8279 88.0343 71.5553 89.8187 72.3978C92.8377 73.8242 96.6375 75.6195 99.8053 75.6207C101.168 75.6207 102.415 75.2885 103.433 74.4507C103.461 74.4281 103.49 74.4068 103.521 74.3878C104.596 73.7411 105.676 72.5165 104.727 70.352C104.218 69.1915 103.266 68.5567 102.596 68.457C102.287 68.4107 102.053 68.4688 101.894 68.6279C101.583 69.0871 100.305 70.3639 95.9447 69.7718C93.7686 69.4751 91.8758 68.2932 90.0449 67.1505C87.8938 65.8072 85.8605 64.5387 83.4701 64.6621C81.1059 64.7843 79.7191 66.2332 78.2525 67.7687C76.9823 69.0966 75.6692 70.4695 73.6753 71.0664C71.817 71.6217 70.3468 71.674 69.0492 71.7202C67.4338 71.7784 66.1589 71.8235 64.6006 72.8072C64.1434 73.0956 63.5506 73.5738 62.8625 74.1267C59.7341 76.6448 54.3962 80.9416 45.9048 80.9416C44.0454 80.9416 42.0335 80.7351 39.861 80.2593C38.4241 80.0872 37.9753 80.2664 37.8825 80.3163L37.8837 80.3174Z" fill="#484848"/>
<g opacity="0.2">
<path d="M104.144 67.748C104.144 67.748 106.335 68.4755 107.32 70.8096C107.82 71.9927 108.717 72.9728 109.903 73.4748C110.957 73.9221 112.258 74.1583 113.499 73.54L112.12 74.5214L109.363 74.9142L106.606 74.3256L105.424 73.9328C105.424 73.9328 105.621 72.3617 105.621 72.1659C105.621 71.9701 105.281 69.776 105.156 69.6953C105.03 69.6146 104.144 67.7492 104.144 67.7492V67.748Z" fill="#484848"/>
</g>
<g opacity="0.2">
<path d="M103.918 75.4648C103.992 76.0926 104.033 76.7286 104.033 77.3706C104.033 89.8873 89.6521 100.033 71.9146 100.033C59.0055 100.033 47.8798 94.6611 42.7764 86.9112C48.9321 92.4219 59.1222 95.6971 70.6539 95.08C86.9641 94.2078 100.598 85.842 103.919 75.4648H103.918Z" fill="#484848"/>
</g>
<path d="M52.5689 59.4965C53.3664 60.0388 53.9152 60.8113 54.1843 61.6657C54.5533 62.8309 54.4021 64.1493 53.6569 65.2386C52.9748 66.2354 51.9332 66.8406 50.8225 67.0008C49.8332 67.142 48.7868 66.9296 47.8964 66.3232C46.006 65.0369 50.6796 58.2102 52.57 59.4965H52.5689Z" fill="#939393"/>
<path d="M54.1843 61.666C54.5533 62.8313 54.4021 64.1497 53.6569 65.239C52.9748 66.2358 51.9332 66.841 50.8225 67.0012C50.4523 65.8335 50.6046 64.5151 51.3498 63.4258C52.032 62.429 53.0736 61.8238 54.1855 61.666H54.1843Z" fill="#696969"/>
<path d="M54.4474 65.1884C54.37 65.3296 54.2855 65.4685 54.1926 65.6049C52.7034 67.7812 49.7142 68.3437 47.531 66.858C46.0882 65.8767 47.0322 63.4014 48.2786 61.5822C49.5249 59.7619 51.4927 57.9843 52.9343 58.9645C54.9819 60.3564 55.6057 63.0632 54.4474 65.1884ZM48.8071 63.1937C48.0655 64.5548 47.956 65.5824 48.2619 65.7901C49.8547 66.8735 52.0344 66.4629 53.1212 64.8752C54.2081 63.2874 53.7962 61.1147 52.2046 60.0313C51.8356 59.7809 50.5725 60.5261 49.3511 62.3096C49.1416 62.6146 48.9619 62.9113 48.8083 63.1925L48.8071 63.1937Z" fill="#484848"/>
</g>
<defs>
<clipPath id="clip0_840_13748">
<rect width="100" height="68.8073" fill="white" transform="translate(14 32)"/>
</clipPath>
</defs>
</svg>
