<svg width="14" height="14" viewBox="0 0 14 14" fill="none" xmlns="http://www.w3.org/2000/svg">
<path d="M1.53033 0.46967C1.23744 0.176777 0.762563 0.176777 0.46967 0.46967C0.176777 0.762563 0.176777 1.23744 0.46967 1.53033L1.53033 0.46967ZM12.4697 13.5303C12.7626 13.8232 13.2374 13.8232 13.5303 13.5303C13.8232 13.2374 13.8232 12.7626 13.5303 12.4697L12.4697 13.5303ZM0.46967 1.53033L12.4697 13.5303L13.5303 12.4697L1.53033 0.46967L0.46967 1.53033Z" fill="#1A1A1A"/>
<path d="M12.4697 0.46967C12.7626 0.176777 13.2374 0.176777 13.5303 0.46967C13.8232 0.762563 13.8232 1.23744 13.5303 1.53033L12.4697 0.46967ZM1.53033 13.5303C1.23744 13.8232 0.762563 13.8232 0.469669 13.5303C0.176776 13.2374 0.176776 12.7626 0.469669 12.4697L1.53033 13.5303ZM13.5303 1.53033L1.53033 13.5303L0.469669 12.4697L12.4697 0.46967L13.5303 1.53033Z" fill="#1A1A1A"/>
</svg>
