<svg width="235" height="114" viewBox="0 0 235 114" fill="none" xmlns="http://www.w3.org/2000/svg">
<path d="M55.9204 15.288H63.2081C65.5893 15.288 66.9602 17.3792 66.9602 19.5426C66.9602 21.7059 65.5893 23.7972 63.2081 23.7972H55.9204V35.2631C55.9204 37.6428 57.2914 38.6523 58.8066 38.6523C59.8168 38.6523 60.827 38.5081 61.8372 38.0754C63.5689 37.2822 65.6614 38.2918 66.5994 40.5273C67.5375 42.9791 66.4551 45.0703 64.7955 45.8636C62.8474 46.8731 60.4662 47.1616 58.4459 47.1616C50.2202 47.1616 46.3959 42.907 46.3959 36.2005V23.7972H44.3756C41.9944 23.7972 40.9121 21.7059 40.9121 19.5426C40.9121 17.3792 41.9944 15.288 44.3756 15.288H46.3959V9.66319C46.3959 6.7787 48.4163 5.12012 51.1582 5.12012C53.9001 5.12012 55.9204 6.85081 55.9204 9.66319V15.288Z" fill="black"/>
<path d="M102.966 30.8643C102.966 40.0225 95.8945 47.2337 86.6586 47.2337C77.4227 47.2337 70.2793 39.9504 70.2793 30.8643C70.2793 21.7781 77.4227 14.7832 86.6586 14.7832C95.8945 14.7832 102.966 21.8502 102.966 30.8643ZM79.8038 30.8643C79.8038 35.3352 82.69 38.7966 86.6586 38.7966C90.6271 38.7966 93.4412 35.3352 93.4412 30.8643C93.4412 26.3933 90.555 23.2203 86.6586 23.2203C82.7622 23.2203 79.8038 26.4654 79.8038 30.8643Z" fill="black"/>
<path d="M138.827 46.6567C129.374 46.6567 123.891 39.5897 123.891 30.8641C123.891 22.1385 129.302 15.2157 138.827 15.2157H144.744V4.6873C144.744 1.80281 146.764 0 149.506 0C152.248 0 154.268 1.80281 154.268 4.6873V40.3829C154.268 44.5654 152.031 46.7288 147.991 46.7288H138.755L138.827 46.6567ZM139.476 23.725C135.219 23.725 133.487 27.1863 133.487 30.8641C133.487 34.5418 135.219 38.1474 139.476 38.1474H144.744V23.725H139.476Z" fill="black"/>
<path d="M193.16 30.8643C193.16 40.0225 186.089 47.2337 176.853 47.2337C167.617 47.2337 160.474 39.9504 160.474 30.8643C160.474 21.7781 167.617 14.7832 176.853 14.7832C186.089 14.7832 193.16 21.8502 193.16 30.8643ZM169.998 30.8643C169.998 35.3352 172.884 38.7966 176.853 38.7966C180.821 38.7966 183.636 35.3352 183.636 30.8643C183.636 26.3933 180.749 23.2203 176.853 23.2203C172.957 23.2203 169.998 26.4654 169.998 30.8643Z" fill="black"/>
<path d="M57.147 97.3512C55.7038 98.9377 53.3227 99.6588 51.2302 98.7935C49.1377 97.9281 47.8389 95.7647 47.9111 93.6014L49.1377 69.7322C49.2099 67.5688 51.0859 65.6939 53.6835 66.0545C56.3532 66.3429 58.085 67.9294 57.8685 70.5254L56.4976 86.2459L66.1664 75.8617C67.6095 74.2753 69.4134 73.9147 71.1451 74.5637C72.8047 75.2848 73.8149 76.8713 73.7427 78.9626L73.3098 93.1687L83.4115 81.1259C85.0711 79.1068 87.4522 79.1068 89.5447 80.8375C91.5651 82.424 91.5651 85.02 90.0498 86.6065L74.1035 104.274C72.5882 105.933 70.2071 106.582 68.0424 105.644C65.9499 104.779 64.7233 102.688 64.7954 100.452L65.3005 88.4814L57.147 97.2791V97.3512Z" fill="black"/>
<path d="M108.161 109.034C107.944 111.774 105.78 113.216 103.182 113C100.584 112.783 98.7806 110.909 98.9971 108.168L101.09 85.5971C101.378 82.8568 103.471 81.4146 106.068 81.6309C108.666 81.8473 110.47 83.7222 110.253 86.3903L108.161 108.961V109.034ZM107.367 67.569C110.253 67.8575 112.49 70.4535 112.202 73.4101C111.913 76.2946 109.315 78.5301 106.357 78.2417C103.399 77.9532 101.234 75.3572 101.523 72.4006C101.811 69.5161 104.409 67.2806 107.367 67.569Z" fill="black"/>
<path d="M134.209 81.4863L141.136 80.621C143.373 80.3325 144.96 82.1354 145.249 84.2266C145.537 86.39 144.455 88.4812 142.218 88.7697L135.291 89.635L136.662 100.524C136.951 102.759 138.394 103.625 139.837 103.408C140.847 103.264 141.785 102.976 142.651 102.471C144.239 101.534 146.331 102.183 147.486 104.274C148.64 106.437 147.846 108.601 146.403 109.61C144.599 110.764 142.435 111.413 140.486 111.629C132.621 112.639 128.436 109.033 127.643 102.615L126.128 90.7888L124.179 91.0052C121.942 91.2936 120.644 89.4187 120.355 87.3274C120.066 85.1641 120.86 83.0728 123.169 82.7844L125.117 82.568L124.396 77.2317C124.035 74.4914 125.767 72.6165 128.436 72.256C131.106 71.8954 133.199 73.2655 133.56 76.0058L134.281 81.3421L134.209 81.4863Z" fill="black"/>
<path d="M189.047 90.9332C190.202 93.4571 189.047 95.7647 186.666 96.8464C184.213 97.9281 181.759 97.207 180.677 94.683L174.832 81.6307C173.75 79.1789 171.369 78.1693 168.988 79.251C166.607 80.3327 165.669 82.7845 166.751 85.0921L172.668 98.2886C173.822 100.813 172.668 103.12 170.287 104.202C167.906 105.284 165.38 104.562 164.298 102.038L149.289 68.4341C148.135 65.9102 149.289 63.6026 151.671 62.5209C154.052 61.4393 156.577 62.1604 157.659 64.6843L162.855 76.2223C163.36 73.9868 165.524 71.8955 168.05 70.7417C173.245 68.4341 179.45 69.2274 182.914 76.9434L189.191 90.9332H189.047Z" fill="black"/>
<path d="M209.828 81.3429C208.313 81.3429 206.942 80.4054 206.437 78.9632C205.787 77.0882 206.725 74.997 208.601 74.348C220.002 70.2376 226.784 65.2618 226.784 60.9351C226.784 56.6083 220.002 51.5605 208.601 47.5222C206.725 46.8732 205.787 44.7819 206.437 42.907C207.086 41.0321 209.179 40.0225 211.055 40.7436C226.279 46.2242 234.072 53.0027 234.072 61.0072C234.072 69.0117 226.352 75.7902 211.127 81.1986C210.694 81.3429 210.333 81.415 209.9 81.415L209.828 81.3429Z" fill="black"/>
<path d="M209.756 60.5026C208.096 60.5026 206.581 59.3488 206.22 57.6181L203.262 43.2678C202.973 41.8976 203.551 40.4554 204.705 39.5901L214.807 32.3788C216.466 31.225 218.703 31.5856 219.858 33.2442C221.012 34.8306 220.651 37.1382 218.992 38.292L210.766 44.1331L213.219 56.1759C213.652 58.1229 212.354 59.9978 210.405 60.4305C210.189 60.4305 209.9 60.5026 209.684 60.5026H209.756Z" fill="black"/>
<path d="M24.2442 72.6176C23.8113 72.6176 23.4505 72.6176 23.0176 72.4013C7.79279 66.9207 0 60.1422 0 52.1377C0 44.1333 7.72063 37.4268 22.9454 31.9463C24.8215 31.2973 26.914 32.2347 27.5634 34.1096C28.2128 35.9846 27.2747 38.0758 25.3987 38.7248C13.9981 42.8352 7.21554 47.811 7.21554 52.1377C7.21554 56.4645 13.9981 61.5123 25.3987 65.5506C27.2747 66.1996 28.2128 68.2909 27.5634 70.1658C27.0583 71.608 25.6152 72.5455 24.1721 72.5455L24.2442 72.6176Z" fill="black"/>
<path d="M17.0285 81.3436C15.874 81.3436 14.7917 80.8388 14.0701 79.8292C12.9157 78.2427 13.2764 75.9351 14.936 74.7813L23.1617 68.9403L20.7084 56.8975C20.2755 54.9505 21.5743 53.0755 23.5225 52.6429C25.3985 52.2823 27.4189 53.5082 27.7797 55.4552L30.738 69.8056C31.0267 71.1757 30.4494 72.618 29.2949 73.4833L19.1932 80.6946C18.5438 81.1272 17.8222 81.3436 17.1007 81.3436H17.0285Z" fill="black"/>
</svg>
