<svg width="30" height="30" viewBox="0 0 30 30" fill="none" xmlns="http://www.w3.org/2000/svg">
<circle cx="15.625" cy="15.625" r="12.625" stroke="#1A1A1A"/>
<path fill-rule="evenodd" clip-rule="evenodd" d="M17.9396 16.5861C18.7257 16.0825 19.7991 15.3948 20.1575 13.835C20.4375 12.6175 20.1775 11.4262 19.425 10.4813C18.5738 9.4125 17.1538 8.75 15.7175 8.75C14.5331 8.75134 13.3975 9.22241 12.56 10.06C11.7224 10.8975 11.2513 12.033 11.25 13.2175C11.25 13.5159 11.3685 13.802 11.5795 14.013C11.7905 14.224 12.0766 14.3425 12.375 14.3425C12.6734 14.3425 12.9595 14.224 13.1705 14.013C13.3815 13.802 13.5 13.5159 13.5 13.2175C13.5 11.995 14.495 10.9988 15.7175 10.9988C16.4738 10.9988 17.2375 11.3462 17.665 11.8825C17.9913 12.2925 18.0913 12.78 17.965 13.3313C17.8188 13.9663 17.44 14.235 16.725 14.6912L16.7228 14.6926C15.823 15.2688 14.5925 16.0566 14.5925 18.0613C14.5925 18.3596 14.711 18.6458 14.922 18.8567C15.133 19.0677 15.4191 19.1862 15.7175 19.1862C16.0159 19.1862 16.302 19.0677 16.513 18.8567C16.724 18.6458 16.8425 18.3596 16.8425 18.0613C16.8425 17.325 17.1238 17.1075 17.9375 16.5875L17.9396 16.5861ZM14.6768 23.0694C14.9582 23.3507 15.3397 23.5088 15.7375 23.5088C16.1353 23.5088 16.5169 23.3507 16.7982 23.0694C17.0795 22.7881 17.2375 22.4066 17.2375 22.0087C17.2375 21.6109 17.0795 21.2294 16.7982 20.9481C16.5169 20.6668 16.1353 20.5087 15.7375 20.5087C15.3397 20.5087 14.9582 20.6668 14.6768 20.9481C14.3955 21.2294 14.2375 21.6109 14.2375 22.0087C14.2375 22.4066 14.3955 22.7881 14.6768 23.0694Z" fill="#1A1A1A"/>
</svg>
