<svg width="24" height="24" viewBox="0 0 24 24" fill="none" xmlns="http://www.w3.org/2000/svg">
<circle cx="12.5" cy="12.5" r="10" fill="white" stroke="#D9D9D9"/>
<path fill-rule="evenodd" clip-rule="evenodd" d="M14.3517 13.2689C14.9806 12.866 15.8393 12.3159 16.126 11.068C16.35 10.094 16.142 9.14099 15.54 8.38501C14.859 7.53 13.723 7 12.574 7C11.6264 7.00107 10.718 7.37793 10.048 8.04797C9.37794 8.71799 9.00107 9.62643 9 10.574C9 10.8127 9.09482 11.0416 9.26361 11.2104C9.43239 11.3792 9.66132 11.474 9.90001 11.474C10.1387 11.474 10.3676 11.3792 10.5364 11.2104C10.7052 11.0416 10.8 10.8127 10.8 10.574C10.8 9.59601 11.596 8.79901 12.574 8.79901C13.179 8.79901 13.79 9.077 14.132 9.50601C14.393 9.83398 14.473 10.224 14.372 10.665C14.255 11.173 13.952 11.388 13.38 11.753L13.3783 11.7541C12.6584 12.215 11.674 12.8453 11.674 14.449C11.674 14.6877 11.7688 14.9166 11.9376 15.0854C12.1064 15.2542 12.3353 15.349 12.574 15.349C12.8127 15.349 13.0416 15.2542 13.2104 15.0854C13.3792 14.9166 13.474 14.6877 13.474 14.449C13.474 13.86 13.699 13.686 14.35 13.27L14.3517 13.2689ZM11.7415 18.4555C11.9665 18.6806 12.2717 18.807 12.59 18.807C12.9083 18.807 13.2135 18.6806 13.4385 18.4555C13.6636 18.2305 13.79 17.9253 13.79 17.607C13.79 17.2887 13.6636 16.9835 13.4385 16.7585C13.2135 16.5334 12.9083 16.407 12.59 16.407C12.2717 16.407 11.9665 16.5334 11.7415 16.7585C11.5164 16.9835 11.39 17.2887 11.39 17.607C11.39 17.9253 11.5164 18.2305 11.7415 18.4555Z" fill="#D9D9D9"/>
</svg>
