<svg width="21" height="21" viewBox="0 0 21 21" fill="none" xmlns="http://www.w3.org/2000/svg">
<circle cx="10.5" cy="10.5" r="10" stroke="#989898"/>
<path fill-rule="evenodd" clip-rule="evenodd" d="M12.3517 11.2689C12.9806 10.866 13.8393 10.3159 14.126 9.06799C14.35 8.09399 14.142 7.14099 13.54 6.38501C12.859 5.53 11.723 5 10.574 5C9.62645 5.00107 8.718 5.37793 8.04797 6.04797C7.37794 6.71799 7.00107 7.62643 7 8.57401C7 8.81268 7.09482 9.04163 7.26361 9.21039C7.43239 9.37918 7.66132 9.474 7.90001 9.474C8.1387 9.474 8.36761 9.37918 8.53639 9.21039C8.70518 9.04163 8.8 8.81268 8.8 8.57401C8.8 7.59601 9.59601 6.79901 10.574 6.79901C11.179 6.79901 11.79 7.077 12.132 7.50601C12.393 7.83398 12.473 8.224 12.372 8.66501C12.255 9.173 11.952 9.388 11.38 9.75299L11.3783 9.75409C10.6584 10.215 9.67401 10.8453 9.67401 12.449C9.67401 12.6877 9.76883 12.9166 9.93761 13.0854C10.1064 13.2542 10.3353 13.349 10.574 13.349C10.8127 13.349 11.0416 13.2542 11.2104 13.0854C11.3792 12.9166 11.474 12.6877 11.474 12.449C11.474 11.86 11.699 11.686 12.35 11.27L12.3517 11.2689ZM9.74147 16.4555C9.96652 16.6806 10.2717 16.807 10.59 16.807C10.9083 16.807 11.2135 16.6806 11.4385 16.4555C11.6636 16.2305 11.79 15.9253 11.79 15.607C11.79 15.2887 11.6636 14.9835 11.4385 14.7585C11.2135 14.5334 10.9083 14.407 10.59 14.407C10.2717 14.407 9.96652 14.5334 9.74147 14.7585C9.51643 14.9835 9.39 15.2887 9.39 15.607C9.39 15.9253 9.51643 16.2305 9.74147 16.4555Z" fill="#989898"/>
</svg>
