<svg width="112" height="55" viewBox="0 0 112 55" fill="none" xmlns="http://www.w3.org/2000/svg">
<g clip-path="url(#clip0_1068_21887)">
<path d="M26.7646 7.45162H30.2329C31.3686 7.45162 32.0131 8.48054 32.0131 9.54063C32.0131 10.6007 31.3686 11.6296 30.2329 11.6296H26.7646V17.1795C26.7646 18.3331 27.4091 18.832 28.1458 18.832C28.6369 18.832 29.128 18.7385 29.5884 18.5514C30.4171 18.1772 31.43 18.6449 31.8597 19.7674C32.3201 20.9522 31.7676 21.9499 31.0003 22.3553C30.0488 22.8229 28.9131 23.01 27.9616 23.01C24.0329 23.01 22.1913 20.9522 22.1913 17.6472V11.6296H21.2091C20.0734 11.6296 19.5517 10.6007 19.5517 9.54063C19.5517 8.48054 20.0734 7.45162 21.2091 7.45162H22.1913V4.70786C22.1913 3.3048 23.1735 2.49414 24.4933 2.49414C25.8131 2.49414 26.7953 3.33598 26.7953 4.70786V7.45162H26.7646Z" fill="black"/>
<path d="M49.2935 14.9974C49.2935 19.4248 45.8865 22.9792 41.4667 22.9792C37.0468 22.9792 33.6092 19.456 33.6092 14.9974C33.6092 10.5387 37.0468 7.17139 41.4667 7.17139C45.8865 7.17139 49.2935 10.6011 49.2935 14.9974ZM38.2132 14.9974C38.2132 17.1487 39.5944 18.8636 41.4667 18.8636C43.339 18.8636 44.7202 17.1799 44.7202 14.9974C44.7202 12.8148 43.339 11.287 41.4667 11.287C39.5944 11.287 38.2132 12.8772 38.2132 14.9974Z" fill="black"/>
<path d="M66.4511 22.7296C61.9085 22.7296 59.2995 19.2999 59.2995 15.0595C59.2995 10.8192 61.9085 7.45181 66.4511 7.45181H69.3056V2.27608C69.3056 0.873016 70.2877 0 71.6076 0C72.9274 0 73.9096 0.873016 73.9096 2.27608V19.6429C73.9096 21.6695 72.866 22.7296 70.9016 22.7296H66.4818H66.4511ZM66.758 11.5675C64.7016 11.5675 63.8728 13.2511 63.8728 15.0595C63.8728 16.8679 64.7016 18.6139 66.758 18.6139H69.2749V11.5675H66.758Z" fill="black"/>
<path d="M92.4483 14.9974C92.4483 19.4248 89.0414 22.9792 84.6215 22.9792C80.2017 22.9792 76.764 19.456 76.764 14.9974C76.764 10.5387 80.2017 7.17139 84.6215 7.17139C89.0414 7.17139 92.4483 10.6011 92.4483 14.9974ZM81.368 14.9974C81.368 17.1487 82.7492 18.8636 84.6215 18.8636C86.4938 18.8636 87.8443 17.1799 87.8443 14.9974C87.8443 12.8148 86.4631 11.287 84.6215 11.287C82.7799 11.287 81.368 12.8772 81.368 14.9974Z" fill="black"/>
<path d="M27.3785 47.3612C26.6725 48.1406 25.5369 48.4836 24.5547 48.0471C23.5725 47.6106 22.9279 46.5817 22.9893 45.5216L23.5725 33.923C23.6032 32.8941 24.4933 31.9899 25.721 32.1146C27.0101 32.2705 27.8082 33.0188 27.7161 34.2971L27.0408 41.9672L31.6755 36.9162C32.3815 36.1367 33.2409 35.9496 34.0389 36.2926C34.8369 36.6356 35.2973 37.415 35.2666 38.4439L35.0518 45.3657L39.9013 39.504C40.6994 38.5375 41.835 38.5375 42.8479 39.3481C43.8301 40.1276 43.7994 41.3748 43.0934 42.1543L35.4508 50.7597C34.7449 51.5704 33.6092 51.8821 32.5656 51.4456C31.5528 51.0091 30.9696 49.9802 31.031 48.9201L31.2765 43.0896L27.3785 47.3612Z" fill="black"/>
<path d="M51.749 53.0672C51.6262 54.4079 50.6133 55.0938 49.3549 55.0003C48.0965 54.8755 47.2371 54.0025 47.3598 52.6618L48.342 41.6868C48.4648 40.3461 49.4777 39.6601 50.7361 39.7537C51.9945 39.8472 52.8539 40.7514 52.7312 42.0921L51.749 53.0672ZM51.35 32.8942C52.7312 33.019 53.8054 34.2973 53.652 35.7315C53.5292 37.1346 52.2708 38.2259 50.8589 38.07C49.447 37.9141 48.4034 36.6669 48.5569 35.2327C48.6796 33.8296 49.9381 32.7384 51.35 32.8942Z" fill="black"/>
<path d="M64.2412 39.6599L67.556 39.2234C68.6303 39.0987 69.3976 39.9717 69.5204 41.0006C69.6432 42.0607 69.1521 43.0896 68.0471 43.2143L64.7323 43.6509L65.4075 48.9513C65.5303 50.0426 66.2362 50.4479 66.9422 50.3544C67.4333 50.292 67.863 50.1673 68.2927 49.8867C69.06 49.419 70.0729 49.762 70.5947 50.7597C71.1779 51.8198 70.7788 52.8487 70.0729 53.3476C69.2135 53.94 68.1699 54.2206 67.2184 54.3453C63.4738 54.8442 61.4481 53.0981 61.0797 49.949L60.3431 44.2121L59.4223 44.3368C58.348 44.4927 57.7035 43.5573 57.5807 42.5596C57.4579 41.4995 57.8263 40.5018 58.9005 40.3459L59.8213 40.2211L59.4837 37.6021C59.3302 36.2614 60.1589 35.3572 61.4174 35.2013C62.6758 35.0454 63.7194 35.7002 63.8728 37.0409L64.2105 39.6599H64.2412Z" fill="black"/>
<path d="M90.5147 44.2432C91.0671 45.4592 90.5147 46.5817 89.3483 47.1117C88.182 47.6418 87.0156 47.2988 86.4631 46.0828L83.6701 39.7223C83.1483 38.5375 82.0126 38.0386 80.8463 38.5686C79.7106 39.0675 79.2502 40.2835 79.772 41.4059L82.5958 47.8288C83.1483 49.0448 82.5958 50.1673 81.4294 50.6973C80.2631 51.2274 79.0967 50.8844 78.5443 49.6684L71.3313 33.3305C70.7788 32.1146 71.3313 30.9921 72.4977 30.4621C73.664 29.932 74.8304 30.275 75.3828 31.491L77.869 37.1032C78.1146 36.0119 79.1274 35.0142 80.3552 34.453C82.8413 33.3305 85.8186 33.7047 87.476 37.4774L90.4533 44.2744L90.5147 44.2432Z" fill="black"/>
<path d="M100.429 39.5661C99.7227 39.5661 99.0474 39.1296 98.8018 38.4125C98.4949 37.5083 98.9553 36.5106 99.8454 36.1676C105.309 34.1721 108.562 31.7402 108.562 29.62C108.562 27.4998 105.309 25.0678 99.8454 23.0724C98.9553 22.7606 98.4949 21.7317 98.8018 20.8275C99.1395 19.9233 100.122 19.4556 101.012 19.7674C108.317 22.4176 112.031 25.7538 112.031 29.62C112.031 33.4862 108.317 36.7912 101.042 39.4726C100.858 39.535 100.643 39.5661 100.459 39.5661H100.429Z" fill="black"/>
<path d="M100.429 29.433C99.6306 29.433 98.9246 28.8718 98.7405 28.03L97.3286 21.077C97.1751 20.3911 97.4514 19.7052 98.0038 19.2998L102.853 15.7766C103.621 15.2154 104.695 15.4024 105.278 16.1819C105.831 16.9614 105.646 18.0527 104.879 18.6139L100.95 21.4824L102.147 27.344C102.332 28.2794 101.748 29.2148 100.797 29.4019C100.674 29.4019 100.551 29.433 100.429 29.433Z" fill="black"/>
<path d="M11.6021 35.3259C11.4179 35.3259 11.2031 35.2947 11.0189 35.2324C3.71389 32.5821 0 29.246 0 25.3798C0 21.5135 3.71389 18.2086 10.9882 15.5271C11.8783 15.2154 12.8605 15.683 13.1981 16.5872C13.5051 17.4914 13.0447 18.4892 12.1546 18.8321C6.69115 20.8276 3.43765 23.2596 3.43765 25.3798C3.43765 27.4999 6.69115 29.9319 12.1546 31.9274C13.0447 32.2392 13.5051 33.2681 13.1981 34.1723C12.9526 34.8894 12.2773 35.3259 11.5714 35.3259H11.6021Z" fill="black"/>
<path d="M8.16442 39.5661C7.64264 39.5661 7.09016 39.3167 6.75253 38.8178C6.20005 38.0384 6.38421 36.9471 7.15154 36.3859L11.0803 33.5174L9.88325 27.6557C9.69909 26.7203 10.2823 25.785 11.2338 25.5979C12.1546 25.4108 13.0754 26.0032 13.2595 26.9698L14.6714 33.9539C14.8249 34.6398 14.5486 35.3258 13.9962 35.7311L9.14661 39.2543C8.83968 39.4726 8.50205 39.5661 8.13373 39.5661H8.16442Z" fill="black"/>
</g>
<defs>
<clipPath id="clip0_1068_21887">
<rect width="112" height="55" fill="white"/>
</clipPath>
</defs>
</svg>
