<svg width="48" height="48" viewBox="0 0 48 48" fill="none" xmlns="http://www.w3.org/2000/svg">
<path d="M7.73842 42.4489C5.08457 42.1905 3.37638 39.9197 4.21478 37.3603C5.21885 34.2953 7.17176 29.4858 10.9702 22.3721C15.0598 14.713 18.4364 9.72491 20.7268 6.70929C22.4577 4.43023 25.5423 4.43024 27.2732 6.70929C29.5636 9.72491 32.9402 14.713 37.0298 22.3721C40.8282 29.4858 42.7812 34.2953 43.7852 37.3603C44.6236 39.9197 42.9154 42.1905 40.2616 42.4489C36.6791 42.7976 31.1171 43.1818 24 43.1818C16.8829 43.1818 11.3209 42.7976 7.73842 42.4489Z" fill="#FFD0A5"/>
<path d="M21.9811 14.3588C20.8889 14.6706 20.4018 15.7908 20.4763 16.9242C20.648 19.5375 20.9949 24.3588 21.3688 26.9472C21.4794 27.713 21.9235 28.3815 22.6837 28.5249C23.0259 28.5894 23.4593 28.6353 23.9999 28.6353C24.5404 28.6353 24.9739 28.5894 25.3161 28.5249C26.0763 28.3815 26.5204 27.713 26.631 26.9472C27.0049 24.3588 27.3517 19.5375 27.5235 16.9242C27.598 15.7908 27.1109 14.6706 26.0187 14.3588C25.4802 14.2051 24.8073 14.0898 23.9999 14.0898C23.1925 14.0898 22.5196 14.2051 21.9811 14.3588Z" fill="#FF8D24"/>
<path d="M23.9999 38.6353C26.0082 38.6353 27.6363 37.0072 27.6363 34.9989C27.6363 32.9906 26.0082 31.3626 23.9999 31.3626C21.9916 31.3626 20.3635 32.9906 20.3635 34.9989C20.3635 37.0072 21.9916 38.6353 23.9999 38.6353Z" fill="#FF8D24"/>
</svg>
