<svg width="48" height="48" viewBox="0 0 48 48" fill="none" xmlns="http://www.w3.org/2000/svg">
<circle cx="24" cy="24" r="20" fill="#B7ECD2"/>
<path fill-rule="evenodd" clip-rule="evenodd" d="M33.7553 16.0085C34.5325 16.6101 34.759 17.7611 34.2648 18.6482C30.4307 25.5306 26.942 30.1099 24.8805 32.5611C23.7716 33.8794 21.9887 34.0486 20.7313 32.8982C18.9363 31.2559 16.2981 28.4677 13.7734 24.4065C13.2976 23.6411 13.4007 22.6206 13.9937 21.9588L15.5138 20.2621C16.2215 19.4722 17.385 19.4505 18.0987 20.2339C20.6124 22.9932 22.562 25.4951 22.562 25.4951C22.562 25.4951 25.4267 20.8477 29.8753 15.2129C30.4902 14.434 31.551 14.3023 32.3201 14.8977L33.7553 16.0085Z" fill="#4ACC8E"/>
</svg>
