<svg width="48" height="48" viewBox="0 0 48 48" fill="none" xmlns="http://www.w3.org/2000/svg">
<path d="M37.5029 7.49087C39.2287 7.66409 40.5821 8.80641 40.9206 10.5075C41.4217 13.0254 42 17.6351 42 25.5C42 33.3649 41.4216 37.9746 40.9206 40.4925C40.5821 42.1936 39.2287 43.3359 37.5029 43.5091C35.1547 43.7448 30.9968 44 24 44C17.0032 44 12.8453 43.7448 10.4971 43.5091C8.77133 43.3359 7.41789 42.1936 7.07939 40.4925C6.57835 37.9746 6 33.3649 6 25.5C6 17.6351 6.57835 13.0254 7.07939 10.5075C7.4179 8.80642 8.77133 7.66409 10.4971 7.49087C12.8453 7.25519 17.0032 7 24 7C30.9968 7 35.1547 7.25519 37.5029 7.49087Z" fill="#DDDDDD"/>
<path d="M18.6677 18.3863C18.0816 17.8498 17.1821 17.8766 16.6203 18.4385L15.4385 19.6203C14.8766 20.1821 14.8498 21.0816 15.3863 21.6677C16.4067 22.7823 18.19 24.7008 20.4388 27C18.1901 29.2991 16.4069 31.2175 15.3865 32.3321C14.85 32.9182 14.8768 33.8177 15.4386 34.3795L16.6205 35.5614C17.1823 36.1232 18.0818 36.15 18.6679 35.6135C19.7825 34.5931 21.7009 32.8099 24 30.5612C26.2991 32.8099 28.2175 34.5931 29.3321 35.6135C29.9182 36.15 30.8177 36.1232 31.3795 35.5614L32.5614 34.3795C33.1232 33.8177 33.15 32.9182 32.6135 32.3321C31.5931 31.2175 29.8099 29.2991 27.5612 27C29.81 24.7008 31.5933 22.7823 32.6136 21.6677C33.1502 21.0816 33.1234 20.1821 32.5615 19.6203L31.3797 18.4385C30.8179 17.8766 29.9184 17.8498 29.3323 18.3863C28.2177 19.4067 26.2992 21.19 24 23.4388C21.7008 21.19 19.7823 19.4067 18.6677 18.3863Z" fill="#989898"/>
<path fill-rule="evenodd" clip-rule="evenodd" d="M29.1103 5.04889C30.86 5.08452 32.1801 6.62908 31.9751 8.36711L31.741 10.3515C31.5629 11.862 30.2826 13.0001 28.7617 13.0001H19.2344C17.7135 13.0001 16.4332 11.862 16.2551 10.3515L16.021 8.36712C15.816 6.6291 17.1361 5.08454 18.8858 5.0489C20.4061 5.01794 22.1043 5 23.9984 5C25.8923 5 27.5902 5.01794 29.1103 5.04889Z" fill="#989898"/>
</svg>
