<svg width="20" height="22" viewBox="0 0 20 22" fill="none" xmlns="http://www.w3.org/2000/svg">
<path d="M17.1716 6.65687C15.8789 4.95858 14.0146 3.66704 11.9299 3.20937C9.84527 2.7517 7.66581 3.04977 5.78059 4.05039C3.89538 5.051 2.42712 6.68901 1.63791 8.67204C0.848695 10.6551 0.789901 12.854 1.47202 14.8764C2.15414 16.8988 3.53277 18.6129 5.36182 19.7128C7.19088 20.8127 9.35129 21.2268 11.4574 20.8812C13.5636 20.5356 15.4783 19.4527 16.8599 17.826C18.2415 16.1992 19 14.1343 19 12M17.1716 6.65687L17.5 1.5M17.1716 6.65687L12.25 7.5" stroke="#1A1A1A" stroke-width="2" stroke-linecap="round" stroke-linejoin="round"/>
</svg>
