<svg width="40" height="40" viewBox="0 0 40 40" fill="none" xmlns="http://www.w3.org/2000/svg">
<g clip-path="url(#clip0_766_12010)">
<circle cx="19.8207" cy="20.0208" r="16" transform="rotate(-15 19.8207 20.0208)" stroke="#FF534E" stroke-width="2"/>
<circle cx="19.8206" cy="20.0205" r="12.5" transform="rotate(-15 19.8206 20.0205)" stroke="#FF534E"/>
<path d="M17.0647 21.401L16.8525 20.609C16.3641 20.9883 15.4118 21.3367 14.3203 21.6291L14.0563 20.6439C15.2397 20.1922 15.8557 19.3231 15.6021 18.3765C15.32 17.3237 14.1362 16.8851 12.6486 17.2837C11.1708 17.6797 10.3648 18.6514 10.6469 19.7043C10.9005 20.6509 11.8589 21.0981 13.1097 20.8975L13.3737 21.8828L11.0941 22.4936L11.3089 23.2953L14.4192 22.4619C15.5976 22.1461 16.6053 21.7726 17.0647 21.401ZM17.9899 18.2854L17.3817 16.0155L16.4254 16.2717L18.1077 22.5502L19.064 22.294L18.2306 19.1837L19.3704 18.8783L19.1297 17.98L17.9899 18.2854ZM11.5839 19.4532C11.4208 18.8447 11.9039 18.2908 12.8505 18.0371C13.7971 17.7835 14.5021 18.019 14.6652 18.6276C14.8282 19.2361 14.3355 19.7926 13.3888 20.0462C12.4422 20.2999 11.7469 20.0617 11.5839 19.4532ZM13.0349 23.5161L12.0689 23.7749L12.6668 26.0062L19.7857 24.0987L19.5631 23.268L13.4101 24.9167L13.0349 23.5161ZM27.2403 20.8589L26.8107 19.2555L28.4527 18.8155L28.225 17.9655L21.9078 19.6582L21.5636 18.3735L27.7552 16.7144L26.9658 13.7684L19.8179 15.6836L20.0457 16.5336L26.2469 14.872L26.5886 16.147L20.3873 17.8087L21.1793 20.7644L22.6862 20.3606L23.1158 21.9641L21.0584 22.5154L21.2913 23.3847L29.5307 21.177L29.2977 20.3076L27.2403 20.8589ZM23.6424 20.1044L25.8544 19.5117L26.284 21.1152L24.0721 21.7078L23.6424 20.1044Z" fill="#FF534E"/>
</g>
<defs>
<clipPath id="clip0_766_12010">
<rect width="40" height="40" fill="white"/>
</clipPath>
</defs>
</svg>
