<svg width="45" height="45" viewBox="0 0 45 45" fill="none" xmlns="http://www.w3.org/2000/svg">
<circle cx="22.5" cy="22.5" r="22" fill="white" stroke="#DDDDDD"/>
<path fill-rule="evenodd" clip-rule="evenodd" d="M31.4393 23.5607C32.0251 24.1464 32.9749 24.1464 33.5607 23.5607C34.1464 22.9749 34.1464 22.0251 33.5607 21.4393L23.5607 11.4393C23.2794 11.158 22.8978 11 22.5 11C22.1022 11 21.7206 11.158 21.4393 11.4393L11.4393 21.4393C10.8536 22.0251 10.8536 22.9749 11.4393 23.5607C12.0251 24.1464 12.9749 24.1464 13.5607 23.5607L21 16.1213V32C21 32.8284 21.6716 33.5 22.5 33.5C23.3284 33.5 24 32.8284 24 32V16.1213L31.4393 23.5607Z" fill="#C5C5C5"/>
</svg>
