<svg width="48" height="48" viewBox="0 0 48 48" fill="none" xmlns="http://www.w3.org/2000/svg">
<path d="M21.7082 4.05967C22.803 3.74563 23.7409 4.71753 23.8097 5.88832C23.9528 8.32338 24.4418 11.0057 25.734 12.8017C26.4059 13.7356 27.6986 13.9587 28.5033 13.1442C29.3225 12.3151 29.9636 11.057 30.4602 9.69817C30.9529 8.34969 32.5252 7.71105 33.6258 8.59783C38.7474 12.7243 44 19.0196 44 27.4838C44 38.8859 35.0457 44 24 44C12.9543 44 4 38.8859 4 27.4838C4 15.8992 13.8394 8.37737 19.7154 4.91828C20.3539 4.54242 21.023 4.25622 21.7082 4.05967Z" fill="#FFA599"/>
<path d="M24.7232 23.1866C24.2638 22.9378 23.7362 22.9378 23.2768 23.1866C21.4881 24.1552 17 27.0696 17 31.93C17 36.1205 20.134 38 24 38C27.866 38 31 36.1205 31 31.93C31 27.0696 26.512 24.1552 24.7232 23.1866Z" fill="#F96466"/>
</svg>
