<svg width="70" height="70" viewBox="0 0 70 70" fill="none" xmlns="http://www.w3.org/2000/svg">
<path d="M18.0782 26.1658C18.2703 25.151 19.1895 24.412 20.2589 24.412H49.7411C50.8105 24.412 51.7297 25.151 51.9218 26.1659C54.5501 40.0553 55 47.0001 55 47.0001C55 47.0001 55 48.0267 54.9305 49.5438C54.796 52.4831 52.3868 54.7095 49.3388 54.8113C46.3363 54.9115 41.7688 55 35 55C28.2312 55 23.6637 54.9115 20.6612 54.8113C17.6132 54.7095 15.204 52.4831 15.0695 49.5438C15 48.0267 15 47.0001 15 47.0001C15 47.0001 15.4499 40.0553 18.0782 26.1658Z" fill="#FE9183"/>
<path fill-rule="evenodd" clip-rule="evenodd" d="M25.2439 24.4117C25.2439 19.2138 29.6118 15 35 15C40.3881 15 44.7561 19.2138 44.7561 24.4117V28.1764C44.7561 29.216 43.8825 30.0587 42.8049 30.0587C41.7272 30.0587 40.8536 29.216 40.8536 28.1764V24.4117C40.8536 21.2929 38.2329 18.7647 35 18.7647C31.7671 18.7647 29.1463 21.2929 29.1463 24.4117V28.1764C29.1463 29.216 28.2727 30.0587 27.1951 30.0587C26.1175 30.0587 25.2439 29.216 25.2439 28.1764V24.4117Z" fill="#F46062"/>
<path d="M55 47.0001C55 47.0179 54.9994 48.04 54.9305 49.5438C54.796 52.4831 52.3868 54.7095 49.3388 54.8113C46.3363 54.9115 41.7688 55 35 55C28.2312 55 23.6637 54.9115 20.6612 54.8113C17.6132 54.7095 15.204 52.4831 15.0695 49.5438C15.0006 48.04 15 47.0179 15 47.0001H55Z" fill="#F46062"/>
</svg>
