<svg width="70" height="70" viewBox="0 0 70 70" fill="none" xmlns="http://www.w3.org/2000/svg">
<path d="M23.2745 25.7186C25.132 25.1377 38.61 25.8868 38.61 25.8868L41.0651 25.2123L43.57 25.992V13.1475C43.57 11.4092 45.2333 10 47.285 10C49.3367 10 51 11.4092 51 13.1475V36.5289C51 36.5397 50.9968 36.5496 50.9968 36.5613C50.9894 38.2771 50.8853 40.0937 50.5308 42.1126C50.0447 44.8851 48.0546 47.8455 46.7278 49.1009C45.401 50.3563 45.644 52.0614 45.644 52.0614L45.6642 56.7629H25.5248V52.3042C25.5248 51.6297 25.5364 50.9013 25.0057 50.2268C24.475 49.5524 24.112 49.1234 22.2099 46.7628C19.6445 42.9408 19.2104 38.7115 19.0108 33.2402C18.8113 27.769 21.4171 26.2996 23.2745 25.7186Z" fill="#FFD6B8"/>
<path d="M37.1919 30.7188C37.1919 32.5828 38.8108 34.0938 40.808 34.0938H41.0758C43.073 34.0938 44.6919 32.5828 44.6919 30.7188V21.4688C44.6919 19.6048 43.073 18.0938 41.0758 18.0938H40.808C38.8108 18.0938 37.1919 19.6048 37.1919 21.4688V30.7188Z" fill="#FAC49C"/>
<path d="M30.2739 30.7188C30.2739 32.5828 31.8929 34.0938 33.89 34.0938H34.1579C36.155 34.0938 37.7739 32.5828 37.7739 30.7188V21.4688C37.7739 19.6048 36.155 18.0938 34.1579 18.0938H33.89C31.8929 18.0938 30.2739 19.6048 30.2739 21.4688V30.7188Z" fill="#F3BB92"/>
<path d="M23.356 30.7188C23.356 32.5828 24.9749 34.0938 26.972 34.0938H27.2399C29.237 34.0938 30.856 32.5828 30.856 30.7188V21.4688C30.856 19.6048 29.237 18.0938 27.2399 18.0938H26.972C24.9749 18.0938 23.356 19.6048 23.356 21.4688V30.7188Z" fill="#E6B18B"/>
<path fill-rule="evenodd" clip-rule="evenodd" d="M26.0458 33.702C26.2105 33.1748 26.7714 32.8811 27.2985 33.0458C30.1464 33.9357 36.3218 37.3767 38.4547 44.202C38.6195 44.7291 38.3257 45.29 37.7985 45.4547C37.2714 45.6195 36.7105 45.3257 36.5458 44.7985C34.6787 38.8238 29.1875 35.7315 26.702 34.9547C26.1748 34.79 25.8811 34.2291 26.0458 33.702Z" fill="#F3BB92"/>
<path d="M29.4192 25.5596C30.6377 25.5614 31.8552 25.5893 33.0779 25.6352C33.6702 25.6576 34.2635 25.681 34.8558 25.7071C35.3727 25.7287 35.861 25.7053 36.311 25.958C37.1198 26.4121 37.4149 27.253 37.2716 28.0363C37.2037 28.4122 37.0498 28.7782 36.8693 29.1244C35.741 31.2881 33.8008 31.8429 31.0485 32.3213C29.9807 32.5066 28.9129 32.7593 27.8419 32.9194C27.3261 32.9958 27.3229 33.3106 27.3749 33.6955C27.4142 33.9778 27.4832 34.2638 27.5702 34.5381C27.7421 35.0759 28.171 35.5768 28.6263 35.9689C29.0806 36.3609 29.9735 37.1808 30.5 37.5C33.5187 39.3264 34.4057 40.9424 35.5 43.5C36.3491 45.4847 27.9916 47.8187 24.0335 49.0184C23.6429 48.5364 23.0984 47.8655 22.2121 46.7648C19.6467 42.9428 19.2125 38.7135 19.013 33.2422C18.8134 27.771 21.4182 26.3006 23.2757 25.7206C23.3574 25.6954 23.4699 25.6729 23.5952 25.6522C25.1438 25.6334 26.4164 25.6145 26.9185 25.5983C27.7538 25.5695 28.587 25.5587 29.4192 25.5596Z" fill="#FFD6B8"/>
<path d="M22.6209 58.1152C22.6209 59.1556 23.475 59.9999 24.5275 59.9999H46.2323C47.2848 59.9999 48.1389 59.1556 48.1389 58.1152V55.2881C48.1389 54.2477 47.2848 53.4033 46.2323 53.4033H24.5275C23.475 53.4033 22.6209 54.2477 22.6209 55.2881V58.1152Z" fill="#F89C48"/>
</svg>
