<svg width="70" height="70" viewBox="0 0 70 70" fill="none" xmlns="http://www.w3.org/2000/svg">
<path d="M24.8261 19H21.4348C20.1861 19 19.1739 20.1365 19.1739 21.5385V49.4615C19.1739 50.8635 20.1861 52 21.4348 52H24.8261C26.0747 52 27.087 50.8635 27.087 49.4615V21.5385C27.087 20.1365 26.0747 19 24.8261 19Z" fill="#AECFFF"/>
<path d="M48.5652 19H45.1739C43.9253 19 42.913 20.1365 42.913 21.5385V49.4615C42.913 50.8635 43.9253 52 45.1739 52H48.5652C49.8139 52 50.8261 50.8635 50.8261 49.4615V21.5385C50.8261 20.1365 49.8139 19 48.5652 19Z" fill="#AECFFF"/>
<path d="M50.8261 46.9231H54.2174C54.817 46.9231 55.3921 46.6556 55.8161 46.1796C56.2401 45.7035 56.4783 45.0579 56.4783 44.3846V26.6154C56.4783 25.9421 56.2401 25.2965 55.8161 24.8204C55.3921 24.3444 54.817 24.0769 54.2174 24.0769H50.8261V46.9231Z" fill="#3E83EC"/>
<path d="M19.1739 46.9231H15.7826C15.183 46.9231 14.6079 46.6556 14.1839 46.1796C13.7599 45.7035 13.5217 45.0579 13.5217 44.3846V26.6154C13.5217 25.9421 13.7599 25.2965 14.1839 24.8204C14.6079 24.3444 15.183 24.0769 15.7826 24.0769H19.1739V46.9231Z" fill="#3E83EC"/>
<path d="M42.913 31.6923H27.087V39.3077H42.913V31.6923Z" fill="#E4E4E4"/>
<path d="M56.4783 29.1538L59.7497 30.9904C60.1254 31.2012 60.4413 31.5253 60.6622 31.9263C60.883 32.3274 61 32.7896 61 33.2611V37.7389C61 38.2104 60.883 38.6726 60.6622 39.0737C60.4413 39.4747 60.1254 39.7988 59.7497 40.0096L56.4783 41.8462V29.1538Z" fill="#E4E4E4"/>
<path d="M13.5217 41.8462L10.2503 40.0096C9.8746 39.7988 9.55865 39.4747 9.33782 39.0737C9.11699 38.6726 9.00001 38.2104 9 37.7389V33.2611C9.00001 32.7896 9.11699 32.3274 9.33782 31.9263C9.55865 31.5253 9.8746 31.2012 10.2503 30.9904L13.5217 29.1538V41.8462Z" fill="#E4E4E4"/>
</svg>
