<svg width="70" height="70" viewBox="0 0 70 70" fill="none" xmlns="http://www.w3.org/2000/svg">
<path d="M18.9187 16.3006C17.2926 16.5121 16.2273 17.7803 16.1278 19.4178C16.0568 20.5886 16 22.2446 16 24.55C16 25.1382 16.0037 25.6837 16.0104 26.1893C16.0188 26.8285 16.032 27.4046 16.0485 27.9232C16.0596 28.2721 16.0724 28.5949 16.086 28.8927C16.099 29.1775 16.1132 29.4401 16.1278 29.6822C16.2273 31.3197 17.2926 32.5879 18.9187 32.7994C20.1741 32.9636 21.9885 33.1 24.55 33.1C27.1115 33.1 28.9259 32.9636 30.1813 32.7994C31.8074 32.5879 32.8727 31.3197 32.9722 29.6822C33.0432 28.5114 33.1 26.8554 33.1 24.55C33.1 23.5035 33.0884 22.5906 33.0689 21.7965C33.0455 20.8409 33.0109 20.057 32.9722 19.4178C32.8727 17.7803 31.8074 16.5121 30.1813 16.3006C28.9259 16.1364 27.1115 16 24.55 16C21.9885 16 20.1741 16.1364 18.9187 16.3006Z" fill="#8173EE"/>
<path d="M18.9187 53.6994C17.2926 53.4879 16.2273 52.2197 16.1278 50.5822C16.0568 49.4114 16 47.7554 16 45.45C16 43.1446 16.0568 41.4886 16.1278 40.3178C16.2273 38.6803 17.2926 37.4121 18.9187 37.2006C20.1741 37.0364 21.9885 36.9 24.55 36.9C27.1115 36.9 28.9259 37.0364 30.1813 37.2006C31.8074 37.4121 32.8727 38.6803 32.9722 40.3178C33.0432 41.4886 33.1 43.1446 33.1 45.45C33.1 47.7554 33.0432 49.4114 32.9722 50.5822C32.8727 52.2197 31.8074 53.4879 30.1813 53.6994C28.9259 53.8636 27.1115 54 24.55 54C21.9885 54 20.1741 53.8636 18.9187 53.6994Z" fill="#B9B0FF"/>
<path d="M50.5825 16.128C52.2197 16.2273 53.4874 17.2923 53.6996 18.9187C53.8636 20.1739 54 21.9885 54 24.55C54 27.1115 53.8636 28.9261 53.6996 30.1813C53.4874 31.8077 52.2197 32.8727 50.5825 32.972C49.4117 33.0434 47.7552 33.1 45.45 33.1C44.3641 33.1 43.422 33.087 42.607 33.0666C41.6917 33.0434 40.9368 33.01 40.3175 32.972C38.6803 32.8727 37.4126 31.8077 37.2004 30.1813C37.0364 28.9261 36.9 27.1115 36.9 24.55C36.9 23.5044 36.9227 22.5832 36.9608 21.7742C37.016 20.6006 37.1034 19.6618 37.2004 18.9187C37.4126 17.2923 38.6803 16.2273 40.3175 16.128C41.4883 16.0566 43.1448 16 45.45 16C46.1831 16 46.8506 16.0056 47.4578 16.0158C48.2269 16.0288 48.8991 16.0482 49.4852 16.0724C49.8911 16.0891 50.2557 16.1076 50.5825 16.128Z" fill="#B9B0FF"/>
<path d="M53.6996 51.0813C53.4874 52.7077 52.2197 53.7727 50.5825 53.872C49.4117 53.9434 47.7552 54 45.45 54C43.1448 54 41.4883 53.9434 40.3175 53.872C38.6803 53.7727 37.4126 52.7077 37.2004 51.0813C37.0364 49.8261 36.9 48.0115 36.9 45.45C36.9 42.8885 37.0364 41.0739 37.2004 39.8187C37.4126 38.1923 38.6803 37.1273 40.3175 37.028C41.0099 36.9854 41.8722 36.9482 42.9382 36.925C43.6745 36.9093 44.5081 36.9 45.45 36.9C47.7552 36.9 49.4117 36.9566 50.5825 37.028C52.2197 37.1273 53.4874 38.1923 53.6996 39.8187C53.8636 41.0739 54 42.8885 54 45.45C54 48.0115 53.8636 49.8261 53.6996 51.0813Z" fill="#8173EE"/>
</svg>
