<svg width="375" height="210" viewBox="0 0 375 210" fill="none" xmlns="http://www.w3.org/2000/svg">
<g clip-path="url(#clip0_1310_19607)">
<rect width="375" height="210" fill="#FFFBE9"/>
<circle cx="311" cy="213" r="81" fill="url(#paint0_linear_1310_19607)" fill-opacity="0.6"/>
<circle cx="319.5" cy="42.5" r="27.5" fill="url(#paint1_linear_1310_19607)" fill-opacity="0.6"/>
<circle cx="83" cy="1" r="37.5" stroke="url(#paint2_linear_1310_19607)" stroke-opacity="0.4" stroke-width="25"/>
<circle cx="58.5" cy="154.5" r="16.5" stroke="url(#paint3_linear_1310_19607)" stroke-opacity="0.6" stroke-width="12"/>
<circle cx="40.5" cy="168.5" r="22.5" fill="url(#paint4_linear_1310_19607)" fill-opacity="0.6"/>
<g clip-path="url(#clip1_1310_19607)">
<path d="M166.612 45.3213H169.089C169.9 45.3213 170.36 46.0561 170.36 46.8131C170.36 47.5701 169.9 48.3048 169.089 48.3048H166.612V52.2679C166.612 53.0917 167.073 53.448 167.599 53.448C167.949 53.448 168.3 53.3812 168.629 53.2476C169.221 52.9804 169.944 53.3144 170.251 54.1159C170.579 54.962 170.185 55.6744 169.637 55.9639C168.958 56.2978 168.147 56.4314 167.467 56.4314C164.662 56.4314 163.347 54.962 163.347 52.6019V48.3048H162.645C161.834 48.3048 161.462 47.5701 161.462 46.8131C161.462 46.0561 161.834 45.3213 162.645 45.3213H163.347V43.362C163.347 42.3601 164.048 41.7812 164.99 41.7812C165.933 41.7812 166.634 42.3824 166.634 43.362V45.3213H166.612Z" fill="black"/>
<path d="M182.7 50.7093C182.7 53.8709 180.267 56.4091 177.111 56.4091C173.955 56.4091 171.5 53.8931 171.5 50.7093C171.5 47.5254 173.955 45.1208 177.111 45.1208C180.267 45.1208 182.7 47.57 182.7 50.7093ZM174.788 50.7093C174.788 52.2456 175.774 53.4701 177.111 53.4701C178.448 53.4701 179.434 52.2678 179.434 50.7093C179.434 49.1508 178.448 48.0598 177.111 48.0598C175.774 48.0598 174.788 49.1953 174.788 50.7093Z" fill="black"/>
<path d="M194.952 56.231C191.708 56.231 189.845 53.7819 189.845 50.7539C189.845 47.7259 191.708 45.3213 194.952 45.3213H196.99V41.6253C196.99 40.6234 197.692 40 198.634 40C199.577 40 200.278 40.6234 200.278 41.6253V54.0268C200.278 55.474 199.533 56.231 198.13 56.231H194.974H194.952ZM195.171 48.2602C193.703 48.2602 193.111 49.4625 193.111 50.7539C193.111 52.0452 193.703 53.292 195.171 53.292H196.969V48.2602H195.171Z" fill="black"/>
<path d="M213.516 50.7093C213.516 53.8709 211.084 56.4091 207.927 56.4091C204.771 56.4091 202.316 53.8931 202.316 50.7093C202.316 47.5254 204.771 45.1208 207.927 45.1208C211.084 45.1208 213.516 47.57 213.516 50.7093ZM205.604 50.7093C205.604 52.2456 206.59 53.4701 207.927 53.4701C209.264 53.4701 210.229 52.2678 210.229 50.7093C210.229 49.1508 209.242 48.0598 207.927 48.0598C206.612 48.0598 205.604 49.1953 205.604 50.7093Z" fill="black"/>
<path d="M167.051 73.8202C166.547 74.3769 165.736 74.6218 165.034 74.3101C164.333 73.9984 163.873 73.2636 163.916 72.5066L164.333 64.2242C164.355 63.4894 164.99 62.8437 165.867 62.9328C166.788 63.0441 167.358 63.5785 167.292 64.4913L166.81 69.9685L170.119 66.3616C170.623 65.805 171.237 65.6714 171.807 65.9163C172.377 66.1612 172.705 66.7178 172.684 67.4525L172.53 72.3953L175.993 68.2095C176.563 67.5193 177.374 67.5193 178.097 68.0982C178.799 68.6548 178.777 69.5454 178.273 70.102L172.815 76.2471C172.311 76.826 171.5 77.0486 170.755 76.7369C170.032 76.4252 169.615 75.6905 169.659 74.9335L169.834 70.77L167.051 73.8202Z" fill="black"/>
<path d="M184.453 77.8946C184.366 78.852 183.642 79.3418 182.744 79.275C181.845 79.186 181.232 78.5626 181.319 77.6052L182.021 69.768C182.108 68.8106 182.832 68.3208 183.73 68.3876C184.629 68.4544 185.242 69.1001 185.155 70.0575L184.453 77.8946ZM184.168 63.4894C185.155 63.5784 185.922 64.4913 185.812 65.5155C185.725 66.5174 184.826 67.2966 183.818 67.1853C182.81 67.074 182.064 66.1834 182.174 65.1592C182.262 64.1573 183.16 63.378 184.168 63.4894Z" fill="black"/>
<path d="M193.374 68.3208L195.741 68.0091C196.508 67.9201 197.056 68.5435 197.144 69.2782C197.232 70.0352 196.881 70.77 196.092 70.859L193.725 71.1707L194.207 74.9557C194.295 75.735 194.799 76.0244 195.303 75.9576C195.653 75.9131 195.96 75.824 196.267 75.6237C196.815 75.2897 197.538 75.5346 197.911 76.2471C198.327 77.0041 198.042 77.7388 197.538 78.0951C196.925 78.5181 196.179 78.7185 195.5 78.8075C192.826 79.1638 191.379 77.9169 191.116 75.6682L190.59 71.5715L189.933 71.6605C189.166 71.7719 188.705 71.1039 188.618 70.3915C188.53 69.6345 188.793 68.922 189.56 68.8107L190.218 68.7216L189.977 66.8514C189.867 65.894 190.459 65.2483 191.358 65.137C192.256 65.0257 193.001 65.4932 193.111 66.4506L193.352 68.3208H193.374Z" fill="black"/>
<path d="M212.136 71.5937C212.53 72.462 212.136 73.2635 211.303 73.642C210.47 74.0205 209.637 73.7756 209.242 72.9073L207.248 68.3653C206.875 67.5192 206.064 67.163 205.232 67.5415C204.421 67.8977 204.092 68.7661 204.464 69.5676L206.481 74.1541C206.875 75.0224 206.481 75.824 205.648 76.2025C204.815 76.581 203.982 76.3361 203.588 75.4677L198.437 63.801C198.042 62.9327 198.437 62.1312 199.27 61.7527C200.103 61.3742 200.936 61.6191 201.33 62.4874L203.105 66.4951C203.281 65.7158 204.004 65.0033 204.881 64.6026C206.656 63.801 208.782 64.0682 209.966 66.7622L212.092 71.6159L212.136 71.5937Z" fill="black"/>
<path d="M219.215 68.2539C218.711 68.2539 218.229 67.9422 218.053 67.4301C217.834 66.7844 218.163 66.0719 218.799 65.827C222.7 64.4021 225.023 62.6654 225.023 61.1514C225.023 59.6374 222.7 57.9008 218.799 56.4758C218.163 56.2532 217.834 55.5184 218.053 54.8728C218.295 54.2271 218.996 53.8931 219.632 54.1158C224.848 56.0083 227.5 58.3906 227.5 61.1514C227.5 63.9122 224.848 66.2723 219.653 68.1871C219.522 68.2316 219.368 68.2539 219.237 68.2539H219.215Z" fill="black"/>
<path d="M219.215 61.0178C218.645 61.0178 218.141 60.617 218.01 60.0159L217.001 55.0509C216.892 54.561 217.089 54.0712 217.484 53.7818L220.947 51.2659C221.495 50.8651 222.262 50.9987 222.678 51.5553C223.073 52.1119 222.941 52.8912 222.393 53.2919L219.588 55.3403L220.442 59.5261C220.574 60.194 220.158 60.8619 219.478 60.9955C219.39 60.9955 219.303 61.0178 219.215 61.0178Z" fill="black"/>
<path d="M155.785 65.2258C155.653 65.2258 155.5 65.2035 155.368 65.159C150.152 63.2665 147.5 60.8842 147.5 58.1233C147.5 55.3625 150.152 53.0025 155.347 51.0877C155.982 50.865 156.684 51.199 156.925 51.8447C157.144 52.4904 156.815 53.2028 156.179 53.4478C152.278 54.8727 149.955 56.6093 149.955 58.1233C149.955 59.6373 152.278 61.374 156.179 62.7989C156.815 63.0216 157.144 63.7563 156.925 64.402C156.749 64.9141 156.267 65.2258 155.763 65.2258H155.785Z" fill="black"/>
<path d="M153.33 68.2536C152.958 68.2536 152.563 68.0754 152.322 67.7192C151.927 67.1626 152.059 66.3833 152.607 65.9826L155.412 63.9342L154.558 59.7484C154.426 59.0805 154.842 58.4126 155.522 58.279C156.179 58.1454 156.837 58.5684 156.968 59.2586L157.977 64.2459C158.086 64.7357 157.889 65.2256 157.495 65.515L154.032 68.0309C153.812 68.1868 153.571 68.2536 153.308 68.2536H153.33Z" fill="black"/>
</g>
<path d="M54.7937 106.82H44.5537V105.44H54.2137V103.44H44.5537V102.1H54.6137V100.02H41.9337V108.9H54.7937V106.82ZM56.5337 110.22H39.8537V112.36H46.8537V117.74H49.4937V112.36H56.5337V110.22ZM73.0321 105.82H63.0721V102.38H72.8321V100.28H60.3721V107.92H73.0321V105.82ZM74.9521 109.72H58.2521V111.86H65.2321V117.7H67.8721V111.86H74.9521V109.72ZM92.0105 99.28H89.3705V112.48H92.0105V99.28ZM82.6505 101.8C83.9105 101.8 84.7705 102.3 84.7705 103.26C84.7705 104.18 83.9105 104.7 82.6505 104.7C81.3705 104.7 80.5305 104.18 80.5305 103.26C80.5305 102.3 81.3705 101.8 82.6505 101.8ZM82.6505 106.64C85.4105 106.64 87.3105 105.28 87.3105 103.26C87.3105 101.22 85.4105 99.86 82.6505 99.86C79.8905 99.86 77.9905 101.22 77.9905 103.26C77.9905 105.28 79.8905 106.64 82.6505 106.64ZM80.9705 112.32H83.5905V109.48C85.2305 109.36 86.9305 109.18 88.5505 108.88L88.4305 107.02C84.5505 107.56 80.0105 107.6 76.7105 107.62L77.0305 109.72C78.2305 109.72 79.5505 109.7 80.9705 109.64V112.32ZM87.4705 111.02H84.7705V111.68C84.7705 113.42 82.9905 115.2 78.9705 115.64L79.8905 117.64C82.9105 117.26 85.0305 116.14 86.1305 114.56C87.2305 116.12 89.3505 117.24 92.3305 117.62L93.2505 115.64C89.2705 115.2 87.4705 113.42 87.4705 111.68V111.02ZM104.829 109.68C105.329 106.64 105.329 104.4 105.329 102.62V101.12H95.849V103.22H102.729C102.729 104.86 102.669 106.84 102.249 109.46L104.829 109.68ZM100.809 106.4H98.209V111.84C97.049 111.86 95.929 111.86 94.909 111.86L95.149 114.02C98.349 114 102.469 113.92 106.209 113.28L106.069 111.38C104.389 111.58 102.589 111.7 100.809 111.76V106.4ZM112.029 106.7H109.549V99.28H106.909V117.7H109.549V108.9H112.029V106.7ZM128.839 100.96H124.739V99.18H122.079V100.96H117.979V103.04H128.839V100.96ZM121.419 106.9C121.419 106 122.239 105.54 123.419 105.54C124.599 105.54 125.419 106 125.419 106.9C125.419 107.82 124.599 108.28 123.419 108.28C122.239 108.28 121.419 107.82 121.419 106.9ZM127.939 106.9C127.939 104.94 126.079 103.6 123.419 103.6C120.759 103.6 118.899 104.94 118.899 106.9C118.899 108.9 120.759 110.22 123.419 110.22C126.079 110.22 127.939 108.9 127.939 106.9ZM123.119 113.28H129.919V115.44H123.119V113.28ZM120.519 117.5H132.499V111.2H120.519V117.5ZM134.939 103.84H132.499V99.32H129.859V110.4H132.499V106H134.939V103.84ZM136.717 101.38V103.52H138.617C138.497 107.1 137.957 109.86 136.117 112.74L138.137 113.86C140.437 110.18 140.877 106.06 140.877 101.38H136.717ZM146.317 106.22H144.797C144.937 104.64 144.977 103.04 144.977 101.38H141.417V103.52H142.737C142.657 107.28 142.237 110.48 140.217 113.62L142.237 114.74C143.477 112.74 144.177 110.6 144.557 108.34H146.317V116.92H148.757V99.7H146.317V106.22ZM149.857 99.3V117.74H152.377V99.3H149.857ZM161.167 113.78H171.327V117.74H173.967V111.68H161.167V113.78ZM163.967 102.08H171.267V104.46H163.967V102.08ZM168.947 108.26V106.54H173.867V100.02H161.367V106.54H166.307V108.26H159.327V110.36H175.967V108.26H168.947ZM184.445 110.12H187.625V113.58H184.445V110.12ZM184.145 102.86H187.905V108.04H184.145V102.86ZM190.245 113.58V110.12H192.985V108.04H190.525V102.86H193.025V100.76H179.025V102.86H181.525V108.04H179.125V110.12H181.825V113.58H177.705V115.7H194.405V113.58H190.245ZM208.164 102.3H198.204V106.7H211.084V104.92H200.804V103.96H210.764V99.62H198.164V101.4H208.164V102.3ZM200.644 114.78H210.824V110.4H198.004V112.18H208.204V113.12H198.024V117.56H211.324V115.78H200.644V114.78ZM196.124 107.58V109.48H212.804V107.58H196.124ZM229.493 105.38C227.393 105.82 225.473 105.96 222.313 105.98V102.32H227.933V100.26H219.693V108.06H221.233C225.153 108.06 227.373 107.96 229.753 107.44L229.493 105.38ZM224.033 114.28H233.553V109.2H221.393V111.28H230.953V112.36H221.413V117.5H234.073V115.44H224.033V114.28ZM233.553 102.78V99.28H230.913V108.44H233.553V104.92H235.993V102.78H233.553ZM250.212 110.1H252.852V99.3H250.212V102.66H246.852V104.8H250.212V110.1ZM248.532 107.44C245.612 106.5 244.412 104.26 244.412 101.78V100.26H241.732V101.9C241.732 104.44 240.432 106.94 237.292 107.94L238.672 110.06C240.852 109.32 242.312 107.84 243.132 105.96C243.912 107.6 245.212 108.86 247.152 109.52L248.532 107.44ZM246.632 115.7C244.212 115.7 242.952 115.2 242.952 114.16C242.952 113.1 244.212 112.6 246.632 112.6C249.032 112.6 250.292 113.1 250.292 114.16C250.292 115.2 249.032 115.7 246.632 115.7ZM246.632 110.56C242.712 110.56 240.312 111.88 240.312 114.16C240.312 116.4 242.712 117.72 246.632 117.72C250.532 117.72 252.932 116.4 252.932 114.16C252.932 111.88 250.532 110.56 246.632 110.56ZM260.27 111.56C259.27 111.56 258.55 110.76 258.55 109.38C258.55 108 259.27 107.18 260.27 107.18C261.27 107.18 261.99 108 261.99 109.38C261.99 110.76 261.27 111.56 260.27 111.56ZM260.27 104.98C257.91 104.98 256.23 106.8 256.23 109.38C256.23 111.94 257.91 113.76 260.27 113.76C262.63 113.76 264.31 111.94 264.31 109.38C264.31 106.8 262.63 104.98 260.27 104.98ZM261.57 99.8H258.97V102.08H255.83V104.18H264.63V102.08H261.57V99.8ZM269.15 99.28V106.8H267.75V99.64H265.29V116.94H267.75V108.92H269.15V117.7H271.65V99.28H269.15ZM278.629 105.38H286.509V107.96H278.629V105.38ZM283.889 113.44V110.06H289.109V100.44H286.509V103.3H278.629V100.44H276.009V110.06H281.249V113.44H274.249V115.58H290.929V113.44H283.889ZM298.527 100.9H295.987V104C295.987 107.14 295.007 110.44 292.307 112.08L293.887 114.06C295.547 113.06 296.627 111.3 297.267 109.26C297.847 111.12 298.827 112.68 300.387 113.64L301.827 111.6C299.327 109.94 298.527 106.88 298.527 103.9V100.9ZM302.207 105.52H299.907V107.66H302.207V116.9H304.667V99.6H302.207V105.52ZM305.947 99.3V117.72H308.447V99.3H305.947ZM317.346 109.92C317.986 110.04 318.646 110.1 319.366 110.1C320.086 110.1 320.766 110.04 321.406 109.92V113.44H317.346V109.92ZM319.366 102.28C321.926 102.28 323.646 103.32 323.646 105.16C323.646 106.98 321.926 108.04 319.366 108.04C316.806 108.04 315.106 106.98 315.106 105.16C315.106 103.32 316.806 102.28 319.366 102.28ZM324.026 113.44V108.94C325.406 108.08 326.246 106.76 326.246 105.16C326.246 102.14 323.346 100.2 319.366 100.2C315.406 100.2 312.506 102.14 312.506 105.16C312.486 106.76 313.326 108.08 314.726 108.94V113.44H311.046V115.58H327.726V113.44H324.026ZM331.324 110.96H333.244L333.664 103.58L333.764 100.8H330.804L330.904 103.58L331.324 110.96ZM332.284 116.28C333.324 116.28 334.124 115.44 334.124 114.36C334.124 113.28 333.324 112.44 332.284 112.44C331.244 112.44 330.464 113.28 330.464 114.36C330.464 115.44 331.244 116.28 332.284 116.28Z" fill="black"/>
<rect x="107.5" y="136" width="160" height="34" rx="17" fill="#FFD600"/>
<path d="M137.32 152.742H130.012V151.468H136.886V150.348H130.012V149.13H137.18V147.982H128.57V153.89H137.32V152.742ZM138.552 155.024H127.086V156.2H132.098V160.106H133.54V156.2H138.552V155.024ZM150.059 152.042H142.975V149.312H149.905V148.15H141.491V153.204H150.059V152.042ZM151.445 154.66H139.965V155.85H144.949V160.05H146.391V155.85H151.445V154.66ZM163.26 147.436H161.804V156.536H163.26V147.436ZM156.974 148.906C158.024 148.906 158.752 149.368 158.752 150.124C158.752 150.88 158.024 151.342 156.974 151.342C155.924 151.342 155.21 150.88 155.21 150.124C155.21 149.368 155.924 148.906 156.974 148.906ZM156.974 152.42C158.85 152.42 160.152 151.496 160.152 150.124C160.152 148.738 158.85 147.828 156.974 147.828C155.112 147.828 153.81 148.738 153.81 150.124C153.81 151.496 155.112 152.42 156.974 152.42ZM156.064 156.368H157.492V154.296C158.71 154.226 159.942 154.086 161.118 153.862L161.048 152.84C158.36 153.218 155.224 153.246 152.9 153.26L153.096 154.422C153.978 154.422 155.014 154.408 156.064 154.366V156.368ZM160.068 155.5H158.598V156.004C158.598 157.404 156.974 158.594 154.482 158.916L155.014 160.022C157.002 159.756 158.584 158.916 159.354 157.712C160.11 158.916 161.664 159.728 163.652 160.008L164.17 158.916C161.692 158.608 160.068 157.404 160.068 156.004V155.5ZM179.858 153.414C177.366 152.994 175.336 151.118 175.336 149.158V148.206H173.81V149.158C173.81 151.104 171.78 152.994 169.274 153.414L169.89 154.618C171.948 154.212 173.74 152.952 174.58 151.272C175.392 152.952 177.184 154.212 179.256 154.618L179.858 153.414ZM175.28 157.32V154.366H173.838V157.32H168.896V158.51H180.348V157.32H175.28ZM182.237 149.032V150.208H185.779C185.583 152.756 184.435 154.828 181.705 156.41L182.545 157.432C186.101 155.388 187.207 152.406 187.207 149.032H182.237ZM191.155 147.436V152.378H189.713V147.772H188.355V159.49H189.713V153.554H191.155V160.078H192.527V147.436H191.155ZM202.81 155.934H199.674V152.84H202.81V155.934ZM202.81 151.692H199.674V148.472H198.232V157.096H204.238V148.472H202.81V151.692ZM209.558 152.294H207.584V147.436H206.142V160.092H207.584V153.498H209.558V152.294ZM217.103 157.404V155.248H221.051V154.086H213.477V152.322H220.771V148.318H212.035V149.48H219.343V151.174H212.063V155.248H215.661V157.404H210.677V158.594H222.129V157.404H217.103ZM224.172 148.766V149.942H228.596C228.302 152.854 226.636 155.08 223.542 156.662L224.34 157.768C228.47 155.682 230.038 152.434 230.038 148.766H224.172ZM235.26 152.42H233.342V147.422H231.9V160.064H233.342V153.624H235.26V152.42ZM237.149 148.766V149.942H241.657C241.405 152.854 239.837 155.08 236.519 156.676L237.289 157.824C241.629 155.724 243.141 152.532 243.141 148.766H237.149ZM245.423 147.436V160.078H246.865V147.436H245.423Z" fill="black"/>
</g>
<defs>
<linearGradient id="paint0_linear_1310_19607" x1="249.5" y1="141" x2="381.5" y2="277" gradientUnits="userSpaceOnUse">
<stop stop-color="#FFFBE9"/>
<stop offset="1" stop-color="#FFE074"/>
</linearGradient>
<linearGradient id="paint1_linear_1310_19607" x1="298.62" y1="18.0556" x2="343.435" y2="64.2284" gradientUnits="userSpaceOnUse">
<stop stop-color="#FFFBE9"/>
<stop offset="1" stop-color="#FFE074"/>
</linearGradient>
<linearGradient id="paint2_linear_1310_19607" x1="50.9245" y1="-45.6981" x2="116.962" y2="51" gradientUnits="userSpaceOnUse">
<stop stop-color="#FFFBE9"/>
<stop offset="1" stop-color="#FFE074"/>
</linearGradient>
<linearGradient id="paint3_linear_1310_19607" x1="44.066" y1="133.486" x2="73.783" y2="177" gradientUnits="userSpaceOnUse">
<stop stop-color="#FFFBE9"/>
<stop offset="1" stop-color="#FFE074"/>
</linearGradient>
<linearGradient id="paint4_linear_1310_19607" x1="23.4167" y1="148.5" x2="60.0833" y2="186.278" gradientUnits="userSpaceOnUse">
<stop stop-color="#FFFBE9"/>
<stop offset="1" stop-color="#FFE074"/>
</linearGradient>
<clipPath id="clip0_1310_19607">
<rect width="375" height="210" fill="white"/>
</clipPath>
<clipPath id="clip1_1310_19607">
<rect width="80" height="40" fill="white" transform="translate(147.5 40)"/>
</clipPath>
</defs>
</svg>
