<svg width="24" height="24" viewBox="0 0 24 24" fill="none" xmlns="http://www.w3.org/2000/svg">
<mask id="path-1-inside-1_1486_20876" fill="white">
<path fill-rule="evenodd" clip-rule="evenodd" d="M21.8499 16.5172L16.4629 6.03518L16.4629 2.92118C16.4629 2.35118 15.9999 1.88818 15.4299 1.88818L8.56992 1.88818C7.99992 1.88818 7.53692 2.35118 7.53692 2.92118L7.53692 6.03518L2.14992 16.5172C2.07157 16.6697 2.03374 16.8397 2.04006 17.011C2.04638 17.1824 2.09663 17.3492 2.186 17.4955C2.27536 17.6418 2.40084 17.7626 2.55037 17.8465C2.69991 17.9303 2.86849 17.9743 3.03992 17.9742L20.9599 17.9742C21.1313 17.9743 21.2999 17.9303 21.4495 17.8465C21.599 17.7626 21.7245 17.6418 21.8138 17.4955C21.9032 17.3492 21.9535 17.1824 21.9598 17.011C21.9661 16.8397 21.9283 16.6697 21.8499 16.5172ZM14.8329 21.2362L14.8329 19.2802L9.16692 19.2802L9.16692 21.2352C9.16692 21.9592 9.75391 22.5452 10.4779 22.5452L13.5209 22.5452C14.2459 22.5452 14.8329 21.9592 14.8329 21.2352"/>
</mask>
<path d="M21.8499 16.5172L23.6288 15.6032L23.6287 15.603L21.8499 16.5172ZM16.4629 6.03518L14.4629 6.03518L14.4629 6.51903L14.6841 6.94938L16.4629 6.03518ZM7.53692 6.03518L9.31575 6.94938L9.53692 6.51903L9.53692 6.03518L7.53692 6.03518ZM2.14992 16.5172L0.371081 15.603L0.370982 15.6032L2.14992 16.5172ZM3.03992 17.9742L3.03992 15.9742L3.03885 15.9742L3.03992 17.9742ZM20.9599 17.9742L20.961 15.9742L20.9599 15.9742L20.9599 17.9742ZM14.8329 19.2802L16.8329 19.2802L16.8329 17.2802L14.8329 17.2802L14.8329 19.2802ZM9.16692 19.2802L9.16692 17.2802L7.16692 17.2802L7.16692 19.2802L9.16692 19.2802ZM23.6287 15.603L18.2417 5.12099L14.6841 6.94938L20.0711 17.4314L23.6287 15.603ZM18.4629 6.03518L18.4629 2.92118L14.4629 2.92118L14.4629 6.03518L18.4629 6.03518ZM18.4629 2.92118C18.4629 1.24662 17.1045 -0.111817 15.4299 -0.111817L15.4299 3.88818C14.8953 3.88818 14.4629 3.45575 14.4629 2.92118L18.4629 2.92118ZM15.4299 -0.111817L8.56992 -0.111817L8.56992 3.88818L15.4299 3.88818L15.4299 -0.111817ZM8.56992 -0.111817C6.89534 -0.111817 5.53692 1.24662 5.53692 2.92118L9.53692 2.92118C9.53692 3.45575 9.10449 3.88818 8.56992 3.88818L8.56992 -0.111817ZM5.53692 2.92118L5.53692 6.03518L9.53692 6.03518L9.53692 2.92118L5.53692 2.92118ZM5.75808 5.12099L0.371081 15.603L3.92875 17.4314L9.31575 6.94938L5.75808 5.12099ZM0.370982 15.6032C0.135949 16.0606 0.0224639 16.5708 0.0414204 17.0848L4.0387 16.9373C4.04502 17.1086 4.00719 17.2787 3.92885 17.4312L0.370982 15.6032ZM0.0414204 17.0848C0.0603768 17.5987 0.211138 18.0991 0.479232 18.538L3.89276 16.4529C3.98213 16.5992 4.03238 16.766 4.0387 16.9373L0.0414204 17.0848ZM0.479232 18.538C0.747327 18.9769 1.12375 19.3395 1.57235 19.591L3.52839 16.1019C3.67792 16.1857 3.8034 16.3066 3.89276 16.4529L0.479232 18.538ZM1.57235 19.591C2.02096 19.8425 2.52669 19.9745 3.04098 19.9742L3.03885 15.9742C3.21028 15.9741 3.37886 16.0181 3.52839 16.1019L1.57235 19.591ZM3.03992 19.9742L20.9599 19.9742L20.9599 15.9742L3.03992 15.9742L3.03992 19.9742ZM20.9588 19.9742C21.4731 19.9745 21.9789 19.8425 22.4275 19.591L20.4714 16.1019C20.621 16.0181 20.7895 15.9741 20.961 15.9742L20.9588 19.9742ZM22.4275 19.591C22.8761 19.3395 23.2525 18.9769 23.5206 18.538L20.1071 16.4529C20.1964 16.3066 20.3219 16.1857 20.4714 16.1019L22.4275 19.591ZM23.5206 18.538C23.7887 18.0991 23.9395 17.5987 23.9584 17.0848L19.9611 16.9373C19.9674 16.766 20.0177 16.5992 20.1071 16.4529L23.5206 18.538ZM23.9584 17.0848C23.9774 16.5708 23.8639 16.0606 23.6288 15.6032L20.071 17.4312C19.9926 17.2787 19.9548 17.1086 19.9611 16.9373L23.9584 17.0848ZM16.8329 21.2362L16.8329 19.2802L12.8329 19.2802L12.8329 21.2362L16.8329 21.2362ZM14.8329 17.2802L9.16692 17.2802L9.16692 21.2802L14.8329 21.2802L14.8329 17.2802ZM7.16692 19.2802L7.16692 21.2352L11.1669 21.2352L11.1669 19.2802L7.16692 19.2802ZM7.16692 21.2352C7.16691 23.0657 8.65133 24.5452 10.4779 24.5452L10.4779 20.5452C10.8565 20.5452 11.1669 20.8526 11.1669 21.2352L7.16692 21.2352ZM10.4779 24.5452L13.5209 24.5452L13.5209 20.5452L10.4779 20.5452L10.4779 24.5452ZM13.5209 24.5452C15.3475 24.5452 16.8329 23.0667 16.8329 21.2352L12.8329 21.2352C12.8329 20.8516 13.1443 20.5452 13.5209 20.5452L13.5209 24.5452Z" fill="black" mask="url(#path-1-inside-1_1486_20876)"/>
<path d="M24 16C24 17.6569 22.6569 19 21 19C19.3431 19 18 17.6569 18 16C18 14.3431 19.3431 13 21 13C22.6569 13 24 14.3431 24 16Z" fill="#DE3D3D"/>
</svg>
