<svg width="23" height="19" viewBox="0 0 23 19" fill="none" xmlns="http://www.w3.org/2000/svg">
<mask id="path-1-inside-1_370_1310" fill="white">
<path fill-rule="evenodd" clip-rule="evenodd" d="M22 8.10005H19.9V6.00005C19.8922 5.76668 19.794 5.54546 19.6262 5.38313C19.4584 5.22079 19.234 5.13004 19.0005 5.13004C18.767 5.13004 18.5426 5.22079 18.3748 5.38313C18.207 5.54546 18.1088 5.76668 18.101 6.00005V8.10005H16C15.7613 8.10005 15.5324 8.19487 15.3636 8.36365C15.1948 8.53243 15.1 8.76135 15.1 9.00005C15.1 9.23874 15.1948 9.46766 15.3636 9.63644C15.5324 9.80523 15.7613 9.90005 16 9.90005H18.101V12C18.097 12.1207 18.1173 12.2409 18.1607 12.3536C18.2041 12.4662 18.2697 12.569 18.3536 12.6557C18.4375 12.7425 18.538 12.8115 18.6492 12.8586C18.7603 12.9058 18.8798 12.93 19.0005 12.93C19.1212 12.93 19.2407 12.9058 19.3518 12.8586C19.463 12.8115 19.5635 12.7425 19.6474 12.6557C19.7313 12.569 19.797 12.4662 19.8403 12.3536C19.8837 12.2409 19.904 12.1207 19.9 12V9.90005H22C22.2387 9.90005 22.4676 9.80523 22.6364 9.63644C22.8052 9.46766 22.9 9.23874 22.9 9.00005C22.9 8.76135 22.8052 8.53243 22.6364 8.36365C22.4676 8.19487 22.2387 8.10005 22 8.10005ZM9.00001 9.45605C10.1548 9.45605 11.2622 8.99732 12.0787 8.18079C12.8953 7.36426 13.354 6.2568 13.354 5.10205C13.354 3.94729 12.8953 2.83984 12.0787 2.0233C11.2622 1.20677 10.1548 0.748047 9.00001 0.748047C7.84525 0.748047 6.7378 1.20677 5.92126 2.0233C5.10473 2.83984 4.64601 3.94729 4.64601 5.10205C4.64601 6.2568 5.10473 7.36426 5.92126 8.18079C6.7378 8.99732 7.84525 9.45605 9.00001 9.45605ZM9.00001 10.788C2.73101 10.788 0.294006 14.777 0.294006 16.633C0.294006 18.488 5.48301 18.982 9.00001 18.982C12.517 18.982 17.706 18.488 17.706 16.632C17.706 14.777 15.269 10.788 9.00001 10.788Z"/>
</mask>
<path d="M19.9 8.10005H17.9V10.1H19.9V8.10005ZM19.9 6.00005H21.9V5.96671L21.8989 5.93339L19.9 6.00005ZM18.101 6.00005L16.1021 5.93339L16.101 5.96671V6.00005H18.101ZM18.101 8.10005V10.1H20.101V8.10005H18.101ZM16 8.10005V6.10005V8.10005ZM18.101 9.90005H20.101V7.90005H18.101V9.90005ZM18.101 12L20.0999 12.0667L20.101 12.0334V12H18.101ZM19.9 12H17.9V12.0334L17.9011 12.0667L19.9 12ZM19.9 9.90005V7.90005H17.9V9.90005H19.9ZM22 9.90005V7.90005V9.90005ZM9.00001 0.748047V-1.25195V0.748047ZM4.64601 5.10205H2.64601H4.64601ZM22 6.10005H19.9V10.1H22V6.10005ZM21.9 8.10005V6.00005H17.9V8.10005H21.9ZM21.8989 5.93339C21.8738 5.18142 21.5575 4.46863 21.0167 3.94554L18.2358 6.82072C18.0306 6.6223 17.9106 6.35193 17.9011 6.0667L21.8989 5.93339ZM21.0167 3.94554C20.4758 3.42246 19.7529 3.13004 19.0005 3.13004V7.13004C18.7151 7.13004 18.4409 7.01913 18.2358 6.82072L21.0167 3.94554ZM19.0005 3.13004C18.2481 3.13004 17.5252 3.42246 16.9844 3.94554L19.7653 6.82072C19.5601 7.01913 19.2859 7.13004 19.0005 7.13004V3.13004ZM16.9844 3.94554C16.4435 4.46862 16.1272 5.18141 16.1021 5.93339L20.0999 6.0667C20.0904 6.35194 19.9704 6.62231 19.7653 6.82072L16.9844 3.94554ZM16.101 6.00005V8.10005H20.101V6.00005H16.101ZM18.101 6.10005H16V10.1H18.101V6.10005ZM16 6.10005C15.2309 6.10005 14.4933 6.40558 13.9494 6.94944L16.7778 9.77786C16.5715 9.98416 16.2917 10.1 16 10.1V6.10005ZM13.9494 6.94944C13.4055 7.4933 13.1 8.23092 13.1 9.00005H17.1C17.1 9.29178 16.9841 9.57157 16.7778 9.77786L13.9494 6.94944ZM13.1 9.00005C13.1 9.76917 13.4055 10.5068 13.9494 11.0507L16.7778 8.22223C16.9841 8.42852 17.1 8.70831 17.1 9.00005H13.1ZM13.9494 11.0507C14.4933 11.5945 15.2309 11.9 16 11.9V7.90005C16.2917 7.90005 16.5715 8.01594 16.7778 8.22223L13.9494 11.0507ZM16 11.9H18.101V7.90005H16V11.9ZM16.101 9.90005V12H20.101V9.90005H16.101ZM16.1021 11.9334C16.0892 12.3221 16.1545 12.7095 16.2943 13.0725L20.027 11.6346C20.08 11.7723 20.1048 11.9193 20.0999 12.0667L16.1021 11.9334ZM16.2943 13.0725C16.4342 13.4355 16.6456 13.7666 16.916 14.0462L19.7912 11.2653C19.8937 11.3713 19.9739 11.4969 20.027 11.6346L16.2943 13.0725ZM16.916 14.0462C17.1864 14.3258 17.5103 14.5481 17.8684 14.7L19.4299 11.0173C19.5657 11.0749 19.6886 11.1592 19.7912 11.2653L16.916 14.0462ZM17.8684 14.7C18.2265 14.8518 18.6115 14.93 19.0005 14.93V10.93C19.148 10.93 19.2941 10.9597 19.4299 11.0173L17.8684 14.7ZM19.0005 14.93C19.3895 14.93 19.7745 14.8518 20.1326 14.7L18.5711 11.0173C18.7069 10.9597 18.853 10.93 19.0005 10.93V14.93ZM20.1326 14.7C20.4907 14.5481 20.8146 14.3258 21.085 14.0462L18.2098 11.2653C18.3124 11.1592 18.4353 11.0749 18.5711 11.0173L20.1326 14.7ZM21.085 14.0462C21.3554 13.7666 21.5668 13.4355 21.7067 13.0725L17.974 11.6346C18.0271 11.497 18.1073 11.3714 18.2098 11.2653L21.085 14.0462ZM21.7067 13.0725C21.8465 12.7095 21.9119 12.3221 21.8989 11.9334L17.9011 12.0667C17.8962 11.9193 17.921 11.7723 17.974 11.6346L21.7067 13.0725ZM21.9 12V9.90005H17.9V12H21.9ZM19.9 11.9H22V7.90005H19.9V11.9ZM22 11.9C22.7691 11.9 23.5068 11.5945 24.0506 11.0507L21.2222 8.22223C21.4285 8.01594 21.7083 7.90005 22 7.90005V11.9ZM24.0506 11.0507C24.5945 10.5068 24.9 9.76917 24.9 9.00005H20.9C20.9 8.70831 21.0159 8.42852 21.2222 8.22223L24.0506 11.0507ZM24.9 9.00005C24.9 8.23092 24.5945 7.4933 24.0506 6.94944L21.2222 9.77786C21.0159 9.57157 20.9 9.29178 20.9 9.00005H24.9ZM24.0506 6.94944C23.5068 6.40558 22.7691 6.10005 22 6.10005V10.1C21.7083 10.1 21.4285 9.98416 21.2222 9.77786L24.0506 6.94944ZM9.00001 11.456C10.6852 11.456 12.3014 10.7866 13.493 9.595L10.6645 6.76658C10.2231 7.20804 9.62433 7.45605 9.00001 7.45605V11.456ZM13.493 9.595C14.6846 8.4034 15.354 6.78723 15.354 5.10205H11.354C11.354 5.72637 11.106 6.32512 10.6645 6.76658L13.493 9.595ZM15.354 5.10205C15.354 3.41686 14.6846 1.8007 13.493 0.609091L10.6645 3.43752C11.106 3.87898 11.354 4.47773 11.354 5.10205H15.354ZM13.493 0.609091C12.3014 -0.582515 10.6852 -1.25195 9.00001 -1.25195V2.74805C9.62433 2.74805 10.2231 2.99606 10.6645 3.43752L13.493 0.609091ZM9.00001 -1.25195C7.31482 -1.25195 5.69866 -0.582515 4.50705 0.609091L7.33548 3.43752C7.77694 2.99606 8.37569 2.74805 9.00001 2.74805V-1.25195ZM4.50705 0.609091C3.31544 1.8007 2.64601 3.41686 2.64601 5.10205H6.64601C6.64601 4.47773 6.89402 3.87898 7.33548 3.43752L4.50705 0.609091ZM2.64601 5.10205C2.64601 6.78723 3.31544 8.4034 4.50705 9.595L7.33548 6.76658C6.89402 6.32512 6.64601 5.72637 6.64601 5.10205H2.64601ZM4.50705 9.595C5.69866 10.7866 7.31482 11.456 9.00001 11.456V7.45605C8.37569 7.45605 7.77694 7.20804 7.33548 6.76658L4.50705 9.595ZM9.00001 8.78805C1.86863 8.78805 -1.70599 13.4449 -1.70599 16.633H2.29401C2.29401 16.1092 3.59338 12.788 9.00001 12.788V8.78805ZM-1.70599 16.633C-1.70599 18.182 -0.594091 19.0871 0.172825 19.5222C0.9844 19.9826 1.98289 20.2694 2.92722 20.4626C4.85219 20.8564 7.17981 20.982 9.00001 20.982V16.982C7.3032 16.982 5.27782 16.8607 3.72904 16.5438C2.93649 16.3816 2.41793 16.197 2.14666 16.0431C1.83073 15.8639 2.29401 16.0115 2.29401 16.633H-1.70599ZM9.00001 20.982C10.8202 20.982 13.1479 20.8564 15.0729 20.4624C16.0173 20.2691 17.0159 19.9823 17.8275 19.5216C18.5948 19.0861 19.706 18.1808 19.706 16.632H15.706C15.706 16.0113 16.1686 15.8638 15.853 16.0429C15.5818 16.1968 15.0633 16.3815 14.2708 16.5437C12.7221 16.8607 10.6968 16.982 9.00001 16.982V20.982ZM19.706 16.632C19.706 13.4447 16.1312 8.78805 9.00001 8.78805V12.788C14.4068 12.788 15.706 16.1093 15.706 16.632H19.706Z" fill="#989898" mask="url(#path-1-inside-1_370_1310)"/>
</svg>
