<svg width="20" height="21" viewBox="0 0 20 21" fill="none" xmlns="http://www.w3.org/2000/svg">
<mask id="path-1-inside-1_370_1302" fill="white">
<path fill-rule="evenodd" clip-rule="evenodd" d="M19.069 7.20407L10.622 0.48707C10.4453 0.346227 10.226 0.269531 10 0.269531C9.77402 0.269531 9.55473 0.346227 9.378 0.48707L0.930003 7.20407C0.694554 7.39135 0.504387 7.62933 0.373667 7.90029C0.242946 8.17126 0.175039 8.46822 0.175003 8.76907V18.1871C0.175003 18.8236 0.42786 19.434 0.877947 19.8841C1.32803 20.3342 1.93848 20.5871 2.575 20.5871H8V15.8351C8 15.5699 8.10536 15.3155 8.2929 15.128C8.48043 14.9404 8.73479 14.8351 9 14.8351H11C11.2652 14.8351 11.5196 14.9404 11.7071 15.128C11.8946 15.3155 12 15.5699 12 15.8351V20.5871H17.424C18.0605 20.5871 18.671 20.3342 19.1211 19.8841C19.5711 19.434 19.824 18.8236 19.824 18.1871V8.77007C19.824 8.46922 19.7561 8.17226 19.6253 7.90129C19.4946 7.63033 19.3045 7.39235 19.069 7.20507"/>
</mask>
<path d="M10.622 0.48707L9.37551 2.05112L9.37721 2.05247L10.622 0.48707ZM10 0.269531V-1.73047V0.269531ZM9.378 0.48707L10.6227 2.05254L10.6245 2.05112L9.378 0.48707ZM0.930003 7.20407L-0.314703 5.6386L-0.314997 5.63883L0.930003 7.20407ZM0.175003 8.76907L-1.825 8.76883V8.76907H0.175003ZM8 20.5871V22.5871H10V20.5871H8ZM12 20.5871H10V22.5871H12V20.5871ZM17.424 20.5871V22.5871V20.5871ZM19.824 8.77007H21.824V8.76983L19.824 8.77007ZM20.3138 5.63867L11.8668 -1.07833L9.37721 2.05247L17.8242 8.76947L20.3138 5.63867ZM11.8685 -1.07698C11.3376 -1.50007 10.6789 -1.73047 10 -1.73047V2.26953C9.77311 2.26953 9.55294 2.19253 9.37551 2.05112L11.8685 -1.07698ZM10 -1.73047C9.32115 -1.73047 8.66239 -1.50007 8.13151 -1.07698L10.6245 2.05112C10.4471 2.19253 10.2269 2.26953 10 2.26953V-1.73047ZM8.1333 -1.0784L-0.314703 5.6386L2.17471 8.76954L10.6227 2.05254L8.1333 -1.0784ZM-0.314997 5.63883C-0.785895 6.01339 -1.16623 6.48935 -1.42767 7.03128L2.175 8.76931H2.175L-0.314997 5.63883ZM-1.42767 7.03128C-1.68911 7.57321 -1.82492 8.16713 -1.825 8.76883L2.175 8.76931V8.76931L-1.42767 7.03128ZM-1.825 8.76907V18.1871H2.175V8.76907H-1.825ZM-1.825 18.1871C-1.825 19.354 -1.36143 20.4732 -0.536267 21.2983L2.29216 18.4699C2.21715 18.3949 2.175 18.2932 2.175 18.1871H-1.825ZM-0.536267 21.2983C0.288893 22.1235 1.40805 22.5871 2.575 22.5871V18.5871C2.46892 18.5871 2.36718 18.5449 2.29216 18.4699L-0.536267 21.2983ZM2.575 22.5871H8V18.5871H2.575V22.5871ZM10 20.5871V15.8351H6V20.5871H10ZM10 15.8351C10 16.1003 9.89464 16.3546 9.70711 16.5422L6.87868 13.7137C6.31608 14.2764 6 15.0394 6 15.8351H10ZM9.70711 16.5422C9.51957 16.7297 9.26522 16.8351 9 16.8351V12.8351C8.20435 12.8351 7.44129 13.1511 6.87868 13.7137L9.70711 16.5422ZM9 16.8351H11V12.8351H9V16.8351ZM11 16.8351C10.7348 16.8351 10.4804 16.7297 10.2929 16.5422L13.1213 13.7137C12.5587 13.1511 11.7957 12.8351 11 12.8351V16.8351ZM10.2929 16.5422C10.1054 16.3546 10 16.1003 10 15.8351H14C14 15.0394 13.6839 14.2764 13.1213 13.7137L10.2929 16.5422ZM10 15.8351V20.5871H14V15.8351H10ZM12 22.5871H17.424V18.5871H12V22.5871ZM17.424 22.5871C18.591 22.5871 19.7101 22.1235 20.5353 21.2983L17.7068 18.4699C17.6318 18.5449 17.5301 18.5871 17.424 18.5871V22.5871ZM20.5353 21.2983C21.3604 20.4732 21.824 19.354 21.824 18.1871H17.824C17.824 18.2932 17.7819 18.3949 17.7068 18.4699L20.5353 21.2983ZM21.824 18.1871V8.77007H17.824V18.1871H21.824ZM21.824 8.76983C21.8239 8.16814 21.6881 7.57421 21.4267 7.03228L17.824 8.77031L21.824 8.76983ZM21.4267 7.03228C21.1652 6.49035 20.7849 6.01439 20.314 5.63983L17.824 8.77031L21.4267 7.03228Z" fill="#989898" mask="url(#path-1-inside-1_370_1302)"/>
</svg>
