<svg width="50" height="60" viewBox="0 0 50 60" fill="none" xmlns="http://www.w3.org/2000/svg">
<path d="M38 29.994L35.1164 26.6734L35.5182 22.2778L31.2518 21.2984L29.0182 17.5L25 19.2439L20.9818 17.5L18.7482 21.2984L14.4818 22.2659L14.8836 26.6615L12 29.994L14.8836 33.3146L14.4818 37.7222L18.7482 38.7016L20.9818 42.5L25 40.7441L29.0182 42.4881L31.2518 38.6897L35.5182 37.7102L35.1164 33.3146L38 29.994ZM32.67 32.5143L32.9773 35.8469L29.7391 36.5874L28.0491 39.4661L25 38.1402L21.9509 39.4661L20.2609 36.5874L17.0227 35.8469L17.33 32.5024L15.1436 29.994L17.33 27.4618L17.0227 24.1412L20.2609 23.4126L21.9509 20.5339L25 21.8478L28.0491 20.522L29.7391 23.4006L32.9773 24.1412L32.67 27.4737L34.8564 29.994L32.67 32.5143V32.5143ZM23.8182 33.5774H26.1818V35.9663H23.8182V33.5774ZM23.8182 24.0217H26.1818V31.1885H23.8182V24.0217Z" fill="black"/>
</svg>
