<svg width="20" height="22" viewBox="0 0 20 22" fill="none" xmlns="http://www.w3.org/2000/svg">
<mask id="path-1-inside-1_403_4619" fill="white">
<path fill-rule="evenodd" clip-rule="evenodd" d="M19.85 15.5167L14.463 5.03469L14.463 1.9207C14.463 1.3507 14 0.887695 13.43 0.887695L6.57 0.887695C6 0.887695 5.537 1.35069 5.537 1.92069L5.537 5.03469L0.149999 15.5167C0.0716546 15.6692 0.0338262 15.8392 0.0401452 16.0106C0.0464643 16.1819 0.0967172 16.3487 0.186082 16.495C0.275447 16.6413 0.40092 16.7621 0.550456 16.846C0.699992 16.9298 0.86857 16.9738 1.04 16.9737L18.96 16.9737C19.1314 16.9738 19.3 16.9298 19.4495 16.846C19.5991 16.7621 19.7246 16.6413 19.8139 16.495C19.9033 16.3487 19.9535 16.1819 19.9599 16.0106C19.9662 15.8392 19.9283 15.6692 19.85 15.5167ZM12.833 20.2357L12.833 18.2797L7.167 18.2797L7.167 20.2347C7.167 20.9587 7.754 21.5447 8.478 21.5447L11.521 21.5447C12.246 21.5447 12.833 20.9587 12.833 20.2347"/>
</mask>
<path d="M19.85 15.5167L21.6289 14.6027L21.6288 14.6025L19.85 15.5167ZM14.463 5.03469L12.463 5.03469L12.463 5.51854L12.6842 5.94889L14.463 5.03469ZM5.537 5.03469L7.31583 5.94889L7.537 5.51854L7.537 5.03469L5.537 5.03469ZM0.149999 15.5167L-1.62883 14.6025L-1.62893 14.6027L0.149999 15.5167ZM1.04 16.9737L1.04 14.9737L1.03893 14.9737L1.04 16.9737ZM18.96 16.9737L18.9611 14.9737L18.96 14.9737L18.96 16.9737ZM12.833 18.2797L14.833 18.2797L14.833 16.2797L12.833 16.2797L12.833 18.2797ZM7.167 18.2797L7.167 16.2797L5.167 16.2797L5.167 18.2797L7.167 18.2797ZM21.6288 14.6025L16.2418 4.1205L12.6842 5.94889L18.0712 16.4309L21.6288 14.6025ZM16.463 5.03469L16.463 1.9207L12.463 1.92069L12.463 5.03469L16.463 5.03469ZM16.463 1.9207C16.463 0.246127 15.1046 -1.1123 13.43 -1.1123L13.43 2.8877C12.8954 2.8877 12.463 2.45526 12.463 1.92069L16.463 1.9207ZM13.43 -1.1123L6.57 -1.11231L6.57 2.88769L13.43 2.8877L13.43 -1.1123ZM6.57 -1.11231C4.89543 -1.11231 3.537 0.246127 3.537 1.92069L7.537 1.92069C7.537 2.45526 7.10457 2.88769 6.57 2.88769L6.57 -1.11231ZM3.537 1.92069L3.537 5.03469L7.537 5.03469L7.537 1.92069L3.537 1.92069ZM3.75817 4.1205L-1.62883 14.6025L1.92883 16.4309L7.31583 5.94889L3.75817 4.1205ZM-1.62893 14.6027C-1.86397 15.0601 -1.97745 15.5703 -1.95849 16.0843L2.03879 15.9368C2.0451 16.1081 2.00728 16.2782 1.92893 16.4307L-1.62893 14.6027ZM-1.95849 16.0843C-1.93954 16.5982 -1.78878 17.0987 -1.52068 17.5375L1.89285 15.4524C1.98221 15.5987 2.03247 15.7655 2.03879 15.9368L-1.95849 16.0843ZM-1.52068 17.5375C-1.25259 17.9764 -0.876166 18.339 -0.427563 18.5905L1.52848 15.1014C1.67801 15.1852 1.80348 15.3061 1.89285 15.4524L-1.52068 17.5375ZM-0.427563 18.5905C0.021043 18.842 0.526773 18.974 1.04107 18.9737L1.03893 14.9737C1.21036 14.9736 1.37894 15.0176 1.52848 15.1014L-0.427563 18.5905ZM1.04 18.9737L18.96 18.9737L18.96 14.9737L1.04 14.9737L1.04 18.9737ZM18.9589 18.9737C19.4732 18.974 19.979 18.842 20.4276 18.5905L18.4715 15.1014C18.6211 15.0176 18.7896 14.9736 18.9611 14.9737L18.9589 18.9737ZM20.4276 18.5905C20.8762 18.339 21.2526 17.9764 21.5207 17.5375L18.1071 15.4524C18.1965 15.3061 18.322 15.1852 18.4715 15.1014L20.4276 18.5905ZM21.5207 17.5375C21.7888 17.0987 21.9395 16.5982 21.9585 16.0843L17.9612 15.9368C17.9675 15.7655 18.0178 15.5987 18.1071 15.4524L21.5207 17.5375ZM21.9585 16.0843C21.9775 15.5703 21.864 15.0601 21.6289 14.6027L18.0711 16.4307C17.9927 16.2782 17.9549 16.1082 17.9612 15.9368L21.9585 16.0843ZM14.833 20.2357L14.833 18.2797L10.833 18.2797L10.833 20.2357L14.833 20.2357ZM12.833 16.2797L7.167 16.2797L7.167 20.2797L12.833 20.2797L12.833 16.2797ZM5.167 18.2797L5.167 20.2347L9.167 20.2347L9.167 18.2797L5.167 18.2797ZM5.167 20.2347C5.167 22.0653 6.65142 23.5447 8.478 23.5447L8.478 19.5447C8.85658 19.5447 9.167 19.8521 9.167 20.2347L5.167 20.2347ZM8.478 23.5447L11.521 23.5447L11.521 19.5447L8.478 19.5447L8.478 23.5447ZM11.521 23.5447C13.3476 23.5447 14.833 22.0662 14.833 20.2347L10.833 20.2347C10.833 19.8511 11.1444 19.5447 11.521 19.5447L11.521 23.5447Z" fill="black" mask="url(#path-1-inside-1_403_4619)"/>
</svg>
