<svg width="50" height="41" viewBox="0 0 50 41" fill="none" xmlns="http://www.w3.org/2000/svg">
<path d="M9.3637 31.369H4.7557V30.748H9.1027V29.848H4.7557V29.245H9.2827V28.309H3.5767V32.305H9.3637V31.369ZM10.1467 32.899H2.6407V33.862H5.7907V36.283H6.9787V33.862H10.1467V32.899ZM19.6101 30.919H15.1281V29.371H19.5201V28.426H13.9131V31.864H19.6101V30.919ZM20.4741 32.674H12.9591V33.637H16.1001V36.265H17.2881V33.637H20.4741V32.674ZM24.9424 31.891H27.6334V28.687H23.7184V29.632H26.4184V30.955H23.7274V34.366H24.4744C25.9774 34.366 27.1924 34.312 28.5424 34.078L28.4164 33.115C27.2464 33.313 26.2024 33.376 24.9424 33.385V31.891ZM28.9924 27.976V36.292H30.1804V27.976H28.9924ZM38.8107 31.891C36.9387 31.567 35.9127 30.28 35.9127 29.065V28.471H34.6437V29.065C34.6437 30.253 33.6087 31.567 31.7457 31.891L32.2497 32.881C33.6897 32.602 34.7427 31.792 35.2737 30.739C35.8047 31.792 36.8667 32.593 38.3067 32.881L38.8107 31.891ZM31.5657 34.303V35.266H39.0717V34.303H31.5657ZM46.55 32.26H41.933V31.333H46.298V30.415H41.933V29.542H46.487V28.588H40.727V33.196H46.55V32.26ZM39.845 34.357V35.32H47.351V34.357H39.845Z" fill="#FFB800"/>
<path fill-rule="evenodd" clip-rule="evenodd" d="M32.5 2H17.5C17.2348 2 16.9804 2.10536 16.7929 2.29289C16.6054 2.48043 16.5 2.73478 16.5 3V21C16.5 21.2652 16.6054 21.5196 16.7929 21.7071C16.9804 21.8946 17.2348 22 17.5 22H26V17C26 15.622 27.122 14.5 28.5 14.5H33.5V3C33.5 2.73478 33.3946 2.48043 33.2071 2.29289C33.0196 2.10536 32.7652 2 32.5 2Z" fill="#FFB800"/>
<path fill-rule="evenodd" clip-rule="evenodd" d="M27.5 17V22L33.5 16H28.5C28.2348 16 27.9804 16.1054 27.7929 16.2929C27.6054 16.4804 27.5 16.7348 27.5 17Z" fill="#FFB800"/>
</svg>
