<svg width="50" height="41" viewBox="0 0 50 41" fill="none" xmlns="http://www.w3.org/2000/svg">
<path d="M9.26385 31.585H4.41285V30.55H8.97585V30.019H4.41285V29.029H9.16485V28.489H3.76485V32.125H9.26385V31.585ZM10.0829 32.989H2.77485V33.538H6.09585V36.157H6.75285V33.538H10.0829V32.989ZM19.4391 31.126H14.7501V29.128H19.3221V28.579H14.0841V31.675H19.4391V31.126ZM20.3661 32.764H13.0671V33.313H16.3701V36.13H17.0271V33.313H20.3661V32.764ZM24.4933 31.693H27.5083V28.858H23.8093V29.407H26.8513V31.153H23.8273V34.204H24.4933C25.8523 34.204 27.0673 34.141 28.5523 33.916L28.4893 33.358C27.0313 33.592 25.8253 33.655 24.4933 33.655V31.693ZM29.2813 28.093V36.157H29.9383V28.093H29.2813ZM38.5416 32.188C37.2186 31.927 35.5986 30.703 35.5986 29.299V28.678H34.9056V29.299C34.9056 30.703 33.2856 31.927 31.9626 32.188L32.2596 32.737C33.4476 32.449 34.7436 31.576 35.2476 30.379C35.7696 31.576 37.0746 32.449 38.2536 32.737L38.5416 32.188ZM31.6296 34.501V35.05H38.9376V34.501H31.6296ZM46.3619 32.476H41.5199V31.153H46.1009V30.613H41.5199V29.362H46.2809V28.813H40.8539V33.016H46.3619V32.476ZM39.8999 34.546V35.095H47.2079V34.546H39.8999Z" fill="black"/>
<mask id="path-2-inside-1_394_22546" fill="white">
<path fill-rule="evenodd" clip-rule="evenodd" d="M32.5 2H17.5C17.2348 2 16.9804 2.10536 16.7929 2.29289C16.6054 2.48043 16.5 2.73478 16.5 3V21C16.5 21.2652 16.6054 21.5196 16.7929 21.7071C16.9804 21.8946 17.2348 22 17.5 22H26V17C26 15.622 27.122 14.5 28.5 14.5H33.5V3C33.5 2.73478 33.3946 2.48043 33.2071 2.29289C33.0196 2.10536 32.7652 2 32.5 2Z"/>
</mask>
<path d="M17.5 2V0V2ZM16.5 3H14.5H16.5ZM16.5 21H14.5H16.5ZM26 22V24H28V22H26ZM33.5 14.5V16.5H35.5V14.5H33.5ZM32.5 0H17.5V4H32.5V0ZM17.5 0C16.7044 0 15.9413 0.31607 15.3787 0.87868L18.2071 3.70711C18.0196 3.89464 17.7652 4 17.5 4V0ZM15.3787 0.87868C14.8161 1.44129 14.5 2.20435 14.5 3H18.5C18.5 3.26522 18.3946 3.51957 18.2071 3.70711L15.3787 0.87868ZM14.5 3V21H18.5V3H14.5ZM14.5 21C14.5 21.7956 14.8161 22.5587 15.3787 23.1213L18.2071 20.2929C18.3946 20.4804 18.5 20.7348 18.5 21H14.5ZM15.3787 23.1213C15.9413 23.6839 16.7044 24 17.5 24V20C17.7652 20 18.0196 20.1054 18.2071 20.2929L15.3787 23.1213ZM17.5 24H26V20H17.5V24ZM28 22V17H24V22H28ZM28 17C28 16.7266 28.2266 16.5 28.5 16.5V12.5C26.0174 12.5 24 14.5174 24 17H28ZM28.5 16.5H33.5V12.5H28.5V16.5ZM35.5 14.5V3H31.5V14.5H35.5ZM35.5 3C35.5 2.20435 35.1839 1.44129 34.6213 0.87868L31.7929 3.70711C31.6054 3.51957 31.5 3.26521 31.5 3H35.5ZM34.6213 0.87868C34.0587 0.316069 33.2956 0 32.5 0V4C32.2348 4 31.9804 3.89464 31.7929 3.70711L34.6213 0.87868Z" fill="#989898" mask="url(#path-2-inside-1_394_22546)"/>
<path fill-rule="evenodd" clip-rule="evenodd" d="M27.5 17V22L33.5 16H28.5C28.2348 16 27.9804 16.1054 27.7929 16.2929C27.6054 16.4804 27.5 16.7348 27.5 17Z" fill="#989898"/>
</svg>
