<svg width="305" height="200" viewBox="0 0 305 200" fill="none" xmlns="http://www.w3.org/2000/svg">
<g clip-path="url(#clip0_766_11880)">
<g filter="url(#filter0_d_766_11880)">
<path d="M157.141 77.791L227.684 90.8157L157.141 103.841V77.791Z" fill="#1E156F"/>
<path d="M157.141 77.791L86.5977 90.8157L157.141 103.841V77.791Z" fill="#3427AF"/>
<path d="M227.684 169.062L157.141 184.062V103.842L227.684 90.8164V169.062Z" fill="#33279B"/>
<mask id="mask0_766_11880" style="mask-type:alpha" maskUnits="userSpaceOnUse" x="157" y="90" width="71" height="95">
<path d="M227.684 169.062L157.141 184.062V103.842L227.684 90.8164V169.062Z" fill="#33279B"/>
</mask>
<g mask="url(#mask0_766_11880)">
<path d="M186.692 185.062H198.134V96.2734L186.692 98.3859V185.062Z" fill="#FF534E"/>
</g>
<path d="M157.141 184.062L86.5977 169.062V90.8164L157.141 103.842V184.062Z" fill="#4B3CD9"/>
<mask id="mask1_766_11880" style="mask-type:alpha" maskUnits="userSpaceOnUse" x="86" y="90" width="72" height="95">
<path d="M157.141 184.062L86.5977 169.062V90.8164L157.141 103.842V184.062Z" fill="#4B3CD9"/>
</mask>
<g mask="url(#mask1_766_11880)">
<path d="M127.59 180.062L116.149 176.062V96.2734L127.59 98.3859V180.062Z" fill="#FF534E"/>
</g>
<path d="M239.041 41.1346C236.884 38.0051 232.598 37.2174 229.469 39.3753L229.405 39.4194C216.736 48.155 206.287 59.4599 198.534 72.1096C193.473 80.3669 189.562 89.2224 186.921 98.3429L189.805 97.8106C193.662 89.9441 198.496 82.6503 204.088 76.1321C213.15 65.5627 224.229 57.0046 236.328 51.2583C236.643 51.1061 236.986 50.912 237.283 50.7076C240.412 48.5493 241.2 44.2636 239.041 41.1346Z" fill="#FFEB37"/>
<path d="M242.498 66.0588C241.523 63.8941 238.977 62.9303 236.812 63.9066L236.774 63.9237C227.224 68.2283 218.871 74.5917 212.213 82.2087C208.667 86.2638 205.602 90.688 203.082 95.3586L206.016 94.8168C208.79 91.3171 211.885 88.1093 215.233 85.2498C222.477 79.0591 230.915 74.473 239.754 71.9603C239.945 71.9046 240.158 71.8283 240.345 71.7443C242.51 70.7684 243.473 68.2231 242.498 66.0588Z" fill="#FF534E"/>
<path d="M75.2398 41.1346C77.3972 38.0051 81.6829 37.2174 84.8123 39.3753L84.8762 39.4194C97.5452 48.155 107.994 59.4599 115.747 72.1096C120.808 80.3669 124.719 89.2224 127.36 98.3429L124.476 97.8106C120.619 89.9441 115.785 82.6503 110.193 76.1321C101.131 65.5627 90.0525 57.0046 77.9526 51.2583C77.6381 51.1061 77.2952 50.912 76.9982 50.7076C73.8701 48.5493 73.0823 44.2636 75.2398 41.1346Z" fill="#FFEB37"/>
<path d="M71.7838 66.0588C72.7596 63.8941 75.3054 62.9303 77.4696 63.9066L77.5078 63.9237C87.0581 68.2283 95.4109 74.5917 102.069 82.2087C105.614 86.2638 108.68 90.688 111.199 95.3586L108.266 94.8168C105.492 91.3171 102.397 88.1093 99.0495 85.2498C91.8049 79.0591 83.3672 74.473 74.5279 71.9603C74.3372 71.9046 74.1238 71.8283 73.9369 71.7443C71.7722 70.7684 70.8088 68.2231 71.7838 66.0588Z" fill="#FF534E"/>
<path d="M235.04 140.689L166.349 130.674L226.934 164.558L295.625 174.573L235.04 140.689Z" fill="#4B3CD9"/>
<path d="M166.349 130.674L160.666 147.409L221.251 181.293L226.934 164.558L166.349 130.674Z" fill="#3B2DBB"/>
<path d="M226.934 164.559L221.251 181.294L289.942 191.309L295.625 174.574L226.934 164.559Z" fill="#1C1C7A"/>
<path d="M195.691 134.951L256.276 168.836L266.284 170.295L205.698 136.41L195.691 134.951Z" fill="#FF534E"/>
<path d="M269.746 160.098L201.055 150.083L192.228 145.146L260.919 155.162L269.746 160.098Z" fill="#FF534E"/>
<path d="M195.372 166.82L186.545 161.883L192.228 145.148L201.055 150.085L195.372 166.82Z" fill="#D64440"/>
<path d="M250.593 185.571L260.601 187.03L266.284 170.295L256.276 168.836L250.593 185.571Z" fill="#FF534E"/>
<path d="M252.84 142.292C253.038 139.973 252.786 134.808 248.092 132.087C241.842 128.465 232.756 138.015 230.906 152.861" fill="#FF534E"/>
<path d="M230.906 152.861C230.906 152.861 244.88 135.146 251.53 139.977C258.998 145.403 232.558 153.21 230.906 152.861Z" fill="#F33E3E"/>
<path d="M219.943 131.122C221.199 129.162 224.543 125.218 229.924 125.918C237.087 126.851 238.478 139.959 230.906 152.862" fill="#FF534E"/>
<path d="M230.906 152.862C230.906 152.862 230.609 130.301 222.392 130.084C213.164 129.84 229.384 152.133 230.906 152.862Z" fill="#F33E3E"/>
<path d="M254.75 157.786C256.316 156.063 259.253 151.808 257.176 146.795C254.411 140.122 241.392 142.191 230.906 152.86" fill="#FF534E"/>
<path d="M230.906 152.861C230.906 152.861 252.766 147.275 255.115 155.152C257.753 163.998 232.007 154.141 230.906 152.861Z" fill="#F33E3E"/>
<path d="M208.994 142.25C208.8 139.929 209.062 134.765 213.762 132.054C220.019 128.444 229.086 138.013 230.906 152.862" fill="#FF534E"/>
<path d="M230.906 152.862C230.906 152.862 216.968 135.119 210.308 139.937C202.829 145.347 229.254 153.207 230.906 152.862Z" fill="#F33E3E"/>
<path d="M100.765 120.836L21.1184 120.836L21.1188 177.403C21.1188 180.312 38.9487 182.67 60.9421 182.67C82.9356 182.67 100.765 180.311 100.765 177.402V120.836Z" fill="#FFEB37"/>
<path d="M21.1184 130.303C27.4621 132.6 42.8958 134.223 60.9417 134.222C78.9871 134.222 94.4213 132.6 100.765 130.302V120.836L21.1184 120.836V130.303Z" fill="#DFCD2E"/>
<path d="M60.9412 106.293C37.2395 106.293 18.0254 109.091 18.0254 112.543V122.307C18.0254 125.759 37.2395 128.556 60.9417 128.556C84.6438 128.556 103.858 125.758 103.858 122.306V112.543C103.858 109.091 84.6434 106.293 60.9412 106.293Z" fill="#EAD623"/>
<path d="M100.765 170.981V170.375L90.1582 180.982C90.3982 180.948 90.6348 180.913 90.8683 180.878L100.765 170.981Z" fill="white"/>
<path d="M100.764 162.534V161.928L80.718 181.974C80.9387 181.957 81.1573 181.94 81.375 181.923L100.764 162.534Z" fill="white"/>
<path d="M100.764 146.745V146.139L64.2522 182.651C64.4571 182.649 64.6615 182.646 64.8655 182.644L100.764 146.745Z" fill="white"/>
<path d="M56.4285 182.636L100.765 138.299V137.693L55.8315 182.626C56.03 182.63 56.2293 182.633 56.4285 182.636Z" fill="white"/>
<path d="M41.2903 181.984L103.857 119.417V118.811L40.7275 181.94C40.9144 181.955 41.1017 181.97 41.2903 181.984Z" fill="white"/>
<path d="M33.0601 181.162C33.2375 181.185 33.4166 181.207 33.5975 181.23L103.296 111.532C103.196 111.442 103.084 111.352 102.958 111.264L33.0601 181.162Z" fill="white"/>
<path d="M90.4315 108.002L21.1187 177.315V177.402C21.1187 177.537 21.1577 177.672 21.2339 177.805L90.9629 108.077C90.7872 108.052 90.6106 108.027 90.4315 108.002Z" fill="white"/>
<path d="M82.8226 107.166L21.1187 168.87V169.476L83.3802 107.215C83.1951 107.198 83.0091 107.182 82.8226 107.166Z" fill="white"/>
<path d="M67.8258 106.373L21.1179 153.08L21.1183 153.686L68.4172 106.387C68.2205 106.382 68.0234 106.377 67.8258 106.373Z" fill="white"/>
<path d="M59.4558 106.297L21.1179 144.635V145.241L60.0644 106.295C59.8612 106.295 59.6585 106.296 59.4558 106.297Z" fill="white"/>
<path d="M43.1066 106.856L21.1179 128.845V129.451L43.7546 106.814C43.5382 106.828 43.3218 106.842 43.1066 106.856Z" fill="white"/>
<path d="M90.1147 132.553C90.3535 132.521 90.5853 132.488 90.8197 132.455L97.7575 125.518C97.5003 125.58 97.2376 125.641 96.9663 125.702L90.1147 132.553Z" fill="#FFEB37"/>
<path d="M80.7036 133.518C80.9226 133.502 81.142 133.485 81.3593 133.468L87.6285 127.199C87.4035 127.225 87.1738 127.251 86.9453 127.276L80.7036 133.518Z" fill="#FFEB37"/>
<path d="M64.2297 134.203C64.4355 134.2 64.6394 134.197 64.8443 134.194L70.6442 128.395C70.4367 128.401 70.2267 128.407 70.0185 128.414L64.2297 134.203Z" fill="#FFEB37"/>
<path d="M61.4335 128.555L55.811 134.177C56.0095 134.18 56.2092 134.183 56.408 134.186L62.0416 128.553C61.8385 128.554 61.6357 128.554 61.4335 128.555Z" fill="#FFEB37"/>
<path d="M41.2775 133.527L46.6059 128.199C46.4131 128.189 46.2224 128.178 46.0308 128.168L40.7144 133.485C40.8999 133.499 41.0902 133.513 41.2775 133.527Z" fill="#FFEB37"/>
<path d="M38.1505 127.604L33.0342 132.72C33.2125 132.742 33.3942 132.764 33.575 132.785L38.7072 127.653C38.5216 127.637 38.3348 127.62 38.1505 127.604Z" fill="#FFEB37"/>
<path d="M24.3841 125.58L21.1179 128.846V129.452L24.8756 125.694C24.7081 125.657 24.5456 125.619 24.3841 125.58Z" fill="#FFEB37"/>
<path d="M33.8187 107.699L18.3936 123.124C18.4818 123.223 18.586 123.321 18.706 123.418L34.5053 107.619C34.2738 107.645 34.0454 107.672 33.8187 107.699Z" fill="white"/>
<path d="M60.959 118.435C84.6621 118.355 103.868 115.605 103.857 112.294C103.846 108.982 84.6214 106.363 60.9182 106.444C37.215 106.525 18.0089 109.274 18.0201 112.586C18.0314 115.897 37.2558 118.516 60.959 118.435Z" fill="#FFEB37"/>
<path d="M60.9423 182.67C62.8648 182.67 64.754 182.65 66.6041 182.616L66.6037 106.349C64.7497 106.313 62.8627 106.293 60.9414 106.293C59.0214 106.293 57.1335 106.313 55.2795 106.349L55.2804 182.616C57.1305 182.65 59.0193 182.67 60.9423 182.67Z" fill="#FF534E"/>
<path d="M55.2798 128.502V134.168C57.1329 134.203 59.0212 134.223 60.9416 134.223C62.8621 134.223 64.7504 134.203 66.6035 134.168V128.502C64.7504 128.538 62.8621 128.557 60.9416 128.557C59.0212 128.557 57.1329 128.538 55.2798 128.502Z" fill="#F33E3E"/>
<path d="M60.9413 111.625C60.9413 111.625 58.7942 88.989 63.8762 84.9232C66.9238 82.485 68.4623 84.5087 70.9896 87.4337C73.5165 90.3583 75.6143 87.0437 79.8491 90.3326L60.9413 111.625Z" fill="#FF534E"/>
<path d="M60.9414 111.624C60.9414 111.624 71.1123 85.872 78.8077 89.6572C88.3408 94.3466 63.0071 111.519 60.9414 111.624Z" fill="#F33E3E"/>
<path d="M60.941 111.625C60.941 111.625 63.089 88.989 58.007 84.9232C54.9585 82.485 53.4208 84.5087 50.8931 87.4337C48.3654 90.3587 46.268 87.0437 42.0337 90.3326L60.941 111.625Z" fill="#FF534E"/>
<path d="M60.941 111.624C60.941 111.624 50.7705 85.8717 43.0747 89.6573C33.5424 94.3467 58.8761 111.519 60.941 111.624Z" fill="#F33E3E"/>
<path d="M60.941 111.625C60.941 111.625 48.3299 92.705 41.8225 92.756C37.919 92.786 38.0022 95.327 37.886 99.191C37.7699 103.055 34.0507 101.806 32.8396 107.028L60.941 111.625Z" fill="#FF534E"/>
<path d="M60.9408 111.625C60.9408 111.625 36.8054 98.0573 33.2217 105.849C28.7821 115.5 59.2724 112.846 60.9408 111.625Z" fill="#F33E3E"/>
<path d="M60.9412 111.625C60.9412 111.625 73.5532 92.7054 80.0602 92.756C83.9632 92.7864 83.8804 95.327 83.997 99.191C84.1136 103.055 87.8314 101.806 89.0434 107.028L60.9412 111.625Z" fill="#FF534E"/>
<path d="M60.9409 111.626C60.9409 111.626 85.0768 98.0575 88.6609 105.849C93.1005 115.5 62.6106 112.847 60.9409 111.626Z" fill="#F33E3E"/>
<path d="M157.859 44.0426C163.637 39.639 166.77 36.7011 166.77 32.0027C166.77 27.1093 163.247 24.0724 157.078 24.0724C150.518 24.0724 146.996 28.6749 146.996 33.669H129.963C129.963 19.5729 141.121 9 156.982 9C173.919 9 183.508 18.6921 183.508 32.0027C183.508 39.2481 179.985 45.0227 173.625 49.9166C166.475 55.4961 164.227 59.019 164.227 64.5021H148.072C148.071 54.8104 150.717 49.4263 157.859 44.0426ZM146.309 82.0217C146.309 76.0517 150.717 71.6481 156.687 71.6481C162.657 71.6481 167.065 76.0517 167.065 82.0217C167.065 87.9951 162.657 92.2993 156.687 92.2993C150.717 92.2993 146.309 87.9956 146.309 82.0217Z" fill="#FFEB37"/>
</g>
<path d="M48 46.6808C48 46.6808 45.2119 44.097 46.9861 39L41.1422 39.7845C41.1422 39.7845 40.0656 43.594 43.8372 48L48 46.6808Z" fill="#FF534E"/>
<path d="M53.732 12.4836C54.6886 12.0839 54.7925 10.9183 53.9641 9.88004C53.1357 8.84178 51.6886 8.32405 50.732 8.72368C49.7754 9.12331 49.6716 10.289 50.5 11.3272C51.3284 12.3655 52.7754 12.8832 53.732 12.4836Z" fill="white"/>
<path d="M219.407 9C219.407 9 213.241 9.73428 214.078 15.0747L216.225 15.5123C216.225 15.5123 217.217 11.758 223 11.9841L219.407 9Z" fill="#FFEB37"/>
<path d="M270.275 46.0547C268.915 47.0527 268.401 48.6632 269.127 49.652C269.853 50.6407 271.543 50.6332 272.903 49.6352C274.263 48.6372 274.776 47.0266 274.051 46.0379C273.325 45.0491 271.634 45.0566 270.275 46.0547Z" fill="white"/>
<path d="M269.81 35.7782C269.81 35.7782 269.216 33.72 272.202 30.5398L268.558 30.3559C268.558 30.3559 266.468 32.7626 266.919 36.1534L269.81 35.7782Z" fill="#FF534E"/>
<path d="M283.296 108.195C283.296 108.195 285.27 113.03 279.126 117.516L277.69 116.488C277.69 116.488 281.299 112.273 278.459 108.603L283.296 108.195Z" fill="white"/>
<path d="M95.9772 11.4433C95.9772 11.4433 92.7314 10.1465 90.4397 5.59204L87.6451 7.82268C87.6451 7.82268 89.4985 11.1576 94.4776 13.6385L95.9768 11.4431L95.9772 11.4433Z" fill="white"/>
<path d="M30.0182 71.7632C31.0031 71.3194 31.3013 69.8494 30.6841 68.4799C30.067 67.1104 28.7683 66.36 27.7834 66.8038C26.7984 67.2476 26.5003 68.7176 27.1174 70.0871C27.7346 71.4566 29.0333 72.2071 30.0182 71.7632Z" fill="white"/>
<path d="M253.308 86.8202C253.308 86.8202 253.285 91.6802 260.968 93.4368L261.955 92.0518C261.955 92.0518 256.826 89.6556 258.14 85.5043L253.308 86.8202Z" fill="#FFEB37"/>
</g>
<rect x="0.5" y="0.5" width="304" height="199" stroke="black"/>
<defs>
<filter id="filter0_d_766_11880" x="8.02002" y="3" width="297.605" height="202.309" filterUnits="userSpaceOnUse" color-interpolation-filters="sRGB">
<feFlood flood-opacity="0" result="BackgroundImageFix"/>
<feColorMatrix in="SourceAlpha" type="matrix" values="0 0 0 0 0 0 0 0 0 0 0 0 0 0 0 0 0 0 127 0" result="hardAlpha"/>
<feOffset dy="4"/>
<feGaussianBlur stdDeviation="5"/>
<feComposite in2="hardAlpha" operator="out"/>
<feColorMatrix type="matrix" values="0 0 0 0 0.0235684 0 0 0 0 0.0125868 0 0 0 0 0.120833 0 0 0 0.4 0"/>
<feBlend mode="normal" in2="BackgroundImageFix" result="effect1_dropShadow_766_11880"/>
<feBlend mode="normal" in="SourceGraphic" in2="effect1_dropShadow_766_11880" result="shape"/>
</filter>
<clipPath id="clip0_766_11880">
<rect width="305" height="200" fill="white"/>
</clipPath>
</defs>
</svg>
