<svg width="40" height="40" viewBox="0 0 40 40" fill="none" xmlns="http://www.w3.org/2000/svg">
<rect width="40" height="40" fill="white"/>
<path d="M16.4484 29L25 11H23.5516L15 29H16.4484Z" fill="black"/>
<path d="M11.692 21.894C13.863 21.894 15.371 20.672 15.371 18.93C15.371 17.357 14.136 16.486 13.187 16.265C13.993 16.018 15.007 15.173 15.007 13.847C15.007 12.3 13.668 11 11.692 11C9.703 11 8.364 12.287 8.364 13.847C8.364 15.173 9.378 16.018 10.184 16.265C9.248 16.486 8 17.357 8 18.93C8 20.672 9.508 21.894 11.692 21.894ZM11.692 15.654C10.509 15.654 9.677 14.861 9.677 13.86C9.677 12.898 10.47 12.144 11.692 12.144C12.914 12.144 13.707 12.924 13.707 13.886C13.707 14.874 12.875 15.654 11.692 15.654ZM11.692 20.75C10.249 20.75 9.326 19.931 9.326 18.852C9.326 17.76 10.327 16.915 11.692 16.915C13.044 16.915 14.045 17.76 14.045 18.852C14.045 19.931 13.122 20.75 11.692 20.75Z" fill="black"/>
<path d="M24.8714 29.0799H32.1124V27.8969H26.8344L29.5644 25.2189C31.1244 23.6199 31.7614 22.6709 31.7614 21.5529C31.7614 19.6809 30.3834 18.4199 28.2904 18.4199C26.1194 18.4199 24.7544 19.9669 24.7544 21.8519H26.1194C26.1194 20.6949 26.8734 19.6289 28.2774 19.6289C29.5774 19.6289 30.4094 20.3439 30.4094 21.5659C30.4094 22.3069 29.8894 23.1519 28.5634 24.4909L24.8714 28.1959V29.0799Z" fill="black"/>
</svg>
