<svg width="40" height="40" viewBox="0 0 40 40" fill="none" xmlns="http://www.w3.org/2000/svg">
<rect width="40" height="40" fill="white"/>
<path d="M16.4484 29L25 11H23.5516L15 29H16.4484Z" fill="black"/>
<path d="M11.692 21.894C13.863 21.894 15.371 20.672 15.371 18.93C15.371 17.357 14.136 16.486 13.187 16.265C13.993 16.018 15.007 15.173 15.007 13.847C15.007 12.3 13.668 11 11.692 11C9.703 11 8.364 12.287 8.364 13.847C8.364 15.173 9.378 16.018 10.184 16.265C9.248 16.486 8 17.357 8 18.93C8 20.672 9.508 21.894 11.692 21.894ZM11.692 15.654C10.509 15.654 9.677 14.861 9.677 13.86C9.677 12.898 10.47 12.144 11.692 12.144C12.914 12.144 13.707 12.924 13.707 13.886C13.707 14.874 12.875 15.654 11.692 15.654ZM11.692 20.75C10.249 20.75 9.326 19.931 9.326 18.852C9.326 17.76 10.327 16.915 11.692 16.915C13.044 16.915 14.045 17.76 14.045 18.852C14.045 19.931 13.122 20.75 11.692 20.75Z" fill="black"/>
<path d="M28.4597 29.313C30.6437 29.313 32.1387 27.818 32.1387 25.751C32.1387 23.671 30.6827 22.254 28.7067 22.254C27.5107 22.254 26.7437 22.774 26.3537 23.255L26.5357 19.849H31.6057V18.666H25.2877L24.9887 24.659H26.3277C26.6787 24.009 27.3417 23.424 28.4857 23.424C29.8637 23.424 30.7997 24.412 30.7997 25.751C30.7997 27.116 29.9027 28.13 28.4597 28.13C26.9907 28.13 26.1717 27.259 26.1327 26.141H24.7807C24.8587 27.948 26.2107 29.313 28.4597 29.313Z" fill="black"/>
</svg>
