<svg width="50" height="41" viewBox="0 0 50 41" fill="none" xmlns="http://www.w3.org/2000/svg">
<mask id="path-1-inside-1_1342_7960" fill="white">
<path fill-rule="evenodd" clip-rule="evenodd" d="M25 1.56494C19.201 1.56494 14.5 5.81794 14.5 11.0649C14.5 13.5919 15.598 15.8819 17.376 17.5849L16.508 21.8339C16.4895 21.9248 16.4967 22.0191 16.5287 22.1061C16.5607 22.1931 16.6162 22.2696 16.6892 22.3269C16.7621 22.3841 16.8496 22.42 16.9417 22.4304C17.0339 22.4409 17.1271 22.4255 17.211 22.3859L21.942 20.1529C22.9383 20.4267 23.9668 20.5652 25 20.5649C30.799 20.5649 35.5 16.3119 35.5 11.0649C35.5 5.81794 30.799 1.56494 25 1.56494Z"/>
</mask>
<path d="M17.376 17.5849L19.3355 17.9852L19.5564 16.904L18.7594 16.1406L17.376 17.5849ZM16.508 21.8339L14.5485 21.4336L14.5481 21.4353L16.508 21.8339ZM17.211 22.3859L18.0631 24.1953L18.0647 24.1946L17.211 22.3859ZM21.942 20.1529L22.4719 18.2244L21.7579 18.0282L21.0883 18.3443L21.942 20.1529ZM25 20.5649V18.5649H24.9994L25 20.5649ZM25 -0.435059C18.2895 -0.435059 12.5 4.52971 12.5 11.0649H16.5C16.5 7.10617 20.1125 3.56494 25 3.56494V-0.435059ZM12.5 11.0649C12.5 14.1947 13.8642 16.9907 15.9926 19.0293L18.7594 16.1406C17.3318 14.7732 16.5 12.9892 16.5 11.0649H12.5ZM15.4165 17.1846L14.5485 21.4336L18.4675 22.2342L19.3355 17.9852L15.4165 17.1846ZM14.5481 21.4353C14.4557 21.8897 14.4915 22.3609 14.6515 22.7961L18.4059 21.4161C18.5019 21.6772 18.5233 21.9599 18.4679 22.2326L14.5481 21.4353ZM14.6515 22.7961C14.8114 23.2313 15.0893 23.6135 15.454 23.8999L17.9243 20.7538C18.1432 20.9256 18.3099 21.1549 18.4059 21.4161L14.6515 22.7961ZM15.454 23.8999C15.8188 24.1863 16.2559 24.3655 16.7167 24.4177L17.1667 20.4431C17.4432 20.4744 17.7055 20.582 17.9243 20.7538L15.454 23.8999ZM16.7167 24.4177C17.1774 24.4699 17.6436 24.3929 18.0631 24.1953L16.3589 20.5766C16.6106 20.458 16.8903 20.4118 17.1667 20.4431L16.7167 24.4177ZM18.0647 24.1946L22.7957 21.9616L21.0883 18.3443L16.3573 20.5773L18.0647 24.1946ZM21.4121 22.0815C22.5812 22.4027 23.7882 22.5653 25.0006 22.5649L24.9994 18.5649C24.1455 18.5652 23.2953 18.4507 22.4719 18.2244L21.4121 22.0815ZM25 22.5649C31.7105 22.5649 37.5 17.6002 37.5 11.0649H33.5C33.5 15.0237 29.8875 18.5649 25 18.5649V22.5649ZM37.5 11.0649C37.5 4.52971 31.7105 -0.435059 25 -0.435059V3.56494C29.8875 3.56494 33.5 7.10617 33.5 11.0649H37.5Z" fill="#989898" mask="url(#path-1-inside-1_1342_7960)"/>
<path d="M19.5197 30.172H21.0857V29.623H19.5287V28.39H18.8987V29.623H17.3417V30.172H18.8987V30.586C18.8987 31.909 18.2327 33.331 17.1527 33.961L17.5487 34.456C18.3497 33.979 18.9347 33.052 19.2137 32.008C19.5107 32.989 20.1047 33.835 20.9057 34.285L21.2837 33.79C20.2127 33.205 19.5197 31.864 19.5197 30.586V30.172ZM23.4167 28.102V31.378H22.2827V28.282H21.6617V35.752H22.2827V31.936H23.4167V36.157H24.0467V28.102H23.4167ZM32.074 28.12H31.417V33.115H32.074V28.12ZM30.445 31.738C29.311 31.927 28.366 31.972 26.62 31.972V30.838H29.563V30.307H26.62V29.245H29.779V28.705H25.963V32.512H26.602C28.375 32.512 29.347 32.476 30.517 32.269L30.445 31.738ZM29.419 35.617C28.159 35.617 27.376 35.266 27.376 34.681C27.376 34.096 28.159 33.754 29.419 33.754C30.679 33.754 31.453 34.096 31.453 34.681C31.453 35.266 30.679 35.617 29.419 35.617ZM29.419 33.232C27.736 33.232 26.728 33.763 26.728 34.681C26.728 35.608 27.736 36.139 29.419 36.139C31.093 36.139 32.101 35.608 32.101 34.681C32.101 33.763 31.093 33.232 29.419 33.232Z" fill="black"/>
</svg>
