<svg width="50" height="41" viewBox="0 0 50 41" fill="none" xmlns="http://www.w3.org/2000/svg">
<path fill-rule="evenodd" clip-rule="evenodd" d="M25 1.56494C19.201 1.56494 14.5 5.81794 14.5 11.0649C14.5 13.5919 15.598 15.8819 17.376 17.5849L16.508 21.8339C16.4895 21.9248 16.4967 22.0191 16.5287 22.1061C16.5607 22.1931 16.6162 22.2696 16.6892 22.3269C16.7621 22.3841 16.8496 22.42 16.9417 22.4304C17.0339 22.4409 17.1271 22.4255 17.211 22.3859L21.942 20.1529C22.9383 20.4267 23.9668 20.5652 25 20.5649C30.799 20.5649 35.5 16.3119 35.5 11.0649C35.5 5.81794 30.799 1.56494 25 1.56494Z" fill="#FFD600"/>
<path d="M19.6817 30.343H20.9957V29.38H19.6817V28.255H18.5567V29.38H17.2337V30.343H18.5567V30.478C18.5567 31.756 18.1337 33.115 16.9547 33.799L17.6207 34.69C18.3677 34.267 18.8537 33.538 19.1327 32.674C19.4297 33.457 19.9067 34.114 20.6447 34.501L21.2747 33.619C20.1047 32.998 19.6817 31.729 19.6817 30.478V30.343ZM23.1557 27.976V31.153H22.4807V28.111H21.3737V35.896H22.4807V32.125H23.1557V36.265H24.2807V27.976H23.1557ZM32.272 27.985H31.075V33.007H32.272V27.985ZM30.391 31.504C29.356 31.657 28.447 31.693 27.016 31.702V31.054H29.581V30.136H27.016V29.497H29.824V28.561H25.837V32.638H26.548C28.294 32.638 29.329 32.611 30.499 32.422L30.391 31.504ZM29.473 35.365C28.402 35.365 27.826 35.158 27.826 34.699C27.826 34.249 28.402 34.033 29.473 34.033C30.553 34.033 31.12 34.249 31.12 34.699C31.12 35.158 30.553 35.365 29.473 35.365ZM29.473 33.124C27.718 33.124 26.647 33.709 26.647 34.699C26.647 35.707 27.718 36.283 29.473 36.283C31.228 36.283 32.308 35.707 32.308 34.699C32.308 33.709 31.228 33.124 29.473 33.124Z" fill="#FFD600"/>
</svg>
