<svg width="50" height="41" viewBox="0 0 50 41" fill="none" xmlns="http://www.w3.org/2000/svg">
<path d="M9.37741 28.957V29.497H12.3294C12.3024 30.01 12.2214 30.496 12.0594 30.973L8.96341 31.18L9.08941 31.756L11.8614 31.495C11.3574 32.602 10.4394 33.547 8.94541 34.294L9.32341 34.807C12.1404 33.385 12.9774 31.252 12.9774 28.957H9.37741ZM14.8674 28.111V31.36H12.9504V31.909H14.8674V36.157H15.5244V28.111H14.8674ZM22.9127 31.135H18.7817V29.083H22.9127V31.135ZM23.5517 28.543H18.1427V31.675H23.5517V28.543ZM24.5057 32.791H17.1977V33.34H19.0967V36.22H19.7447V33.34H21.9587V36.22H22.6157V33.34H24.5057V32.791ZM26.665 28.894H26.008V34.06H26.665C27.943 34.06 29.212 33.97 30.607 33.673L30.535 33.115C29.167 33.394 27.907 33.493 26.665 33.493V28.894ZM31.399 28.111V36.148H32.056V28.111H31.399ZM34.9443 31.648H37.8693V31.108H34.9443V29.389H38.1573V28.84H34.2873V34.195H34.9173C36.4743 34.195 37.5363 34.15 38.7963 33.925L38.7243 33.385C37.5093 33.601 36.4563 33.646 34.9443 33.646V31.648ZM39.6963 28.102V36.157H40.3533V28.102H39.6963Z" fill="black"/>
<mask id="path-2-inside-1_394_19855" fill="white">
<path fill-rule="evenodd" clip-rule="evenodd" d="M20.5 11.647C20.9925 11.647 21.4801 11.55 21.9351 11.3615C22.39 11.1731 22.8034 10.8968 23.1517 10.5486C23.4999 10.2004 23.7761 9.78701 23.9645 9.33204C24.153 8.87706 24.25 8.38943 24.25 7.89697C24.25 7.40452 24.153 6.91688 23.9645 6.46191C23.7761 6.00694 23.4999 5.59354 23.1517 5.24532C22.8034 4.8971 22.39 4.62088 21.9351 4.43242C21.4801 4.24397 20.9925 4.14697 20.5 4.14697C19.5054 4.14697 18.5516 4.54206 17.8483 5.24532C17.1451 5.94858 16.75 6.90241 16.75 7.89697C16.75 8.89153 17.1451 9.84536 17.8483 10.5486C18.5516 11.2519 19.5054 11.647 20.5 11.647ZM21 17.828C21 16.564 21.771 14.693 23.48 13.276C22.637 12.979 21.652 12.793 20.5 12.793C15.46 12.793 13.5 16.231 13.5 17.828C13.5 19.428 17.673 19.852 20.5 19.852C20.971 19.852 21.48 19.839 22.001 19.812C21.34 19.285 21 18.625 21 17.828Z"/>
</mask>
<path d="M20.5 4.14697V5.64697V4.14697ZM16.75 7.89697H15.25H16.75ZM23.48 13.276L24.4374 14.4307L26.4754 12.7409L23.9784 11.8612L23.48 13.276ZM22.001 19.812L22.0786 21.31L26.0293 21.1052L22.9361 18.6391L22.001 19.812ZM20.5 13.147C21.1894 13.147 21.8721 13.0112 22.5091 12.7473L21.361 9.9757C21.0881 10.0888 20.7955 10.147 20.5 10.147V13.147ZM22.5091 12.7473C23.146 12.4835 23.7248 12.0968 24.2123 11.6093L22.091 9.48796C21.8821 9.6969 21.634 9.86263 21.361 9.9757L22.5091 12.7473ZM24.2123 11.6093C24.6998 11.1218 25.0865 10.543 25.3504 9.90606L22.5787 8.75801C22.4657 9.03099 22.2999 9.27903 22.091 9.48796L24.2123 11.6093ZM25.3504 9.90606C25.6142 9.2691 25.75 8.58641 25.75 7.89697H22.75C22.75 8.19245 22.6918 8.48503 22.5787 8.75801L25.3504 9.90606ZM25.75 7.89697C25.75 7.20753 25.6142 6.52484 25.3504 5.88788L22.5787 7.03593C22.6918 7.30892 22.75 7.6015 22.75 7.89697H25.75ZM25.3504 5.88788C25.0865 5.25093 24.6998 4.67217 24.2123 4.18466L22.091 6.30598C22.2999 6.51491 22.4657 6.76295 22.5787 7.03593L25.3504 5.88788ZM24.2123 4.18466C23.7248 3.69715 23.146 3.31044 22.5091 3.04661L21.361 5.81824C21.634 5.93132 21.8821 6.09705 22.091 6.30598L24.2123 4.18466ZM22.5091 3.04661C21.8721 2.78277 21.1894 2.64697 20.5 2.64697V5.64697C20.7955 5.64697 21.0881 5.70517 21.361 5.81824L22.5091 3.04661ZM20.5 2.64697C19.1076 2.64697 17.7723 3.2001 16.7877 4.18466L18.909 6.30598C19.331 5.88403 19.9033 5.64697 20.5 5.64697V2.64697ZM16.7877 4.18466C15.8031 5.16923 15.25 6.50459 15.25 7.89697H18.25C18.25 7.30024 18.4871 6.72794 18.909 6.30598L16.7877 4.18466ZM15.25 7.89697C15.25 9.28936 15.8031 10.6247 16.7877 11.6093L18.909 9.48796C18.4871 9.06601 18.25 8.49371 18.25 7.89697H15.25ZM16.7877 11.6093C17.7723 12.5939 19.1076 13.147 20.5 13.147V10.147C19.9033 10.147 19.331 9.90992 18.909 9.48796L16.7877 11.6093ZM22.5 17.828C22.5 17.0731 23.0207 15.6053 24.4374 14.4307L22.5226 12.1213C20.5213 13.7806 19.5 16.0548 19.5 17.828H22.5ZM23.9784 11.8612C22.9711 11.5063 21.8172 11.293 20.5 11.293V14.293C21.4868 14.293 22.3029 14.4516 22.9816 14.6907L23.9784 11.8612ZM20.5 11.293C14.7117 11.293 12 15.3247 12 17.828H15C15 17.1373 16.2083 14.293 20.5 14.293V11.293ZM12 17.828C12 18.9897 12.7841 19.7161 13.4169 20.1009C14.0604 20.4922 14.8581 20.7385 15.6188 20.9052C17.1658 21.2441 19.037 21.352 20.5 21.352V18.352C19.136 18.352 17.5072 18.2478 16.2609 17.9747C15.625 17.8354 15.2028 17.6757 14.9755 17.5376C14.7376 17.3929 15 17.4663 15 17.828H12ZM20.5 21.352C20.9978 21.352 21.5327 21.3383 22.0786 21.31L21.9234 18.314C21.4273 18.3397 20.9442 18.352 20.5 18.352V21.352ZM22.9361 18.6391C22.5957 18.3677 22.5 18.1238 22.5 17.828H19.5C19.5 19.1261 20.0843 20.2022 21.0659 20.9848L22.9361 18.6391Z" fill="#989898" fill-opacity="0.72" mask="url(#path-2-inside-1_394_19855)"/>
<mask id="path-4-inside-2_394_19855" fill="white">
<path fill-rule="evenodd" clip-rule="evenodd" d="M29.5 12.794C24.46 12.794 22.5 16.231 22.5 17.829C22.5 19.427 26.673 19.853 29.5 19.853C32.327 19.853 36.5 19.427 36.5 17.829C36.5 16.231 34.54 12.794 29.5 12.794ZM29.5 11.647C29.9925 11.647 30.4801 11.55 30.9351 11.3615C31.39 11.1731 31.8034 10.8968 32.1517 10.5486C32.4999 10.2004 32.7761 9.78701 32.9645 9.33204C33.153 8.87706 33.25 8.38943 33.25 7.89697C33.25 7.40452 33.153 6.91688 32.9645 6.46191C32.7761 6.00694 32.4999 5.59354 32.1517 5.24532C31.8034 4.8971 31.39 4.62088 30.9351 4.43242C30.4801 4.24397 29.9925 4.14697 29.5 4.14697C28.5054 4.14697 27.5516 4.54206 26.8483 5.24532C26.1451 5.94858 25.75 6.90241 25.75 7.89697C25.75 8.89153 26.1451 9.84536 26.8483 10.5486C27.5516 11.2519 28.5054 11.647 29.5 11.647Z"/>
</mask>
<path d="M29.5 4.14697V6.14697V4.14697ZM25.75 7.89697H27.75H25.75ZM29.5 10.794C23.4624 10.794 20.5 15.0223 20.5 17.829H24.5C24.5 17.8301 24.5 17.8148 24.5045 17.7825C24.5089 17.7505 24.517 17.7067 24.5312 17.6515C24.5598 17.5401 24.6093 17.3976 24.6881 17.2335C24.846 16.9044 25.104 16.5248 25.4841 16.1655C26.2168 15.4726 27.4687 14.794 29.5 14.794V10.794ZM20.5 17.829C20.5 19.2449 21.4596 20.1043 22.1574 20.5284C22.87 20.9616 23.7301 21.2225 24.5115 21.3938C26.1084 21.744 28.02 21.853 29.5 21.853V17.853C28.153 17.853 26.5646 17.749 25.3683 17.4866C24.7531 17.3517 24.3931 17.2064 24.2351 17.1103C24.062 17.0051 24.5 17.212 24.5 17.829H20.5ZM29.5 21.853C30.98 21.853 32.8916 21.744 34.4885 21.3938C35.2699 21.2225 36.13 20.9616 36.8426 20.5284C37.5404 20.1043 38.5 19.2449 38.5 17.829H34.5C34.5 17.212 34.938 17.0051 34.7649 17.1103C34.6069 17.2064 34.2469 17.3517 33.6317 17.4866C32.4354 17.749 30.847 17.853 29.5 17.853V21.853ZM38.5 17.829C38.5 15.0223 35.5376 10.794 29.5 10.794V14.794C31.5313 14.794 32.7832 15.4726 33.5159 16.1655C33.896 16.5248 34.154 16.9044 34.3119 17.2335C34.3907 17.3976 34.4402 17.5401 34.4688 17.6515C34.483 17.7067 34.4911 17.7505 34.4955 17.7825C34.5 17.8148 34.5 17.8301 34.5 17.829H38.5ZM29.5 13.647C30.2551 13.647 31.0028 13.4982 31.7004 13.2093L30.1697 9.51376C29.9574 9.60171 29.7298 9.64697 29.5 9.64697V13.647ZM31.7004 13.2093C32.398 12.9203 33.0319 12.4968 33.5659 11.9628L30.7374 9.13441C30.5749 9.29691 30.382 9.42582 30.1697 9.51376L31.7004 13.2093ZM33.5659 11.9628C34.0998 11.4289 34.5233 10.795 34.8123 10.0974L31.1168 8.56667C31.0288 8.77899 30.8999 8.97191 30.7374 9.13441L33.5659 11.9628ZM34.8123 10.0974C35.1013 9.39978 35.25 8.65207 35.25 7.89697H31.25C31.25 8.12679 31.2047 8.35435 31.1168 8.56667L34.8123 10.0974ZM35.25 7.89697C35.25 7.14187 35.1013 6.39416 34.8123 5.69654L31.1168 7.22728C31.2047 7.4396 31.25 7.66716 31.25 7.89697H35.25ZM34.8123 5.69654C34.5233 4.99892 34.0998 4.36505 33.5659 3.83111L30.7374 6.65954C30.8999 6.82204 31.0288 7.01495 31.1168 7.22728L34.8123 5.69654ZM33.5659 3.83111C33.0319 3.29717 32.398 2.87363 31.7004 2.58467L30.1697 6.28018C30.382 6.36813 30.5749 6.49704 30.7374 6.65954L33.5659 3.83111ZM31.7004 2.58467C31.0028 2.2957 30.2551 2.14697 29.5 2.14697V6.14697C29.7298 6.14697 29.9574 6.19224 30.1697 6.28018L31.7004 2.58467ZM29.5 2.14697C27.975 2.14697 26.5125 2.75277 25.4341 3.83111L28.2626 6.65954C28.5908 6.33135 29.0359 6.14697 29.5 6.14697V2.14697ZM25.4341 3.83111C24.3558 4.90944 23.75 6.37198 23.75 7.89697H27.75C27.75 7.43284 27.9344 6.98772 28.2626 6.65954L25.4341 3.83111ZM23.75 7.89697C23.75 9.42197 24.3558 10.8845 25.4341 11.9628L28.2626 9.13441C27.9344 8.80622 27.75 8.3611 27.75 7.89697H23.75ZM25.4341 11.9628C26.5125 13.0412 27.975 13.647 29.5 13.647V9.64697C29.0359 9.64697 28.5908 9.4626 28.2626 9.13441L25.4341 11.9628Z" fill="#989898" mask="url(#path-4-inside-2_394_19855)"/>
</svg>
