<svg width="50" height="41" viewBox="0 0 50 41" fill="none" xmlns="http://www.w3.org/2000/svg">
<path d="M9.24241 28.777V29.722H11.8614C11.8254 30.118 11.7624 30.478 11.6814 30.829L8.80141 30.991L8.95441 31.99L11.3214 31.774C10.8444 32.683 10.0434 33.448 8.75641 34.123L9.40441 35.023C12.3744 33.466 13.0404 31.324 13.0404 28.777H9.24241ZM14.5704 27.985V31.162H13.0224V32.125H14.5704V36.274H15.7584V27.985H14.5704ZM22.5527 30.784H19.1417V29.317H22.5527V30.784ZM23.7137 28.372H17.9717V31.72H23.7137V28.372ZM24.6137 32.602H17.1077V33.547H18.8267V36.301H20.0057V33.547H21.7427V36.301H22.9307V33.547H24.6137V32.602ZM26.998 28.768H25.819V34.231H26.557C27.817 34.231 29.194 34.141 30.607 33.844L30.481 32.854C29.266 33.097 28.087 33.187 26.998 33.214V28.768ZM31.12 27.976V36.265H32.308V27.976H31.12ZM35.2953 31.909H37.9593V30.982H35.2953V29.632H38.3013V28.669H34.1073V34.402H34.8273C36.3123 34.402 37.4733 34.366 38.7693 34.168L38.6613 33.223C37.5273 33.394 36.5283 33.439 35.2953 33.448V31.909ZM39.3723 27.985V36.283H40.5693V27.985H39.3723Z" fill="#FFD600"/>
<path fill-rule="evenodd" clip-rule="evenodd" d="M20.5 11.647C20.9925 11.647 21.4801 11.55 21.9351 11.3615C22.39 11.1731 22.8034 10.8968 23.1517 10.5486C23.4999 10.2004 23.7761 9.78701 23.9645 9.33204C24.153 8.87706 24.25 8.38943 24.25 7.89697C24.25 7.40452 24.153 6.91688 23.9645 6.46191C23.7761 6.00694 23.4999 5.59354 23.1517 5.24532C22.8034 4.8971 22.39 4.62088 21.9351 4.43242C21.4801 4.24397 20.9925 4.14697 20.5 4.14697C19.5054 4.14697 18.5516 4.54206 17.8483 5.24532C17.1451 5.94858 16.75 6.90241 16.75 7.89697C16.75 8.89153 17.1451 9.84536 17.8483 10.5486C18.5516 11.2519 19.5054 11.647 20.5 11.647M21 17.828C21 16.564 21.771 14.693 23.48 13.276C22.637 12.979 21.652 12.793 20.5 12.793C15.46 12.793 13.5 16.231 13.5 17.828C13.5 19.428 17.673 19.852 20.5 19.852C20.971 19.852 21.48 19.839 22.001 19.812C21.34 19.285 21 18.625 21 17.828Z" fill="#FFD600" fill-opacity="0.7"/>
<path fill-rule="evenodd" clip-rule="evenodd" d="M29.5 12.794C24.46 12.794 22.5 16.231 22.5 17.829C22.5 19.427 26.673 19.853 29.5 19.853C32.327 19.853 36.5 19.427 36.5 17.829C36.5 16.231 34.54 12.794 29.5 12.794ZM29.5 11.647C29.9925 11.647 30.4801 11.55 30.9351 11.3615C31.39 11.1731 31.8034 10.8968 32.1517 10.5486C32.4999 10.2004 32.7761 9.78701 32.9645 9.33204C33.153 8.87706 33.25 8.38943 33.25 7.89697C33.25 7.40452 33.153 6.91688 32.9645 6.46191C32.7761 6.00694 32.4999 5.59354 32.1517 5.24532C31.8034 4.8971 31.39 4.62088 30.9351 4.43242C30.4801 4.24397 29.9925 4.14697 29.5 4.14697C28.5054 4.14697 27.5516 4.54206 26.8483 5.24532C26.1451 5.94858 25.75 6.90241 25.75 7.89697C25.75 8.89153 26.1451 9.84536 26.8483 10.5486C27.5516 11.2519 28.5054 11.647 29.5 11.647" fill="#FFD600"/>
</svg>
