<svg width="50" height="41" viewBox="0 0 50 41" fill="none" xmlns="http://www.w3.org/2000/svg">
<path d="M14.5135 28.111H13.8565V34.069H14.5135V28.111ZM12.8665 32.404C11.6965 32.035 10.8055 31.072 10.8055 29.983V29.74H12.6595V29.2H10.8145V28.138H10.1575V29.2H8.28545V29.74H10.1575V29.983C10.1575 31.135 9.28445 32.161 8.11445 32.557L8.42945 33.07C9.38345 32.737 10.1485 32.026 10.4905 31.108C10.8595 31.954 11.6065 32.611 12.5515 32.917L12.8665 32.404ZM10.0225 35.428V33.511H9.37445V35.977H14.7655V35.428H10.0225ZM23.4858 32.098H22.2708C22.5048 30.937 22.5048 30.1 22.5048 29.335V28.633H17.1408V29.182H21.8568V29.335C21.8568 30.1 21.8568 30.946 21.6138 32.098H16.2138V32.647H19.5078V36.166H20.1648V32.647H23.4858V32.098ZM27.298 34.168H32.203V36.157H32.86V33.628H27.298V34.168ZM28.072 28.975H32.185V30.622H28.072V28.975ZM30.457 32.215V31.162H32.824V28.444H27.424V31.162H29.809V32.215H26.488V32.755H33.769V32.215H30.457ZM35.5773 34.285H40.5003V36.076H41.1573V33.745H35.5773V34.285ZM38.7453 32.548V31.657H41.2833V31.135H36.3603V30.226H41.1213V28.309H35.6943V28.84H40.4733V29.731H35.7123V31.657H38.0883V32.548H34.7583V33.097H42.0663V32.548H38.7453Z" fill="black"/>
<mask id="path-2-inside-1_1342_7955" fill="white">
<path fill-rule="evenodd" clip-rule="evenodd" d="M35.9999 10.1H33.8999V8.00005C33.8922 7.76668 33.794 7.54546 33.6261 7.38313C33.4583 7.22079 33.2339 7.13004 33.0004 7.13004C32.7669 7.13004 32.5426 7.22079 32.3747 7.38313C32.2069 7.54546 32.1087 7.76668 32.1009 8.00005V10.1H29.9999C29.7613 10.1 29.5323 10.1949 29.3635 10.3637C29.1948 10.5324 29.0999 10.7614 29.0999 11C29.0999 11.2387 29.1948 11.4677 29.3635 11.6364C29.5323 11.8052 29.7613 11.9 29.9999 11.9H32.1009V14C32.0969 14.1207 32.1172 14.2409 32.1606 14.3536C32.204 14.4662 32.2696 14.569 32.3535 14.6557C32.4375 14.7425 32.538 14.8115 32.6491 14.8586C32.7603 14.9058 32.8797 14.93 33.0004 14.93C33.1212 14.93 33.2406 14.9058 33.3518 14.8586C33.4629 14.8115 33.5634 14.7425 33.6474 14.6557C33.7313 14.569 33.7969 14.4662 33.8403 14.3536C33.8837 14.2409 33.904 14.1207 33.8999 14V11.9H35.9999C36.2386 11.9 36.4676 11.8052 36.6363 11.6364C36.8051 11.4677 36.8999 11.2387 36.8999 11C36.8999 10.7614 36.8051 10.5324 36.6363 10.3637C36.4676 10.1949 36.2386 10.1 35.9999 10.1ZM22.9999 11.456C24.1547 11.456 25.2622 10.9973 26.0787 10.1808C26.8952 9.36426 27.3539 8.2568 27.3539 7.10205C27.3539 5.94729 26.8952 4.83984 26.0787 4.0233C25.2622 3.20677 24.1547 2.74805 22.9999 2.74805C21.8452 2.74805 20.7377 3.20677 19.9212 4.0233C19.1047 4.83984 18.6459 5.94729 18.6459 7.10205C18.6459 8.2568 19.1047 9.36426 19.9212 10.1808C20.7377 10.9973 21.8452 11.456 22.9999 11.456ZM22.9999 12.788C16.7309 12.788 14.2939 16.777 14.2939 18.633C14.2939 20.488 19.4829 20.982 22.9999 20.982C26.5169 20.982 31.7059 20.488 31.7059 18.632C31.7059 16.777 29.2689 12.788 22.9999 12.788Z"/>
</mask>
<path d="M33.8999 10.1H31.8999V12.1H33.8999V10.1ZM33.8999 8.00005H35.8999V7.96671L35.8988 7.93339L33.8999 8.00005ZM32.1009 8.00005L30.1021 7.93339L30.1009 7.96671V8.00005H32.1009ZM32.1009 10.1V12.1H34.1009V10.1H32.1009ZM29.9999 10.1V8.10005V10.1ZM32.1009 11.9H34.1009V9.90005H32.1009V11.9ZM32.1009 14L34.0998 14.0667L34.1009 14.0334V14H32.1009ZM33.8999 14H31.8999V14.0334L31.9011 14.0667L33.8999 14ZM33.8999 11.9V9.90005H31.8999V11.9H33.8999ZM35.9999 11.9V9.90005V11.9ZM22.9999 2.74805V0.748047V2.74805ZM18.6459 7.10205H16.6459H18.6459ZM35.9999 8.10005H33.8999V12.1H35.9999V8.10005ZM35.8999 10.1V8.00005H31.8999V10.1H35.8999ZM35.8988 7.93339C35.8738 7.18142 35.5574 6.46863 35.0166 5.94554L32.2357 8.82072C32.0306 8.6223 31.9106 8.35193 31.9011 8.0667L35.8988 7.93339ZM35.0166 5.94554C34.4758 5.42246 33.7528 5.13004 33.0004 5.13004V9.13004C32.7151 9.13004 32.4408 9.01913 32.2357 8.82072L35.0166 5.94554ZM33.0004 5.13004C32.2481 5.13004 31.5251 5.42246 30.9843 5.94554L33.7652 8.82072C33.5601 9.01913 33.2858 9.13004 33.0004 9.13004V5.13004ZM30.9843 5.94554C30.4435 6.46862 30.1271 7.18141 30.1021 7.93339L34.0998 8.0667C34.0903 8.35194 33.9703 8.62231 33.7652 8.82072L30.9843 5.94554ZM30.1009 8.00005V10.1H34.1009V8.00005H30.1009ZM32.1009 8.10005H29.9999V12.1H32.1009V8.10005ZM29.9999 8.10005C29.2308 8.10005 28.4932 8.40558 27.9493 8.94944L30.7778 11.7779C30.5715 11.9842 30.2917 12.1 29.9999 12.1V8.10005ZM27.9493 8.94944C27.4055 9.4933 27.0999 10.2309 27.0999 11H31.0999C31.0999 11.2918 30.9841 11.5716 30.7778 11.7779L27.9493 8.94944ZM27.0999 11C27.0999 11.7692 27.4055 12.5068 27.9493 13.0507L30.7778 10.2222C30.9841 10.4285 31.0999 10.7083 31.0999 11H27.0999ZM27.9493 13.0507C28.4932 13.5945 29.2308 13.9 29.9999 13.9V9.90005C30.2917 9.90005 30.5715 10.0159 30.7778 10.2222L27.9493 13.0507ZM29.9999 13.9H32.1009V9.90005H29.9999V13.9ZM30.1009 11.9V14H34.1009V11.9H30.1009ZM30.1021 13.9334C30.0891 14.3221 30.1545 14.7095 30.2943 15.0725L34.0269 13.6346C34.08 13.7723 34.1047 13.9193 34.0998 14.0667L30.1021 13.9334ZM30.2943 15.0725C30.4341 15.4355 30.6455 15.7666 30.9159 16.0462L33.7911 13.2653C33.8937 13.3713 33.9739 13.4969 34.0269 13.6346L30.2943 15.0725ZM30.9159 16.0462C31.1864 16.3258 31.5103 16.5481 31.8684 16.7L33.4299 13.0173C33.5657 13.0749 33.6885 13.1592 33.7911 13.2653L30.9159 16.0462ZM31.8684 16.7C32.2265 16.8518 32.6115 16.93 33.0004 16.93V12.93C33.148 12.93 33.294 12.9597 33.4299 13.0173L31.8684 16.7ZM33.0004 16.93C33.3894 16.93 33.7744 16.8518 34.1325 16.7L32.571 13.0173C32.7069 12.9597 32.8529 12.93 33.0004 12.93V16.93ZM34.1325 16.7C34.4906 16.5481 34.8145 16.3258 35.0849 16.0462L32.2098 13.2653C32.3123 13.1592 32.4352 13.0749 32.571 13.0173L34.1325 16.7ZM35.0849 16.0462C35.3554 15.7666 35.5668 15.4355 35.7066 15.0725L31.974 13.6346C32.027 13.497 32.1072 13.3714 32.2098 13.2653L35.0849 16.0462ZM35.7066 15.0725C35.8464 14.7095 35.9118 14.3221 35.8988 13.9334L31.9011 14.0667C31.8961 13.9193 31.9209 13.7723 31.974 13.6346L35.7066 15.0725ZM35.8999 14V11.9H31.8999V14H35.8999ZM33.8999 13.9H35.9999V9.90005H33.8999V13.9ZM35.9999 13.9C36.7691 13.9 37.5067 13.5945 38.0506 13.0507L35.2221 10.2222C35.4284 10.0159 35.7082 9.90005 35.9999 9.90005V13.9ZM38.0506 13.0507C38.5944 12.5068 38.8999 11.7692 38.8999 11H34.8999C34.8999 10.7083 35.0158 10.4285 35.2221 10.2222L38.0506 13.0507ZM38.8999 11C38.8999 10.2309 38.5944 9.4933 38.0506 8.94944L35.2221 11.7779C35.0158 11.5716 34.8999 11.2918 34.8999 11H38.8999ZM38.0506 8.94944C37.5067 8.40558 36.7691 8.10005 35.9999 8.10005V12.1C35.7082 12.1 35.4284 11.9842 35.2221 11.7779L38.0506 8.94944ZM22.9999 13.456C24.6851 13.456 26.3013 12.7866 27.4929 11.595L24.6645 8.76658C24.223 9.20804 23.6243 9.45605 22.9999 9.45605V13.456ZM27.4929 11.595C28.6845 10.4034 29.3539 8.78723 29.3539 7.10205H25.3539C25.3539 7.72637 25.1059 8.32512 24.6645 8.76658L27.4929 11.595ZM29.3539 7.10205C29.3539 5.41686 28.6845 3.8007 27.4929 2.60909L24.6645 5.43752C25.1059 5.87898 25.3539 6.47773 25.3539 7.10205H29.3539ZM27.4929 2.60909C26.3013 1.41748 24.6851 0.748047 22.9999 0.748047V4.74805C23.6243 4.74805 24.223 4.99606 24.6645 5.43752L27.4929 2.60909ZM22.9999 0.748047C21.3148 0.748047 19.6986 1.41748 18.507 2.60909L21.3354 5.43752C21.7769 4.99606 22.3756 4.74805 22.9999 4.74805V0.748047ZM18.507 2.60909C17.3154 3.8007 16.6459 5.41686 16.6459 7.10205H20.6459C20.6459 6.47773 20.894 5.87898 21.3354 5.43752L18.507 2.60909ZM16.6459 7.10205C16.6459 8.78723 17.3154 10.4034 18.507 11.595L21.3354 8.76658C20.894 8.32512 20.6459 7.72637 20.6459 7.10205H16.6459ZM18.507 11.595C19.6986 12.7866 21.3148 13.456 22.9999 13.456V9.45605C22.3756 9.45605 21.7769 9.20804 21.3354 8.76658L18.507 11.595ZM22.9999 10.788C15.8686 10.788 12.2939 15.4449 12.2939 18.633H16.2939C16.2939 18.1092 17.5933 14.788 22.9999 14.788V10.788ZM12.2939 18.633C12.2939 20.182 13.4058 21.0871 14.1728 21.5222C14.9843 21.9826 15.9828 22.2694 16.9272 22.4626C18.8521 22.8564 21.1798 22.982 22.9999 22.982V18.982C21.3031 18.982 19.2778 18.8607 17.729 18.5438C16.9364 18.3816 16.4179 18.197 16.1466 18.0431C15.8307 17.8639 16.2939 18.0115 16.2939 18.633H12.2939ZM22.9999 22.982C24.8201 22.982 27.1478 22.8564 29.0729 22.4624C30.0172 22.2691 31.0158 21.9823 31.8275 21.5216C32.5947 21.0861 33.7059 20.1808 33.7059 18.632H29.7059C29.7059 18.0113 30.1685 17.8638 29.853 18.0429C29.5818 18.1968 29.0633 18.3815 28.2708 18.5437C26.7221 18.8607 24.6968 18.982 22.9999 18.982V22.982ZM33.7059 18.632C33.7059 15.4447 30.1311 10.788 22.9999 10.788V14.788C28.4068 14.788 29.7059 18.1093 29.7059 18.632H33.7059Z" fill="#989898" mask="url(#path-2-inside-1_1342_7955)"/>
</svg>
