<svg width="50" height="41" viewBox="0 0 50 41" fill="none" xmlns="http://www.w3.org/2000/svg">
<path d="M14.6939 27.985H13.4969V34.051H14.6939V27.985ZM12.9749 32.125C11.6249 31.756 11.0219 30.829 11.0219 29.92V29.875H12.6869V28.939H11.0219V28.03H9.83388V28.939H8.15988V29.875H9.83388V29.92C9.83388 30.892 9.23988 31.864 7.88988 32.269L8.44788 33.187C9.41088 32.908 10.0769 32.305 10.4459 31.549C10.8329 32.242 11.4809 32.791 12.4259 33.052L12.9749 32.125ZM10.3649 35.185V33.52H9.17688V36.13H14.9009V35.185H10.3649ZM23.5852 31.99H22.4962C22.7032 30.829 22.7032 29.983 22.7032 29.209V28.462H16.9522V29.416H21.5422C21.5422 30.127 21.5242 30.937 21.3172 31.99H16.0972V32.944H19.1932V36.274H20.3992V32.944H23.5852V31.99ZM27.2345 34.501H31.8065V36.283H32.9945V33.556H27.2345V34.501ZM28.4945 29.236H31.7795V30.307H28.4945V29.236ZM30.7355 32.017V31.243H32.9495V28.309H27.3245V31.243H29.5475V32.017H26.4065V32.962H33.8945V32.017H30.7355ZM35.5138 34.771H40.1398V36.247H41.3278V33.835H35.5138V34.771ZM39.0328 32.422V31.828H41.4448V30.928H36.7918V30.388H41.2738V28.147H35.6038V29.047H40.1038V29.551H35.6218V31.828H37.8448V32.422H34.6858V33.367H42.1918V32.422H39.0328Z" fill="#FFD600"/>
<path fill-rule="evenodd" clip-rule="evenodd" d="M35.9999 10.1H33.8999V8.00005C33.8922 7.76668 33.794 7.54546 33.6261 7.38313C33.4583 7.22079 33.2339 7.13004 33.0004 7.13004C32.7669 7.13004 32.5426 7.22079 32.3747 7.38313C32.2069 7.54546 32.1087 7.76668 32.1009 8.00005V10.1H29.9999C29.7613 10.1 29.5323 10.1949 29.3635 10.3637C29.1948 10.5324 29.0999 10.7614 29.0999 11C29.0999 11.2387 29.1948 11.4677 29.3635 11.6364C29.5323 11.8052 29.7613 11.9 29.9999 11.9H32.1009V14C32.0969 14.1207 32.1172 14.2409 32.1606 14.3536C32.204 14.4662 32.2696 14.569 32.3535 14.6557C32.4375 14.7425 32.538 14.8115 32.6491 14.8586C32.7603 14.9058 32.8797 14.93 33.0004 14.93C33.1212 14.93 33.2406 14.9058 33.3518 14.8586C33.4629 14.8115 33.5634 14.7425 33.6474 14.6557C33.7313 14.569 33.7969 14.4662 33.8403 14.3536C33.8837 14.2409 33.904 14.1207 33.8999 14V11.9H35.9999C36.2386 11.9 36.4676 11.8052 36.6363 11.6364C36.8051 11.4677 36.8999 11.2387 36.8999 11C36.8999 10.7614 36.8051 10.5324 36.6363 10.3637C36.4676 10.1949 36.2386 10.1 35.9999 10.1ZM22.9999 11.456C24.1547 11.456 25.2622 10.9973 26.0787 10.1808C26.8952 9.36426 27.3539 8.2568 27.3539 7.10205C27.3539 5.94729 26.8952 4.83984 26.0787 4.0233C25.2622 3.20677 24.1547 2.74805 22.9999 2.74805C21.8452 2.74805 20.7377 3.20677 19.9212 4.0233C19.1047 4.83984 18.6459 5.94729 18.6459 7.10205C18.6459 8.2568 19.1047 9.36426 19.9212 10.1808C20.7377 10.9973 21.8452 11.456 22.9999 11.456ZM22.9999 12.788C16.7309 12.788 14.2939 16.777 14.2939 18.633C14.2939 20.488 19.4829 20.982 22.9999 20.982C26.5169 20.982 31.7059 20.488 31.7059 18.632C31.7059 16.777 29.2689 12.788 22.9999 12.788Z" fill="#FFD600"/>
</svg>
