<svg width="50" height="41" viewBox="0 0 50 41" fill="none" xmlns="http://www.w3.org/2000/svg">
<path d="M28.3484 28.57H25.5854V27.922H24.3974V28.57H21.5984V29.461H28.3484V28.57ZM23.2814 34.645H26.6744V35.302H23.2814V34.645ZM22.1204 36.175H27.8444V33.772H22.1204V36.175ZM23.4884 30.847C23.4884 30.577 23.9654 30.469 24.9914 30.469C26.0264 30.469 26.4944 30.577 26.4944 30.847C26.4944 31.117 26.0264 31.234 24.9914 31.234C23.9654 31.234 23.4884 31.117 23.4884 30.847ZM25.5854 32.422V32.008C26.9894 31.927 27.7724 31.54 27.7724 30.847C27.7724 30.064 26.7734 29.668 24.9914 29.668C23.2184 29.668 22.2194 30.064 22.2194 30.847C22.2194 31.54 23.0024 31.927 24.3974 32.008V32.422H21.2384V33.34H28.7444V32.422H25.5854Z" fill="#FFD600"/>
<path fill-rule="evenodd" clip-rule="evenodd" d="M34.069 8.20407L25.622 1.48707C25.4453 1.34623 25.226 1.26953 25 1.26953C24.7741 1.26953 24.5548 1.34623 24.378 1.48707L15.93 8.20407C15.6946 8.39135 15.5044 8.62933 15.3737 8.90029C15.243 9.17126 15.1751 9.46822 15.175 9.76907V19.1871C15.175 19.8236 15.4279 20.434 15.878 20.8841C16.3281 21.3342 16.9385 21.5871 17.575 21.5871H23V16.8351C23 16.5699 23.1054 16.3155 23.2929 16.128C23.4805 15.9404 23.7348 15.8351 24 15.8351H26C26.2653 15.8351 26.5196 15.9404 26.7072 16.128C26.8947 16.3155 27 16.5699 27 16.8351V21.5871H32.424C33.0606 21.5871 33.671 21.3342 34.1211 20.8841C34.5712 20.434 34.824 19.8236 34.824 19.1871V9.77007C34.824 9.46922 34.7561 9.17226 34.6254 8.90129C34.4947 8.63033 34.3045 8.39235 34.069 8.20507" fill="#FFD600"/>
</svg>
