<svg width="50" height="41" viewBox="0 0 50 41" fill="none" xmlns="http://www.w3.org/2000/svg">
<path d="M28.1864 28.786H25.3154V27.976H24.6674V28.786H21.7334V29.308H28.1864V28.786ZM22.8944 34.276H27.0794V35.527H22.8944V34.276ZM22.2554 36.04H27.7184V33.763H22.2554V36.04ZM23.1014 30.784C23.1014 30.361 23.7944 30.118 24.9914 30.118C26.1794 30.118 26.8634 30.361 26.8634 30.784C26.8634 31.216 26.1794 31.459 24.9914 31.459C23.7944 31.459 23.1014 31.216 23.1014 30.784ZM25.3154 32.575V31.918C26.7464 31.873 27.5564 31.486 27.5564 30.784C27.5564 30.037 26.6204 29.641 24.9914 29.641C23.3444 29.641 22.4084 30.037 22.4084 30.784C22.4084 31.486 23.2184 31.873 24.6674 31.918V32.575H21.3554V33.115H28.6184V32.575H25.3154Z" fill="black"/>
<mask id="path-2-inside-1_1342_7936" fill="white">
<path fill-rule="evenodd" clip-rule="evenodd" d="M34.069 8.20407L25.622 1.48707C25.4453 1.34623 25.226 1.26953 25 1.26953C24.7741 1.26953 24.5548 1.34623 24.378 1.48707L15.93 8.20407C15.6946 8.39135 15.5044 8.62933 15.3737 8.90029C15.243 9.17126 15.1751 9.46822 15.175 9.76907V19.1871C15.175 19.8236 15.4279 20.434 15.878 20.8841C16.3281 21.3342 16.9385 21.5871 17.575 21.5871H23V16.8351C23 16.5699 23.1054 16.3155 23.2929 16.128C23.4805 15.9404 23.7348 15.8351 24 15.8351H26C26.2653 15.8351 26.5196 15.9404 26.7072 16.128C26.8947 16.3155 27 16.5699 27 16.8351V21.5871H32.424C33.0606 21.5871 33.671 21.3342 34.1211 20.8841C34.5712 20.434 34.824 19.8236 34.824 19.1871V9.77007C34.824 9.46922 34.7561 9.17226 34.6254 8.90129C34.4947 8.63033 34.3045 8.39235 34.069 8.20507"/>
</mask>
<path d="M25.622 1.48707L24.3756 3.05112L24.3773 3.05247L25.622 1.48707ZM25 1.26953V-0.730469V1.26953ZM24.378 1.48707L25.6228 3.05254L25.6245 3.05112L24.378 1.48707ZM15.93 8.20407L14.6853 6.6386L14.685 6.63883L15.93 8.20407ZM15.175 9.76907L13.175 9.76883V9.76907H15.175ZM23 21.5871V23.5871H25V21.5871H23ZM27 21.5871H25V23.5871H27V21.5871ZM32.424 21.5871V23.5871V21.5871ZM34.824 9.77007H36.824V9.76983L34.824 9.77007ZM35.3138 6.63867L26.8668 -0.0783314L24.3773 3.05247L32.8243 9.76947L35.3138 6.63867ZM26.8685 -0.0769811C26.3377 -0.500074 25.6789 -0.730469 25 -0.730469V3.26953C24.7732 3.26953 24.553 3.19253 24.3756 3.05112L26.8685 -0.0769811ZM25 -0.730469C24.3212 -0.730469 23.6624 -0.500074 23.1316 -0.0769811L25.6245 3.05112C25.4471 3.19253 25.2269 3.26953 25 3.26953V-0.730469ZM23.1333 -0.078403L14.6853 6.6386L17.1748 9.76954L25.6228 3.05254L23.1333 -0.078403ZM14.685 6.63883C14.2142 7.01339 13.8338 7.48935 13.5724 8.03128L17.175 9.76931H17.175L14.685 6.63883ZM13.5724 8.03128C13.3109 8.57321 13.1751 9.16713 13.175 9.76883L17.175 9.76931V9.76931L13.5724 8.03128ZM13.175 9.76907V19.1871H17.175V9.76907H13.175ZM13.175 19.1871C13.175 20.354 13.6386 21.4732 14.4638 22.2983L17.2922 19.4699C17.2172 19.3949 17.175 19.2932 17.175 19.1871H13.175ZM14.4638 22.2983C15.2889 23.1235 16.4081 23.5871 17.575 23.5871V19.5871C17.469 19.5871 17.3672 19.5449 17.2922 19.4699L14.4638 22.2983ZM17.575 23.5871H23V19.5871H17.575V23.5871ZM25 21.5871V16.8351H21V21.5871H25ZM25 16.8351C25 17.1003 24.8947 17.3546 24.7072 17.5422L21.8787 14.7137C21.3161 15.2764 21 16.0394 21 16.8351H25ZM24.7072 17.5422C24.5196 17.7297 24.2653 17.8351 24 17.8351V13.8351C23.2044 13.8351 22.4413 14.1511 21.8787 14.7137L24.7072 17.5422ZM24 17.8351H26V13.8351H24V17.8351ZM26 17.8351C25.7348 17.8351 25.4805 17.7297 25.2929 17.5422L28.1214 14.7137C27.5588 14.1511 26.7957 13.8351 26 13.8351V17.8351ZM25.2929 17.5422C25.1054 17.3546 25 17.1003 25 16.8351H29C29 16.0394 28.684 15.2764 28.1214 14.7137L25.2929 17.5422ZM25 16.8351V21.5871H29V16.8351H25ZM27 23.5871H32.424V19.5871H27V23.5871ZM32.424 23.5871C33.591 23.5871 34.7102 23.1235 35.5353 22.2983L32.7069 19.4699C32.6319 19.5449 32.5301 19.5871 32.424 19.5871V23.5871ZM35.5353 22.2983C36.3605 21.4732 36.824 20.354 36.824 19.1871H32.824C32.824 19.2932 32.7819 19.3949 32.7069 19.4699L35.5353 22.2983ZM36.824 19.1871V9.77007H32.824V19.1871H36.824ZM36.824 9.76983C36.824 9.16814 36.6882 8.57421 36.4267 8.03228L32.824 9.77031L36.824 9.76983ZM36.4267 8.03228C36.1653 7.49035 35.785 7.01439 35.3141 6.63983L32.824 9.77031L36.4267 8.03228Z" fill="#989898" mask="url(#path-2-inside-1_1342_7936)"/>
</svg>
