<svg width="50" height="41" viewBox="0 0 50 41" fill="none" xmlns="http://www.w3.org/2000/svg">
<path d="M11.2678 31.585H6.41676V30.55H10.9798V30.019H6.41676V29.029H11.1688V28.489H5.76876V32.125H11.2678V31.585ZM12.0868 32.989H4.77876V33.538H8.09976V36.157H8.75676V33.538H12.0868V32.989ZM19.4391 31.126H14.7501V29.128H19.3221V28.579H14.0841V31.675H19.4391V31.126ZM20.3661 32.764H13.0671V33.313H16.3701V36.13H17.0271V33.313H20.3661V32.764ZM22.4894 31.693H25.5044V28.858H21.8054V29.407H24.8474V31.153H21.8234V34.204H22.4894C23.8484 34.204 25.0634 34.141 26.5484 33.916L26.4854 33.358C25.0274 33.592 23.8214 33.655 22.4894 33.655V31.693ZM27.2774 28.093V36.157H27.9344V28.093H27.2774ZM36.5376 32.188C35.2146 31.927 33.5946 30.703 33.5946 29.299V28.678H32.9016V29.299C32.9016 30.703 31.2816 31.927 29.9586 32.188L30.2556 32.737C31.4436 32.449 32.7396 31.576 33.2436 30.379C33.7656 31.576 35.0706 32.449 36.2496 32.737L36.5376 32.188ZM29.6256 34.501V35.05H36.9336V34.501H29.6256ZM44.3579 32.476H39.5159V31.153H44.0969V30.613H39.5159V29.362H44.2769V28.813H38.8499V33.016H44.3579V32.476ZM37.8959 34.546V35.095H45.2039V34.546H37.8959Z" fill="black"/>
<mask id="path-2-inside-1_1342_7948" fill="white">
<path fill-rule="evenodd" clip-rule="evenodd" d="M32.5 2H17.5C17.2348 2 16.9804 2.10536 16.7929 2.29289C16.6054 2.48043 16.5 2.73478 16.5 3V21C16.5 21.2652 16.6054 21.5196 16.7929 21.7071C16.9804 21.8946 17.2348 22 17.5 22H26V17C26 15.622 27.122 14.5 28.5 14.5H33.5V3C33.5 2.73478 33.3946 2.48043 33.2071 2.29289C33.0196 2.10536 32.7652 2 32.5 2Z"/>
</mask>
<path d="M17.5 2V0V2ZM16.5 3H14.5H16.5ZM16.5 21H14.5H16.5ZM26 22V24H28V22H26ZM33.5 14.5V16.5H35.5V14.5H33.5ZM32.5 0H17.5V4H32.5V0ZM17.5 0C16.7044 0 15.9413 0.31607 15.3787 0.87868L18.2071 3.70711C18.0196 3.89464 17.7652 4 17.5 4V0ZM15.3787 0.87868C14.8161 1.44129 14.5 2.20435 14.5 3H18.5C18.5 3.26522 18.3946 3.51957 18.2071 3.70711L15.3787 0.87868ZM14.5 3V21H18.5V3H14.5ZM14.5 21C14.5 21.7956 14.8161 22.5587 15.3787 23.1213L18.2071 20.2929C18.3946 20.4804 18.5 20.7348 18.5 21H14.5ZM15.3787 23.1213C15.9413 23.6839 16.7044 24 17.5 24V20C17.7652 20 18.0196 20.1054 18.2071 20.2929L15.3787 23.1213ZM17.5 24H26V20H17.5V24ZM28 22V17H24V22H28ZM28 17C28 16.7266 28.2266 16.5 28.5 16.5V12.5C26.0174 12.5 24 14.5174 24 17H28ZM28.5 16.5H33.5V12.5H28.5V16.5ZM35.5 14.5V3H31.5V14.5H35.5ZM35.5 3C35.5 2.20435 35.1839 1.44129 34.6213 0.87868L31.7929 3.70711C31.6054 3.51957 31.5 3.26521 31.5 3H35.5ZM34.6213 0.87868C34.0587 0.316069 33.2956 0 32.5 0V4C32.2348 4 31.9804 3.89464 31.7929 3.70711L34.6213 0.87868Z" fill="#989898" mask="url(#path-2-inside-1_1342_7948)"/>
<path fill-rule="evenodd" clip-rule="evenodd" d="M27.5 17V22L33.5 16H28.5C28.2348 16 27.9804 16.1054 27.7929 16.2929C27.6054 16.4804 27.5 16.7348 27.5 17Z" fill="#989898"/>
</svg>
