<svg width="50" height="41" viewBox="0 0 50 41" fill="none" xmlns="http://www.w3.org/2000/svg">
<path d="M11.4028 31.369H6.79476V30.748H11.1418V29.848H6.79476V29.245H11.3218V28.309H5.61576V32.305H11.4028V31.369ZM12.1858 32.899H4.67976V33.862H7.82976V36.283H9.01776V33.862H12.1858V32.899ZM19.6101 30.919H15.1281V29.371H19.5201V28.426H13.9131V31.864H19.6101V30.919ZM20.4741 32.674H12.9591V33.637H16.1001V36.265H17.2881V33.637H20.4741V32.674ZM22.9034 31.891H25.5944V28.687H21.6794V29.632H24.3794V30.955H21.6884V34.366H22.4354C23.9384 34.366 25.1534 34.312 26.5034 34.078L26.3774 33.115C25.2074 33.313 24.1634 33.376 22.9034 33.385V31.891ZM26.9534 27.976V36.292H28.1414V27.976H26.9534ZM36.7716 31.891C34.8996 31.567 33.8736 30.28 33.8736 29.065V28.471H32.6046V29.065C32.6046 30.253 31.5696 31.567 29.7066 31.891L30.2106 32.881C31.6506 32.602 32.7036 31.792 33.2346 30.739C33.7656 31.792 34.8276 32.593 36.2676 32.881L36.7716 31.891ZM29.5266 34.303V35.266H37.0326V34.303H29.5266ZM44.5109 32.26H39.8939V31.333H44.2589V30.415H39.8939V29.542H44.4479V28.588H38.6879V33.196H44.5109V32.26ZM37.8059 34.357V35.32H45.3119V34.357H37.8059Z" fill="#FFD600"/>
<path fill-rule="evenodd" clip-rule="evenodd" d="M32.5 2H17.5C17.2348 2 16.9804 2.10536 16.7929 2.29289C16.6054 2.48043 16.5 2.73478 16.5 3V21C16.5 21.2652 16.6054 21.5196 16.7929 21.7071C16.9804 21.8946 17.2348 22 17.5 22H26V17C26 15.622 27.122 14.5 28.5 14.5H33.5V3C33.5 2.73478 33.3946 2.48043 33.2071 2.29289C33.0196 2.10536 32.7652 2 32.5 2Z" fill="#FFD600"/>
<path fill-rule="evenodd" clip-rule="evenodd" d="M27.5 17V22L33.5 16H28.5C28.2348 16 27.9804 16.1054 27.7929 16.2929C27.6054 16.4804 27.5 16.7348 27.5 17Z" fill="#FFD600"/>
</svg>
