<svg width="70" height="70" viewBox="0 0 70 70" fill="none" xmlns="http://www.w3.org/2000/svg">
<path d="M47.1715 15.5506C48.9286 15.7447 50.2857 16.9188 50.6049 18.6304C51.109 21.3343 51.7083 26.4513 51.7083 35.5C51.7083 43.6207 51.4401 48.5748 51.1827 51.4599C50.9864 53.6598 49.3289 55.2912 47.0951 55.5005C44.4498 55.7483 40.2006 56 33.8541 56C27.5076 56 23.2585 55.7483 20.6132 55.5005C18.3793 55.2912 16.7219 53.6598 16.5256 51.4599C16.2681 48.5748 16 43.6207 16 35.5C16 27.3793 16.2681 22.4252 16.5256 19.5401C16.7219 17.3402 18.3793 15.7088 20.6132 15.4995C23.2585 15.2517 27.5076 15 33.8541 15C40.6378 15 44.7914 15.2876 47.1715 15.5506Z" fill="#DDDDDD"/>
<path d="M23.9352 15.2526V55.7473C22.6244 55.6715 21.5238 55.5858 20.6132 55.5005C18.3793 55.2912 16.7219 53.6598 16.5256 51.4599C16.2681 48.5748 16 43.6207 16 35.5C16 27.3793 16.2681 22.4252 16.5256 19.5401C16.7219 17.3402 18.3793 15.7088 20.6132 15.4995C21.5238 15.4142 22.6244 15.3284 23.9352 15.2526Z" fill="#B9B9B9"/>
<path d="M27.9028 24.3371C27.9028 23.5909 28.4732 22.975 29.2304 22.9371C30.4241 22.8773 32.5112 22.8095 35.8379 22.8095C39.1647 22.8095 41.2517 22.8773 42.4455 22.9371C43.2026 22.975 43.7731 23.5909 43.7731 24.3371V25.1868C43.7731 25.9329 43.2026 26.5488 42.4455 26.5867C41.2517 26.6465 39.1647 26.7143 35.8379 26.7143C32.5112 26.7143 30.4241 26.6465 29.2304 26.5867C28.4732 26.5488 27.9028 25.9329 27.9028 25.1868V24.3371Z" fill="#B9B9B9"/>
<path d="M27.9028 32.1466C27.9028 31.4005 28.4726 30.7777 29.2292 30.7299C30.0987 30.6749 31.3529 30.619 32.8622 30.619C34.3716 30.619 35.6258 30.6749 36.4953 30.7299C37.2518 30.7777 37.8217 31.4005 37.8217 32.1466V32.9963C37.8217 33.7424 37.2518 34.3651 36.4953 34.413C35.6258 34.468 34.3716 34.5238 32.8622 34.5238C31.3529 34.5238 30.0987 34.468 29.2292 34.413C28.4726 34.3651 27.9028 33.7424 27.9028 32.9963V32.1466Z" fill="#B9B9B9"/>
<path d="M56.8379 39.3061C58.3874 37.7811 58.3874 35.3088 56.8379 33.7839L53.7923 30.7865C52.2429 29.2616 49.7308 29.2616 48.1813 30.7865L37 41.7909C36.2559 42.5232 35.8379 43.5163 35.8379 44.5519L35.8379 49.5016C35.8379 50.5799 36.7261 51.454 37.8217 51.454H42.851C43.9033 51.454 44.9125 51.0426 45.6565 50.3103L56.8379 39.3061Z" fill="#B9B9B9"/>
</svg>
