<svg width="48" height="48" viewBox="0 0 48 48" fill="none" xmlns="http://www.w3.org/2000/svg">
<path d="M31.5 22C26.966 22 24.2302 22.184 22.6435 22.3623C21.3925 22.5029 20.4752 23.4066 20.3196 24.6558C20.1569 25.9616 20 27.999 20 31C20 34.001 20.1569 36.0383 20.3196 37.3442C20.4752 38.5934 21.3954 39.4975 22.6464 39.638C23.8038 39.768 25.5718 39.9009 28.2017 39.9633C28.917 39.9803 29.6077 40.2447 30.1443 40.7179L33.0414 43.2727C33.9096 44.0384 35.2812 43.5737 35.5052 42.4379L35.8466 40.7061C35.9365 40.2504 36.3302 39.9171 36.7943 39.8966C38.3636 39.8273 39.519 39.7318 40.3552 39.6378C41.6062 39.4973 42.5248 38.5934 42.6804 37.3442C42.8431 36.0384 43 34.001 43 31C43 27.999 42.8431 25.9616 42.6804 24.6558C42.5248 23.4066 41.6075 22.5029 40.3565 22.3623C38.7698 22.184 36.034 22 31.5 22Z" fill="#3E83EC"/>
<path d="M21 4C14.6095 4 10.6354 4.24165 8.24637 4.48737C6.20573 4.69726 4.72045 6.21098 4.48557 8.24889C4.24047 10.3755 4 13.5866 4 18C4 22.4134 4.24047 25.6245 4.48557 27.7511C4.72045 29.789 6.20731 31.303 8.24795 31.5128C9.25005 31.6158 10.5309 31.7181 12.1518 31.8022C12.6394 31.8275 13.0435 32.198 13.1029 32.6827L13.3706 34.8657C13.625 36.9414 16.1637 37.8059 17.632 36.3169L21.014 32.8874C21.5751 32.3184 22.3429 31.9978 23.142 31.9905C28.2977 31.9435 31.644 31.7296 33.754 31.5126C35.7946 31.3027 37.2796 29.789 37.5144 27.7511C37.7595 25.6245 38 22.4134 38 18C38 13.5866 37.7595 10.3755 37.5144 8.24889C37.2796 6.21098 35.7943 4.69726 33.7536 4.48737C31.3646 4.24165 27.3905 4 21 4Z" fill="#AECFFF"/>
<path d="M12 14C12 12.8954 12.8954 12 14 12H28C29.1046 12 30 12.8954 30 14C30 15.1046 29.1046 16 28 16H14C12.8954 16 12 15.1046 12 14Z" fill="#3E83EC"/>
<path d="M12 23C12 21.8954 12.8954 21 14 21H22C23.1046 21 24 21.8954 24 23C24 24.1046 23.1046 25 22 25H14C12.8954 25 12 24.1046 12 23Z" fill="#3E83EC"/>
</svg>
